<svg xmlns="http://www.w3.org/2000/svg" shape-rendering="crispEdges" width="64" height="64">
  <g class="gotchi-handsDownOpen">
    <g class="gotchi-primary" fill="#64438e">
      <path d="M14 40h1v1h-1v-1zm-1-6h1v1h-1v-1z"/>
      <path d="M14 33h1v1h-1v-1zm-2 2h1v1h-1v-1zm-5 3h1v4H7v-4zm5 3h2v1h-2v-1z"/>
      <path d="M8 42h4v1H8v-1zm0-5h2v1H8v-1z"/>
      <path d="M10,36h2v1h-2V36z"/>
    </g>
    <g class="gotchi-secondary" fill="#edd3fd">
      <path d="M14,39h1v1h-1V39z"/>
      <path d="M12,40h2v1h-2V40z"/>
      <path d="M8,41h4v1H8V41z"/>
    </g>
    <path d="M8,38v3h4v-1h2v-1h1v-5h-1v1h-1v1h-1v1h-2v1H8z" fill="#fff"/>
    
    <g class="gotchi-primary" fill="#64438e">
      <path d="M49 40h1v1h-1v-1zm1-6h1v1h-1v-1z"/>
      <path d="M49 33h1v1h-1v-1zm2 2h1v1h-1v-1zm5 3h1v4h-1v-4zm-6 3h2v1h-2v-1z"/>
      <path d="M52 42h4v1h-4v-1zm2-5h2v1h-2v-1z"/>
      <path d="M52,36h2v1h-2V36z"/>
    </g>
    <g class="gotchi-secondary" fill="#edd3fd">
      <path d="M49,39h1v1h-1V39z"/>
      <path d="M50,40h2v1h-2V40z"/>
      <path d="M52,41h4v1h-4V41z"/>
    </g>
    <path d="M54,38v-1h-2v-1h-1v-1h-1v-1h-1v5h1v1h2v1h4v-3H54z" fill="#fff"/>
  </g>
</svg>
