<?xml version="1.0" encoding="utf-8"?>
<!-- Svg Vector Icons : http://www.onlinewebfonts.com/icon -->
<!DOCTYPE svg PUBLIC "-//W3C//DTD SVG 1.1//EN" "http://www.w3.org/Graphics/SVG/1.1/DTD/svg11.dtd">
<svg version="1.1" xmlns="http://www.w3.org/2000/svg" xmlns:xlink="http://www.w3.org/1999/xlink" x="0px" y="0px" viewBox="0 0 1000 1000" enable-background="new 0 0 1000 1000" xml:space="preserve">
<metadata> Svg Vector Icons : http://www.onlinewebfonts.com/icon </metadata>
<g><g transform="translate(0.000000,511.000000) scale(0.100000,-0.100000)"><path d="M1746.1,3598.3c-195.2-67-333-212.5-396.2-415.3c-28.7-93.8-45.9-114.8-134-174.2c-162.7-107.2-382.8-329.2-493.8-497.7c-199.1-298.6-283.3-562.7-315.8-989.6C394.8,1370.3,322,487.9,243.6-442.3C165.1-1372.5,100-2172.6,100-2222.4c0-151.2,53.6-350.3,135.9-520.6c199.1-400,635.5-669.9,1089.1-669.9c382.8,0,765.6,197.1,985.7,507.2c65.1,90,204.8,390.5,505.3,1077.6c229.7,522.5,421.1,966.6,428.7,985.7c11.5,30.6,19.1,30.6,109.1-15.3c273.7-137.8,570.4-137.8,846,1.9c141.6,72.7,308.2,237.3,382.8,382.8l63.2,122.5H5000h354.1l63.2-122.5c74.6-145.5,241.2-310.1,382.8-382.8c275.6-139.7,572.3-139.7,846-1.9c90,45.9,97.6,45.9,109.1,15.3c7.6-19.1,201-463.2,428.7-985.7c298.6-687.1,440.2-987.7,505.3-1077.6c220.1-310.1,602.9-507.2,985.7-507.2c453.6,0,890,269.9,1089.1,669.9c82.3,168.4,135.9,369.4,135.9,516.8c0,95.7-292.9,3655.9-325.4,3943c-24.9,231.6-120.6,507.2-241.2,712c-114.8,191.4-348.4,442.1-520.6,560.8c-118.7,80.4-134,97.6-162.7,193.3c-63.2,204.8-202.9,348.3-402,417.3c-72.7,24.9-172.3,30.6-491.9,30.6c-319.6,0-419.2-5.7-491.9-30.6c-199.1-68.9-338.8-212.5-402-417.3c-28.7-95.7-44-112.9-157-191.4c-68.9-47.9-168.4-130.2-222-181.8l-93.8-97.6H5000H3610.4l-93.8,97.6c-53.6,51.7-153.1,134-222,181.8c-112.9,78.5-128.2,95.7-156.9,191.4c-63.2,204.8-202.9,348.3-402,417.3C2605.5,3644.2,1872.4,3644.2,1746.1,3598.3z M2412.2,2660.4c122.5-91.9,128.2-109.1,134-503.4l5.7-361.7l361.8-5.8c394.3-5.7,411.5-11.5,505.3-137.8c55.5-74.7,55.5-254.6,0-329.2c-93.8-126.3-111-132.1-505.3-137.8l-361.8-5.7l-5.7-361.8c-5.7-394.3-11.5-411.5-137.8-505.3c-74.6-55.5-254.6-55.5-329.2,0c-126.3,93.8-132.1,111-137.8,505.3l-5.7,361.8l-361.8,5.7c-329.2,5.7-365.6,9.6-413.4,45.9c-101.4,74.6-132.1,135.9-132.1,256.5s30.6,181.8,132.1,256.5c47.9,36.4,84.2,40.2,415.4,45.9l361.8,5.8v333c0,189.5,9.6,356,21.1,386.6c26.8,70.8,90,137.8,160.8,170.4C2195.9,2721.6,2347.1,2708.2,2412.2,2660.4z M7876.8,2685.3c197.1-82.3,245-338.8,91.9-491.9c-214.4-216.3-566.6-23-511,279.4C7492.1,2652.7,7702.7,2759.9,7876.8,2685.3z M6958.1,1766.5c197.1-82.3,245-338.8,91.9-491.9c-214.4-216.3-566.6-23-511,279.4C6573.4,1734,6783.9,1841.2,6958.1,1766.5z M8795.6,1766.5c197.1-82.3,245-338.8,91.9-491.9c-214.4-216.3-566.6-23-511,279.4C8410.9,1734,8621.4,1841.2,8795.6,1766.5z M7876.8,847.8c197.1-82.3,245-338.8,91.9-491.9c-214.4-216.3-566.6-23-511,279.4C7492.1,815.2,7702.7,922.4,7876.8,847.8z M4064,489.8c128.2-68.9,187.6-130.2,262.2-273.7c42.1-82.3,49.8-122.5,51.7-260.3c0-149.3-5.7-172.3-65.1-283.3c-72.7-134-132.1-191.4-277.5-268c-84.2-44-120.6-51.7-260.3-49.8c-191.4,0-308.2,45.9-430.7,170.3C3218-348.5,3172.1-235.6,3174-44.2c0,191.4,45.9,308.2,170.4,430.7C3535.7,577.9,3820.9,618.1,4064,489.8z M6412.6,537.7c145.5-47.9,268-151.2,346.5-294.8c63.2-114.8,68.9-135.9,68.9-287.1c-1.9-147.4-7.7-174.2-65.1-283.3c-72.7-134-134-193.3-277.5-268c-82.3-42.1-122.5-49.8-260.3-51.7c-151.2,0-170.4,3.8-287.1,68.9c-264.1,145.5-386.6,446-294.8,719.7C5754.1,466.9,6091,641,6412.6,537.7z"/></g></g>
</svg>