<?xml version="1.0" encoding="utf-8"?>
<!-- Generator: Adobe Illustrator 25.3.1, SVG Export Plug-In . SVG Version: 6.00 Build 0)  -->
<svg version="1.1" id="Layer_1" xmlns="http://www.w3.org/2000/svg" xmlns:xlink="http://www.w3.org/1999/xlink" x="0px" y="0px"
	 viewBox="0 0 12 9" style="enable-background:new 0 0 12 9;" xml:space="preserve">
<style type="text/css">
	.st0{fill:#824EE2;}
</style>
<path class="st0" d="M11.2,4.5V3.8h-0.8V3H9.8V2.2H7.5V3H6.8v0.8H5.2v0.8H4.5v0.8H2.2V4.5H1.5V2.2h0.8V1.5h2.2v0.8h0.8V3H6V1.5H5.2
	V0.8H4.5V0H2.2v0.8H1.5v0.8H0.8v0.8H0v2.2h0.8v0.8h0.8V6h0.8v0.8h2.2V6h0.8V5.2h1.5V4.5h0.8V3.8h2.2v0.8h0.8v2.2H9.8v0.8H7.5V6.8
	H6.8V6H6v1.5h0.8v0.8h0.8V9h2.2V8.2h0.8V7.5h0.8V6.8H12V4.5H11.2z"/>
</svg>
