<svg xmlns="http://www.w3.org/2000/svg" viewBox="0 0 64 64"><g class="gotchi-wearable wearable-bg"><svg x="0" y="0"><path fill="#9325ee" d="M 0 0 v 64 h 64 V 0 H 0 Z" /><g fill="#a948eb"><path d="M 31 21 h 1 v 1 h -1 Z m 0 -7 h 1 v 1 h -1 Z m 1 4 h 1 v 1 h -1 Z M 9 20 h 1 v 1 H 9 Z m 2 -2 h 1 v 1 h -1 Z m 3 -14 h 1 v 1 h -1 Z m -1 9 h 1 v 1 h -1 Z m -2 -3 h 1 v 1 h -1 Z m 7 1 h 1 v 1 h -1 Z m -7 -5 h 1 v 1 h -1 Z m 5 3 h 1 v 1 h -1 Z m 4 0 h 1 v 1 h -1 Z M 9 3 h 1 v 1 H 9 Z m 0 -2 h 1 v 1 H 9 Z m 3 21 h 1 v 1 h -1 Z" /><path d="M 13 21 h 1 v 1 h -1 Z M 9 5 h 1 v 1 H 9 Z m 10 -2 h 1 v 1 h -1 Z m -7 0 h 1 v 1 h -1 Z m -1 -2 h 1 v 1 h -1 Z M 8 0 h 1 v 1 H 8 Z M 6 10 h 1 v 1 H 6 Z m -2 0 h 1 v 1 H 4 Z" /><path d="M 8 6 h 1 v 1 H 8 Z M 6 20 h 1 v 1 H 6 Z m 1 -5 h 1 v 1 H 7 Z m -1 7 h 1 v 1 H 6 Z m 2 -4 h 1 v 1 H 8 Z m -2 6 h 1 v 1 H 6 Z M 6 0 h 1 v 1 H 6 Z m 2 12 h 1 v 1 H 8 Z" /><path d="M 3 11 h 1 v 1 H 3 Z m 4 8 h 1 v 1 H 7 Z m 2 5 h 1 v -1 H 8 v 2 h 1 v -1 Z m 0 -9 h 1 v 1 H 9 Z m 2 0 h 1 v 1 h -1 Z m -6 6 h 1 v 1 H 5 Z m 1 -7 h 1 v 1 H 6 Z" /><path d="M 5 13 h 1 v 1 H 5 Z m -2 0 h 1 v 1 H 3 Z m 2 -4 h 1 v 1 H 5 Z m 2 0 h 1 v 1 H 7 Z m 0 8 h 1 v 1 H 7 Z M 31 4 h 1 v 1 h -1 Z m 23 19 h 1 v 1 h -1 Z m 0 4 h 1 v 1 h -1 Z M 51 4 h 1 v 1 h -1 Z m 0 6 h 1 v 1 h -1 Z m -4 0 h 1 v 1 h -1 Z m 2 5 h 1 v 1 h -1 Z m 5 -8 h 1 v 1 h -1 Z" /><path d="M 53 8 h 1 v 1 h -1 Z m -4 17 h 1 v 1 h -1 Z m 1 5 h 1 v 1 h -1 Z m 1 -11 h 1 v 1 h -1 Z m 2 -9 h 1 v 1 h -1 Z" /><path d="M 54 11 h 1 v 1 h -1 Z m -6 0 h 1 v 1 h -1 Z m 3 -10 h 1 v 1 h -1 Z m 5 6 h 1 v 1 h -1 Z m 2 -1 h 1 v 1 h -1 Z m 0 -5 h 1 v 1 h -1 Z M 40 2 h 1 v 1 h -1 Z m 16 19 h 1 v 1 h -1 Z" /><path d="M 62 14 h -1 v -1 h -1 v -1 h 1 v -1 h -1 v -1 h -1 V 9 h -1 V 8 h -1 v 1 h -1 V 8 h -1 v 1 h -1 v 1 h 1 v 1 h 1 v 1 h -1 v 1 h 1 v 1 h -1 v 1 h 1 v 1 h -1 v 1 h 1 v 1 h 1 v 1 h -1 v 1 h 1 v 1 h 1 v 1 h -1 v 1 h 1 v 1 h -1 v 1 h 1 v 1 h 1 v 1 h 1 v 1 h 1 v 1 h 1 v 1 h 1 v 1 h 1 V 14 h -1 v -1 h -1 v 1 Z m -10 0 h 1 v 1 h -1 Z" /><path d="M 54 13 h 1 v 1 h -1 Z m 1 5 h 1 v 1 h -1 Z m 7 13 h 1 v 1 h -1 Z m -2 0 h 1 v 1 h -1 Z m -1 -3 h 1 v 1 h -1 Z" /><path d="M 58 27 h 1 v 1 h -1 Z m -2 -2 h 1 v 1 h -1 Z m 7 -13 h 1 v 1 h -1 Z m -2 0 h 1 v 1 h -1 Z m -6 8 h 1 v 1 h -1 Z m 1 3 h 1 v 1 h -1 Z m -2 -8 h 1 v 1 h -1 Z m 5 -7 h 1 v 1 h -1 Z m 4 1 h 1 v 1 h -1 Z m -2 1 h 1 v 1 h -1 Z" /><path d="M 60 9 h 1 v 1 h -1 Z m 1 -4 h 1 v 1 h -1 Z m -6 0 h 1 v 1 h -1 Z m 5 -3 h 1 v 1 h -1 Z m -3 24 h 1 v 1 h -1 Z m 0 3 h 1 v 1 h -1 Z m 3 0 h 1 v 1 h -1 Z" /><path d="M 61 30 h 1 v 1 h -1 Z m -8 21 h 1 v 1 h -1 Z m 1 5 h 1 v 1 h -1 Z" /><path d="M 53 55 h 1 v 1 h -1 Z m -4 -18 h 1 v 1 h -1 Z m 3 5 h 1 v 1 h -1 Z m 0 -5 h 1 v 1 h -1 Z m -2 3 h 1 v 1 h -1 Z m 2 -1 h 1 v 1 h -1 Z" /><path d="M 49 41 h 1 v 1 h -1 Z m 4 -8 h 1 v 1 h -1 Z m -4 0 h 1 v 1 h -1 Z m 2 20 h 1 v 1 h -1 Z" /><path d="M 52 54 h 1 v 1 h -1 Z m 0 -2 h 1 v 1 h -1 Z m 11 -12 h 1 v 1 h -1 Z m -3 -5 h 1 v 1 h -1 Z m -1 8 v 1 h 1 v -2 h -2 v 1 h 1 Z m 4 -5 h 1 v 1 h -1 Z m -5 14 h 1 v 1 h -1 Z m -2 -4 h 1 v 1 h -1 Z m -2 0 h 1 v 1 h -1 Z m 6 -1 h 1 v 1 h -1 Z m -2 -1 h 1 v 1 h -1 Z m 1 10 h 1 v 1 h -1 Z m -3 0 h 1 v 1 h -1 Z m 2 4 h 1 v 1 h -1 Z m 5 -1 h 1 v 1 h -1 Z m -3 1 h 1 v 1 h -1 Z" /><path d="M 60 58 h 1 v 1 h -1 Z m -4 0 h 1 v 1 h -1 Z m 2 -26 v 1 h 2 v -1 h -2 Z m 5 23 h 1 v 1 h -1 Z m -6 -8 h 1 v 1 h -1 Z m 5 -8 h 1 v 1 h -1 Z" /><path d="M 55 39 h 1 v 1 h -1 Z m 7 22 h -1 v 1 h -1 v -1 h -1 v 1 h -1 v -1 h -1 v -1 h -1 v -1 h -1 v -1 h -1 v -1 h -1 v -1 h -1 v -1 h -1 v -1 h -1 v -1 h 1 v -1 h 1 v -1 h 1 v -1 h -1 v -1 h 1 v -1 h 1 v -1 h 1 v 1 h 1 v -1 h 1 v -1 h 1 v -1 h 1 v -1 h -1 v -1 h -1 v -1 h -1 v 1 h -1 v -1 h -1 v 1 h -1 v 1 h -1 v -1 h -1 v -1 h -1 v 1 h -1 v -1 h -1 v 1 h -2 v 1 h -1 v -1 h 1 v -1 h 2 v -1 h -1 v -1 h 1 v -1 h -1 v -1 h 1 v -1 h -1 v -1 h -1 v -1 h -1 v -1 h -1 v -1 h -1 v 1 h -1 v -1 h -1 v 1 h -1 v -1 h -1 v -1 h -1 v -1 h 1 v -1 h -1 v -1 h -1 v -1 h -1 v 1 h -1 v -1 h 1 v -1 h 1 v -1 h -1 v -1 h -1 v -1 h -1 v -1 h -1 v 1 h -1 v 1 h -1 v 1 h -1 v 1 h 1 v 1 h 1 v 1 h -1 v 1 h -1 v -1 h -1 v -1 h -1 v 1 h -1 v -1 h -1 v 1 h -1 v -1 h -1 v 1 h -1 v -1 h -1 v -1 h 1 v -1 h 1 v -1 h 1 v 1 h 1 v -1 h 1 v -1 h -1 v -1 h 1 v -1 h -1 v -1 h -1 v -1 h -1 v 1 h -1 v -1 h -1 v 1 h -1 v -1 h -1 v 1 h -1 v 1 h -1 v -1 h -1 v 1 h -1 v 1 h -1 v -1 h -1 v 1 h -1 v 1 h -1 v -1 h -1 v 1 h -1 v 1 H 9 v 1 H 8 v -1 H 7 v 1 H 6 v -1 H 5 v -1 h 1 v -1 H 5 v -1 H 4 v -1 h 1 v -1 h 1 v -1 h 1 v -1 H 6 v -1 h 1 v -1 H 6 v -1 H 5 v -1 H 4 v 1 H 3 v -1 H 2 v -1 h 1 v -1 H 2 v -1 h 1 v -1 h 1 V 9 h 1 V 8 h 1 v 1 h 1 V 8 h 1 V 7 H 7 V 6 h 1 V 5 h 1 V 4 H 8 V 3 h 1 V 2 H 8 V 1 H 7 v 1 H 6 V 1 H 5 V 0 H 0 v 64 h 64 v -3 h -1 v -1 h -1 v 1 Z" /><path d="M 57 59 h 1 v 1 h -1 Z m 0 -5 h 1 v 1 h -1 Z m -2 -1 h 1 v 1 h -1 Z m 2 -12 h 1 v 1 h -1 Z m 3 0 h 1 v 1 h -1 Z m -5 0 h 1 v 1 h -1 Z m 2 -4 h 1 v 1 h -1 Z m -2 20 h 1 v 1 h -1 Z m 3 -8 h 1 v 1 h -1 Z m -5 0 h 1 v 1 h -1 Z M 21 19 h 1 v 1 h -1 Z m -2 -2 h 1 v 1 h -1 Z m -1 3 h 1 v 1 h -1 Z m 8 0 h 1 v 1 h -1 Z m -6 -5 h 1 v 1 h -1 Z m 4 1 h 1 v 1 h -1 Z" /><path d="M 30 22 h 1 v 1 h -1 Z m -5 -3 h 1 v 1 h -1 Z" /><path d="M 23 19 h 1 v 1 h -1 Z m 8 4 h 1 v 1 h -1 Z" /><path d="M 30 24 h 1 v 1 h -1 Z" /><path d="M 29 23 h 1 v 1 h -1 Z m -2 0 h 1 v 1 h -1 Z m 2 4 h 1 v 1 h -1 Z" /><path d="M 30 28 h 1 v 1 h -1 Z m -3 -7 h 1 v 1 h -1 Z m -4 -8 h 1 v 1 h -1 Z m 6 12 h 1 v 1 h -1 Z m 15 -8 h 1 v 1 h -1 Z m -8 3 h 1 v 1 h -1 Z m -2 2 h 1 v 1 h -1 Z m 2 2 h 1 v 1 h -1 Z" /><path d="M 35 23 h 1 v 1 h -1 Z m 4 8 h 1 v 1 h -1 Z m -2 -17 h 1 v 1 h -1 Z m -1 3 h 1 v 1 h -1 Z" /><path d="M 42 32 h 1 v 1 h -1 Z m 2 0 h 1 v 1 h -1 Z m -4 0 h 1 v 1 h -1 Z m 6 -10 h 1 v 1 h -1 Z m -1 8 h 1 v 1 h -1 Z m 1 -2 h 1 v 1 h -1 Z m 0 4 h 1 v 1 h -1 Z m 0 2 h 1 v 1 h -1 Z" /><path d="M 45 33 h 1 v 1 h -1 Z M 16 20 h 1 v 1 h -1 Z m -1 -2 h 1 v 1 h -1 Z m 1 -3 h 1 v 1 h -1 Z" /><path d="M 15 21 h 1 v 1 h -1 Z M 26 9 h 1 v 1 h -1 Z m 2 9 h 1 v 1 h -1 Z m 0 8 h 1 v 1 h -1 Z" /><path d="M 24 26 h 1 v 1 h -1 Z m 3 1 h 1 v 1 h -1 Z" /><path d="M 25 27 h 1 v 1 h -1 Z m -2 0 h 1 v 1 h -1 Z m 2 -17 h 1 v 1 h -1 Z m 17 16 h 1 v 1 h -1 Z m -10 -4 h 1 v 1 h -1 Z m 6 6 h 1 v 1 h -1 Z m 2 -1 h 1 v 1 h -1 Z m 0 3 h 1 v 1 h -1 Z" /><path d="M 38 24 h 2 v -1 h -2 v 1 Z m -1 3 h 1 v 1 h -1 Z m -4 -6 h 1 v 1 h -1 Z m 4 4 h 1 v 1 h -1 Z m 2 4 h 1 v 1 h -1 Z m 9 7 h 1 v 1 h -1 Z m 0 4 h 1 v 1 h -1 Z m 0 -2 h 1 v 1 h -1 Z" /><path d="M 47 35 h 1 v 1 h -1 Z" /><path d="M 48 34 h 1 v 1 h -1 Z" /><path d="M 47 33 h 1 v 1 h -1 Z" /></g><g fill="#e796e7"><path d="M 11 10 h 1 v 1 h -1 Z m 7 1 h 1 v 1 h -1 Z m -2 -2 h 1 v 1 h -1 Z m 4 0 h 1 v 1 h -1 Z m -7 20 h 1 v 1 h -1 Z m -2 -2 h 1 v 1 h -1 Z" /><path d="M 12 28 h 1 v 1 h -1 Z m 7 -25 h 1 v 1 h -1 Z m -7 0 h 1 v 1 h -1 Z M 1 0 h 1 v 1 H 1 Z m 3 3 h 1 v 1 H 4 Z M 0 9 h 1 v 1 H 0 Z m 4 -3 h 1 v 1 H 4 Z m -4 6 h 1 v 1 H 0 Z m 0 8 h 1 v 1 H 0 Z m 4 5 h 1 v 1 H 4 Z m -3 -2 h 1 v 1 H 1 Z m 7 0 h 1 v 1 H 8 Z m -7 -7 h 1 v 1 H 1 Z m 10 -1 h 1 v 1 h -1 Z M 3 27 h 1 v 1 H 3 Z M 2 5 h 1 v 1 H 2 Z m 1 12 h 1 v 1 H 3 Z M 31 4 h 1 v 1 h -1 Z m 23 23 h 1 v 1 h -1 Z m -5 -12 h 1 v 1 h -1 Z m 0 10 h 1 v 1 h -1 Z m 2 -24 h 1 v 1 h -1 Z m 7 0 h 1 v 1 h -1 Z M 40 2 h 1 v 1 h -1 Z m 20 20 h 1 v 1 h -1 Z m -2 -8 h 1 v 1 h -1 Z m 0 4 h 1 v 1 h -1 Z m 5 7 h 1 v 1 h -1 Z" /><path d="M 58 11 h 1 v 1 h -1 Z m 1 8 h 1 v 1 h -1 Z m 3 5 h 1 v 1 h -1 Z" /><path d="M 61 23 h 1 v 1 h -1 Z m -1 -7 h 1 v 1 h -1 Z m -3 -6 h 1 v 1 h -1 Z m 3 -8 h 1 v 1 h -1 Z" /><path d="M 61 26 h 1 v 1 h -1 Z m 2 -9 v 1 h -1 v -1 h -1 v 1 h -1 v 1 h 1 v 1 h -1 v 1 h 1 v 1 h 1 v 1 h 1 v 1 h 1 v -7 h -1 Z" /></g><path fill="#be72e9" d="M 54 61 h 1 v 1 h -1 Z" /><g fill="#e796e7"><path d="M 50 48 h 1 v 1 h -1 Z m -2 10 h 1 v 1 h -1 Z m -2 3 h 1 v 1 h -1 Z m -1 1 h -1 v 1 h -1 v -1 h -1 v -1 h -1 v -1 h -1 v -1 h -1 v -1 h -1 v -1 h 1 v -1 h 1 v -1 h -1 v -1 h 1 v -1 h -1 v -1 h 1 v -1 h -1 v -1 h 1 v -1 h -1 v -1 h -1 v -1 h 1 v -1 h -1 v -1 h -1 v -1 h 1 v -1 h -1 v -1 h -1 v -1 h -1 v -1 h -1 v -1 h -1 v -1 h -1 v -1 h -1 v 1 h -1 v -1 h -1 v 1 h -1 v -1 h -1 v 1 h -1 v 1 h -1 v -1 h -1 v 1 h -1 v -1 h -1 v 1 h -1 v -1 h -1 v -1 h -1 v -1 h -1 v -1 h -1 v -1 h -1 v -1 h -1 v -1 h -1 v -1 h -1 v -1 h -1 v -1 h -1 v -1 h -1 v 1 H 9 v -1 H 8 v 1 H 7 v -1 H 6 v 1 H 5 v -1 H 4 v 1 H 3 v -1 H 0 v 36 h 46 v -1 h -1 v -1 Z m 6 0 h 1 v 1 h -1 Z m 1 -4 h 1 v 1 h -1 Z m -3 5 h 1 v 1 h -1 Z m -2 0 h 1 v 1 h -1 Z" /><path d="M 43 55 h 1 v 1 h -1 Z m 16 -13 h 1 v 1 h -1 Z m -3 2 h 1 v 1 h -1 Z m -2 0 h 1 v 1 h -1 Z m -2 4 h 1 v 1 h -1 Z m 8 -1 h 1 v 1 h -1 Z m -8 -1 h 1 v 1 h -1 Z M 40 56 h 1 v 1 h -1 Z" /><path d="M 40 58 h 1 v 1 h -1 Z m 19 -26 h 1 v 1 h -1 Z m 4 23 h 1 v 1 h -1 Z m -10 -8 h 1 v 1 h -1 Z m -2 0 h 1 v 1 h -1 Z m 12 16 h 1 v 1 h -1 Z m -6 -9 h 1 v 1 h -1 Z m -4 -9 h 1 v 1 h -1 Z" /><path d="M 55 45 h 1 v 1 h -1 Z m 3 4 h 1 v 1 h -1 Z M 41 59 h 1 v 1 h -1 Z m 2 0 h 1 v 1 h -1 Z m 0 2 h 1 v 1 h -1 Z" /><path d="M 42 60 h 1 v 1 h -1 Z M 22 31 h 1 v 1 h -1 Z m -2 -9 h 1 v 1 h -1 Z m -1 5 h 1 v 1 h -1 Z m 1 4 h 1 v 1 h -1 Z m 0 -7 h 1 v 1 h -1 Z m 0 -9 h 1 v 1 h -1 Z m 3 7 h 1 v 1 h -1 Z m 4 7 h 1 v 1 h -1 Z m 17 -12 h 1 v 1 h -1 Z M 32 27 h 1 v 1 h -1 Z m 2 3 h 1 v 1 h -1 Z m 3 -16 h 1 v 1 h -1 Z m -4 11 h 1 v 1 h -1 Z m -15 7 h 1 v 1 h -1 Z m 3 3 h 1 v 1 h -1 Z m -2 0 h 1 v 1 h -1 Z m 11 -3 h 1 v 1 h -1 Z m -2 3 h 1 v 1 h -1 Z m -4 0 h 1 v 1 h -1 Z m 1 -2 h 1 v 1 h -1 Z m 19 5 h 1 v 1 h -1 Z" /><path d="M 43 39 h 1 v 1 h -1 Z m 0 2 h 1 v 1 h -1 Z m -2 -5 h 1 v 1 h -1 Z" /><path d="M 42 35 h 1 v 1 h -1 Z m 2 -1 h 1 v 1 h -1 Z m -8 6 h 1 v 1 h -1 Z m -2 -2 h 1 v 1 h -1 Z" /><path d="M 40 38 h 1 v 1 h -1 Z m -2 6 h 1 v 1 h -1 Z m -3 -5 h 1 v 1 h -1 Z m 3 2 h 1 v 1 h -1 Z m -1 -4 h 1 v 1 h -1 Z m -4 0 h 1 v 1 h -1 Z m 6 -3 h 1 v 1 h -1 Z m 7 14 h 1 v 1 h -1 Z m 0 4 h 1 v 1 h -1 Z m -3 -3 h 1 v 1 h -1 Z m 3 -21 h 1 v 1 h -1 Z m -1 9 h 1 v 1 h -1 Z m 0 3 h 1 v 1 h -1 Z m -4 6 h 1 v 1 h -1 Z M 16 15 h 1 v 1 h -1 Z m 0 8 h 1 v 1 h -1 Z m -1 2 h 1 v 1 h -1 Z" /><path d="M 16 26 h 1 v 1 h -1 Z m 0 4 h 1 v 1 h -1 Z M 26 9 h 1 v 1 h -1 Z" /><path d="M 25 10 h 1 v 1 h -1 Z m 15 17 h 1 v 1 h -1 Z m -1 -4 h 1 v 1 h -1 Z m -23 9 h 1 v 1 h -1 Z m 31 14 h 1 v 1 h -1 Z m -6 6 h 1 v 1 h -1 Z m -8 -17 h 1 v 1 h -1 Z m 2 -1 h 1 v 1 h -1 Z m 8 3 h 1 v 1 h -1 Z" /><path d="M 42 38 h 1 v 1 h -1 Z" /><path d="M 41 39 h 1 v 1 h -1 Z m -2 18 h 1 v 1 h -1 Z M 9 27 h 1 v 1 H 9 Z" /></g><g fill="#be72e9"><path d="M 16 9 h 1 v 1 h -1 Z M 4 3 h 1 v 1 H 4 Z M 1 28 h 1 v 1 H 1 Z m 10 -13 h 1 v 1 h -1 Z M 6 29 h 1 v 1 H 6 Z M 3 17 h 1 v 1 H 3 Z m 51 10 h 1 v 1 h -1 Z m -5 -12 h 1 v 1 h -1 Z m 2 -14 h 1 v 1 h -1 Z M 40 2 h 1 v 1 h -1 Z m 21 16 h 1 v 1 h -1 Z m -3 0 h 1 v 1 h -1 Z" /><path d="M 60 2 h 1 v 1 h -1 Z m 3 16 v 1 h -1 v 1 h -1 v 1 h 1 v 1 h 1 v 1 h 1 v -5 h -1 Z M 9 58 h 1 v 1 H 9 Z m 4 -26 h 1 v 1 h -1 Z" /><path d="M 14 33 h 1 v 1 h -1 Z m 1 23 h 1 v 1 h -1 Z" /><path d="M 14 57 h 1 v 1 h -1 Z m -2 0 h 1 v 1 h -1 Z" /><path d="M 11 58 h 1 v 1 h -1 Z M 9 42 h 1 v 1 H 9 Z" /><path d="M 10 43 h 1 v 1 h -1 Z m -6 -2 h 1 v 1 H 4 Z m 4 0 h 1 v 1 H 8 Z M 2 51 h 1 v 1 H 2 Z" /><path d="M 10 47 h 1 v 1 h -1 Z m 0 -2 h 1 v 1 h -1 Z m -7 5 h 1 v 1 H 3 Z M 1 60 h 1 v 1 H 1 Z" /><path d="M 0 59 h 1 v 1 H 0 Z m 5 1 h 1 v 1 H 5 Z M 0 43 h 1 v 1 H 0 Z m 1 9 h 1 v 1 H 1 Z" /><path d="M 0 55 h 1 v 1 H 0 Z m 9 -7 h 1 v 1 H 9 Z M 6 59 h 1 v 1 H 6 Z m -3 1 h 1 v 1 H 3 Z m 8 -14 h 1 v 1 h -1 Z m -5 -5 h 1 v 1 H 6 Z m -3 1 h 1 v 1 H 3 Z M 0 57 h 1 v 1 H 0 Z" /><path d="M 7 58 h 1 v 1 H 7 Z m -3 3 h 1 v 1 H 4 Z m 4 -12 h 1 v 1 H 8 Z m -2 0 h 1 v 1 H 6 Z m 24 6 h 1 v 1 h -1 Z" /><path d="M 31 56 h 1 v 1 h -1 Z m -2 0 h 1 v 1 h -1 Z m 2 2 h 1 v 1 h -1 Z m -2 4 h 1 v 1 h -1 Z" /><path d="M 41 62 v -1 h -1 v -1 h -1 v -1 h -1 v -3 h 1 v -1 h -1 v -1 h 1 v -1 h -1 v -1 h 1 v -1 h -1 v -1 h 1 v -1 h -1 v -1 h -1 v -1 h 1 v -1 h -1 v -1 h -1 v -1 h -1 v -1 h 1 v -1 h -1 v -1 h -1 v -1 h -1 v -1 h -1 v 1 h -1 v -1 h -1 v -1 h -1 v 1 h -1 v 1 h -1 v -1 h -1 v 1 h -1 v -1 h -1 v 1 h -1 v -1 h -1 v 1 h -1 v -1 h -1 v 1 h -1 v -1 h -1 v -1 h -1 v -1 h -1 v 1 h -1 v -1 h 1 v -1 h -1 v -1 h -1 v -1 h -1 v -1 h -1 v -1 h 1 v -1 h -1 v -1 h -1 v -1 h -1 v 1 H 9 v -1 H 8 v 1 H 7 v 1 H 6 v -1 H 5 v -1 H 4 v 1 H 3 v -1 H 2 v 1 H 1 v -1 H 0 v 3 h 1 v 1 H 0 v 9 h 1 v 1 h 1 v -1 h 1 v -1 h 1 v -1 h 1 v 1 h 1 v -1 h 1 v 1 h 1 v -1 h 1 v 1 h 1 v 1 h 1 v 1 h 1 v 1 h -1 v 1 h 1 v 1 h 1 v 1 h -1 v 1 h -1 v 1 h -1 v 1 H 9 v 1 H 8 v -1 H 7 v 1 H 6 v 1 h 1 v 1 H 6 v -1 H 5 v -1 H 4 v 1 H 3 v 1 H 2 v 1 H 1 v 1 h 1 v 1 H 1 v 1 h 1 v 1 H 1 v 1 h 1 v 1 h 1 v -1 h 1 v 1 h 1 v -1 h 1 v -1 h 1 v -1 h 1 v 1 h 1 v -1 h 1 v 1 h 1 v -1 h 1 v -1 h 1 v 1 h 1 v -1 h 1 v -1 h -1 v -1 h 1 v -1 h 1 v -1 h 1 v -1 h -1 v -1 h 1 v -1 h 1 v 1 h 1 v -1 h 1 v -1 h 1 v 1 h 1 v -1 h 1 v 1 h 1 v -1 h 1 v 1 h 1 v -1 h 1 v 1 h 1 v 1 h 1 v 1 h -1 v 1 h 1 v 1 h -1 v 1 h 1 v 1 h 1 v -1 h 1 v 1 h 1 v 1 h 1 v -1 h 1 v 1 h -1 v 1 h -1 v 1 h 1 v 1 h -1 v 1 h -1 v 1 h 1 v 1 h -1 v 1 h -1 v 1 h 9 v -1 h 1 v 1 h 1 v -1 h 1 v -1 h -1 Z m -3 -1 h -1 v -1 h 1 v 1 Z m -1 -4 h -1 v -1 h 1 v 1 Z M 19 47 h -1 v -1 h 1 v 1 Z M 3 33 h 1 v 1 H 3 v -1 Z m 32 16 h -1 v -1 h 1 v 1 Z m -19 -7 h -1 v -1 h 1 v 1 Z m 13 2 h -1 v -1 h 1 v 1 Z m -16 -6 h -1 v -1 h 1 v 1 Z m -9 -2 v -1 h 1 v 1 H 4 Z m 2 1 h 1 v 1 H 6 v -1 Z m 26 13 h 1 v 1 h -1 v -1 Z m 5 4 h -1 v -1 h 1 v 1 Z m 0 -4 h -1 v -1 h 1 v 1 Z m -3 -5 h -1 v -1 h 1 v 1 Z m -3 -3 h -1 v -1 h 1 v 1 Z m -7 -1 v 1 h -1 v -1 h 1 Z m -11 -5 h -1 v -1 h 1 v 1 Z m -2 -5 v 1 h -1 v 1 H 9 v -1 h 1 v -1 h 1 Z M 1 39 h 1 v 1 H 1 v -1 Z m 10 1 h 1 v 1 h -1 v -1 Z m 1 10 v 1 h -1 v -1 h 1 Z m -9 5 h 1 v 1 H 3 v -1 Z m 1 3 v -1 h 1 v 1 H 4 Z m 8 -4 v -1 h 1 v 1 h -1 Z m 13 -7 v -1 h 1 v 1 h -1 Z m 5 4 h 1 v 1 h -1 v -1 Z" /><path d="M 42 63 h 1 v 1 h -1 Z m 8 -15 h 1 v 1 h -1 Z m -2 10 h 1 v 1 h -1 Z m 3 4 h 1 v 1 h -1 Z m 1 -4 h 1 v 1 h -1 Z m -8 5 h 1 v 1 h -1 Z m 15 -21 h 1 v 1 h -1 Z m -3 2 h 1 v 1 h -1 Z m -2 0 h 1 v 1 h -1 Z m -2 4 h 1 v 1 h -1 Z m 8 -1 h 1 v 1 h -1 Z m -8 -1 h 1 v 1 h -1 Z" /><path d="M 53 47 h 1 v 1 h -1 Z m -2 0 h 1 v 1 h -1 Z m 12 16 h 1 v 1 h -1 Z m -6 -9 h 1 v 1 h -1 Z m -4 -9 h 1 v 1 h -1 Z m 2 0 h 1 v 1 h -1 Z M 30 61 h 1 v 1 h -1 Z m -8 -30 h 1 v 1 h -1 Z m -3 -4 h 1 v 1 h -1 Z m 1 -12 h 1 v 1 h -1 Z m 3 7 h 1 v 1 h -1 Z m 4 7 h 1 v 1 h -1 Z m 17 -12 h 1 v 1 h -1 Z M 34 30 h 1 v 1 h -1 Z m 3 -16 h 1 v 1 h -1 Z m -4 11 h 1 v 1 h -1 Z M 18 37 h 1 v 1 h -1 Z" /><path d="M 19 38 h 1 v 1 h -1 Z m 12 0 h 1 v 1 h -1 Z m -4 0 h 1 v 1 h -1 Z m -2 12 h 1 v 1 h -1 Z" /><path d="M 26 49 h 1 v 1 h -1 Z" /><path d="M 27 50 h 1 v 1 h -1 Z m -3 -1 h 1 v 1 h -1 Z m -2 0 h 1 v 1 h -1 Z m 22 -11 h 1 v 1 h -1 Z" /><path d="M 43 39 h 1 v 1 h -1 Z m 0 2 h 1 v 1 h -1 Z m -2 -5 h 1 v 1 h -1 Z" /><path d="M 42 35 h 1 v 1 h -1 Z m 2 -1 h 1 v 1 h -1 Z m -4 4 h 1 v 1 h -1 Z M 27 54 h 1 v 1 h -1 Z m 0 -2 h 1 v 1 h -1 Z m -9 -1 h 1 v 1 h -1 Z" /><path d="M 17 50 h 1 v 1 h -1 Z m 2 0 h 1 v 1 h -1 Z" /><path d="M 17 52 h 1 v 1 h -1 Z m 3 -1 h 1 v 1 h -1 Z" /><path d="M 23 50 h 1 v 1 h -1 Z m -2 0 h 1 v 1 h -1 Z" /><path d="M 20 49 h 1 v 1 h -1 Z m 26 3 h 1 v 1 h -1 Z m 0 -24 h 1 v 1 h -1 Z m -29 8 h 1 v 1 h -1 Z m 28 1 h 1 v 1 h -1 Z m 0 3 h 1 v 1 h -1 Z m -9 3 h 1 v 1 h -1 Z m -8 12 h 1 v 1 h -1 Z m -13 -1 h 1 v 1 h -1 Z" /><path d="M 16 53 h 1 v 1 h -1 Z m 0 -18 h 1 v 1 h -1 Z" /><path d="M 15 34 h 1 v 1 h -1 Z m 28 3 h 1 v 1 h -1 Z" /><path d="M 42 38 h 1 v 1 h -1 Z" /><path d="M 41 39 h 1 v 1 h -1 Z M 5 50 h 1 v 1 H 5 Z" /></g><g fill="#fffff5"><path d="M 18 11 h 1 v 1 h -1 Z m 2 -2 h 1 v 1 h -1 Z M 0 12 h 1 v 1 H 0 Z m 31 -8 h 1 v 1 h -1 Z m 27 -3 h 1 v 1 h -1 Z M 22 63 h 1 v 1 h -1 Z m -1 -7 h 1 v 1 h -1 Z" /><path d="M 22 55 h 1 v 1 h -1 Z m -7 7 h 1 v 1 h -1 Z m 0 -2 h 1 v 1 h -1 Z m 3 -3 h 1 v 1 h -1 Z m -1 5 h 1 v 1 h -1 Z" /><path d="M 18 61 h 1 v 1 h -1 Z m -2 0 h 1 v 1 h -1 Z m 4 -7 h 1 v 1 h -1 Z m -3 5 h 1 v 1 h -1 Z m 3 4 h 1 v 1 h -1 Z m -2 0 h 1 v 1 h -1 Z M 2 48 h 1 v 1 H 2 Z m 4 -3 h 1 v 1 H 6 Z" /><path d="M 2 46 h 1 v 1 H 2 Z m 0 17 h 1 v 1 H 2 Z m 2 0 h 1 v 1 H 4 Z m 21 -1 h 1 v 1 h -1 Z M 7 44 h 1 v 1 H 7 Z m -5 -1 h 1 v 1 H 2 Z m 4 5 h 1 v 1 H 6 Z m -2 -1 h 1 v 1 H 4 Z m 5 -1 h 1 v 1 H 9 Z m -2 0 h 1 v 1 H 7 Z m -3 -1 h 1 v 1 H 4 Z m 19 9 h 1 v 1 h -1 Z m 40 1 h 1 v 1 h -1 Z m -5 -6 h 1 v 1 h -1 Z M 29 59 h 1 v 1 h -1 Z m -10 1 h 1 v 1 h -1 Z" /><path d="M 26 61 h 1 v 1 h -1 Z m 4 -29 h 1 v 1 h -1 Z m -5 20 h 1 v 1 h -1 Z m 21 -4 h 1 v 1 h -1 Z m -22 7 h 1 v 1 h -1 Z m 16 -28 h 1 v 1 h -1 Z" /><path d="M 27 57 h 1 v 1 h -1 Z m -1 1 h -1 v 1 h -1 v -1 h 1 v -1 h -1 v -1 h -1 v 1 h -1 v 1 h -1 v -1 h -1 v 1 h -1 v 1 h 1 v 1 h 1 v 1 h -1 v 1 h 3 v 1 h 1 v -1 h 1 v -1 h 1 v -1 h 1 v -1 h -1 v -1 Z M 5 44 h 1 v 1 H 5 Z m 0 2 h 1 v 1 H 5 Z" /></g><path fill="#e796e7" d="M 61 61 v -4 h -2 v 1 h 1 v 3 h -1 v 1 h 3 v -1 h -1 Z m -4 -2 h -1 v -2 h -1 v 5 h 1 v -2 h 1 v 2 h 1 v -5 h -1 v 2 Z" /></svg></g><style>.gotchi-primary{fill:#FF2A7A;}.gotchi-secondary{fill:#FFC3DF;}.gotchi-cheek{fill:#F696C6;}.gotchi-eyeColor{fill:#5D24BF;}.gotchi-primary-mouth{fill:#FF2A7A;}.gotchi-sleeves-up{display:none;}.gotchi-handsUp{display:none;}.gotchi-handsDownOpen{display:block;}.gotchi-handsDownClosed{display:none;}</style><g class="gotchi-body"><path class="gotchi-primary" d="M 47 14 v -2 h -2 v -2 h -4 V 8 h -4 V 6 H 27 v 2 h -4 v 2 h -4 v 2 h -2 v 2 h -2 v 41 h 4 v -2 h 5 v 2 h 5 v -2 h 6 v 2 h 5 v -2 h 5 v 2 h 4 V 14 Z" /><path class="gotchi-secondary" d="M 45 14 v -2 h -4 v -2 h -4 V 8 H 27 v 2 h -4 v 2 h -4 v 2 h -2 v 39 h 2 v -2 h 5 v 2 h 5 v -2 h 6 v 2 h 5 v -2 h 5 v 2 h 2 V 14 Z" /><path fill="#fff" d="M 18 49 h 2 v -1 h 2 v 1 h 2 v 2 h 5 v -2 h 2 v -1 h 2 v 1 h 2 v 2 h 5 v -2 h 2 v -1 h 2 v 1 h 1 V 14 h -4 v -2 h -4 v -2 h -5 V 9 h -5 v 2 h -4 v 2 h -4 v 2 h -1 V 49 Z" /></g><path class="gotchi-cheek" d="M 21 32 v 2 h 2 v -2 h -1 Z m 21 0 h -1 v 2 h 2 v -2 Z" /><g class="gotchi-primary-mouth"><path d="M 29 32 h -2 v 2 h 2 v -1 Z" /><path d="M 33 34 h -4 v 2 h 6 v -2 h -1 Z" /><path d="M 36 32 h -1 v 2 h 2 v -2 Z" /></g><g class="gotchi-shadow"><path opacity="0.25" fill="#000" d="M 25 58 H 19 v 1 h 1 v 1 h 24 V 59 h 1 V 58 h -1 Z" /></g>,<g class="gotchi-collateral"><path fill="#ffc2db" d="M 30 9 V 8 h -1 v 1 h -1 v 2 h 1 v 1 h 2 V 9 Z" /><path fill="#ffdeec" d="M 28 7 V 6 h -1 v 2 h 2 V 7 Z" /><path fill="#fff" d="M 26 5 h 1 v 1 h -1 Z" /><path fill="#ff88b8" d="M 33 13 v -2 h -1 v 1 h -1 v 1 h -2 v 1 h 1 v 1 h 4 v -2 Z" /><g fill="#ff3085"><path d="M 27 5 V 4 h -1 V 3 h -1 v 3 h 1 V 5 Z" /><path d="M 27 5 h 1 v 1 h -1 Z" /><path d="M 28 6 h 1 v 1 h -1 Z" /><path d="M 29 7 h 1 v 1 h -1 Z" /><path d="M 30 8 h 1 v 1 h -1 Z m -2 1 h 1 V 8 h -2 v 3 h 1 Z" /><path d="M 31 13 v -1 h -2 v -1 h -1 v 3 h 1 v -1 Z" /><path d="M 31 12 h 1 v -1 h 1 v -1 h -1 V 9 h -1 Z" /><path d="M 34 12 v -1 h -1 v 2 h 1 v 2 h 1 v -3 Z" /><path d="M 30 15 v -1 h -1 v 2 h 5 v -1 Z m -4 -9 h 1 v 2 h -1 Z" /></g></g><g class="gotchi-eyeColor"><path d="M 39 23 v 1 h -1 v -1 h 1 v -1 h -2 v 1 h -1 v 2 h 1 v 1 h 2 v -1 h 1 v -2 h -1 Z" /><g class="gotchi-primary"><path d="M 34 25 h -1 v 1 h 1 v -1 Z m 7 0 v 1 h 1 v -2 h -1 v 1 Z m -4 -2 v -1 h -2 v 1 h 2 Z" /><path d="M 44 21 h -7 v 1 h 5 v 2 h 1 v -1 h 1 v -1 h 1 v -1 h -1 Z m -9 5 h -1 v 1 h 2 v -1 h -1 Z" /><path d="M 38 27 h -2 v 1 h 4 v -1 h -2 Z m -3 -3 v -1 h -1 v 2 h 1 v -1 Z" /><path d="M 41 26 h -1 v 1 h 1 v -1 Z" /></g><path d="M 27 22 h -2 v 1 h 1 v 1 h -1 v -1 h -1 v 2 h 1 v 1 h 2 v -1 h 1 v -2 h -1 v -1 Z" /><g class="gotchi-primary"><path d="M 31 25 h -1 v 1 h 1 v -1 Z m -8 -1 h -1 v 2 h 1 v -2 Z" /><path d="M 22 22 h 5 v -1 h -8 v 1 h 1 v 1 h 1 v 1 h 1 v -2 Z" /><path d="M 28 23 h 1 v -1 h -2 v 1 h 1 Z m 0 3 v 1 h 2 v -1 h -2 Z" /><path d="M 26 27 h -2 v 1 h 4 v -1 h -2 Z m 3 -2 h 1 v -2 h -1 v 2 Z" /><path d="M 24 26 h -1 v 1 h 1 v -1 Z" /></g></g><g class="gotchi-wearable wearable-body"><svg x="12" y="32"><path fill="#c8c8c8" d="M 35 1 v 1 h -2 v 1 h -2 v 1 h -2 v 1 h -4 v 1 h -3 v 1 h -4 V 6 h -3 V 5 h -4 V 4 H 9 V 3 H 7 V 2 H 5 V 1 H 2.5 v 8 H 3 v 14 h 4 v -2 h 5 v 2 h 5 v -2 h 6 v 2 h 5 v -2 h 5 v 2 h 4 V 9 h 0.5 V 1 H 35 Z" /><g fill="#fff"><path d="M 17 13 h -1 v -1 h -1 v -1 h -1 v -1 h -2 V 9 h -1 V 8 H 9 V 7 H 7 V 6 H 6 V 5 H 5 V 3 H 4 v 17 h 15 v -5 h -1 v -1 h -1 v -1 Z m -9 -2 h 3 v 2 H 8 v -2 Z m -1 8 v -5 h 5 v 5 H 7 Z m 16 -6 v -1 h 1 v -1 h 1 v -1 h 1 V 9 h 2 V 8 h 1 V 7 h 2 V 6 h 2 V 5 h 1 V 3 h -1 v 1 h -2 v 1 h -2 v 1 h -4 v 1 h -2 v 2 h -1 v 1 h -1 v 4 h 1 v -1 h 1 Z" /><path d="M 18 9 h -1 V 7 h -2 V 6 h -4 V 5 H 9 V 4 H 7 V 3 H 6 v 2 h 1 v 1 h 2 v 1 h 2 v 1 h 1 v 1 h 2 v 1 h 1 v 1 h 1 v 1 h 1 v 1 h 1 v 1 h 1 v -4 h -1 V 9 Z m 17 -4 h -1 v 1 h -1 v 1 h -2 v 1 h -2 v 1 h -1 v 1 h -2 v 1 h -1 v 1 h -1 v 1 h -1 v 1 h -1 v 1 h -2 v 1 h 1 v 1 h -1 v 1 h 1 v 1 h -1 v 1 h 16 V 3 h -1 v 2 Z m -3 5 v 1 h -3 v -1 h 3 Z m -5 9 v -6 h 1 v -1 h 5 v 1 h 1 v 6 h -7 Z" /></g><path fill="#698bd9" d="M 32 12 h 1 v 1 h -1 V 12 Z" /><path fill="#e2e5f3" d="M 32 13 h 1 v 1 h -1 V 13 Z" /><path fill="#45322f" d="M 30 13 h 1 v 1 h -1 V 13 Z" /><path fill="#d9c6b2" d="M 31 13 h 1 v 1 h -1 V 13 Z" /><path fill="#76946f" d="M 28 12 h 1 v 1 h -1 V 12 Z" /><path fill="#cad4e4" d="M 29 12 h 1 v 1 h -1 V 12 Z" /><path d="M 18 7 v 1 h 1 v 6 h 2 V 8 h 1 V 7 h -4 Z m 12 9 h 1 v 1 h -1 v -1 Z" /><g fill="#ddd9d6"><path d="M 30 14 h 1 v 2 h -1 V 14 Z" /><path d="M 31 16 v 1 h -1 v -1 h -1 v 2 h 3 v -2 H 31 Z" /></g><path fill="#556592" d="M 33 13 h 1 v 1 h -1 V 13 Z" /><path fill="#5666bc" d="M 30 12 h 1 v 1 h -1 V 12 Z" /><path fill="#f6d435" d="M 29 13 h 1 v 1 h -1 V 13 Z" /><path fill="#e6bf8f" d="M 28 13 h 1 v 1 h -1 V 13 Z" /><path fill="#c23e3f" d="M 31 12 h 1 v 1 h -1 V 12 Z" /><path fill="#f75457" d="M 27 13 h 1 v 1 h -1 V 13 Z" /><path fill="orange" d="M 7 15 v 1 h 5 v -1 H 7 Z m 19 -8 h 1 v 1 h -1 V 7 Z M 13 7 h 1 v 1 h -1 V 7 Z m 7 11 h 1 v 1 h -1 v -1 Z m 0 -2 h 1 v 1 h -1 v -1 Z" />,</svg></g><g class="gotchi-handsDownClosed"><g class="gotchi-primary"><path d="M 19 42 h 1 v 1 h -1 Z m 1 -6 h 1 v 1 h -1 Z" /><path d="M 21 37 h 1 v 1 h -1 Z m 5 3 v 4 h 1 v -4 Z m -5 3 h -1 v 1 h 2 v -1 Z" /><path d="M 24 44 h -2 v 1 h 4 v -1 h -1 Z m 1 -5 h -1 v 1 h 2 v -1 Z" /><path d="M 23 38 h -1 v 1 h 2 v -1 Z" /></g><g class="gotchi-secondary"><path d="M 19 43 h 1 v 1 h -1 Z m 5 2 h -2 v 1 h 4 v -1 h -1 Z" /><path d="M 27 41 v 3 h 1 v -3 Z m -6 3 h -1 v 1 h 2 v -1 Z" /><path d="M 26 44 h 1 v 1 h -1 Z m -7 -3 h -1 v 2 h 1 v -1 Z" /></g><g class="gotchi-primary"><path d="M 44 42 h 1 v 1 h -1 Z m -1 -6 h 1 v 1 h -1 Z" /><path d="M 42 37 h 1 v 1 h -1 Z" /><path d="M 42 39 v -1 h -2 v 1 h 1 Z m 0 4 v 1 h 2 v -1 h -1 Z" /><path d="M 40 44 h -2 v 1 h 4 v -1 h -1 Z" /><path d="M 38 42 v -2 h -1 v 4 h 1 v -1 Z" /><path d="M 40 40 v -1 h -2 v 1 h 1 Z" /></g><g class="gotchi-secondary"><path d="M 42 44 v 1 h 2 v -1 h -1 Z m -5 -2 v -1 h -1 v 3 h 1 v -1 Z" /><path d="M 40 45 h -2 v 1 h 4 v -1 h -1 Z" /><path d="M 37 44 h 1 v 1 h -1 Z m 7 -1 h 1 v 1 h -1 Z" /></g></g><g class="gotchi-handsDownOpen"><g class="gotchi-primary"><path d="M 56 38 v -1 h -2 v -1 h -2 v -1 h -1 v -1 h -1 v -1 h -1 v 8 h 1 v 1 h 2 v 1 h 4 v -1 h 1 v -4 Z" /></g><g class="gotchi-secondary"><path d="M 54 38 v -1 h -2 v -1 h -1 v -1 h -1 v -1 h -1 v 6 h 1 v 1 h 2 v 1 h 4 v -4 Z" /></g><path fill="#fff" d="M 54 38 v -1 h -2 v -1 h -1 v -1 h -1 v -1 h -1 v 5 h 1 v 1 h 2 v 1 h 4 v -3 H 54 Z" /><g class="gotchi-primary"><path d="M 8 38 v -1 h 2 v -1 h 2 v -1 h 1 v -1 h 1 v -1 h 1 v 8 h -1 v 1 h -2 v 1 H 8 v -1 H 7 v -4 Z" /></g><g class="gotchi-secondary"><path d="M 10 38 v -1 h 2 v -1 h 1 v -1 h 1 v -1 h 1 v 6 h -1 v 1 h -2 v 1 H 8 v -4 Z" /></g><path fill="#fff" d="M 8 38 v 3 h 4 v -1 h 2 v -1 h 1 v -5 h -1 v 1 h -1 v 1 h -1 v 1 h -2 v 1 H 8 Z" /></g><g class="gotchi-handsUp"><g class="gotchi-secondary"><path d="M 50 38 h 1 v 1 h -1 V 38 Z" /><path d="M 49 39 h 1 v 1 h -1 v -1 Z m 2 -2 h 1 v 1 h -1 v -1 Z" /><path d="M 52 36 h 2 v 1 h -2 V 36 Z" /><path d="M 54 35 h 2 v 1 h -2 V 35 Z" /></g><path fill="#fff" d="M 52 32 v 1 h -2 v 1 h -1 v 5 h 1 v -1 h 1 v -1 h 1 v -1 h 2 v -1 h 2 v -3 H 52 Z" /><g class="gotchi-primary"><path d="M 49 33 h 1 v 1 h -1 V 33 Z" /><path d="M 50 32 h 2 v 1 h -2 v -1 Z m 0 7 h 1 v 1 h -1 v -1 Z" /><path d="M 49 40 h 1 v 1 h -1 v -1 Z m 2 -2 h 1 v 1 h -1 v -1 Z" /><path d="M 52 37 h 2 v 1 h -2 v -1 Z m 0 -6 h 4 v 1 h -4 v -1 Z" /><path d="M 56 32 h 1 v 4 h -1 V 32 Z" /><path d="M 54 36 h 2 v 1 h -2 V 36 Z" /></g><g class="gotchi-secondary"><path d="M 13 38 h 1 v 1 h -1 V 38 Z" /><path d="M 14 39 h 1 v 1 h -1 v -1 Z m -2 -2 h 1 v 1 h -1 v -1 Z" /><path d="M 10 36 h 2 v 1 h -2 V 36 Z" /><path d="M 8 35 h 2 v 1 H 8 V 35 Z" /></g><path fill="#fff" d="M 8 32 v 3 h 2 v 1 h 2 v 1 h 1 v 1 h 1 v 1 h 1 v -5 h -1 v -1 h -2 v -1 H 8 Z" /><g class="gotchi-primary"><path d="M 14 33 h 1 v 1 h -1 V 33 Z" /><path d="M 12 32 h 2 v 1 h -2 v -1 Z m 1 7 h 1 v 1 h -1 v -1 Z" /><path d="M 14 40 h 1 v 1 h -1 v -1 Z m -2 -2 h 1 v 1 h -1 v -1 Z" /><path d="M 10 37 h 2 v 1 h -2 v -1 Z m -2 -6 h 4 v 1 H 8 v -1 Z" /><path d="M 7 32 h 1 v 4 H 7 V 32 Z" /><path d="M 8 36 h 2 v 1 H 8 V 36 Z" /></g></g><g class="gotchi-wearable wearable-eyes"><svg x="15" y="19"><g fill="#42433d"><path d="M 5 9 h 1 v 1 H 5 V 9 Z m 0 -7 h 1 v 1 H 5 V 2 Z" /><path d="M 6 10 h 1 v 1 H 6 v -1 Z m 8 -1 h 1 v 1 h -1 V 9 Z" /><path d="M 6 1 h 1 v 1 H 6 V 1 Z m 7 9 h 1 v 1 h -1 v -1 Z" /><path d="M 4 3 v 2 H 0 v 2 h 4 v 2 h 1 V 3 H 4 Z m 3 8 h 6 v 1 H 7 v -1 Z m 14 0 h 6 v 1 h -6 v -1 Z m -7 -9 h 1 v 1 h -1 V 2 Z" /><path d="M 13 1 h 1 v 1 h -1 V 1 Z" /><path d="M 7 0 h 6 v 1 H 7 V 0 Z m 14 0 h 6 v 1 h -6 V 0 Z m -2 9 h 1 v 1 h -1 V 9 Z" /><path d="M 20 10 h 1 v 1 h -1 v -1 Z m 7 0 h 1 v 1 h -1 v -1 Z m 3 -5 V 3 h -1 v 6 h 1 V 7 h 4 V 5 h -4 Z" /><path d="M 28 9 h 1 v 1 h -1 V 9 Z m -8 -8 h 1 v 1 h -1 V 1 Z" /><path d="M 28 2 h 1 v 1 h -1 V 2 Z m -9 0 h 1 v 1 h -1 V 2 Z" /><path d="M 18 3 v 2 h -2 V 3 h -1 v 6 h 1 V 7 h 2 v 2 h 1 V 3 h -1 Z m 9 -2 h 1 v 1 h -1 V 1 Z" /></g><g opacity="0.9"><linearGradient id="A" gradientUnits="userSpaceOnUse" x1="17" y1="11" x2="17" y2="1"><stop stop-color="#ee34b8" offset="0" /><stop stop-color="#ef3dbb" offset="0.085" /><stop stop-color="#f155c4" offset="0.225" /><stop stop-color="#f47dd2" offset="0.4" /><stop stop-color="#f9b4e5" offset="0.606" /><stop stop-color="#fffafd" offset="0.834" /><stop stop-color="#fff" offset="0.85" /></linearGradient><path fill="url(#A)" d="M 14 2 h -1 V 1 H 7 v 1 H 6 v 1 H 5 v 6 h 1 v 1 h 1 v 1 h 6 v -1 h 1 V 9 h 1 V 3 h -1 V 2 Z m 14 0 h -1 V 1 h -6 v 1 h -1 v 1 h -1 v 6 h 1 v 1 h 1 v 1 h 6 v -1 h 1 V 9 h 1 V 3 h -1 V 2 Z" /></g></svg></g><g class="gotchi-wearable wearable-head"><svg x="15" y="6"><path fill="#280600" d="M 32 8 V 6 h -2 V 4 h -4 V 2 h -4 V 0 H 12 v 2 H 8 v 2 H 4 v 2 H 2 v 2 H 0 v 12 h 2 v -4 h 2 v -2 h 2 v -2 h 2 v -2 h 12 V 8 h 2 V 6 h 2 v 2 h 2 v 2 h 2 v 4 h 2 v 2 h 2 v 4 h 2 V 8 H 32 Z" /></svg></g><g class="gotchi-wearable wearable-face"><svg x="48" y="25"><path d="M 3 2 V 1 H 2 V 0 H 0 v 3 h 2 V 2 Z" /><path d="M 2 3 h 1 v 1 H 2 Z" /><path d="M 1 4 h 1 v 1 H 1 Z" /><path d="M 2 5 h 1 v 1 H 2 Z" /><path d="M 1 6 h 1 v 1 H 1 Z" /><path fill="#f0f" d="M 1 1 h 1 v 1 H 1 V 1 Z" /></svg></g>"&gt;<svg x="12" y="32"><g><g class="gotchi-sleeves gotchi-sleeves-left gotchi-sleeves-up"><path fill="#c8c8c8" d="M 38 0 v 1 h -1.5 v 8 H 38 V 8 h 1 V 7 h 1 V 0 H 38 Z" /><path fill="orange" d="M 37 7 h 1 v 1 h -1 V 7 Z" /><path fill="#fff" d="M 37 7 h 2 V 1 h -1 v 1 h -1 V 7 Z" /></g><g class="gotchi-sleeves gotchi-sleeves-left gotchi-sleeves-down"><path fill="#c8c8c8" d="M 39 3 V 2 h -1 V 1 h 1 V 0 h -2 v 1 h -0.5 v 8 H 38 v 1 h 2 V 3 h -1 Z" /><path fill="orange" d="M 37 2 h 1 v 1 h -1 V 2 Z" /><path fill="#fff" d="M 37 8 h 1 v 1 h 1 V 3 h -2 V 8 Z" /></g><g class="gotchi-sleeves gotchi-sleeves-right gotchi-sleeves-up"><path fill="#c8c8c8" d="M 2 0 v 1 h 1.5 v 8 H 2 V 8 H 1 V 7 H 0 V 0 H 2 Z" /><path fill="orange" d="M 3 8 H 2 V 7 h 1 V 8 Z" /><path fill="#fff" d="M 3 2 H 2 V 1 H 1 v 6 h 2 V 2 Z" /></g><g class="gotchi-sleeves gotchi-sleeves-right gotchi-sleeves-down"><path fill="#c8c8c8" d="M 1 0 v 1 h 1 v 1 H 1 v 1 H 0 v 7 h 2 V 9 h 1.5 V 1 H 3 V 0 H 1 Z" /><path fill="orange" d="M 2 2 h 1 v 1 H 2 V 2 Z" /><path fill="#fff" d="M 3 3 H 1 v 6 h 1 V 8 h 1 V 3 Z" /></g></g>,</svg><g class="gotchi-wearable wearable-hand wearable-hand-left"><svg x="5" y="25"><path fill="#0000b9" d="M 0 5 v 8 h 1 v 1 h 1 v 4 H 1 v 1 h 3 v -1 H 3 v -4 h 1 v -1 h 1 V 5 Z" /><path fill="#fff" d="M 1 6 v 7 h 3 V 6 H 1 Z" /><path fill="#ffffbe" d="M 1 8 v 5 h 3 V 8 H 1 Z m 1 -5 h 1 v 1 H 2 V 3 Z m 1 -2 h 1 v 1 H 3 V 1 Z M 1 0 h 1 v 1 H 1 V 0 Z" /></svg></g><g class="gotchi-wearable wearable-hand wearable-hand-right"><svg x="5" y="25"><g transform="scale(-1 1) translate(-54)"><path fill="#0000b9" d="M 0 5 v 8 h 1 v 1 h 1 v 4 H 1 v 1 h 3 v -1 H 3 v -4 h 1 v -1 h 1 V 5 Z" /><path fill="#fff" d="M 1 6 v 7 h 3 V 6 H 1 Z" /><path fill="#ffffbe" d="M 1 8 v 5 h 3 V 8 H 1 Z m 1 -5 h 1 v 1 H 2 V 3 Z m 1 -2 h 1 v 1 H 3 V 1 Z M 1 0 h 1 v 1 H 1 V 0 Z" /></g></svg></g><g class="gotchi-wearable wearable-pet"><svg x="42" y="43"><path d="M 19 2 V 1 h -1 V 0 h -5 v 1 h -1 v 1 H 8 V 1 H 7 V 0 H 2 v 1 H 1 v 1 H 0 v 2 h 1 v 1 h 1 v 1 H 1 v 3 h 1 v 1 h 1 v 1 H 2 v 1 H 1 v 2 h 1 v 1 H 1 v 2 h 4 v 1 h 3 v -1 h 1 v -1 h 2 v 1 h 1 v 1 h 3 v -1 h 4 v -2 h -1 v -1 h 1 v -2 h -1 v -1 h -1 v -1 h 1 V 9 h 1 V 6 h -1 V 5 h 1 V 4 h 1 V 2 h -1 Z" /><path fill="#fff" d="M 18 3 h -1 v 1 h -3 V 3 h -2 v 1 h 1 v 1 h 5 V 4 h 1 V 3 h -1 Z M 6 3 v 1 H 3 V 3 H 1 v 1 h 1 v 1 h 5 V 4 h 1 V 3 H 6 Z" /><g fill="#ffc36b"><path d="M 17 1 h -4 v 1 h 5 V 1 h -1 Z m -7 4 h 2 V 4 h -1 V 3 H 9 v 1 H 8 v 1 h 2 Z M 4 2 h 3 V 1 H 2 v 1 h 2 Z m 5 11 v 2 h 2 v -2 H 9 Z" /><path d="M 16 12 v -2 H 4 v 2 H 2 v 2 h 2 v 1 H 2 v 1 h 3 v -3 h 1 v 3 H 5 v 1 h 3 v -4 h 1 v -1 h 2 v 1 h 1 v 4 h 3 v -1 h -1 v -3 h 1 v 3 h 3 v -1 h -2 v -1 h 2 v -2 h -2 Z" /></g><path fill="#ef1e26" d="M 17 6 H 2 v 3 h 16 V 6 h -1 Z m 0 2 H 3 V 7 h 14 v 1 Z" /><defs /></svg></g></svg>