<svg width="276" height="164" viewBox="0 0 276 164" fill="none" xmlns="http://www.w3.org/2000/svg">
<path d="M267.765 136.527L256.609 57.6715C252.323 27.3828 221.114 0.321472 190.467 0.321472C178.237 0.321472 165.12 5.60983 154.967 18.6769C149.731 25.5562 145.929 33.4134 143.787 41.7842C141.644 50.1551 141.205 58.8697 142.495 67.4128L152.268 136.527L156.107 163.678L206.533 163.601C205.245 161.792 204.354 159.732 203.921 157.556C202.896 153.343 201.358 143.279 201.358 143.279C201.354 143.248 201.352 143.217 201.347 143.185L198.616 123.781C197.956 119.09 201.001 115.879 205.74 115.603C210.897 115.303 216.33 117.347 218.242 126.449L220.095 139.62L220.103 139.665L223.483 163.678C223.483 163.678 275.42 163.909 275.407 163.897C271.607 160.223 267.765 136.527 267.765 136.527ZM204.286 86.7826C201.209 86.913 198.198 85.8636 195.872 83.8493C193.545 81.8351 192.079 79.0088 191.774 75.95L190.208 65.0374C189.552 60.4748 189.899 54.2452 192.284 51.567C193.212 50.4809 194.381 49.6253 195.698 49.0679C197.015 48.5105 198.443 48.2667 199.871 48.3555C201.855 48.457 203.748 49.2185 205.248 50.5187C206.748 51.819 207.769 53.5832 208.147 55.5298L211.417 78.5861C211.631 79.6148 211.604 80.6789 211.338 81.6955C211.072 82.7121 210.575 83.6537 209.885 84.447C209.195 85.2403 208.33 85.8638 207.359 86.2689C206.388 86.6741 205.336 86.8498 204.286 86.7826ZM120.44 18.6771C110.287 5.61006 97.1703 0.321571 84.9401 0.321571C54.2933 0.321571 23.084 27.3828 18.7984 57.6716L7.64151 136.527C7.64151 136.527 3.80006 160.223 2.45319e-06 163.897C-0.0130326 163.909 51.9246 163.678 51.9246 163.678L55.3042 139.665L55.3119 139.62L57.1654 126.449C59.0768 117.347 64.5097 115.303 69.6671 115.603C74.4059 115.879 77.451 119.09 76.7909 123.781L74.0596 143.185C74.0552 143.217 74.0529 143.248 74.0485 143.279C74.0485 143.279 72.5111 153.343 71.4862 157.556C71.0529 159.732 70.1626 161.792 68.8739 163.601L119.3 163.678L123.139 136.527L132.912 67.4128C134.202 58.8697 133.763 50.1552 131.62 41.7844C129.478 33.4135 125.677 25.5564 120.44 18.6771ZM86.3878 55.8278L83.0007 79.8706C82.6355 82.4788 81.2472 84.8354 79.1412 86.422C77.0351 88.0086 74.3838 88.6951 71.7706 88.3306C69.1574 87.9661 66.7963 86.5803 65.2068 84.4783C63.6172 82.3762 62.9294 79.73 63.2946 77.1217L64.878 65.7421C65.54 60.9843 67.2954 54.6729 70.9497 51.5467C73.4026 49.3771 76.5971 48.2313 79.8725 48.3465C80.8139 48.3465 81.7445 48.5481 82.6011 48.9378C83.4577 49.3275 84.2206 49.8961 84.8382 50.6053C85.4558 51.3145 85.9138 52.1477 86.1811 53.0486C86.4484 53.9496 86.5189 54.8973 86.3878 55.8278Z" fill="black"/>
</svg>
