<svg width="1141" height="222" viewBox="0 0 1141 222" fill="none" xmlns="http://www.w3.org/2000/svg">
<path d="M1140.85 44.7724L1138.48 63.5406C1138.16 66.1117 1137.3 68.5874 1135.97 70.8102C1134.63 73.0331 1132.85 74.9542 1130.73 76.4513L1125.65 80.0496C1131.94 88.9328 1134.55 99.8946 1132.95 110.652C1131.44 122.165 1129.88 131.8 1128.38 141.124C1126.8 150.927 1125.31 160.191 1123.83 171.596C1123.8 171.859 1123.76 172.122 1123.71 172.385C1120.77 189.467 1104.78 204.052 1088.09 204.888L1086.72 204.96C1084.99 205.056 1058.15 204.805 1056.21 204.757C1049.52 214.787 1037.71 221.29 1023.44 221.995C1022.51 222.043 995.834 221.732 994.9 221.696C980.6 221.087 976.887 210.603 976.084 207.399C975.842 206.413 975.682 205.41 975.605 204.398H973.557C971.811 204.761 970.035 204.961 968.251 204.996C968 205.008 823.006 204.506 822.575 204.494C819.442 204.524 816.352 203.772 813.584 202.306C810.817 200.841 808.46 198.708 806.729 196.102C804.022 207.506 795.962 221.266 772.942 221.899C768.69 222.019 745.12 221.923 744.293 221.911C729.37 221.66 725.705 210.017 725.118 207.686C724.47 205.089 724.387 202.384 724.874 199.753C725.362 197.122 726.409 194.626 727.944 192.432C728.028 192.038 728.112 191.548 728.208 190.985C728.268 190.591 728.328 190.185 728.388 189.778C727.885 190.268 727.369 190.746 726.843 191.213C716.989 199.868 704.313 204.641 691.187 204.637H682.995C672.172 204.641 661.474 202.325 651.624 197.848C641.775 193.371 633.002 186.836 625.9 178.685C625.493 178.206 625.098 177.704 624.703 177.214C624.224 180.358 623.756 183.693 623.277 187.375C623.254 187.531 623.229 187.698 623.206 187.853C620.163 207.112 602.952 221.098 582.28 221.098C576.495 221.098 558.494 220.919 558.494 220.919C553.963 220.852 549.61 219.149 546.24 216.125C542.871 213.1 540.714 208.96 540.169 204.47C533.845 204.458 394.121 204.231 394.121 204.231C389.474 204.195 385.009 202.428 381.599 199.277C378.189 196.126 376.081 191.817 375.689 187.196C370.41 191.299 364.864 195.049 359.088 198.421C352.655 202.961 344.9 205.255 337.027 204.948C335.793 204.948 329.146 204.876 329.146 204.876C317.009 204.876 308.222 205.115 300.222 196.222C296.449 202.031 290.209 204.984 281.597 204.984H281.454L40.2484 204.912L22.1273 204.984H21.9954C11.803 204.996 4.92819 200.872 1.5386 192.767C0.25478 189.698 -0.237039 186.356 0.10826 183.048C0.453559 179.739 1.62494 176.57 3.51505 173.831C5.25275 167.953 6.59707 161.967 7.53915 155.912L18.1986 80.5993C23.7201 41.5563 61.7591 8.57458 101.271 8.57458C120.674 8.57458 138.34 17.5523 151 33.8578C151.275 34.2045 151.527 34.5752 151.79 34.9339C152.066 34.5752 152.317 34.2045 152.593 33.8578C165.253 17.5522 182.919 8.57458 202.321 8.57458C233.785 8.57458 264.291 29.5066 278.22 57.7426L278.926 53.3315C281.789 35.448 294.94 23.1229 313.216 21.1626C325.936 19.7996 337.554 23.6488 345.938 32.0288L346.01 32.1006C348.84 26.7072 352.867 22.0298 357.783 18.4249C362.013 15.415 366.8 13.2734 371.866 12.1242C376.932 10.975 382.176 10.8411 387.294 11.7303C393.62 12.5888 399.622 15.0441 404.731 18.8639C409.841 22.6836 413.89 27.7416 416.494 33.559C426.142 26.1469 437.738 21.6907 449.874 20.7319C459.827 20.0146 466.953 20.0508 475.217 20.0864C477.23 20.0984 479.326 20.1104 481.601 20.1104C494.692 20.1104 506.418 24.9041 514.61 33.6069C515.701 34.7796 516.725 36.0129 517.676 37.3009C529.15 26.7451 545.319 19.9312 565.452 20.6602C581.609 20.3257 584.484 20.3135 600.773 20.4092C606.651 20.3774 612.464 21.6501 617.789 24.1352C623.114 26.6203 627.82 30.2556 631.565 34.7783C632.176 34.1926 632.799 33.6069 633.446 33.057C643.297 24.4647 655.935 19.7289 669.018 19.728H677.114C696.069 19.7282 714.334 26.8315 728.292 39.6319C731.212 34.2643 735.447 29.7225 740.601 26.4301C745.755 23.1377 751.661 21.202 757.767 20.8038C769.217 20.0269 809.556 20.5648 817.532 20.8636C822.794 20.9963 827.974 22.1918 832.76 24.3779C837.546 26.5639 841.839 29.6953 845.379 33.5829C857.762 24.3166 873.003 19.6685 888.46 20.4451C895.946 20.72 898.605 20.7321 902.282 20.744C904.881 20.744 908.127 20.7559 913.732 20.8635C924.314 20.9506 934.586 24.4475 943.016 30.8333C948.824 10.4511 965.461 -1.86165 985.618 0.230351C991.167 0.714126 996.553 2.34701 1001.43 5.02483C1006.32 7.70266 1010.58 11.3667 1013.97 15.783C1016.25 18.8185 1018.08 22.1689 1019.39 25.7291C1019.54 25.6453 1019.67 25.5735 1019.81 25.4897C1026.86 21.5866 1034.92 19.8851 1042.94 20.6055C1050.97 21.3259 1058.6 24.4351 1064.83 29.5304C1066.21 26.5322 1068.36 23.9508 1071.06 22.047C1077.36 17.6001 1084.5 12.5315 1086.5 11.0611C1088.55 9.36576 1090.92 8.10106 1093.47 7.34299C1096.02 6.58491 1098.7 6.34912 1101.34 6.64976L1105.08 7.03229C1105.44 7.05621 1105.81 7.09218 1106.17 7.14004C1106.56 7.18761 1106.94 7.24744 1107.33 7.31924L1111.04 7.86909C1113.66 8.23074 1116.18 9.11584 1118.45 10.4715C1120.72 11.8271 1122.69 13.6254 1124.25 15.759C1125.74 17.5761 1131.47 24.3422 1136.54 30.2954C1138.23 32.2775 1139.48 34.5883 1140.22 37.0808C1140.97 39.5733 1141.18 42.1928 1140.85 44.7724Z" fill="#441C6C"/>
<path opacity="0.25" d="M283.331 152.237L272.39 74.9106C268.188 45.2093 237.584 18.6728 207.532 18.6728C195.539 18.6728 182.676 23.8586 172.72 36.6723C167.585 43.4181 163.857 51.123 161.757 59.3315C159.656 67.5399 159.225 76.0855 160.49 84.4629L170.073 152.237L173.838 178.861L223.286 178.785C222.022 177.012 221.149 174.992 220.724 172.858C219.719 168.727 218.212 158.858 218.212 158.858C218.207 158.827 218.205 158.797 218.201 158.766L215.523 139.738C214.875 135.137 217.861 131.989 222.508 131.718C227.565 131.424 232.893 133.429 234.768 142.354L236.585 155.27L236.592 155.314L239.907 178.861C239.907 178.861 290.837 179.088 290.824 179.076C287.098 175.473 283.331 152.237 283.331 152.237ZM221.082 103.457C218.065 103.585 215.113 102.556 212.831 100.581C210.55 98.6056 209.112 95.8341 208.813 92.8346L207.277 82.1336C206.635 77.6595 206.974 71.5508 209.313 68.9245C210.223 67.8595 211.37 67.0205 212.661 66.4739C213.952 65.9273 215.353 65.6882 216.753 65.7753C218.699 65.8747 220.555 66.6215 222.026 67.8965C223.497 69.1716 224.497 70.9016 224.869 72.8104L228.075 95.4196C228.285 96.4283 228.258 97.4717 227.998 98.4686C227.737 99.4655 227.249 100.389 226.573 101.167C225.896 101.945 225.048 102.556 224.096 102.953C223.144 103.351 222.112 103.523 221.082 103.457ZM1086.6 178.676C1080.37 178.372 1075.43 178.508 1071.86 178.508C1068.17 178.508 1061.91 178.348 1061.91 178.348C1063.45 175.958 1064.47 171.237 1064.94 167.777C1065.28 165.274 1065.45 164.148 1066.08 160.013C1069.23 139.53 1072.65 115.562 1075.59 95.0457C1077.68 80.4255 1089.64 72.3154 1100.96 74.1707C1113.51 76.228 1122.39 86.1678 1120.5 100.537C1117.48 123.476 1114.35 138.584 1111.38 161.531C1109.86 170.331 1100.8 178.146 1093.29 178.524C1089.37 178.722 1091.02 178.676 1086.6 178.676ZM1128.4 34.7483L1126.02 53.5174L1109.12 65.4934L1104.23 64.877L1103.93 64.8398L1099.04 64.2234L1085.65 48.4298L1088.03 29.6607C1088.03 29.6607 1104.53 18.0242 1104.68 17.7647C1104.83 17.5052 1105.48 17.5869 1105.48 17.5869L1109.85 18.0336L1109.85 18.0267L1110 18.0487L1110.15 18.0638L1110.15 18.0708L1114.5 18.7233C1114.5 18.7233 1115.15 18.805 1115.23 19.0942C1115.31 19.3835 1128.4 34.7483 1128.4 34.7483ZM337.75 178.922C324.767 179.068 322.579 179.359 319.953 176.301C308.478 162.939 289.95 147.641 292.159 126.985C294.947 100.915 299.275 74.9962 303.432 49.0903C304.968 39.5218 311.216 33.6467 321.216 32.5733C336.081 30.9775 346.07 41.6461 344.418 56.91C342.236 77.0669 338.99 96.7176 336.215 116.808C335.345 123.105 334.056 130.741 342.547 132.177C352.484 133.859 353.916 123.559 354.492 117.957C357.634 95.9182 361.962 65.2528 365.429 43.2642C367.647 29.1975 377.403 20.9526 390.326 23.0109C403.854 25.1654 409.035 36.944 407.02 49.1534C403.786 68.749 399.96 97.9758 397.49 117.679C393.988 145.614 378.381 161.624 355.139 175.341C348.735 179.579 346.648 179.148 337.75 178.922ZM448.572 178.381C435.779 178.381 421.691 178.381 408.738 178.381C406.415 178.381 400.324 178.312 400.324 178.312C401.575 176.24 403.037 165.814 403.438 163.331C408.662 129.23 411.243 101.454 417.189 67.4746C420.332 49.5138 437.706 33.6021 457.201 32.203C468.736 31.3754 476.007 31.6285 487.588 31.6285C503.161 31.6285 513.144 42.1395 512.375 54.2892C512.137 59.6088 509.854 64.6321 506 68.3142C502.146 71.9963 497.018 74.0535 491.683 74.0579C482.874 74.0579 477.253 73.72 468.859 73.72C462.882 73.72 458.285 76.2529 458.025 81.8298C457.73 88.1642 461.996 91.3875 467.863 91.8507C469.453 91.9763 472.863 92.2101 475.856 92.2101C482.122 92.2101 489.399 96.4519 489.251 105.076C489.107 113.486 481.474 118.23 473.462 117.858C468.802 117.642 464.84 116.466 460.445 116.577C455.753 116.696 452.715 120.547 452.256 125.19C452.058 126.279 452.091 127.398 452.353 128.473C452.615 129.549 453.099 130.558 453.775 131.435C454.452 132.312 455.305 133.038 456.279 133.566C457.254 134.093 458.328 134.412 459.434 134.499C464.191 135.047 468.985 135.215 473.769 135.003C491.388 134.906 498.478 145.929 498.205 158.195C497.932 163.649 495.565 168.789 491.596 172.548C487.627 176.306 482.36 178.395 476.888 178.381C465.802 178.606 459.766 178.381 448.572 178.381ZM882.015 178.593C867.549 178.593 852.112 178.565 837.589 178.565C834.967 178.565 828.026 178.635 828.3 178.548C830.296 177.91 830.939 171.574 831.414 168.746C837.528 132.33 839.128 105.405 845.882 69.1096C850.405 44.7965 870.937 31.077 893.73 31.9453C906.995 32.4506 906.084 32.119 919.349 32.381C944.278 32.8733 956.504 58.3437 944.713 82.1678C936.086 94.0799 925.445 92.0707 908.478 92.0707C904.961 92.0707 903.397 89.4337 904.344 85.1818C905.207 81.3067 901.001 75.279 895.465 75.7095C889.735 76.1551 886.964 79.569 886.19 84.6077C884.357 97.85 882.162 111.112 880.391 124.362C879.67 129.751 881.887 134.171 887.389 135.366C889.36 135.865 891.445 135.648 893.272 134.754C895.098 133.86 896.547 132.348 897.358 130.486C902.813 119.723 913.031 116.182 923.381 119.098C932.363 121.628 938.866 131.156 938.266 141.878C937.856 148.469 936.968 155.023 935.607 161.486C934.702 166.12 932.282 170.324 928.725 173.437C925.168 176.55 920.677 178.396 915.955 178.685C901.494 178.407 896.48 178.592 882.015 178.593ZM822.833 32.3657C834.432 32.7882 842.306 41.0614 842.306 52.1392C842.306 62.7865 832.569 69.7157 827.066 69.9692C817.698 70.4008 810.281 77.7187 809.711 85.9401C806.007 113.735 798.775 152.736 795.12 180.536C793.787 194.922 785.52 195.79 778.409 195.987C768.152 196.271 770.3 196.058 759.955 196.058C757.187 196.058 749.177 196.022 749.31 195.952C751.12 194.996 752.205 189.937 752.717 186.709C756.682 161.684 762.71 116.576 766.465 91.5173C769.041 77.9604 765.618 74.1098 756.475 71.3213C755.014 70.8758 751.903 70.3918 748.855 69.5468C743.67 67.2441 746.426 58.9002 747.289 52.6674C748.305 42.2103 754.147 33.0207 765.026 32.2813C775.016 31.6023 814.232 32.0524 822.833 32.3657ZM564.776 195.008C565.673 192.807 566.211 190.476 566.37 188.105C566.5 186.915 566.381 185.71 566.018 184.569C565.656 183.427 565.059 182.373 564.265 181.475C563.472 180.577 562.499 179.854 561.409 179.352C560.32 178.851 559.137 178.582 557.937 178.563C545.141 178.525 525.559 178.563 512.28 178.563C510.693 178.563 504.985 178.507 505.018 178.486C506.735 177.41 507.364 171.789 507.653 169.88C513.191 133.41 517.369 105.995 522.898 69.5232C525.508 49.5517 543.429 30.9695 571.268 32.1852C587.798 31.8379 590.408 31.8379 606.663 31.9242C619.441 31.992 627.783 41.8545 628.083 53.5201C628.275 61.0111 621.732 74.8888 607.299 75.273C603.644 75.3702 595.656 75.2249 592.425 74.9695C574.777 73.5744 563.711 81.2753 561.613 98.4716C560.487 105.957 559.188 114.601 558.045 123.012C555.58 133.184 560.343 139.619 567.319 140.627C570.047 141.081 572.846 140.52 575.187 139.051C577.528 137.581 579.247 135.306 580.02 132.656C580.733 130.335 580.734 127.854 580.022 125.533C579.31 123.212 577.918 121.156 576.025 119.632C572.663 116.898 568.701 114.162 569.532 106.534C570.494 97.698 580.952 94.4992 588.251 94.6442C609.031 95.0569 621.728 103.07 617.884 128.242C615.539 147.939 613.247 158.072 610.666 177.742C608.911 188.863 598.169 195.175 588.271 195.175C577.418 195.175 578.568 195.061 569.407 195.061C568.129 195.061 564.776 195.008 564.776 195.008ZM1011.35 195.995C1008.85 195.993 1000.02 195.816 1000.28 195.676C1003.47 193.976 1005.6 181.488 1006.22 177.26C1008.26 163.242 1011.1 145.592 1013.21 131.583C1014.18 125.326 1012.68 120.38 1006.46 118.877C1000.1 117.337 995.854 122.246 995.372 128.887C992.527 143.567 992.287 149.042 989.923 163.492C988.766 170.566 981.099 178.941 973.866 179.085C973.077 179.101 962.28 178.843 953.18 178.869C945.938 178.889 942.532 178.783 942.053 178.73C943.916 176.977 945.14 173.099 945.619 170.018C946.819 162.299 947.972 153.096 949.274 144.794C954.064 108.859 960.944 69.8238 965.946 33.9161C968.031 18.9464 977.37 10.3708 989.655 11.6542C1003.46 13.0965 1011.55 24.3601 1008.77 39.7542C1006.6 51.7602 1004.41 67.1281 1002.22 79.123C1001.02 85.6811 1003.01 90.3874 1009.45 91.4438C1015.91 92.5026 1018.85 87.8916 1019.77 82.7808C1021.78 71.5681 1022.8 60.7165 1024.4 49.2836C1026.04 37.5403 1040.07 27.6723 1054.01 33.7863C1062.78 37.6365 1067.95 46.7223 1066.54 57.1765C1062.18 89.5531 1050.58 170.348 1049.25 180.076C1047.88 190.183 1038.62 195.596 1028.49 196.101C1025.76 196.237 1014.58 195.998 1011.35 195.995ZM138.862 36.6724C128.907 23.8588 116.044 18.6729 104.051 18.6729C73.9988 18.6729 43.3949 45.2093 39.1924 74.9107L28.252 152.237C28.252 152.237 24.485 175.473 20.7586 179.076C20.7458 179.088 71.6761 178.861 71.6761 178.861L74.9903 155.314L74.9978 155.27L76.8153 142.354C78.6897 133.429 84.0172 131.424 89.0745 131.719C93.7214 131.989 96.7075 135.138 96.0602 139.738L93.3819 158.766C93.3777 158.797 93.3752 158.827 93.371 158.858C93.371 158.858 91.8634 168.727 90.8584 172.858C90.4334 174.992 89.5604 177.012 88.2967 178.785L137.745 178.861L141.51 152.237L151.093 84.4629C152.358 76.0855 151.927 67.54 149.826 59.3316C147.726 51.1231 143.998 43.4182 138.862 36.6724ZM105.471 73.1027L102.15 96.679C101.789 99.2341 100.426 101.542 98.3617 103.095C96.2972 104.648 93.6994 105.32 91.1389 104.963C88.5785 104.606 86.2648 103.249 84.7061 101.19C83.1473 99.1316 82.471 96.5395 82.8257 93.9835L84.3783 82.8246C85.0274 78.159 86.7489 71.97 90.3322 68.9045C92.7376 66.7769 95.8702 65.6535 99.0821 65.7664C100.005 65.7664 100.918 65.9642 101.758 66.3463C102.598 66.7284 103.346 67.286 103.951 67.9814C104.557 68.6768 105.006 69.4939 105.268 70.3773C105.53 71.2608 105.6 72.1902 105.471 73.1027ZM683.102 31.2538H675.008C666.484 31.2541 658.248 34.3285 651.816 39.9108C645.384 45.493 641.19 53.207 640.005 61.6319L632.641 114.051C631.51 122.096 632.122 130.29 634.435 138.079C636.748 145.868 640.708 153.07 646.049 159.201C651.39 165.331 657.986 170.246 665.393 173.615C672.8 176.983 680.844 178.725 688.983 178.725H697.17C705.651 178.724 713.846 175.668 720.249 170.119C726.652 164.569 730.832 156.899 732.022 148.519L739.474 96.0461C740.617 87.9908 740.013 79.7844 737.704 71.9819C735.396 64.1794 731.435 56.9628 726.09 50.82C720.746 44.6772 714.142 39.7514 706.726 36.3758C699.309 33.0002 691.253 31.2535 683.102 31.2538ZM699.176 94.689L697.195 121.216C696.792 126.624 691.996 129.821 685.953 128.713C678.594 127.362 672.373 122.368 672.937 113.69L673.851 101.131C674.233 95.8795 676.331 88.999 680.074 86.5623C681.603 85.5524 683.325 84.8694 685.131 84.5562C686.938 84.243 688.789 84.3064 690.57 84.7424C695.445 85.6207 699.503 90.329 699.176 94.689Z" fill="black"/>
<path d="M277.342 152.237L266.402 74.9106C262.2 45.2093 231.595 18.6729 201.543 18.6729C189.55 18.6729 176.688 23.8586 166.732 36.6723C161.597 43.4181 157.869 51.123 155.768 59.3315C153.667 67.5399 153.237 76.0855 154.502 84.4629L164.085 152.237L167.849 178.861L217.298 178.785C216.034 177.012 215.161 174.992 214.736 172.858C213.731 168.727 212.223 158.858 212.223 158.858C212.219 158.827 212.217 158.797 212.212 158.766L209.534 139.738C208.887 135.137 211.873 131.989 216.52 131.719C221.577 131.424 226.904 133.429 228.779 142.354L230.597 155.27L230.604 155.314L233.918 178.861C233.918 178.861 284.848 179.088 284.836 179.076C281.109 175.473 277.342 152.237 277.342 152.237ZM215.094 103.457C212.076 103.585 209.124 102.556 206.843 100.581C204.562 98.6056 203.124 95.8341 202.824 92.8346L201.289 82.1336C200.646 77.6595 200.986 71.5508 203.324 68.9245C204.235 67.8595 205.381 67.0205 206.672 66.4739C207.964 65.9273 209.365 65.6882 210.765 65.7753C212.71 65.8748 214.567 66.6215 216.037 67.8965C217.508 69.1716 218.509 70.9016 218.88 72.8105L222.086 95.4196C222.296 96.4283 222.27 97.4717 222.009 98.4686C221.749 99.4655 221.261 100.389 220.584 101.167C219.907 101.945 219.06 102.556 218.107 102.953C217.155 103.351 216.124 103.523 215.094 103.457ZM331.761 178.922C318.778 179.068 316.59 179.359 313.965 176.302C302.489 162.939 283.961 147.641 286.17 126.985C288.958 100.915 293.286 74.9962 297.444 49.0904C298.979 39.5218 305.228 33.6467 315.227 32.5733C330.093 30.9775 340.081 41.6461 338.429 56.91C336.248 77.0669 333.002 96.7176 330.226 116.808C329.356 123.105 328.068 130.741 336.558 132.177C346.496 133.859 347.927 123.559 348.503 117.957C351.645 95.9182 355.974 65.2528 359.441 43.2642C361.658 29.1975 371.414 20.9526 384.337 23.0109C397.865 25.1654 403.046 36.944 401.031 49.1534C397.798 68.7491 393.971 97.9758 391.501 117.679C387.999 145.614 372.393 161.624 349.151 175.341C342.747 179.579 340.66 179.148 331.761 178.922ZM442.584 178.381C429.79 178.381 415.703 178.381 402.749 178.381C400.426 178.381 394.336 178.312 394.336 178.312C395.587 176.24 397.048 165.814 397.449 163.331C402.673 129.23 405.254 101.454 411.201 67.4746C414.344 49.5138 431.717 33.6021 451.213 32.203C462.748 31.3754 470.019 31.6285 481.599 31.6285C497.172 31.6285 507.156 42.1395 506.386 54.2892C506.149 59.6088 503.865 64.6322 500.011 68.3142C496.157 71.9963 491.029 74.0536 485.694 74.0579C476.885 74.0579 471.265 73.72 462.87 73.72C456.894 73.72 452.296 76.253 452.036 81.8298C451.742 88.1642 456.007 91.3875 461.874 91.8507C463.464 91.9763 466.874 92.2101 469.868 92.2101C476.133 92.2101 483.41 96.4519 483.263 105.076C483.119 113.486 475.485 118.23 467.474 117.858C462.813 117.642 458.852 116.466 454.456 116.577C449.764 116.696 446.727 120.547 446.268 125.19C446.07 126.279 446.103 127.398 446.364 128.473C446.626 129.549 447.111 130.558 447.787 131.435C448.463 132.312 449.316 133.038 450.291 133.566C451.265 134.093 452.34 134.412 453.445 134.499C458.203 135.047 462.996 135.215 467.78 135.003C485.399 134.906 492.49 145.929 492.216 158.195C491.943 163.649 489.576 168.789 485.607 172.548C481.638 176.306 476.371 178.395 470.9 178.381C459.813 178.606 453.778 178.381 442.584 178.381ZM132.874 36.6725C122.918 23.8589 110.056 18.6729 98.0627 18.6729C68.0104 18.6729 37.4064 45.2094 33.2038 74.9107L22.2634 152.237C22.2634 152.237 18.4964 175.473 14.7701 179.076C14.7573 179.088 65.6876 178.861 65.6876 178.861L69.0016 155.314L69.0092 155.27L70.8267 142.354C72.7011 133.429 78.0286 131.424 83.086 131.719C87.7329 131.989 90.7189 135.138 90.0716 139.738L87.3933 158.766C87.389 158.797 87.3867 158.827 87.3824 158.858C87.3824 158.858 85.8748 168.727 84.8698 172.858C84.4449 174.992 83.5718 177.012 82.3081 178.785L131.757 178.861L135.521 152.237L145.104 84.4629C146.369 76.0855 145.938 67.5401 143.838 59.3316C141.737 51.1231 138.009 43.4183 132.874 36.6725ZM99.4824 73.1027L96.161 96.6791C95.8028 99.2368 94.4415 101.548 92.3763 103.103C90.3111 104.659 87.7112 105.332 85.1487 104.975C82.5862 104.618 80.2709 103.259 78.7122 101.197C77.1534 99.1361 76.4789 96.5412 76.837 93.9836L78.3898 82.8247C79.0389 78.1591 80.7603 71.9701 84.3437 68.9046C86.749 66.777 89.8815 65.6535 93.0934 65.7664C94.0166 65.7664 94.9291 65.9642 95.7691 66.3463C96.6092 66.7284 97.3572 67.286 97.9629 67.9814C98.5685 68.6768 99.0175 69.4939 99.2797 70.3773C99.5418 71.2608 99.611 72.1902 99.4824 73.1027Z" fill="white"/>
<path d="M454.445 116.578L454.457 116.577H454.463H454.457L454.445 116.578Z" fill="#D7D7D7"/>
<path d="M219.032 131.79C218.994 131.785 218.957 131.782 218.919 131.778L219.032 131.79Z" fill="#D7D7D7"/>
<path d="M462.859 73.7201L462.786 73.7198L462.775 73.7201L462.701 73.7198L462.69 73.7201L462.617 73.7198L462.606 73.7201L462.533 73.7198L462.522 73.7201L462.448 73.7198L462.437 73.7201L462.364 73.7198L462.353 73.7201L462.28 73.7198L462.269 73.7201L462.195 73.7198L462.184 73.7201L462.111 73.7198L462.1 73.7201L462.027 73.7198L462.016 73.7201L461.942 73.7198L461.931 73.7201L461.858 73.7198L461.847 73.7201L461.774 73.7198L461.763 73.7201L461.689 73.7198L461.678 73.7201L461.605 73.7198L461.594 73.7201L461.521 73.7198L461.51 73.7201L461.436 73.7198L461.425 73.7201L461.352 73.7198L461.341 73.7201L461.268 73.7198L461.257 73.7201L461.183 73.7198L461.172 73.7201L461.099 73.7198L461.088 73.7201L461.014 73.7198L461.004 73.7201L460.93 73.7198L460.919 73.7201L460.846 73.7198L460.835 73.7201L460.761 73.7198L460.75 73.7201L460.677 73.7198L460.666 73.7201L460.593 73.7198L460.582 73.7201L460.508 73.7198L460.498 73.7201L460.424 73.7198L460.413 73.7201L460.34 73.7198L460.329 73.7201L460.255 73.7198L460.244 73.7201L460.171 73.7198L460.16 73.7201L460.087 73.7198L460.076 73.7201L460.002 73.7198L459.991 73.7201L459.918 73.7198L459.907 73.7201L459.834 73.7198L459.823 73.7201L459.749 73.7198L459.738 73.7201L459.665 73.7198L459.654 73.7201L459.581 73.7198L459.57 73.7201L459.496 73.7198L459.485 73.7201L459.412 73.7198L459.401 73.7201L459.328 73.7198L459.317 73.7201L459.243 73.7198L459.232 73.7201L459.159 73.7198L459.148 73.7201L459.075 73.7198L459.064 73.7201L458.99 73.7198L458.979 73.7201L458.906 73.7198L458.895 73.7201L458.822 73.7198L458.811 73.7201L458.737 73.7198L458.726 73.7201L458.653 73.7198L458.642 73.7201L458.568 73.7198L458.558 73.7201L458.484 73.7198L458.473 73.7201L458.4 73.7198L458.389 73.7201L458.315 73.7198L458.304 73.7201L458.231 73.7198L458.22 73.7201L458.147 73.7198L458.136 73.7201L458.062 73.7198L458.051 73.7201L457.978 73.7198L457.967 73.7201L457.894 73.7198L457.883 73.7201L457.809 73.7198L457.798 73.7201L457.725 73.7198L457.714 73.7201L457.641 73.7198L457.63 73.7201L457.556 73.7198L457.545 73.7201L457.472 73.7198L457.461 73.7201L457.388 73.7198L457.377 73.7201L457.303 73.7198L457.292 73.7201L457.219 73.7198L457.208 73.7201L457.135 73.7198L457.124 73.7201L457.05 73.7198L457.039 73.7201L456.966 73.7198L456.955 73.7201L456.882 73.7198C450.905 73.7198 446.307 76.2528 446.048 81.8299C445.753 88.1642 450.019 91.3874 455.886 91.8506C457.476 91.9761 460.886 92.2099 463.879 92.2099C470.145 92.2099 477.422 96.4519 477.274 105.077C477.152 112.204 471.646 116.685 465.093 117.663C465.871 117.747 466.659 117.821 467.474 117.858C467.977 117.882 468.478 117.885 468.977 117.868C476.414 117.619 483.128 112.958 483.263 105.077C483.41 96.452 476.133 92.2099 469.868 92.2099C466.874 92.2099 463.464 91.9761 461.874 91.8506C456.007 91.3874 451.742 88.1642 452.037 81.8298C452.296 76.2527 456.894 73.7197 462.87 73.7197L462.859 73.7201Z" fill="#D7D7D7"/>
<path d="M202.824 92.8345L201.289 82.1333C200.646 77.6595 200.986 71.5507 203.324 68.9246C204.228 67.8673 205.364 67.0328 206.644 66.4869C207.924 65.9409 209.314 65.6981 210.704 65.7776L210.68 65.7752L210.62 65.7776L210.596 65.7752L210.535 65.7776L210.512 65.7752L210.451 65.7776L210.427 65.7752L210.366 65.7776L210.343 65.7752L210.282 65.7776L210.259 65.7752L210.198 65.7776L210.174 65.7752L210.113 65.7776L210.09 65.7752L210.029 65.7776L210.006 65.7752L209.945 65.7776L209.921 65.7752L209.86 65.7776L209.837 65.7752L209.776 65.7776L209.753 65.7752L209.692 65.7776L209.668 65.7752L209.607 65.7776L209.584 65.7752L209.523 65.7776L209.5 65.7752L209.439 65.7776L209.415 65.7752L209.354 65.7776L209.331 65.7752L209.27 65.7776L209.247 65.7752L209.186 65.7776L209.162 65.7752L209.101 65.7776L209.078 65.7752L209.017 65.7776L208.994 65.7752L208.933 65.7776L208.909 65.7752L208.848 65.7776L208.825 65.7752L208.764 65.7776L208.74 65.7752L208.68 65.7776L208.656 65.7752L208.595 65.7776L208.572 65.7752L208.511 65.7776L208.488 65.7752L208.427 65.7776L208.403 65.7752L208.342 65.7776L208.319 65.7752L208.258 65.7776L208.234 65.7752L208.174 65.7776L208.15 65.7752L208.089 65.7776L208.066 65.7752L208.005 65.7776L207.981 65.7752L207.921 65.7776L207.897 65.7752L207.836 65.7776L207.813 65.7752L207.752 65.7776L207.728 65.7752L207.668 65.7776L207.644 65.7752L207.583 65.7776L207.56 65.7752L207.499 65.7776L207.475 65.7752L207.415 65.7776L207.391 65.7752L207.33 65.7776L207.307 65.7752L207.246 65.7776L207.222 65.7752L207.162 65.7776L207.138 65.7752L207.077 65.7776L207.054 65.7752L206.993 65.7776L206.969 65.7752L206.909 65.7776L206.885 65.7752L206.824 65.7776L206.801 65.7752L206.74 65.7776L206.716 65.7752L206.656 65.7776L206.632 65.7752L206.571 65.7776L206.548 65.7752L206.487 65.7776L206.463 65.7752L206.403 65.7776L206.379 65.7752L206.318 65.7776L206.295 65.7752L206.234 65.7776L206.21 65.7752L206.15 65.7776L206.126 65.7752L206.065 65.7776L206.042 65.7752L205.981 65.7776L205.957 65.7752L205.897 65.7776L205.873 65.7752L205.812 65.7776L205.789 65.7752L205.728 65.7776L205.704 65.7752L205.643 65.7776L205.62 65.7752L205.559 65.7776L205.536 65.7752L205.475 65.7776L205.451 65.7752L205.391 65.7776L205.367 65.7752L205.306 65.7776L205.283 65.7752L205.222 65.7776L205.198 65.7752L205.137 65.7776L205.114 65.7752L205.053 65.7776L205.03 65.7752L204.969 65.7776L204.945 65.7752L204.884 65.7776L204.861 65.7752L204.8 65.7776L204.777 65.7752C203.377 65.6881 201.976 65.9273 200.684 66.4739C199.393 67.0205 198.247 67.8596 197.336 68.9246C194.997 71.5507 194.658 77.6595 195.301 82.1333L196.836 92.8345C197.136 95.834 198.573 98.6055 200.855 100.581C203.136 102.556 206.088 103.585 209.105 103.457L209.132 103.455L209.19 103.457L209.216 103.455L209.274 103.457L209.301 103.455L209.359 103.457L209.385 103.455L209.443 103.457L209.469 103.455L209.527 103.457L209.554 103.455L209.612 103.457L209.638 103.455L209.696 103.457L209.722 103.455L209.78 103.457L209.807 103.455L209.865 103.457L209.891 103.455L209.949 103.457L209.975 103.455L210.033 103.457L210.06 103.455L210.118 103.457L210.144 103.455L210.202 103.457L210.229 103.455L210.286 103.457L210.313 103.455L210.371 103.457L210.397 103.455L210.455 103.457L210.482 103.455L210.539 103.457L210.566 103.455L210.624 103.457L210.65 103.455L210.708 103.457L210.735 103.455L210.792 103.457L210.819 103.455L210.877 103.457L210.903 103.455L210.961 103.457L210.988 103.455L211.045 103.457L211.072 103.455L211.13 103.457L211.156 103.455L211.214 103.457L211.241 103.455L211.299 103.457L211.325 103.455L211.383 103.457L211.409 103.455L211.467 103.457L211.494 103.455L211.552 103.457L211.578 103.455L211.636 103.457L211.662 103.455L211.72 103.457L211.747 103.455L211.805 103.457L211.831 103.455L211.889 103.457L211.915 103.455L211.973 103.457L212 103.455L212.058 103.457L212.084 103.455L212.142 103.457L212.169 103.455L212.226 103.457L212.253 103.455L212.311 103.457L212.337 103.455L212.395 103.457L212.422 103.455L212.479 103.457L212.506 103.455L212.564 103.457L212.59 103.455L212.648 103.457L212.675 103.455L212.732 103.457L212.759 103.455L212.817 103.457L212.843 103.455L212.901 103.457L212.928 103.455L212.985 103.457L213.012 103.455L213.07 103.457L213.096 103.455L213.154 103.457L213.181 103.455L213.239 103.457L213.265 103.455L213.323 103.457L213.349 103.455L213.407 103.457L213.434 103.455L213.491 103.457L213.518 103.455L213.576 103.457L213.602 103.455L213.66 103.457L213.687 103.455L213.744 103.457L213.771 103.455L213.829 103.457L213.855 103.455L213.913 103.457L213.94 103.455L213.998 103.457L214.024 103.455L214.082 103.457L214.108 103.455L214.166 103.457L214.193 103.455L214.251 103.457L214.277 103.455L214.335 103.457L214.361 103.455L214.419 103.457L214.446 103.455L214.504 103.457L214.53 103.455L214.588 103.457L214.614 103.455L214.672 103.457L214.699 103.455L214.757 103.457L214.783 103.455L214.841 103.457L214.868 103.455L214.925 103.457L214.952 103.455L215.01 103.457L215.036 103.455L215.094 103.457C212.077 103.585 209.124 102.556 206.843 100.581C204.562 98.6056 203.124 95.834 202.824 92.8345Z" fill="#D7D7D7"/>
<path d="M315.059 32.597C326.621 33.9985 333.866 43.7397 332.441 56.9099C330.259 77.0668 327.013 96.7176 324.238 116.808C323.368 123.105 322.079 130.741 330.57 132.177C331.447 132.333 332.338 132.388 333.228 132.341C333.255 132.34 333.285 132.343 333.312 132.341C333.339 132.34 333.369 132.343 333.396 132.341C333.423 132.34 333.454 132.343 333.481 132.341C333.508 132.34 333.538 132.343 333.565 132.341C333.592 132.34 333.622 132.343 333.649 132.341C333.676 132.34 333.707 132.343 333.734 132.341C333.761 132.34 333.791 132.343 333.818 132.341C333.845 132.34 333.876 132.343 333.902 132.341C333.929 132.34 333.96 132.343 333.987 132.341C334.014 132.34 334.044 132.343 334.071 132.341C334.098 132.34 334.129 132.343 334.155 132.341C334.182 132.34 334.213 132.343 334.24 132.341C334.267 132.34 334.297 132.343 334.324 132.341C334.351 132.34 334.381 132.343 334.408 132.341C334.435 132.34 334.466 132.343 334.493 132.341C334.52 132.34 334.55 132.343 334.577 132.341C334.604 132.34 334.635 132.343 334.661 132.341C334.688 132.34 334.719 132.343 334.746 132.341C334.773 132.34 334.803 132.343 334.83 132.341C334.857 132.34 334.888 132.343 334.914 132.341C334.942 132.34 334.972 132.343 334.999 132.341C335.026 132.34 335.056 132.343 335.083 132.341C335.11 132.34 335.141 132.343 335.168 132.341C335.195 132.34 335.225 132.343 335.252 132.341C335.279 132.34 335.309 132.343 335.336 132.341C335.363 132.34 335.394 132.343 335.42 132.341C335.448 132.34 335.478 132.343 335.505 132.341C335.532 132.34 335.562 132.343 335.589 132.341C335.616 132.34 335.647 132.343 335.674 132.341C335.701 132.34 335.731 132.343 335.758 132.341C335.785 132.34 335.815 132.343 335.842 132.341C335.869 132.34 335.9 132.343 335.927 132.341C335.954 132.34 335.984 132.343 336.011 132.341C336.038 132.34 336.069 132.343 336.095 132.341C336.122 132.34 336.153 132.343 336.18 132.341C336.207 132.34 336.237 132.343 336.264 132.341C336.291 132.34 336.321 132.343 336.348 132.341C336.375 132.34 336.406 132.343 336.433 132.341C336.46 132.34 336.49 132.343 336.517 132.341C336.544 132.34 336.574 132.343 336.601 132.341C336.628 132.34 336.659 132.343 336.686 132.341C336.713 132.34 336.743 132.343 336.77 132.341C336.797 132.34 336.828 132.343 336.854 132.341C336.881 132.34 336.912 132.343 336.939 132.341C336.966 132.34 336.996 132.343 337.023 132.341C337.05 132.34 337.081 132.343 337.107 132.341C337.134 132.34 337.165 132.343 337.192 132.341C337.219 132.34 337.249 132.343 337.276 132.341C337.303 132.34 337.334 132.343 337.36 132.341C337.388 132.34 337.418 132.343 337.445 132.341C337.472 132.34 337.502 132.343 337.529 132.341C337.556 132.34 337.587 132.343 337.614 132.341C337.641 132.34 337.671 132.343 337.698 132.341C337.725 132.34 337.755 132.343 337.782 132.341C337.809 132.34 337.84 132.343 337.867 132.341C337.894 132.34 337.924 132.343 337.951 132.341C337.978 132.34 338.008 132.343 338.035 132.341C338.055 132.34 338.076 132.341 338.096 132.341C337.581 132.318 337.067 132.263 336.558 132.177C328.068 130.741 329.357 123.105 330.226 116.808C333.002 96.7176 336.248 77.0668 338.429 56.9099C339.976 42.619 331.319 32.3577 318.008 32.4169C317.568 32.419 317.123 32.4324 316.672 32.4572L316.632 32.4587C316.169 32.4844 315.7 32.5226 315.227 32.5734C315.17 32.5795 315.116 32.5903 315.059 32.597Z" fill="#D7D7D7"/>
<path d="M500.398 54.2891C500.167 59.4627 497.998 64.3614 494.321 68.0152C490.644 71.669 485.727 73.8117 480.542 74.0193C481.317 74.0303 482.114 74.0393 482.932 74.0461L483.183 74.0479C483.994 74.054 484.826 74.0578 485.694 74.0578L485.701 74.0575C491.034 74.0512 496.162 71.9932 500.014 68.3114C503.866 64.6296 506.149 59.6073 506.386 54.2891C507.156 42.1395 497.172 31.6284 481.599 31.6284C477.592 31.6284 474.104 31.5986 470.774 31.5933H470.577C469.447 31.5918 468.335 31.5936 467.227 31.6003H467.221C469.825 31.6111 472.567 31.6284 475.61 31.6284C491.184 31.6284 501.167 42.1395 500.398 54.2891Z" fill="#D7D7D7"/>
<path d="M349.151 175.341C372.393 161.624 387.999 145.614 391.501 117.679C393.971 97.9758 397.798 68.7489 401.031 49.1533C403.046 36.9438 397.865 25.1655 384.337 23.0108C382.926 22.7877 381.498 22.69 380.069 22.7189C379.851 22.723 379.631 22.7236 379.415 22.7341C378.748 22.7659 378.089 22.8179 377.446 22.9089L377.44 22.9095C377.744 22.9469 378.041 22.9617 378.349 23.0108C391.877 25.1655 397.058 36.9439 395.043 49.1533C391.809 68.7489 387.983 97.9758 385.512 117.679C382.011 145.614 366.404 161.624 343.162 175.341C339.296 177.9 336.997 178.752 333.828 178.979C334.446 178.997 335.016 179.012 335.566 179.025C335.644 179.027 335.724 179.029 335.8 179.031C336.38 179.044 336.928 179.052 337.445 179.053C342.009 179.061 344.389 178.492 349.151 175.341Z" fill="#D7D7D7"/>
<path d="M131.757 178.861L135.521 152.237L145.104 84.4629C146.369 76.0855 145.938 67.54 143.838 59.3315C141.737 51.1231 138.009 43.4182 132.874 36.6725C122.918 23.8587 110.056 18.6727 98.0626 18.6727L98.0389 18.6736C96.9872 18.6742 95.935 18.7147 94.8831 18.7792C106.049 19.5357 117.702 24.8537 126.885 36.6725C132.021 43.4182 135.749 51.1231 137.849 59.3315C139.95 67.54 140.381 76.0855 139.116 84.4629L129.533 152.237L125.769 178.852L128.643 178.856L131.757 178.861Z" fill="#D7D7D7"/>
<path d="M454.355 116.579C454.332 116.579 454.31 116.576 454.288 116.577L454.27 116.579C454.248 116.579 454.226 116.576 454.203 116.577L454.186 116.579C454.163 116.579 454.142 116.576 454.119 116.577L454.102 116.579C454.079 116.579 454.057 116.576 454.035 116.577L454.017 116.579C453.995 116.579 453.973 116.576 453.951 116.577L453.933 116.579C453.91 116.579 453.889 116.576 453.866 116.577L453.849 116.579C453.826 116.579 453.805 116.576 453.782 116.577L453.764 116.579C453.742 116.579 453.72 116.576 453.698 116.577L453.68 116.579C453.658 116.579 453.636 116.576 453.613 116.577L453.596 116.579C453.573 116.579 453.552 116.576 453.529 116.577L453.511 116.579C453.489 116.579 453.467 116.576 453.445 116.577L453.427 116.579C453.405 116.579 453.383 116.576 453.36 116.577L453.343 116.579C453.32 116.579 453.299 116.576 453.276 116.577L453.259 116.579C453.236 116.579 453.214 116.576 453.192 116.577L453.174 116.579C453.152 116.579 453.13 116.576 453.108 116.577L453.09 116.579C453.067 116.579 453.046 116.576 453.023 116.577L453.006 116.579C452.983 116.579 452.962 116.576 452.939 116.577L452.921 116.579C452.899 116.579 452.877 116.576 452.855 116.577L452.837 116.579C452.815 116.579 452.793 116.576 452.77 116.577L452.753 116.579C452.73 116.579 452.709 116.576 452.686 116.577L452.668 116.579C452.646 116.579 452.624 116.576 452.602 116.577L452.584 116.579C452.562 116.579 452.54 116.576 452.517 116.577L452.5 116.579C452.477 116.579 452.456 116.576 452.433 116.577L452.416 116.579C452.393 116.579 452.371 116.576 452.349 116.577L452.331 116.579C452.309 116.579 452.287 116.576 452.264 116.577L452.247 116.579C452.224 116.579 452.203 116.576 452.18 116.577L452.163 116.579C452.14 116.579 452.119 116.576 452.096 116.577L452.078 116.579C452.056 116.579 452.034 116.576 452.012 116.577L451.994 116.579C451.972 116.579 451.95 116.576 451.927 116.577L451.91 116.579C451.887 116.579 451.866 116.576 451.843 116.577L451.825 116.579C451.803 116.579 451.781 116.576 451.759 116.577L451.741 116.579C451.719 116.579 451.697 116.576 451.674 116.577L451.657 116.579C451.634 116.579 451.613 116.576 451.59 116.577L451.573 116.579C451.55 116.579 451.528 116.576 451.506 116.577L451.488 116.579C451.466 116.579 451.444 116.576 451.421 116.577L451.404 116.579C451.381 116.579 451.36 116.576 451.337 116.577L451.32 116.579C451.297 116.579 451.275 116.576 451.253 116.577L451.235 116.579C451.213 116.579 451.191 116.576 451.169 116.577L451.151 116.579C451.128 116.579 451.107 116.576 451.084 116.577L451.067 116.579C451.044 116.579 451.023 116.576 451 116.577L450.982 116.579C450.96 116.579 450.938 116.576 450.916 116.577L450.898 116.579C450.876 116.579 450.854 116.576 450.831 116.577L450.814 116.579C450.791 116.579 450.77 116.576 450.747 116.577L450.729 116.579C450.707 116.579 450.685 116.576 450.663 116.577L450.645 116.579C450.623 116.579 450.601 116.576 450.578 116.577L450.561 116.579C450.538 116.579 450.517 116.576 450.494 116.577L450.477 116.579C450.454 116.579 450.432 116.576 450.41 116.577L450.392 116.579C450.37 116.579 450.348 116.576 450.326 116.577L450.308 116.579C450.285 116.579 450.264 116.576 450.241 116.577L450.224 116.579C450.201 116.579 450.18 116.576 450.157 116.577L450.139 116.579C450.117 116.579 450.095 116.576 450.073 116.577L450.055 116.579C450.033 116.579 450.011 116.576 449.988 116.577L449.971 116.579C449.948 116.579 449.927 116.576 449.904 116.577L449.886 116.579C449.864 116.579 449.842 116.576 449.82 116.577L449.802 116.579C449.78 116.579 449.758 116.576 449.735 116.577L449.718 116.579C449.695 116.579 449.674 116.576 449.651 116.577L449.634 116.579C449.611 116.579 449.589 116.576 449.567 116.577L449.549 116.579C449.527 116.579 449.505 116.576 449.482 116.577L449.465 116.579C449.442 116.579 449.421 116.576 449.398 116.577L449.381 116.579C449.358 116.579 449.336 116.576 449.314 116.577L449.296 116.579C449.274 116.579 449.252 116.576 449.23 116.577L449.212 116.579C449.189 116.579 449.168 116.576 449.145 116.577L449.128 116.579C449.105 116.579 449.084 116.576 449.061 116.577L449.043 116.579C449.021 116.579 448.999 116.576 448.977 116.577L448.959 116.579C448.937 116.579 448.915 116.576 448.892 116.577L448.875 116.579C448.852 116.579 448.831 116.576 448.808 116.577L448.79 116.579C448.768 116.579 448.746 116.576 448.724 116.577L448.706 116.579C448.684 116.579 448.662 116.576 448.64 116.577L448.622 116.579C448.599 116.579 448.578 116.576 448.555 116.577L448.538 116.579C448.515 116.579 448.493 116.576 448.471 116.577C443.779 116.696 440.741 120.547 440.282 125.191C440.084 126.279 440.117 127.398 440.379 128.473C440.64 129.549 441.125 130.558 441.801 131.435C442.478 132.312 443.33 133.038 444.305 133.566C445.28 134.093 446.354 134.412 447.46 134.499C450.577 134.929 453.723 135.112 456.869 135.047H462.215C459.283 135.089 456.352 134.906 453.448 134.499C452.343 134.412 451.268 134.093 450.293 133.566C449.319 133.038 448.466 132.312 447.79 131.435C447.113 130.558 446.629 129.549 446.367 128.473C446.106 127.398 446.073 126.279 446.271 125.191C446.729 120.553 449.76 116.707 454.441 116.579C454.419 116.579 454.397 116.576 454.375 116.577L454.355 116.579Z" fill="#D7D7D7"/>
<path d="M492.217 158.195C492.49 145.929 485.399 134.906 467.781 135.003C466.056 135.012 464.322 135.044 462.59 135.047H462.77L463.015 135.045C479.718 135.467 486.495 146.224 486.228 158.195C485.955 163.649 483.588 168.789 479.619 172.547C475.65 176.306 470.383 178.395 464.912 178.381C462.375 178.432 460.11 178.46 457.98 178.472C458.922 178.477 459.872 178.48 460.838 178.48C463.873 178.482 467.085 178.458 470.9 178.381C476.371 178.395 481.638 176.306 485.607 172.547C489.577 168.789 491.944 163.649 492.217 158.195Z" fill="#D7D7D7"/>
<path d="M217.296 131.694C217.268 131.694 217.24 131.694 217.212 131.694C217.184 131.694 217.156 131.694 217.128 131.694C217.1 131.694 217.072 131.694 217.043 131.694C217.015 131.694 216.987 131.694 216.959 131.694C216.931 131.694 216.903 131.694 216.875 131.694C216.847 131.694 216.819 131.694 216.79 131.694C216.762 131.694 216.734 131.694 216.706 131.694C216.678 131.694 216.65 131.694 216.622 131.694C216.594 131.694 216.566 131.694 216.537 131.694C216.509 131.694 216.481 131.694 216.453 131.694C216.425 131.694 216.397 131.694 216.369 131.694C216.34 131.694 216.312 131.694 216.284 131.694C216.256 131.694 216.228 131.694 216.2 131.694C216.172 131.694 216.144 131.694 216.116 131.694C216.087 131.694 216.059 131.694 216.031 131.694C216.003 131.694 215.975 131.694 215.947 131.694C215.919 131.694 215.891 131.694 215.863 131.694C215.834 131.694 215.806 131.694 215.778 131.694C215.75 131.694 215.722 131.694 215.694 131.694C215.666 131.694 215.638 131.694 215.61 131.694C215.581 131.694 215.553 131.694 215.525 131.694C215.497 131.694 215.469 131.694 215.441 131.694C215.413 131.694 215.385 131.694 215.357 131.694C215.328 131.694 215.3 131.694 215.272 131.694C215.244 131.694 215.216 131.694 215.188 131.694C215.16 131.694 215.132 131.694 215.103 131.694C215.075 131.694 215.047 131.694 215.019 131.694C214.991 131.694 214.963 131.694 214.935 131.694C214.907 131.694 214.879 131.694 214.851 131.694C214.822 131.694 214.794 131.694 214.766 131.694C214.738 131.694 214.71 131.694 214.682 131.694C214.654 131.694 214.626 131.694 214.597 131.694C214.569 131.694 214.541 131.694 214.513 131.694C214.485 131.694 214.457 131.694 214.429 131.694C214.401 131.694 214.373 131.694 214.344 131.694C214.316 131.694 214.288 131.694 214.26 131.694C214.232 131.694 214.204 131.694 214.176 131.694C214.148 131.694 214.119 131.694 214.091 131.694C214.063 131.694 214.035 131.694 214.007 131.694C213.979 131.694 213.951 131.694 213.923 131.694C213.895 131.694 213.866 131.694 213.838 131.694C213.81 131.694 213.782 131.694 213.754 131.694C213.726 131.694 213.698 131.694 213.67 131.694C213.641 131.694 213.613 131.694 213.585 131.694C213.557 131.694 213.529 131.694 213.501 131.694C213.473 131.694 213.445 131.694 213.417 131.694C213.388 131.694 213.36 131.694 213.332 131.694C213.304 131.694 213.276 131.694 213.248 131.694C213.22 131.694 213.192 131.694 213.164 131.694C213.135 131.694 213.107 131.694 213.079 131.694C213.051 131.694 213.023 131.694 212.995 131.694C212.967 131.694 212.939 131.694 212.911 131.694C212.882 131.694 212.854 131.694 212.826 131.694C212.798 131.694 212.77 131.694 212.742 131.694C212.714 131.694 212.686 131.694 212.657 131.694C212.629 131.694 212.601 131.694 212.573 131.694C212.545 131.694 212.517 131.694 212.489 131.694C212.461 131.694 212.433 131.694 212.404 131.694C212.376 131.694 212.348 131.694 212.32 131.694C212.292 131.694 212.264 131.694 212.236 131.694C212.208 131.694 212.18 131.694 212.151 131.694C212.123 131.694 212.095 131.694 212.067 131.694C212.039 131.694 212.011 131.694 211.983 131.694C211.955 131.694 211.926 131.694 211.898 131.694C211.87 131.694 211.842 131.694 211.814 131.694C211.786 131.694 211.758 131.694 211.73 131.694C211.701 131.694 211.673 131.694 211.645 131.694C211.617 131.694 211.589 131.694 211.561 131.694C211.217 131.691 210.874 131.699 210.531 131.718C205.884 131.989 202.898 135.137 203.546 139.738L206.224 158.766C206.228 158.797 206.23 158.827 206.235 158.858C206.235 158.858 207.742 168.727 208.747 172.858C209.172 174.992 210.045 177.012 211.309 178.785H217.298C216.034 177.012 215.161 174.992 214.736 172.858C213.731 168.727 212.223 158.858 212.223 158.858C212.219 158.827 212.217 158.797 212.212 158.766L209.534 139.738C208.887 135.137 211.873 131.989 216.52 131.718C216.806 131.702 217.094 131.695 217.381 131.694C217.353 131.694 217.325 131.694 217.296 131.694Z" fill="#D7D7D7"/>
<path d="M76.8372 93.9835L78.3899 82.8244C79.0391 78.1588 80.7605 71.9701 84.3438 68.9045C86.7491 66.7768 89.8817 65.6533 93.0936 65.7662L93.0115 65.7665L93.0092 65.7662L92.9271 65.7665L92.925 65.7662L92.8428 65.7665L92.8406 65.7662L92.7584 65.7665L92.7563 65.7662L92.6741 65.7665L92.6719 65.7662L92.5897 65.7665L92.5876 65.7662L92.5055 65.7665L92.5032 65.7662L92.4211 65.7665L92.4189 65.7662L92.3367 65.7665L92.3345 65.7662L92.2524 65.7665L92.2501 65.7662L92.168 65.7665L92.1658 65.7662L92.0837 65.7665L92.0815 65.7662L91.9993 65.7665L91.9972 65.7662L91.915 65.7665L91.9128 65.7662L91.8306 65.7665L91.8285 65.7662L91.7463 65.7665L91.7441 65.7662L91.662 65.7665L91.6598 65.7662L91.5776 65.7665L91.5754 65.7662L91.4933 65.7665L91.491 65.7662L91.4089 65.7665L91.4067 65.7662L91.3246 65.7665L91.3223 65.7662L91.2402 65.7665L91.2381 65.7662L91.1559 65.7665L91.1537 65.7662L91.0715 65.7665L91.0694 65.7662L90.9872 65.7665L90.985 65.7662L90.9028 65.7665L90.9007 65.7662L90.8185 65.7665L90.8163 65.7662L90.7342 65.7665L90.7319 65.7662L90.6498 65.7665L90.6476 65.7662L90.5655 65.7665L90.5632 65.7662L90.4811 65.7665L90.4789 65.7662L90.3968 65.7665L90.3946 65.7662L90.3124 65.7665L90.3103 65.7662L90.2281 65.7665L90.2259 65.7662L90.1437 65.7665L90.1416 65.7662L90.0593 65.7665L90.0572 65.7662L89.9751 65.7665L89.9728 65.7662L89.8907 65.7665L89.8885 65.7662L89.8064 65.7665L89.8041 65.7662L89.722 65.7665L89.7198 65.7662L89.6377 65.7665L89.6354 65.7662L89.5533 65.7665L89.5512 65.7662L89.469 65.7665L89.4668 65.7662L89.3846 65.7665L89.3824 65.7662L89.3002 65.7665L89.2981 65.7662L89.2159 65.7665L89.2137 65.7662L89.1316 65.7665L89.1294 65.7662L89.0473 65.7665L89.0451 65.7662L88.9629 65.7665L88.9607 65.7662L88.8786 65.7665L88.8763 65.7662L88.7942 65.7665L88.792 65.7662L88.7099 65.7665L88.7077 65.7662L88.6255 65.7665L88.6233 65.7662L88.5412 65.7665L88.539 65.7662L88.4568 65.7665L88.4546 65.7662L88.3724 65.7665L88.3703 65.7662L88.2881 65.7665L88.2859 65.7662L88.2038 65.7665L88.2017 65.7662L88.1195 65.7665L88.1173 65.7662L88.0351 65.7665L88.0329 65.7662L87.9507 65.7665L87.9485 65.7662L87.8664 65.7665L87.8641 65.7662L87.7821 65.7665L87.7799 65.7662L87.6978 65.7665L87.6955 65.7662L87.6134 65.7665L87.6112 65.7662L87.529 65.7665L87.5268 65.7662L87.4446 65.7665L87.4425 65.7662L87.3604 65.7665L87.3582 65.7662L87.276 65.7665L87.2739 65.7662L87.1916 65.7665L87.1895 65.7662L87.1073 65.7665L87.105 65.7662C83.8931 65.6533 80.7606 66.7768 78.3553 68.9045C74.7719 71.9701 73.0505 78.1588 72.4014 82.8244L70.8487 93.9835C70.6569 95.3621 70.7633 96.7658 71.161 98.0998C71.5587 99.4339 72.2383 100.667 73.154 101.717C74.0697 102.767 75.2003 103.609 76.4694 104.185C77.7386 104.762 79.117 105.06 80.5115 105.06L80.5455 105.058L80.5958 105.06L80.6299 105.058L80.6802 105.06L80.7142 105.058L80.7645 105.06L80.7986 105.058L80.8488 105.06L80.8829 105.058L80.9332 105.06L80.9673 105.058L81.0175 105.06L81.0516 105.058L81.1019 105.06L81.136 105.058L81.1862 105.06L81.2204 105.058L81.2706 105.06L81.3046 105.058L81.3549 105.06L81.389 105.058L81.4393 105.06L81.4733 105.058L81.5236 105.06L81.5577 105.058L81.608 105.06L81.642 105.058L81.6923 105.06L81.7264 105.058L81.7766 105.06L81.8106 105.058L81.861 105.06L81.895 105.058L81.9453 105.06L81.9795 105.058L82.0297 105.06L82.0638 105.058L82.114 105.06L82.1482 105.058L82.1984 105.06L82.2324 105.058L82.2827 105.06L82.3168 105.058L82.3671 105.06L82.4011 105.058L82.4515 105.06L82.4855 105.058L82.5358 105.06L82.5698 105.058L82.6201 105.06L82.6541 105.058L82.7044 105.06L82.7385 105.058L82.7888 105.06L82.8229 105.058L82.8731 105.06L82.9073 105.058L82.9575 105.06L82.9916 105.058L83.0418 105.06L83.0759 105.058L83.1262 105.06L83.1602 105.058L83.2106 105.06L83.2446 105.058L83.2949 105.06L83.3289 105.058L83.3793 105.06L83.4133 105.058L83.4635 105.06L83.4976 105.058L83.5479 105.06L83.5819 105.058L83.6322 105.06L83.6663 105.058L83.7166 105.06L83.7507 105.058L83.8009 105.06L83.835 105.058L83.8852 105.06L83.9193 105.058L83.9696 105.06L84.0037 105.058L84.054 105.06L84.088 105.058L84.1384 105.06L84.1724 105.058L84.2227 105.06L84.2568 105.058L84.307 105.06L84.341 105.058L84.3913 105.06L84.4254 105.058L84.4757 105.06L84.5097 105.058L84.56 105.06L84.5941 105.058L84.6444 105.06L84.6784 105.058L84.7287 105.06L84.7628 105.058L84.813 105.06L84.8471 105.058L84.8975 105.06L84.9315 105.058L84.9818 105.06L85.0159 105.058L85.0662 105.06L85.1002 105.058L85.1504 105.06L85.1845 105.058L85.2348 105.06L85.2688 105.058L85.3192 105.06L85.3532 105.058L85.4035 105.06L85.4375 105.058L85.4879 105.06L85.5219 105.058L85.5721 105.06L85.6063 105.058L85.6565 105.06L85.6906 105.058L85.7408 105.06L85.775 105.058L85.8253 105.06L85.8593 105.058L85.9095 105.06L85.9437 105.058L85.9939 105.06L86.0279 105.058L86.0783 105.06L86.1123 105.058L86.1626 105.06L86.1966 105.058L86.247 105.06L86.281 105.058L86.3313 105.06L86.3654 105.058L86.4156 105.06L86.4497 105.058L86.4999 105.06C85.1054 105.06 83.7272 104.762 82.458 104.185C81.1888 103.609 80.0583 102.767 79.1426 101.717C78.2269 100.667 77.5472 99.4339 77.1495 98.0998C76.7519 96.7658 76.6453 95.3621 76.8372 93.9835Z" fill="#D7D7D7"/>
<path d="M284.805 179.076L284.836 179.076C281.109 175.473 277.342 152.237 277.342 152.237L266.402 74.9105C262.2 45.2092 231.596 18.6726 201.543 18.6726L201.53 18.6732C200.604 18.6735 199.672 18.7159 198.737 18.7792C227.735 20.5577 256.359 46.2569 260.413 74.9105L271.354 152.237C271.354 152.237 275.109 175.394 278.829 179.055C279.194 179.057 279.546 179.058 279.883 179.059C280.997 179.064 281.949 179.067 282.716 179.07C282.818 179.07 282.913 179.071 283.008 179.071C283.942 179.075 284.555 179.076 284.75 179.076H284.805Z" fill="#D7D7D7"/>
<path d="M82.0133 131.693H76.1935C71.4189 131.688 66.6013 133.959 64.8383 142.355L63.0208 155.27L63.0133 155.314L59.6991 178.861H65.6876L69.0017 155.314L69.0092 155.27L70.8267 142.355C72.5794 134.009 77.351 131.715 82.0979 131.693H82.0133Z" fill="#D7D7D7"/>
<path d="M84.0981 131.833L84.1888 131.849C84.1582 131.844 84.1288 131.837 84.0981 131.833Z" fill="#D7D7D7"/>
<path d="M682.469 128.923C682.497 128.922 682.526 128.924 682.554 128.923C682.581 128.922 682.61 128.924 682.638 128.923C682.688 128.921 682.734 128.912 682.783 128.91C682.657 128.915 682.532 128.922 682.404 128.923C682.426 128.923 682.448 128.923 682.469 128.923Z" fill="#D7D7D7"/>
<path d="M685.189 128.548L685.19 128.547L685.189 128.548Z" fill="#D7D7D7"/>
<path d="M883.525 135.582C883.553 135.581 883.582 135.584 883.61 135.582C883.638 135.581 883.667 135.584 883.694 135.582C883.722 135.581 883.751 135.584 883.779 135.582C883.806 135.581 883.835 135.584 883.863 135.582C883.89 135.581 883.92 135.584 883.947 135.582C883.992 135.58 884.034 135.569 884.079 135.567C883.849 135.579 883.618 135.587 883.382 135.582C883.402 135.583 883.422 135.583 883.441 135.582C883.469 135.581 883.498 135.584 883.525 135.582Z" fill="#D7D7D7"/>
<path d="M1080.62 178.676C1074.38 178.372 1069.44 178.508 1065.87 178.508C1062.18 178.508 1055.92 178.348 1055.92 178.348C1057.46 175.958 1058.48 171.237 1058.95 167.777C1059.29 165.274 1059.46 164.148 1060.09 160.013C1063.24 139.53 1066.66 115.562 1069.6 95.0457C1071.69 80.4255 1083.66 72.3154 1094.97 74.1707C1107.52 76.228 1116.41 86.1678 1114.51 100.537C1111.5 123.476 1108.36 138.584 1105.39 161.531C1103.87 170.331 1094.81 178.146 1087.3 178.524C1083.38 178.722 1085.03 178.676 1080.62 178.676ZM1122.41 34.7483L1120.03 53.5174L1103.13 65.4934L1098.24 64.877L1097.94 64.8398L1093.05 64.2234L1079.66 48.4298L1082.04 29.6607C1082.04 29.6607 1098.54 18.0242 1098.69 17.7647C1098.84 17.5052 1099.49 17.5869 1099.49 17.5869L1103.87 18.0336L1103.87 18.0267L1104.01 18.0487L1104.16 18.0638L1104.16 18.0708L1108.51 18.7233C1108.51 18.7233 1109.16 18.805 1109.24 19.0942C1109.32 19.3835 1122.41 34.7483 1122.41 34.7483ZM876.026 178.593C861.56 178.593 846.124 178.565 831.6 178.565C828.978 178.565 822.037 178.635 822.311 178.548C824.307 177.91 824.95 171.574 825.425 168.746C831.539 132.33 833.14 105.405 839.893 69.1096C844.417 44.7965 864.948 31.077 887.742 31.9453C901.006 32.4506 900.095 32.119 913.36 32.381C938.289 32.8733 950.515 58.3437 938.725 82.1678C930.097 94.0799 919.457 92.0707 902.489 92.0707C898.973 92.0707 897.408 89.4337 898.355 85.1818C899.218 81.3067 895.012 75.279 889.476 75.7095C883.746 76.1551 880.975 79.569 880.201 84.6077C878.369 97.85 876.174 111.112 874.402 124.362C873.681 129.751 875.898 134.171 881.4 135.366C883.371 135.865 885.457 135.648 887.283 134.754C889.109 133.86 890.558 132.348 891.369 130.486C896.824 119.723 907.043 116.182 917.392 119.098C926.374 121.628 932.877 131.156 932.277 141.878C931.868 148.469 930.979 155.023 929.618 161.486C928.714 166.12 926.293 170.324 922.736 173.437C919.18 176.55 914.688 178.396 909.966 178.685C895.506 178.407 890.492 178.592 876.026 178.593ZM816.845 32.3657C828.444 32.7882 836.317 41.0614 836.317 52.1392C836.317 62.7865 826.581 69.7157 821.078 69.9692C811.71 70.4008 804.292 77.7187 803.722 85.9401C800.018 113.735 792.787 152.736 789.131 180.536C787.798 194.922 779.531 195.79 772.42 195.987C762.163 196.271 764.312 196.058 753.967 196.058C751.199 196.058 743.189 196.022 743.322 195.952C745.131 194.996 746.217 189.937 746.728 186.709C750.693 161.684 756.721 116.576 760.476 91.5173C763.052 77.9604 759.63 74.1098 750.486 71.3213C749.025 70.8758 745.915 70.3918 742.867 69.5468C737.681 67.2441 740.437 58.9002 741.3 52.6674C742.316 42.2103 748.158 33.0207 759.037 32.2813C769.027 31.6023 808.243 32.0524 816.845 32.3657ZM558.788 195.008C559.685 192.807 560.223 190.476 560.381 188.105C560.512 186.915 560.392 185.71 560.03 184.569C559.667 183.427 559.07 182.373 558.277 181.475C557.483 180.577 556.51 179.854 555.421 179.352C554.331 178.851 553.149 178.582 551.949 178.563C539.153 178.525 519.571 178.563 506.292 178.563C504.704 178.563 498.996 178.507 499.03 178.486C500.746 177.41 501.376 171.789 501.665 169.88C507.203 133.41 511.38 105.995 516.909 69.5232C519.519 49.5517 537.441 30.9695 565.28 32.1852C581.809 31.8379 584.419 31.8379 600.674 31.9242C613.453 31.992 621.794 41.8545 622.094 53.5201C622.287 61.0111 615.743 74.8888 601.31 75.273C597.655 75.3702 589.668 75.2249 586.437 74.9695C568.789 73.5744 557.722 81.2753 555.625 98.4716C554.499 105.957 553.2 114.601 552.056 123.012C549.591 133.184 554.354 139.619 561.33 140.627C564.058 141.081 566.857 140.52 569.198 139.05C571.539 137.581 573.259 135.306 574.032 132.656C574.745 130.335 574.746 127.854 574.034 125.533C573.321 123.212 571.929 121.156 570.036 119.632C566.675 116.898 562.713 114.162 563.543 106.534C564.506 97.698 574.963 94.4992 582.262 94.6442C603.042 95.0569 615.739 103.07 611.895 128.242C609.55 147.939 607.258 158.072 604.677 177.742C602.922 188.863 592.18 195.176 582.283 195.176C571.43 195.176 572.58 195.061 563.418 195.061C562.141 195.061 558.788 195.008 558.788 195.008ZM1005.36 195.995C1002.86 195.993 994.03 195.816 994.292 195.676C997.485 193.976 999.611 181.488 1000.23 177.26C1002.27 163.242 1005.12 145.592 1007.22 131.583C1008.19 125.326 1006.69 120.38 1000.47 118.877C994.109 117.337 989.866 122.246 989.384 128.887C986.539 143.567 986.298 149.042 983.935 163.492C982.778 170.566 975.111 178.941 967.878 179.085C967.088 179.101 956.291 178.843 947.192 178.869C939.949 178.889 936.543 178.783 936.064 178.73C937.927 176.977 939.151 173.099 939.63 170.018C940.83 162.299 941.984 153.096 943.286 144.794C948.076 108.859 954.955 69.8238 959.957 33.9161C962.043 18.9464 971.381 10.3708 983.667 11.6542C997.472 13.0965 1005.56 24.3601 1002.78 39.7542C1000.62 51.7602 998.424 67.1281 996.231 79.123C995.032 85.6811 997.017 90.3874 1003.46 91.4438C1009.93 92.5026 1012.87 87.8916 1013.78 82.7808C1015.79 71.5681 1016.82 60.7165 1018.41 49.2836C1020.05 37.5403 1034.08 27.6723 1048.02 33.7863C1056.79 37.6365 1061.97 46.7223 1060.56 57.1765C1056.19 89.5531 1044.59 170.348 1043.26 180.076C1041.89 190.183 1032.63 195.596 1022.5 196.101C1019.77 196.237 1008.6 195.998 1005.36 195.995ZM677.117 31.2544H669.021C660.497 31.2547 652.26 34.3288 645.828 39.9104C639.395 45.492 635.199 53.2054 634.012 61.6302L626.658 114.05C625.526 122.095 626.137 130.289 628.449 138.078C630.762 145.867 634.722 153.07 640.063 159.201C645.403 165.331 652 170.247 659.407 173.614C666.814 176.982 674.859 178.724 682.998 178.723H691.178C699.661 178.728 707.859 175.674 714.264 170.123C720.668 164.572 724.848 156.898 726.031 148.514L733.481 96.0468C734.625 87.9919 734.023 79.7857 731.715 71.9833C729.407 64.1808 725.447 56.9641 720.103 50.8211C714.76 44.6781 708.156 39.7522 700.74 36.3765C693.324 33.0008 685.268 31.2541 677.117 31.2544ZM693.191 94.6839L691.202 121.211C690.807 126.626 686.004 129.818 679.968 128.718C672.602 127.367 666.386 122.37 666.949 113.691L667.859 101.127C668.242 95.8792 670.338 88.9939 674.087 86.5668C675.614 85.5548 677.335 84.8698 679.141 84.555C680.947 84.2403 682.799 84.3026 684.579 84.7381C689.454 85.6227 693.514 90.3326 693.191 94.6839Z" fill="#FF1DFF"/>
<g opacity="0.3">
<path d="M582.126 74.8321C582.098 74.8321 582.07 74.8318 582.042 74.8321C582.014 74.8321 581.986 74.8318 581.957 74.8321C581.929 74.8321 581.901 74.8318 581.873 74.8321C581.845 74.8321 581.817 74.8318 581.789 74.8321C581.761 74.8321 581.733 74.8318 581.705 74.8321C581.676 74.8321 581.648 74.8318 581.62 74.8321C581.592 74.8321 581.564 74.8318 581.536 74.8321C581.508 74.8321 581.48 74.8318 581.451 74.8321C581.423 74.8321 581.395 74.8318 581.367 74.8321C581.339 74.8321 581.311 74.8318 581.283 74.8321C581.255 74.8321 581.226 74.8318 581.198 74.8321C581.17 74.8321 581.142 74.8318 581.114 74.8321C581.086 74.8321 581.058 74.8318 581.03 74.8321C581.002 74.8321 580.973 74.8318 580.945 74.8321C580.917 74.8321 580.889 74.8318 580.861 74.8321C580.833 74.8321 580.805 74.8318 580.777 74.8321C580.749 74.8321 580.72 74.8318 580.692 74.8321C580.664 74.8321 580.636 74.8318 580.608 74.8321C580.58 74.8321 580.552 74.8318 580.524 74.8321C580.496 74.8321 580.467 74.8318 580.439 74.8321C580.411 74.8321 580.383 74.8318 580.355 74.8321C580.327 74.8321 580.299 74.8318 580.271 74.8321C580.242 74.8321 580.214 74.8318 580.186 74.8321C580.158 74.8321 580.13 74.8318 580.102 74.8321C580.074 74.8321 580.046 74.8318 580.018 74.8321C579.99 74.8321 579.961 74.8318 579.933 74.8321C579.905 74.8321 579.877 74.8318 579.849 74.8321C579.821 74.8321 579.793 74.8318 579.765 74.8321C579.736 74.8321 579.708 74.8318 579.68 74.8321C579.652 74.8321 579.624 74.8318 579.596 74.8321C579.568 74.8321 579.54 74.8318 579.511 74.8321C579.483 74.8321 579.455 74.8318 579.427 74.8321C579.399 74.8321 579.371 74.8318 579.343 74.8321C579.315 74.8321 579.287 74.8318 579.259 74.8321C579.23 74.8321 579.202 74.8318 579.174 74.8321C579.146 74.8321 579.118 74.8318 579.09 74.8321C579.062 74.8321 579.034 74.8318 579.005 74.8321C578.977 74.8321 578.949 74.8318 578.921 74.8321C578.893 74.8321 578.865 74.8318 578.837 74.8321C578.809 74.8321 578.78 74.8318 578.752 74.8321C578.724 74.8321 578.696 74.8318 578.668 74.8321C578.64 74.8321 578.612 74.8318 578.584 74.8321C578.556 74.8321 578.527 74.8318 578.499 74.8321C578.471 74.8321 578.443 74.8318 578.415 74.8321C578.387 74.8321 578.359 74.8318 578.331 74.8321C578.303 74.8321 578.274 74.8318 578.246 74.8321C578.218 74.8321 578.19 74.8318 578.162 74.8321C578.134 74.8321 578.106 74.8318 578.078 74.8321C578.05 74.8321 578.021 74.8318 577.993 74.8321C577.965 74.8321 577.937 74.8318 577.909 74.8321C577.881 74.8321 577.853 74.8318 577.825 74.8321C577.796 74.8321 577.768 74.8318 577.74 74.8321C577.712 74.8321 577.684 74.8318 577.656 74.8321C577.628 74.8321 577.6 74.8318 577.572 74.8321C577.544 74.8321 577.515 74.8318 577.487 74.8321C577.459 74.8321 577.431 74.8318 577.403 74.8321C577.375 74.8321 577.347 74.8318 577.319 74.8321C577.29 74.8321 577.262 74.8318 577.234 74.8321C577.206 74.8321 577.178 74.8318 577.15 74.8321C577.122 74.8321 577.093 74.8318 577.065 74.8321C577.037 74.8321 577.009 74.8318 576.981 74.8321C576.953 74.8321 576.925 74.8318 576.897 74.8321C576.869 74.8321 576.84 74.8318 576.812 74.8321C576.784 74.8321 576.756 74.8318 576.728 74.8321C576.7 74.8321 576.672 74.8318 576.644 74.8321C576.616 74.8321 576.587 74.8318 576.559 74.8321L576.479 74.8318C561.153 74.8462 551.571 82.6085 549.636 98.4716C548.51 105.957 547.211 114.601 546.068 123.012C543.603 133.184 548.366 139.619 555.342 140.627C555.8 140.693 556.26 140.734 556.722 140.75C556.751 140.752 556.778 140.749 556.807 140.75C556.835 140.752 556.862 140.749 556.891 140.75C556.92 140.752 556.947 140.749 556.975 140.75C557.004 140.752 557.031 140.749 557.06 140.75C557.088 140.752 557.115 140.749 557.144 140.75C557.173 140.752 557.2 140.749 557.228 140.75C557.257 140.752 557.284 140.749 557.313 140.75C557.341 140.752 557.368 140.749 557.397 140.75C557.426 140.752 557.453 140.749 557.481 140.75C557.51 140.752 557.537 140.749 557.566 140.75C557.594 140.752 557.621 140.749 557.65 140.75C557.679 140.752 557.706 140.749 557.734 140.75C557.763 140.752 557.79 140.749 557.819 140.75C557.848 140.752 557.874 140.749 557.903 140.75C557.932 140.752 557.959 140.749 557.987 140.75C558.016 140.752 558.043 140.749 558.072 140.75C558.101 140.752 558.127 140.749 558.156 140.75C558.185 140.752 558.212 140.749 558.241 140.75C558.269 140.752 558.296 140.749 558.325 140.75C558.354 140.752 558.38 140.749 558.409 140.75C558.438 140.752 558.465 140.749 558.494 140.75C558.522 140.752 558.549 140.749 558.578 140.75C558.607 140.752 558.633 140.749 558.662 140.75C558.691 140.752 558.718 140.749 558.747 140.75C558.775 140.752 558.802 140.749 558.831 140.75C558.86 140.752 558.887 140.749 558.915 140.75C558.944 140.752 558.971 140.749 559 140.75C559.028 140.752 559.055 140.749 559.084 140.75C559.113 140.752 559.14 140.749 559.168 140.75C559.197 140.752 559.224 140.749 559.253 140.75C559.281 140.752 559.308 140.749 559.337 140.75C559.366 140.752 559.393 140.749 559.421 140.75C559.45 140.752 559.477 140.749 559.506 140.75C559.534 140.752 559.561 140.749 559.59 140.75C559.619 140.752 559.646 140.749 559.674 140.75C559.703 140.752 559.73 140.749 559.759 140.75C559.787 140.752 559.814 140.749 559.843 140.75C559.872 140.752 559.899 140.749 559.927 140.75C559.956 140.752 559.983 140.749 560.012 140.75C560.04 140.752 560.067 140.749 560.096 140.75C560.125 140.752 560.152 140.749 560.18 140.75C560.209 140.752 560.236 140.749 560.265 140.75C560.294 140.752 560.32 140.749 560.349 140.75C560.378 140.752 560.405 140.749 560.433 140.75C560.462 140.752 560.489 140.749 560.518 140.75C560.547 140.752 560.573 140.749 560.602 140.75C560.631 140.752 560.658 140.749 560.687 140.75C560.715 140.752 560.742 140.749 560.771 140.75C560.8 140.752 560.826 140.749 560.855 140.75C560.884 140.752 560.911 140.749 560.94 140.75C560.968 140.752 560.995 140.749 561.024 140.75C561.053 140.752 561.079 140.749 561.108 140.75C561.137 140.752 561.164 140.749 561.193 140.75C561.221 140.752 561.248 140.749 561.277 140.75C561.306 140.752 561.332 140.749 561.361 140.75C561.39 140.752 561.417 140.749 561.446 140.75C561.474 140.752 561.501 140.749 561.53 140.75C561.559 140.752 561.586 140.749 561.614 140.75C561.643 140.752 561.67 140.749 561.699 140.75C561.727 140.752 561.754 140.749 561.783 140.75C561.812 140.752 561.839 140.749 561.867 140.75C561.896 140.752 561.923 140.749 561.952 140.75C561.98 140.752 562.007 140.749 562.036 140.75C562.065 140.752 562.092 140.749 562.12 140.75C562.149 140.752 562.176 140.749 562.205 140.75C562.233 140.752 562.26 140.749 562.289 140.75C562.318 140.752 562.345 140.749 562.373 140.75C562.402 140.752 562.429 140.749 562.458 140.75C562.487 140.752 562.513 140.749 562.542 140.75C562.571 140.752 562.598 140.749 562.626 140.75C562.641 140.751 562.655 140.75 562.67 140.75C562.222 140.732 561.775 140.691 561.33 140.627C554.354 139.619 549.591 133.184 552.056 123.012C553.2 114.601 554.499 105.957 555.625 98.4716C557.552 82.6709 567.068 74.9094 582.287 74.832C582.262 74.832 582.236 74.8317 582.211 74.832C582.182 74.8321 582.154 74.8318 582.126 74.8321Z" fill="black"/>
<path d="M582.284 195.175H582.286C592.183 195.174 602.922 188.862 604.678 177.742C607.258 158.072 609.551 147.939 611.896 128.242C615.739 103.07 603.042 95.057 582.262 94.644C582.244 94.6437 582.224 94.6449 582.205 94.6446C581.225 94.6299 580.245 94.6707 579.27 94.7668C586.5 95.195 592.612 96.6853 597.212 99.6826C603.589 103.884 606.996 111.068 606.509 122.506C606.41 124.314 606.216 126.218 605.907 128.242C605.613 130.709 605.32 133.027 605.027 135.232C604.481 139.131 603.97 142.675 603.47 146.084C601.936 156.113 600.374 164.899 598.689 177.742C596.955 188.73 586.448 195.012 576.651 195.161C576.989 195.163 577.352 195.165 577.73 195.167L577.862 195.167C578.234 195.169 578.628 195.17 579.044 195.171L579.192 195.172C580.105 195.174 581.124 195.175 582.284 195.175Z" fill="black"/>
<path d="M616.106 53.5201C616.298 61.0111 609.755 74.8888 595.322 75.2729C595.262 75.2746 595.192 75.2755 595.13 75.2773L595.187 75.2778C596.352 75.2942 597.493 75.3032 598.532 75.303C599.59 75.3024 600.547 75.2934 601.31 75.2729C615.744 74.8888 622.287 61.0111 622.094 53.5201C621.795 41.8545 613.453 31.9918 600.675 31.9241C595.595 31.8972 591.848 31.8786 588.592 31.8766H588.557C588.529 31.8763 588.501 31.8766 588.473 31.8766C588.444 31.8763 588.417 31.8766 588.388 31.8766C587.876 31.8763 587.378 31.8766 586.886 31.8772L586.708 31.8775C586.228 31.878 585.755 31.8792 585.288 31.881L585.199 31.8812C587.855 31.8888 590.897 31.904 594.686 31.9241C607.464 31.9917 615.806 41.8544 616.106 53.5201Z" fill="black"/>
<path d="M998.064 118.595H992.244C987.138 118.569 983.818 123.06 983.395 128.888C980.55 143.567 980.31 149.042 977.946 163.492C976.836 170.28 969.733 178.244 962.77 179.007C962.858 179.008 962.938 179.01 963.024 179.011C963.314 179.016 963.59 179.02 963.859 179.025C965.825 179.058 967.22 179.083 967.709 179.085C967.772 179.085 967.846 179.086 967.878 179.085C975.111 178.941 982.777 170.567 983.935 163.492C986.298 149.042 986.539 143.567 989.384 128.888C989.804 123.092 993.09 118.618 998.149 118.595L998.064 118.595Z" fill="black"/>
<path d="M996.793 39.7542C994.627 51.7601 992.435 67.128 990.242 79.1232C989.043 85.6811 991.028 90.3875 997.475 91.4438C997.925 91.5172 998.38 91.563 998.836 91.5807C998.865 91.5822 998.891 91.5795 998.92 91.5807C998.949 91.5822 998.976 91.5795 999.005 91.5807C999.034 91.5822 999.06 91.5795 999.089 91.5807C999.118 91.5822 999.144 91.5795 999.173 91.5807C999.202 91.5822 999.229 91.5795 999.258 91.5807C999.287 91.5822 999.313 91.5795 999.342 91.5807C999.371 91.5822 999.398 91.5795 999.426 91.5807C999.455 91.5822 999.482 91.5795 999.511 91.5807C999.54 91.5822 999.566 91.5795 999.595 91.5807C999.624 91.5822 999.651 91.5795 999.679 91.5807C999.708 91.5822 999.735 91.5795 999.764 91.5807C999.793 91.5822 999.819 91.5795 999.848 91.5807C999.877 91.5822 999.904 91.5795 999.932 91.5807C999.961 91.5822 999.988 91.5795 1000.02 91.5807C1000.05 91.5822 1000.07 91.5795 1000.1 91.5807C1000.13 91.5822 1000.16 91.5795 1000.19 91.5807C1000.21 91.5822 1000.24 91.5795 1000.27 91.5807C1000.3 91.5822 1000.33 91.5795 1000.35 91.5807C1000.38 91.5822 1000.41 91.5795 1000.44 91.5807C1000.47 91.5822 1000.49 91.5795 1000.52 91.5807C1000.55 91.5822 1000.58 91.5795 1000.61 91.5807C1000.64 91.5822 1000.66 91.5795 1000.69 91.5807C1000.72 91.5822 1000.75 91.5795 1000.78 91.5807C1000.8 91.5822 1000.83 91.5795 1000.86 91.5807C1000.89 91.5822 1000.92 91.5795 1000.94 91.5807C1000.97 91.5822 1001 91.5795 1001.03 91.5807C1001.06 91.5822 1001.08 91.5795 1001.11 91.5807C1001.14 91.5822 1001.17 91.5795 1001.2 91.5807C1001.23 91.5822 1001.25 91.5795 1001.28 91.5807C1001.31 91.5822 1001.34 91.5795 1001.37 91.5807C1001.4 91.5822 1001.42 91.5795 1001.45 91.5807C1001.48 91.5822 1001.51 91.5795 1001.54 91.5807C1001.56 91.5822 1001.59 91.5795 1001.62 91.5807C1001.65 91.5822 1001.67 91.5795 1001.7 91.5807C1001.73 91.5822 1001.76 91.5795 1001.79 91.5807C1001.82 91.5822 1001.84 91.5795 1001.87 91.5807C1001.9 91.5822 1001.93 91.5795 1001.96 91.5807C1001.99 91.5822 1002.01 91.5795 1002.04 91.5807C1002.07 91.5822 1002.1 91.5795 1002.13 91.5807C1002.15 91.5822 1002.18 91.5795 1002.21 91.5807C1002.24 91.5822 1002.27 91.5795 1002.29 91.5807C1002.32 91.5822 1002.35 91.5795 1002.38 91.5807C1002.41 91.5822 1002.43 91.5795 1002.46 91.5807C1002.49 91.5822 1002.52 91.5795 1002.55 91.5807C1002.58 91.5822 1002.6 91.5795 1002.63 91.5807C1002.66 91.5822 1002.69 91.5795 1002.72 91.5807C1002.74 91.5822 1002.77 91.5795 1002.8 91.5807C1002.83 91.5822 1002.86 91.5795 1002.88 91.5807C1002.91 91.5822 1002.94 91.5795 1002.97 91.5807C1003 91.5822 1003.02 91.5795 1003.05 91.5807C1003.08 91.5822 1003.11 91.5795 1003.14 91.5807C1003.17 91.5822 1003.19 91.5795 1003.22 91.5807C1003.25 91.5822 1003.28 91.5795 1003.31 91.5807C1003.34 91.5822 1003.36 91.5795 1003.39 91.5807C1003.42 91.5822 1003.45 91.5795 1003.47 91.5807C1003.5 91.5822 1003.53 91.5795 1003.56 91.5807C1003.59 91.5822 1003.61 91.5795 1003.64 91.5807C1003.67 91.5822 1003.7 91.5795 1003.73 91.5807C1003.76 91.5822 1003.78 91.5795 1003.81 91.5807C1003.84 91.5822 1003.87 91.5795 1003.9 91.5807C1003.93 91.5822 1003.95 91.5795 1003.98 91.5807C1004.01 91.5822 1004.04 91.5795 1004.07 91.5807C1004.09 91.5822 1004.12 91.5795 1004.15 91.5807C1004.18 91.5822 1004.21 91.5795 1004.23 91.5807C1004.26 91.5822 1004.29 91.5795 1004.32 91.5807C1004.35 91.5822 1004.37 91.5795 1004.4 91.5807C1004.43 91.5822 1004.46 91.5795 1004.49 91.5807C1004.52 91.5822 1004.54 91.5795 1004.57 91.5807C1004.6 91.5822 1004.63 91.5795 1004.66 91.5807C1004.68 91.5822 1004.71 91.5795 1004.74 91.5807C1004.95 91.5909 1005.15 91.5854 1005.35 91.5825C1004.72 91.5915 1004.09 91.545 1003.46 91.4438C997.017 90.3875 995.032 85.6811 996.231 79.1232C998.424 67.128 1000.62 51.7601 1002.78 39.7542C1005.56 24.36 997.472 13.0966 983.667 11.6542C982.995 11.5842 982.337 11.5562 981.684 11.5442C981.662 11.5442 981.64 11.5439 981.619 11.5442C981.591 11.5448 981.562 11.5437 981.535 11.5442C981.507 11.5448 981.478 11.5437 981.45 11.5442C981.422 11.5448 981.394 11.5437 981.366 11.5442C981.338 11.5448 981.309 11.5437 981.281 11.5442C981.254 11.5448 981.225 11.5437 981.197 11.5442C981.169 11.5448 981.141 11.5437 981.113 11.5442C981.092 11.5445 981.072 11.5442 981.052 11.5442C980.955 11.5451 980.861 11.555 980.764 11.5574C979.959 11.5802 979.156 11.6469 978.358 11.7572L978.356 11.7575C991.739 13.499 999.523 24.6189 996.793 39.7542Z" fill="black"/>
<path d="M1022.5 196.101C1032.63 195.596 1041.89 190.183 1043.26 180.076C1044.59 170.348 1056.19 89.5532 1060.56 57.1768C1061.97 46.7223 1056.79 37.6366 1048.02 33.7864C1045.26 32.5592 1042.27 31.9249 1039.25 31.9247C1039.23 31.9247 1039.21 31.9244 1039.19 31.9247C1038.22 31.9302 1037.26 32.003 1036.3 32.1424C1038.27 32.4283 1040.2 32.9814 1042.03 33.7864C1050.81 37.6366 1055.98 46.7223 1054.57 57.1768C1050.2 89.5532 1038.6 170.348 1037.28 180.076C1035.9 190.183 1026.64 195.596 1016.51 196.101C1016.36 196.109 1016.17 196.115 1015.96 196.121C1016.31 196.124 1016.65 196.127 1016.99 196.13L1017.14 196.131C1017.71 196.136 1018.26 196.139 1018.78 196.141C1018.85 196.141 1018.93 196.142 1019.01 196.142C1019.17 196.142 1019.33 196.142 1019.48 196.142C1020.8 196.143 1021.88 196.133 1022.5 196.101Z" fill="black"/>
<path d="M1102.52 18.7233C1102.52 18.7233 1103.17 18.805 1103.25 19.0943C1103.33 19.3835 1116.42 34.7483 1116.42 34.7483L1114.05 53.5174L1098.05 64.8527L1098.24 64.8769L1103.13 65.4934L1103.14 65.4843L1120.03 53.5174L1122.41 34.7483C1122.41 34.7483 1109.32 19.3834 1109.24 19.0943C1109.16 18.8051 1108.51 18.7233 1108.51 18.7233L1104.16 18.071L1104.16 18.0641L1104.01 18.0489L1103.87 18.0267L1103.87 18.0337L1099.49 17.5871C1099.49 17.5871 1099.45 17.5819 1099.39 17.5784H1099.38C1099.33 17.5754 1099.26 17.5754 1099.18 17.5784C1099.16 17.5795 1099.14 17.583 1099.11 17.5851C1099.05 17.5909 1098.99 17.6018 1098.94 17.6175C1098.91 17.6233 1098.89 17.6304 1098.86 17.6388C1098.79 17.6605 1098.73 17.7048 1098.69 17.7649C1098.66 17.7984 1098.62 17.8293 1098.58 17.8571L1098.54 17.8909C1098.48 17.9394 1098.4 17.9995 1098.3 18.0745L1098.28 18.0879L1102.52 18.7233Z" fill="black"/>
<path d="M1087.3 178.524C1094.81 178.146 1103.87 170.331 1105.39 161.531C1108.36 138.584 1111.5 123.476 1114.52 100.536C1116.41 86.168 1107.52 76.228 1094.97 74.1707C1093.73 73.974 1092.47 73.8955 1091.22 73.9361C1090.97 73.9431 1090.72 73.9454 1090.47 73.9614C1089.89 73.9982 1089.32 74.0551 1088.75 74.1403L1088.73 74.143C1088.81 74.1558 1088.9 74.1567 1088.98 74.1707C1101.53 76.2279 1110.42 86.168 1108.53 100.536C1105.51 123.476 1102.37 138.584 1099.41 161.531C1097.89 170.331 1088.82 178.146 1081.32 178.524C1080.42 178.569 1079.83 178.601 1079.37 178.624C1079.48 178.629 1079.6 178.633 1079.71 178.638C1080.01 178.65 1080.31 178.661 1080.62 178.676C1081.65 178.676 1082.35 178.678 1082.86 178.679L1082.92 178.68C1083.08 178.68 1083.22 178.68 1083.35 178.68C1084.54 178.68 1084.62 178.659 1087.3 178.524Z" fill="black"/>
<path d="M830.329 52.1393C830.329 62.7864 820.592 69.7156 815.089 69.9692C805.721 70.4009 798.304 77.7188 797.734 85.94C794.03 113.734 786.798 152.736 783.143 180.536C781.81 194.923 773.543 195.791 766.432 195.987C764.268 196.047 762.661 196.085 761.367 196.107C762.501 196.122 763.415 196.135 764.476 196.135H764.597C766.302 196.133 768.414 196.098 772.42 195.987C779.531 195.791 787.798 194.923 789.132 180.536C792.787 152.736 800.018 113.734 803.722 85.94C804.293 77.7188 811.71 70.4008 821.078 69.9691C826.581 69.7156 836.317 62.7864 836.317 52.1392C836.317 41.0613 828.444 32.7882 816.845 32.3659C811.515 32.1715 794.433 31.9253 779.831 31.927C778.917 31.9273 778.013 31.9284 777.122 31.9304H777.066C790.87 31.9611 805.915 32.1856 810.856 32.3659C822.455 32.7883 830.329 41.0614 830.329 52.1393Z" fill="black"/>
<path d="M666.948 113.69L667.862 101.131C668.244 95.8795 670.342 88.999 674.086 86.5623C676.266 85.0799 678.863 84.3292 681.5 84.4187C681.483 84.4187 681.466 84.419 681.448 84.4187C681.42 84.4178 681.392 84.4193 681.364 84.4187C681.335 84.4178 681.308 84.4193 681.28 84.4187C681.251 84.4178 681.224 84.4193 681.195 84.4187C681.167 84.4178 681.139 84.4193 681.111 84.4187C681.083 84.4178 681.055 84.4193 681.027 84.4187C680.998 84.4178 680.971 84.4193 680.942 84.4187C680.914 84.4178 680.886 84.4193 680.858 84.4187C680.829 84.4178 680.802 84.4193 680.774 84.4187C680.745 84.4178 680.717 84.4193 680.689 84.4187C680.661 84.4178 680.633 84.4193 680.605 84.4187C680.576 84.4178 680.549 84.4193 680.521 84.4187C680.492 84.4178 680.465 84.4193 680.436 84.4187C680.408 84.4178 680.38 84.4193 680.352 84.4187C680.323 84.4178 680.296 84.4193 680.267 84.4187C680.239 84.4178 680.212 84.4193 680.183 84.4187C680.155 84.4178 680.127 84.4193 680.099 84.4187C680.07 84.4178 680.043 84.4193 680.014 84.4187C679.986 84.4178 679.958 84.4193 679.93 84.4187C679.902 84.4178 679.874 84.4193 679.846 84.4187C679.817 84.4178 679.79 84.4193 679.761 84.4187C679.733 84.4178 679.705 84.4193 679.677 84.4187C679.649 84.4178 679.621 84.4193 679.593 84.4187C679.564 84.4178 679.537 84.4193 679.508 84.4187C679.48 84.4178 679.452 84.4193 679.424 84.4187C679.396 84.4178 679.368 84.4193 679.34 84.4187C679.311 84.4178 679.284 84.4193 679.255 84.4187C679.227 84.4178 679.199 84.4193 679.171 84.4187C679.142 84.4178 679.115 84.4193 679.087 84.4187C679.058 84.4178 679.031 84.4193 679.002 84.4187C678.974 84.4178 678.946 84.4193 678.918 84.4187C678.889 84.4178 678.862 84.4193 678.834 84.4187C678.805 84.4178 678.778 84.4193 678.749 84.4187C678.721 84.4178 678.693 84.4193 678.665 84.4187C678.637 84.4178 678.609 84.4193 678.58 84.4187C678.552 84.4178 678.525 84.4193 678.496 84.4187C678.468 84.4178 678.44 84.4193 678.412 84.4187C678.384 84.4178 678.356 84.4193 678.328 84.4187C678.299 84.4178 678.272 84.4193 678.243 84.4187C678.215 84.4178 678.187 84.4193 678.159 84.4187C678.13 84.4178 678.103 84.4193 678.075 84.4187C678.046 84.4178 678.019 84.4193 677.99 84.4187C677.962 84.4178 677.934 84.4193 677.906 84.4187C677.877 84.4178 677.85 84.4193 677.821 84.4187C677.793 84.4178 677.766 84.4193 677.737 84.4187C677.709 84.4178 677.681 84.4193 677.653 84.4187C677.624 84.4178 677.597 84.4193 677.568 84.4187C677.54 84.4178 677.513 84.4193 677.484 84.4187C677.456 84.4178 677.428 84.4193 677.4 84.4187C677.371 84.4178 677.344 84.4193 677.315 84.4187C677.287 84.4178 677.259 84.4193 677.231 84.4187C677.203 84.4178 677.175 84.4193 677.147 84.4187C677.118 84.4178 677.091 84.4193 677.062 84.4187C677.034 84.4178 677.006 84.4193 676.978 84.4187C676.95 84.4178 676.922 84.4193 676.894 84.4187C676.865 84.4178 676.838 84.4193 676.809 84.4187C676.781 84.4178 676.753 84.4193 676.725 84.4187C676.697 84.4178 676.669 84.4193 676.641 84.4187C676.612 84.4178 676.585 84.4193 676.556 84.4187C676.528 84.4178 676.5 84.4193 676.472 84.4187C676.443 84.4178 676.416 84.4193 676.388 84.4187C676.359 84.4178 676.332 84.4193 676.303 84.4187C676.275 84.4178 676.247 84.4193 676.219 84.4187C676.19 84.4178 676.163 84.4193 676.134 84.4187C676.106 84.4178 676.079 84.4193 676.05 84.4187C676.022 84.4178 675.994 84.4193 675.966 84.4187C675.937 84.4178 675.91 84.4193 675.882 84.4187C675.853 84.4178 675.826 84.4193 675.797 84.4187C675.769 84.4178 675.741 84.4193 675.713 84.4187C675.684 84.4178 675.657 84.4193 675.629 84.4187C672.952 84.3041 670.31 85.056 668.097 86.5623C664.353 88.999 662.256 95.8795 661.874 101.131L660.96 113.69C660.396 122.368 666.617 127.363 673.976 128.713C674.885 128.882 675.809 128.953 676.734 128.923C676.761 128.922 676.79 128.924 676.818 128.923C676.846 128.922 676.875 128.924 676.902 128.923C676.93 128.922 676.959 128.924 676.987 128.923C677.015 128.922 677.043 128.924 677.071 128.923C677.099 128.922 677.128 128.924 677.156 128.923C677.183 128.922 677.212 128.924 677.24 128.923C677.267 128.922 677.297 128.924 677.324 128.923C677.352 128.922 677.381 128.924 677.408 128.923C677.436 128.922 677.465 128.924 677.493 128.923C677.52 128.922 677.549 128.924 677.577 128.923C677.605 128.922 677.634 128.924 677.661 128.923C677.689 128.922 677.718 128.924 677.746 128.923C677.774 128.922 677.802 128.924 677.83 128.923C677.858 128.922 677.887 128.924 677.914 128.923C677.942 128.922 677.971 128.924 677.999 128.923C678.027 128.922 678.055 128.924 678.083 128.923C678.111 128.922 678.14 128.924 678.168 128.923C678.195 128.922 678.224 128.924 678.252 128.923C678.28 128.922 678.309 128.924 678.336 128.923C678.364 128.922 678.393 128.924 678.421 128.923C678.448 128.922 678.477 128.924 678.505 128.923C678.533 128.922 678.562 128.924 678.589 128.923C678.617 128.922 678.646 128.924 678.674 128.923C678.701 128.922 678.73 128.924 678.758 128.923C678.786 128.922 678.815 128.924 678.842 128.923C678.87 128.922 678.899 128.924 678.927 128.923C678.954 128.922 678.983 128.924 679.011 128.923C679.039 128.922 679.068 128.924 679.095 128.923C679.123 128.922 679.152 128.924 679.18 128.923C679.208 128.922 679.236 128.924 679.264 128.923C679.292 128.922 679.321 128.924 679.348 128.923C679.376 128.922 679.405 128.924 679.433 128.923C679.461 128.922 679.489 128.924 679.517 128.923C679.545 128.922 679.574 128.924 679.602 128.923C679.629 128.922 679.658 128.924 679.686 128.923C679.714 128.922 679.742 128.924 679.77 128.923C679.798 128.922 679.827 128.924 679.855 128.923C679.882 128.922 679.911 128.924 679.939 128.923C679.966 128.922 679.996 128.924 680.023 128.923C680.051 128.922 680.08 128.924 680.107 128.923C680.135 128.922 680.164 128.924 680.192 128.923C680.22 128.922 680.248 128.924 680.276 128.923C680.304 128.922 680.333 128.924 680.361 128.923C680.388 128.922 680.417 128.924 680.445 128.923C680.473 128.922 680.501 128.924 680.529 128.923C680.557 128.922 680.586 128.924 680.614 128.923C680.641 128.922 680.67 128.924 680.698 128.923C680.726 128.922 680.755 128.924 680.782 128.923C680.81 128.922 680.839 128.924 680.867 128.923C680.894 128.922 680.923 128.924 680.951 128.923C680.979 128.922 681.008 128.924 681.035 128.923C681.063 128.922 681.092 128.924 681.12 128.923C681.147 128.922 681.176 128.924 681.204 128.923C681.232 128.922 681.261 128.924 681.288 128.923C681.316 128.922 681.345 128.924 681.373 128.923C681.4 128.922 681.429 128.924 681.457 128.923C681.485 128.922 681.514 128.924 681.541 128.923C681.569 128.922 681.598 128.924 681.626 128.923C681.653 128.922 681.682 128.924 681.71 128.923C681.738 128.922 681.767 128.924 681.794 128.923C681.822 128.922 681.851 128.924 681.879 128.923C681.907 128.922 681.935 128.924 681.963 128.923C681.983 128.922 682.004 128.923 682.024 128.923C681.333 128.907 680.644 128.837 679.964 128.713C672.606 127.363 666.385 122.368 666.948 113.69Z" fill="black"/>
<path d="M885.798 31.913C885.77 31.9133 885.742 31.9127 885.714 31.913C885.686 31.9133 885.657 31.9127 885.629 31.913C885.601 31.9133 885.573 31.9127 885.545 31.913C885.517 31.9133 885.489 31.9127 885.461 31.913C885.433 31.9133 885.404 31.9127 885.376 31.913C884.552 31.9203 883.731 31.9455 882.914 31.9888C894.974 32.431 894.507 32.1269 907.372 32.3812C932.301 32.8732 944.527 58.3438 932.736 82.1679C926.834 90.3173 919.988 91.9502 910.82 92.1691C911.618 92.1808 912.399 92.1892 913.163 92.1942C913.192 92.1945 913.219 92.1942 913.248 92.1942C913.276 92.1945 913.303 92.1942 913.332 92.1942C913.361 92.1945 913.388 92.1942 913.416 92.1942C913.445 92.1945 913.472 92.1942 913.501 92.1942C913.529 92.1945 913.556 92.1942 913.585 92.1942C913.614 92.1945 913.641 92.1942 913.669 92.1942C913.698 92.1945 913.725 92.1942 913.754 92.1942C913.782 92.1945 913.81 92.1942 913.838 92.1942C913.867 92.1945 913.894 92.1942 913.922 92.1942C913.951 92.1945 913.978 92.1942 914.007 92.1942C914.036 92.1945 914.063 92.1942 914.091 92.1942C914.12 92.1945 914.147 92.1942 914.176 92.1942C914.204 92.1945 914.231 92.1942 914.26 92.1942C914.289 92.1945 914.316 92.1942 914.344 92.1942C914.373 92.1945 914.4 92.1942 914.429 92.1942C914.457 92.1945 914.484 92.1942 914.513 92.1942C914.541 92.1945 914.569 92.1942 914.597 92.1942C914.626 92.1945 914.653 92.1942 914.682 92.1942C914.71 92.1945 914.737 92.1942 914.766 92.1942C914.795 92.1945 914.822 92.1942 914.85 92.1942C914.879 92.1945 914.906 92.1942 914.935 92.1942C914.963 92.1945 914.99 92.1942 915.019 92.1942C915.048 92.1945 915.075 92.1942 915.103 92.1942H915.139C925.154 92.1219 932.47 90.8041 938.725 82.1679C950.516 58.3438 938.289 32.8732 913.361 32.3812C900.095 32.1191 901.006 32.4506 887.742 31.9454C887.147 31.9229 886.555 31.9159 885.964 31.913C885.937 31.9133 885.909 31.9127 885.882 31.913C885.854 31.9132 885.826 31.9127 885.798 31.913Z" fill="black"/>
<path d="M677.029 31.254H671.125C679.276 31.2537 687.332 33.0004 694.749 36.3759C702.165 39.7515 708.769 44.6772 714.113 50.82C719.458 56.9628 723.418 64.1795 725.727 71.9819C728.036 79.7844 728.639 87.9907 727.497 96.046L720.045 148.519C718.855 156.9 714.674 164.569 708.271 170.119C701.868 175.668 693.673 178.724 685.193 178.725H691.185C699.665 178.723 707.859 175.667 714.261 170.118C720.663 164.568 724.844 156.899 726.034 148.519L733.485 96.046C734.628 87.9912 734.025 79.7853 731.716 71.9832C729.407 64.1811 725.447 56.9648 720.103 50.8221C714.76 44.6794 708.156 39.7535 700.741 36.3776C693.325 33.0017 685.27 31.2545 677.119 31.254H677.029Z" fill="black"/>
<path d="M890.172 75.6968C890.144 75.6957 890.116 75.6977 890.088 75.6968C890.06 75.6957 890.031 75.6977 890.003 75.6968C889.976 75.6957 889.947 75.6977 889.919 75.6968C889.891 75.6957 889.863 75.6977 889.835 75.6968C889.807 75.6957 889.778 75.6977 889.75 75.6968C889.722 75.6957 889.694 75.6977 889.666 75.6968C889.638 75.6957 889.609 75.6977 889.582 75.6968C889.554 75.6957 889.525 75.6977 889.497 75.6968C889.469 75.6957 889.441 75.6977 889.413 75.6968C889.385 75.6957 889.356 75.6977 889.329 75.6968C889.301 75.6957 889.272 75.6977 889.244 75.6968C889.217 75.6957 889.188 75.6977 889.16 75.6968C889.132 75.6957 889.103 75.6977 889.076 75.6968C889.048 75.6957 889.019 75.6977 888.991 75.6968C888.963 75.6957 888.935 75.6977 888.907 75.6968C888.879 75.6957 888.85 75.6977 888.823 75.6968C888.795 75.6957 888.766 75.6977 888.738 75.6968C888.71 75.6957 888.682 75.6977 888.654 75.6968C888.626 75.6957 888.597 75.6977 888.569 75.6968C888.542 75.6957 888.513 75.6977 888.485 75.6968C888.457 75.6957 888.429 75.6977 888.401 75.6968C888.373 75.6957 888.344 75.6977 888.316 75.6968C888.289 75.6957 888.26 75.6977 888.232 75.6968C888.204 75.6957 888.176 75.6977 888.148 75.6968C888.12 75.6957 888.091 75.6977 888.064 75.6968C888.036 75.6957 888.007 75.6977 887.979 75.6968C887.951 75.6957 887.923 75.6977 887.895 75.6968C887.867 75.6957 887.838 75.6977 887.81 75.6968C887.783 75.6957 887.754 75.6977 887.726 75.6968C887.698 75.6957 887.67 75.6977 887.642 75.6968C887.614 75.6957 887.585 75.6977 887.557 75.6968C887.53 75.6957 887.501 75.6977 887.473 75.6968C887.445 75.6957 887.417 75.6977 887.389 75.6968C887.361 75.6957 887.332 75.6977 887.304 75.6968C887.276 75.6957 887.248 75.6977 887.22 75.6968C887.192 75.6957 887.164 75.6977 887.136 75.6968C887.108 75.6957 887.079 75.6977 887.051 75.6968C887.023 75.6957 886.995 75.6977 886.967 75.6968C886.939 75.6957 886.91 75.6977 886.883 75.6968C886.855 75.6957 886.826 75.6977 886.798 75.6968C886.771 75.6957 886.742 75.6977 886.714 75.6968C886.686 75.6957 886.657 75.6977 886.63 75.6968C886.602 75.6957 886.573 75.6977 886.545 75.6968C886.517 75.6957 886.489 75.6977 886.461 75.6968C886.433 75.6957 886.404 75.6977 886.377 75.6968C886.349 75.6957 886.32 75.6977 886.292 75.6968C886.264 75.6957 886.236 75.6977 886.208 75.6968C886.18 75.6957 886.151 75.6977 886.123 75.6968C886.096 75.6957 886.067 75.6977 886.039 75.6968C886.011 75.6957 885.983 75.6977 885.955 75.6968C885.927 75.6957 885.898 75.6977 885.87 75.6968C885.843 75.6957 885.814 75.6977 885.786 75.6968C885.758 75.6957 885.73 75.6977 885.702 75.6968C885.674 75.6957 885.645 75.6977 885.617 75.6968C885.59 75.6957 885.561 75.6977 885.533 75.6968C885.505 75.6957 885.477 75.6977 885.449 75.6968C885.421 75.6957 885.392 75.6977 885.364 75.6968C885.337 75.6957 885.308 75.6977 885.28 75.6968C885.252 75.6957 885.223 75.6977 885.196 75.6968C885.168 75.6957 885.139 75.6977 885.111 75.6968C885.084 75.6957 885.055 75.6977 885.027 75.6968C884.999 75.6957 884.971 75.6977 884.943 75.6968C884.915 75.6957 884.886 75.6977 884.858 75.6968C884.83 75.6957 884.802 75.6977 884.774 75.6968C884.746 75.6957 884.717 75.6977 884.69 75.6968C884.662 75.6957 884.633 75.6977 884.605 75.6968C884.577 75.6957 884.549 75.6977 884.521 75.6968C884.493 75.6957 884.464 75.6977 884.437 75.6968C884.409 75.6957 884.38 75.6977 884.352 75.6968C884.064 75.6832 883.775 75.6875 883.488 75.7097C877.758 76.1551 874.987 79.5691 874.213 84.6077C872.38 97.8499 870.185 111.112 868.414 124.363C867.693 129.751 869.91 134.171 875.412 135.366C876.275 135.558 877.16 135.631 878.043 135.582C878.071 135.581 878.1 135.584 878.128 135.582C878.155 135.581 878.184 135.584 878.212 135.582C878.239 135.581 878.269 135.584 878.296 135.582C878.324 135.581 878.353 135.584 878.38 135.582C878.408 135.581 878.437 135.584 878.465 135.582C878.492 135.581 878.522 135.584 878.549 135.582C878.577 135.581 878.606 135.584 878.634 135.582C878.661 135.581 878.69 135.584 878.718 135.582C878.746 135.581 878.775 135.584 878.802 135.582C878.83 135.581 878.859 135.584 878.887 135.582C878.914 135.581 878.943 135.584 878.971 135.582C878.999 135.581 879.028 135.584 879.055 135.582C879.083 135.581 879.112 135.584 879.14 135.582C879.167 135.581 879.196 135.584 879.224 135.582C879.252 135.581 879.281 135.584 879.308 135.582C879.336 135.581 879.365 135.584 879.393 135.582C879.42 135.581 879.449 135.584 879.477 135.582C879.505 135.581 879.534 135.584 879.561 135.582C879.589 135.581 879.618 135.584 879.646 135.582C879.673 135.581 879.702 135.584 879.73 135.582C879.758 135.581 879.787 135.584 879.814 135.582C879.842 135.581 879.871 135.584 879.899 135.582C879.926 135.581 879.956 135.584 879.983 135.582C880.011 135.581 880.04 135.584 880.067 135.582C880.095 135.581 880.124 135.584 880.152 135.582C880.179 135.581 880.209 135.584 880.236 135.582C880.264 135.581 880.293 135.584 880.321 135.582C880.348 135.581 880.377 135.584 880.405 135.582C880.433 135.581 880.462 135.584 880.489 135.582C880.517 135.581 880.546 135.584 880.574 135.582C880.601 135.581 880.63 135.584 880.658 135.582C880.686 135.581 880.715 135.584 880.742 135.582C880.77 135.581 880.799 135.584 880.827 135.582C880.854 135.581 880.883 135.584 880.911 135.582C880.939 135.581 880.968 135.584 880.995 135.582C881.023 135.581 881.052 135.584 881.079 135.582C881.107 135.581 881.136 135.584 881.164 135.582C881.192 135.581 881.221 135.584 881.248 135.582C881.276 135.581 881.305 135.584 881.333 135.582C881.36 135.581 881.389 135.584 881.417 135.582C881.445 135.581 881.474 135.584 881.501 135.582C881.529 135.581 881.558 135.584 881.586 135.582C881.613 135.581 881.643 135.584 881.67 135.582C881.698 135.581 881.727 135.584 881.754 135.582C881.782 135.581 881.811 135.584 881.839 135.582C881.866 135.581 881.895 135.584 881.923 135.582C881.951 135.581 881.98 135.584 882.007 135.582C882.035 135.581 882.064 135.584 882.092 135.582C882.119 135.581 882.148 135.584 882.176 135.582C882.204 135.581 882.233 135.584 882.26 135.582C882.288 135.581 882.317 135.584 882.345 135.582C882.372 135.581 882.402 135.584 882.429 135.582C882.457 135.581 882.486 135.584 882.513 135.582C882.541 135.581 882.57 135.584 882.598 135.582C882.626 135.581 882.655 135.584 882.682 135.582C882.71 135.581 882.739 135.584 882.766 135.582C882.794 135.581 882.823 135.584 882.851 135.582C882.879 135.581 882.908 135.584 882.935 135.582H882.951C882.43 135.549 881.911 135.476 881.4 135.366C875.899 134.171 873.682 129.751 874.402 124.363C876.174 111.112 878.369 97.8499 880.202 84.6077C880.975 79.5691 883.746 76.1551 889.476 75.7097C889.754 75.6913 890.033 75.6893 890.312 75.7038C890.293 75.703 890.275 75.6975 890.256 75.6968C890.229 75.6957 890.2 75.6977 890.172 75.6968Z" fill="black"/>
<path d="M911.404 119.098C920.386 121.628 926.889 131.156 926.289 141.878C925.879 148.469 924.991 155.023 923.629 161.486C922.759 165.88 920.534 169.893 917.266 172.963C913.998 176.033 909.851 178.007 905.404 178.608L905.525 178.61C906.189 178.62 906.866 178.63 907.575 178.642C907.832 178.646 908.111 178.652 908.375 178.656C908.901 178.665 909.414 178.674 909.966 178.685C909.974 178.685 909.983 178.684 909.991 178.684L909.996 178.684C914.712 178.388 919.197 176.539 922.747 173.427C926.298 170.315 928.715 166.115 929.618 161.486C930.979 155.023 931.868 148.469 932.277 141.878C932.877 131.156 926.375 121.628 917.392 119.097C915.008 118.415 912.535 118.091 910.055 118.135C909.747 118.142 909.441 118.161 909.135 118.18C908.917 118.194 908.699 118.211 908.483 118.231C908.193 118.258 907.903 118.283 907.616 118.321C908.896 118.487 910.162 118.747 911.404 119.098Z" fill="black"/>
</g>
</svg>
