<svg width="310" height="200" viewBox="0 0 310 200" fill="none" xmlns="http://www.w3.org/2000/svg">
<path d="M154.562 26.8398C154.831 26.4761 155.086 26.0979 155.366 25.7451C168.258 9.14299 186.246 0 206.005 0C246.239 0 284.975 33.5861 290.597 73.3402L301.453 150.03C302.414 156.198 303.781 162.293 305.552 168.276C307.476 171.065 308.669 174.291 309.022 177.659C309.374 181.03 308.873 184.431 307.567 187.558C304.116 195.81 297.115 200.011 286.735 200H286.601H22.5307H22.3961C12.0166 200.011 5.01574 195.814 1.56439 187.558C0.258771 184.431 -0.243111 181.03 0.109661 177.659C0.462433 174.291 1.65531 171.062 3.57919 168.276C5.35033 162.29 6.71777 156.194 7.6779 150.03L18.5265 73.3402C24.1491 33.5825 62.8849 0 103.119 0C122.878 0 140.866 9.14299 153.758 25.7451C154.038 26.0942 154.293 26.4725 154.562 26.8398Z" fill="black"/>
<path d="M283.062 146.527L271.905 67.6715C267.62 37.3828 236.411 10.3215 205.764 10.3215C193.534 10.3215 180.417 15.6098 170.264 28.6769C165.027 35.5562 161.225 43.4134 159.083 51.7842C156.941 60.1551 156.502 68.8697 157.792 77.4128L167.565 146.527L171.403 173.678L221.83 173.601C220.541 171.792 219.651 169.732 219.218 167.556C218.193 163.343 216.655 153.279 216.655 153.279C216.651 153.248 216.649 153.217 216.644 153.185L213.913 133.781C213.253 129.09 216.298 125.879 221.037 125.603C226.194 125.303 231.627 127.347 233.539 136.449L235.392 149.62L235.399 149.665L238.779 173.678C238.779 173.678 290.717 173.909 290.704 173.897C286.904 170.223 283.062 146.527 283.062 146.527ZM219.582 96.7826C216.505 96.913 213.495 95.8635 211.168 93.8493C208.842 91.8351 207.376 89.0088 207.07 85.95L205.504 75.0374C204.849 70.4748 205.195 64.2452 207.58 61.567C208.509 60.4809 209.678 59.6253 210.994 59.0679C212.311 58.5105 213.74 58.2667 215.168 58.3555C217.152 58.4569 219.045 59.2184 220.545 60.5187C222.045 61.819 223.065 63.5832 223.444 65.5298L226.713 88.5861C226.927 89.6148 226.9 90.6789 226.635 91.6955C226.369 92.7121 225.872 93.6537 225.181 94.447C224.491 95.2403 223.627 95.8638 222.656 96.2689C221.684 96.674 220.633 96.8498 219.582 96.7826ZM135.736 28.6771C125.584 15.61 112.467 10.3216 100.237 10.3216C69.59 10.3216 38.3806 37.3828 34.095 67.6716L22.9381 146.527C22.9381 146.527 19.0967 170.223 15.2966 173.897C15.2836 173.909 67.2212 173.678 67.2212 173.678L70.6008 149.665L70.6086 149.62L72.462 136.449C74.3735 127.347 79.8064 125.303 84.9637 125.603C89.7025 125.879 92.7476 129.09 92.0875 133.781L89.3562 153.185C89.3519 153.217 89.3495 153.248 89.3452 153.279C89.3452 153.279 87.8078 163.343 86.7829 167.556C86.3495 169.732 85.4592 171.792 84.1705 173.601L134.597 173.678L138.436 146.527L148.208 77.4128C149.498 68.8697 149.059 60.1552 146.917 51.7843C144.775 43.4135 140.973 35.5563 135.736 28.6771ZM101.684 65.8278L98.2973 89.8705C97.9321 92.4788 96.5438 94.8354 94.4378 96.422C92.3317 98.0085 89.6805 98.6951 87.0673 98.3306C84.4541 97.9661 82.093 96.5803 80.5034 94.4783C78.9138 92.3762 78.226 89.73 78.5912 87.1217L80.1746 75.7421C80.8366 70.9843 82.592 64.6729 86.2463 61.5467C88.6992 59.3771 91.8937 58.2313 95.1691 58.3465C96.1106 58.3465 97.0411 58.5481 97.8977 58.9378C98.7544 59.3275 99.5172 59.8961 100.135 60.6053C100.752 61.3144 101.21 62.1476 101.478 63.0486C101.745 63.9495 101.816 64.8973 101.684 65.8278Z" fill="white"/>
</svg>
