<svg width="1142" height="192" viewBox="0 0 1142 192" fill="none" xmlns="http://www.w3.org/2000/svg">
<path d="M270.717 146.338L259.438 65.9182C255.105 35.0288 223.551 7.43068 192.567 7.43068C180.202 7.43068 166.941 12.8239 156.676 26.1502C151.381 33.1658 147.538 41.179 145.372 49.7158C143.206 58.2527 142.762 67.1401 144.066 75.8527L157.828 174.027L208.81 173.948C207.507 172.104 206.607 170.003 206.169 167.783C205.133 163.487 203.578 153.223 203.578 153.223C203.574 153.191 203.572 153.16 203.567 153.128L200.806 133.339C200.139 128.554 203.217 125.28 208.008 124.998C213.222 124.692 218.715 126.777 220.648 136.06L222.522 149.492L222.529 149.538L225.947 174.027C225.947 174.027 278.457 174.263 278.443 174.25C274.602 170.503 270.717 146.338 270.717 146.338ZM206.538 95.6066C203.427 95.7396 200.383 94.6692 198.031 92.615C195.679 90.5609 194.196 87.6785 193.888 84.5591L192.305 73.4299C191.642 68.7768 191.992 62.4238 194.403 59.6925C195.342 58.5849 196.524 57.7125 197.855 57.1441C199.187 56.5756 200.631 56.3268 202.075 56.4174C204.081 56.5209 205.994 57.2974 207.511 58.6235C209.027 59.9495 210.059 61.7487 210.442 63.734L213.747 87.2474C213.964 88.2965 213.937 89.3816 213.668 90.4184C213.399 91.4551 212.897 92.4155 212.199 93.2245C211.501 94.0335 210.627 94.6695 209.645 95.0827C208.663 95.4959 207.6 95.6751 206.538 95.6066Z" fill="black"/>
<path d="M1098.91 173.834C1092.49 173.519 1087.39 173.66 1083.71 173.66C1079.9 173.66 1073.45 173.494 1073.45 173.494C1075.04 171.008 1076.09 166.098 1076.58 162.499C1076.93 159.896 1077.1 158.725 1077.75 154.425C1081 133.122 1084.53 108.196 1087.55 86.8587C1089.71 71.6537 1102.05 63.2194 1113.71 65.1489C1126.65 67.2883 1135.81 77.6257 1133.86 92.5693C1130.75 116.427 1127.52 132.139 1124.46 156.003C1122.89 165.156 1113.54 173.283 1105.81 173.676C1101.76 173.882 1103.47 173.834 1098.91 173.834Z" fill="black"/>
<path d="M1128.42 7.86885C1128.34 7.56798 1127.67 7.48306 1127.67 7.48306L1123.19 6.80437L1123.19 6.79739L1123.03 6.78161L1122.88 6.75854L1122.88 6.76582L1118.37 6.30112C1118.37 6.30112 1117.7 6.21634 1117.55 6.48627C1117.39 6.75621 1100.38 18.8581 1100.38 18.8581L1097.93 38.378L1111.73 54.8031L1122.12 56.1241L1139.55 43.6691L1142 24.1492C1142 24.1492 1128.51 8.16968 1128.42 7.86885Z" fill="black"/>
<path d="M326.825 174.09C313.439 174.242 311.183 174.545 308.476 171.365C296.645 157.467 277.542 141.558 279.819 120.076C282.694 92.9631 287.157 66.0069 291.443 39.0649C293.026 29.1135 299.468 23.0033 309.778 21.887C325.105 20.2273 335.403 31.3227 333.7 47.1973C331.451 68.1604 328.104 88.5973 325.242 109.491C324.345 116.04 323.017 123.982 331.771 125.476C342.016 127.224 343.493 116.512 344.086 110.686C347.326 87.7659 351.789 55.8737 355.363 33.0055C357.65 18.3762 367.708 9.80154 381.032 11.9422C394.98 14.183 400.321 26.4326 398.244 39.1304C394.91 59.5099 390.965 89.9058 388.418 110.398C384.808 139.449 368.717 156.1 344.754 170.366C338.151 174.773 336 174.325 326.825 174.09Z" fill="black"/>
<path d="M441.085 173.527C427.895 173.527 413.371 173.527 400.015 173.527C397.62 173.527 391.341 173.456 391.341 173.456C392.63 171.301 394.137 160.458 394.551 157.876C399.936 122.41 402.598 93.5236 408.729 58.1845C411.969 39.5053 429.882 22.9572 449.982 21.5022C461.875 20.6414 469.371 20.9046 481.311 20.9046C497.367 20.9046 507.661 31.8361 506.867 44.4717C506.622 50.0042 504.268 55.2284 500.295 59.0578C496.321 62.8871 491.034 65.0267 485.533 65.0312C476.451 65.0312 470.656 64.6797 462.001 64.6797C455.839 64.6797 451.099 67.3139 450.832 73.1139C450.528 79.7016 454.925 83.0541 460.974 83.5358C462.614 83.6664 466.13 83.9095 469.216 83.9095C475.676 83.9095 483.179 88.3212 483.026 97.2908C482.878 106.037 475.007 110.971 466.748 110.584C461.943 110.359 457.858 109.136 453.327 109.251C448.489 109.375 445.357 113.38 444.884 118.209C444.357 123.583 447.254 127.1 452.284 127.891C457.189 128.46 462.131 128.635 467.064 128.414C485.229 128.314 492.54 139.778 492.258 152.534C491.976 158.207 489.536 163.552 485.444 167.461C481.351 171.37 475.921 173.542 470.28 173.527C458.85 173.762 452.627 173.527 441.085 173.527Z" fill="black"/>
<path d="M887.974 173.748C873.06 173.748 857.145 173.719 842.17 173.719C839.467 173.719 832.311 173.792 832.593 173.701C834.651 173.038 835.314 166.449 835.804 163.507C842.108 125.634 843.757 97.6328 850.72 59.8853C855.385 34.5996 876.553 20.3312 900.053 21.2343C913.729 21.7598 912.79 21.4147 926.467 21.6872C952.169 22.1991 964.775 48.6886 952.618 73.4658C943.723 85.8544 932.752 83.7648 915.259 83.7648C911.633 83.7648 910.02 81.0223 910.996 76.6003C911.886 72.5703 907.55 66.3012 901.842 66.749C895.934 67.2124 893.077 70.7631 892.28 76.0033C890.39 89.7753 888.127 103.567 886.3 117.348C885.557 122.952 887.843 127.549 893.515 128.791C895.548 129.311 897.698 129.085 899.581 128.156C901.464 127.226 902.957 125.653 903.794 123.717C909.418 112.523 919.953 108.84 930.624 111.873C939.885 114.504 946.589 124.413 945.971 135.564C944.99 145.741 945.206 145.807 943.229 155.957C940.689 168.998 928.737 173.955 922.968 173.844C908.059 173.554 902.889 173.747 887.974 173.748Z" fill="black"/>
<path d="M826.957 21.6714C838.916 22.1108 847.034 30.7151 847.034 42.2361C847.034 53.3093 836.996 60.5156 831.322 60.7792C821.663 61.2281 814.016 68.8387 813.428 77.3889C809.609 106.295 802.153 146.857 798.384 175.769C797.01 190.731 788.486 191.634 781.155 191.838C770.579 192.133 772.795 191.912 762.129 191.912C759.275 191.912 751.016 191.875 751.154 191.802C753.019 190.807 754.138 185.546 754.665 182.188C758.754 156.163 764.968 109.25 768.84 83.189C771.496 69.0899 767.968 65.0853 758.54 62.1852C757.034 61.7218 753.827 61.2186 750.684 60.3397C745.338 57.9449 748.18 49.2673 749.069 42.7852C750.117 31.9097 756.14 22.3527 767.356 21.5837C777.656 20.8776 818.089 21.3456 826.957 21.6714Z" fill="black"/>
<path d="M560.894 190.819C561.819 188.53 562.374 186.106 562.537 183.641C562.672 182.403 562.549 181.15 562.175 179.963C561.801 178.775 561.186 177.68 560.367 176.745C559.549 175.811 558.546 175.059 557.423 174.538C556.299 174.016 555.08 173.737 553.843 173.717C540.651 173.677 520.461 173.717 506.77 173.717C505.133 173.717 499.248 173.659 499.283 173.637C501.052 172.518 501.701 166.672 501.999 164.687C507.709 126.758 512.016 98.2456 517.717 60.3153C520.408 39.5449 538.885 20.2194 567.588 21.4837C584.63 21.1224 587.321 21.1223 604.081 21.212C617.255 21.2825 625.856 31.5396 626.165 43.6719C626.363 51.4626 619.617 65.8952 604.736 66.2948C600.968 66.3959 592.732 66.2447 589.401 65.9791C571.206 64.5282 559.796 72.5375 557.633 90.4216C556.472 98.2068 555.133 107.196 553.954 115.944C551.413 126.523 556.323 133.215 563.516 134.264C566.328 134.735 569.214 134.152 571.628 132.624C574.041 131.096 575.814 128.73 576.611 125.974C577.347 123.56 577.347 120.98 576.613 118.565C575.879 116.151 574.443 114.013 572.492 112.428C569.026 109.585 564.941 106.74 565.798 98.806C566.79 89.617 577.572 86.29 585.097 86.4409C606.522 86.8701 619.613 95.2041 615.65 121.382C613.232 141.868 610.869 152.406 608.208 172.863C606.398 184.429 595.323 190.994 585.118 190.994C573.928 190.994 575.115 190.874 565.669 190.874C564.352 190.874 560.894 190.819 560.894 190.819Z" fill="black"/>
<path d="M1021.32 191.846C1018.74 191.844 1009.64 191.659 1009.91 191.514C1013.2 189.747 1015.39 176.759 1016.03 172.362C1018.14 157.783 1021.07 139.427 1023.24 124.857C1024.24 118.35 1022.69 113.206 1016.28 111.643C1009.72 110.041 1005.35 115.147 1004.85 122.054C1001.92 137.32 1001.67 143.015 999.231 158.043C998.038 165.4 990.133 174.11 982.676 174.26C981.861 174.276 970.73 174.008 961.348 174.035C953.881 174.056 950.369 173.946 949.875 173.89C951.796 172.067 953.058 168.034 953.552 164.829C954.789 156.803 955.978 147.231 957.321 138.597C962.259 101.224 969.352 60.6277 974.509 23.2836C976.659 7.71508 986.288 -1.20347 998.954 0.131337C1013.19 1.6313 1021.53 13.3454 1018.66 29.3554C1016.43 41.8416 1014.17 57.8242 1011.91 70.2989C1010.67 77.1194 1012.72 82.014 1019.37 83.1127C1026.03 84.2138 1029.06 79.4183 1030 74.103C1032.08 62.4418 1033.13 51.1562 1034.78 39.2659C1036.47 27.0528 1050.93 16.7899 1065.3 23.1485C1074.35 27.1528 1079.68 36.602 1078.23 47.4745C1073.72 81.1462 1061.76 165.172 1060.4 175.29C1058.98 185.801 1049.43 191.431 1038.99 191.956C1036.18 192.098 1024.66 191.849 1021.32 191.846Z" fill="black"/>
<path d="M121.768 26.1505C111.503 12.8243 98.2413 7.43098 85.8763 7.43098C54.8916 7.43098 23.3384 35.0287 19.0055 65.9182L7.7257 146.338C7.7257 146.338 3.84197 170.503 2.45601e-06 174.25C-0.0131117 174.263 52.4968 174.027 52.4968 174.027L55.9138 149.538L55.9216 149.492L57.7953 136.06C59.7279 126.777 65.2209 124.692 70.4351 124.998C75.2262 125.28 78.3048 128.554 77.6375 133.339L74.8759 153.128C74.8715 153.16 74.8691 153.191 74.8648 153.223C74.8648 153.223 73.3104 163.487 72.2741 167.784C71.836 170.003 70.9361 172.104 69.6332 173.948L120.615 174.027L134.377 75.8527C135.681 67.1401 135.237 58.2527 133.072 49.7158C130.906 41.179 127.062 33.1661 121.768 26.1505ZM87.3402 64.0378L83.9157 88.5574C83.5465 91.2174 82.1427 93.6207 80.0134 95.2387C77.8841 96.8567 75.2038 97.557 72.5618 97.1852C69.9197 96.8135 67.5327 95.4001 65.9256 93.2564C64.3185 91.1126 63.623 88.414 63.9922 85.7541L65.5931 74.1486C66.2624 69.2965 68.0372 62.8601 71.7318 59.6719C74.2117 57.4592 77.4414 56.2909 80.7529 56.4083C81.7047 56.4083 82.6454 56.6137 83.5115 57.0111C84.3776 57.4085 85.1491 57.9886 85.7735 58.7118C86.3979 59.435 86.8607 60.2846 87.131 61.2035C87.4013 62.1223 87.4728 63.0889 87.3402 64.0378Z" fill="black"/>
<path d="M682.891 20.5149H674.545C665.757 20.5152 657.266 23.7126 650.634 29.5181C644.003 35.3237 639.678 43.3464 638.457 52.1082L630.864 106.625C629.698 114.991 630.329 123.513 632.714 131.613C635.098 139.714 639.182 147.205 644.688 153.58C650.195 159.956 656.996 165.067 664.632 168.57C672.269 172.073 680.563 173.886 688.955 173.885H697.396C706.139 173.884 714.588 170.706 721.19 164.935C727.791 159.163 732.102 151.187 733.329 142.471L741.011 87.8991C742.19 79.5216 741.567 70.9869 739.187 62.8723C736.806 54.7577 732.723 47.2526 727.213 40.864C721.703 34.4755 714.894 29.3524 707.248 25.8418C699.601 22.3312 691.295 20.5146 682.891 20.5149ZM699.464 86.4877L697.422 114.076C697.005 119.701 692.061 123.026 685.83 121.872C678.243 120.468 671.829 115.274 672.41 106.249L673.353 93.1872C673.746 87.7257 675.909 80.5702 679.769 78.0359C681.345 76.9857 683.121 76.2752 684.983 75.9495C686.845 75.6238 688.755 75.6897 690.59 76.1431C695.617 77.0565 699.8 81.9533 699.464 86.4877Z" fill="black"/>
</svg>
