<svg width="310" height="200" viewBox="0 0 310 200" fill="none" xmlns="http://www.w3.org/2000/svg">
<path d="M154.562 26.8398C154.831 26.4761 155.086 26.0979 155.366 25.7451C168.258 9.14299 186.246 0 206.005 0C246.239 0 284.975 33.5861 290.597 73.3402L301.453 150.03C302.414 156.198 303.781 162.293 305.552 168.276C307.476 171.065 308.669 174.291 309.022 177.659C309.374 181.03 308.873 184.431 307.567 187.558C304.116 195.81 297.115 200.011 286.735 200H286.601H22.5307H22.3961C12.0166 200.011 5.01574 195.814 1.56439 187.558C0.258771 184.431 -0.243111 181.03 0.109661 177.659C0.462433 174.291 1.65531 171.062 3.57919 168.276C5.35033 162.29 6.71777 156.194 7.6779 150.03L18.5265 73.3402C24.1491 33.5825 62.8849 0 103.119 0C122.878 0 140.866 9.14299 153.758 25.7451C154.038 26.0942 154.293 26.4725 154.562 26.8398Z" fill="#441C6C"/>
<path opacity="0.25" d="M289.169 146.527L278.012 67.6713C273.726 37.3826 242.517 10.3213 211.87 10.3213C199.64 10.3213 186.523 15.6096 176.37 28.6767C171.134 35.556 167.332 43.4132 165.19 51.784C163.048 60.1549 162.609 68.8695 163.898 77.4126L173.671 146.527L177.51 173.678L227.936 173.6C226.648 171.792 225.757 169.732 225.324 167.556C224.299 163.343 222.761 153.279 222.761 153.279C222.757 153.247 222.755 153.217 222.751 153.185L220.019 133.781C219.359 129.089 222.404 125.879 227.143 125.603C232.3 125.302 237.733 127.347 239.645 136.449L241.498 149.62L241.506 149.665L244.886 173.678C244.886 173.678 296.823 173.909 296.81 173.897C293.01 170.222 289.169 146.527 289.169 146.527ZM225.689 96.7824C222.612 96.9128 219.601 95.8633 217.275 93.8491C214.948 91.8349 213.482 89.0086 213.177 85.9498L211.611 75.0372C210.956 70.4746 211.302 64.245 213.687 61.5668C214.615 60.4807 215.784 59.6251 217.101 59.0677C218.418 58.5103 219.847 58.2665 221.274 58.3553C223.258 58.4567 225.151 59.2182 226.651 60.5185C228.151 61.8188 229.172 63.583 229.55 65.5296L232.82 88.5859C233.034 89.6146 233.007 90.6787 232.741 91.6953C232.475 92.7119 231.978 93.6535 231.288 94.4468C230.598 95.2401 229.733 95.8636 228.762 96.2687C227.791 96.6738 226.739 96.8496 225.689 96.7824ZM141.843 28.6768C131.69 15.6097 118.573 10.3214 106.343 10.3214C75.6964 10.3214 44.4872 37.3826 40.2016 67.6714L29.0448 146.527C29.0448 146.527 25.2033 170.222 21.4032 173.897C21.3902 173.909 73.3278 173.678 73.3278 173.678L76.7075 149.665L76.7151 149.62L78.5686 136.449C80.48 127.347 85.9129 125.302 91.0703 125.603C95.8091 125.879 98.8543 129.089 98.1942 133.781L95.4629 153.185C95.4585 153.217 95.4561 153.247 95.4517 153.279C95.4517 153.279 93.9143 163.343 92.8894 167.556C92.4561 169.732 91.5658 171.792 90.2771 173.6L140.703 173.678L144.542 146.527L154.315 77.4126C155.605 68.8694 155.166 60.155 153.024 51.7841C150.881 43.4133 147.08 35.556 141.843 28.6768ZM107.791 65.8276L104.404 89.8703C104.036 92.4759 102.646 94.8292 100.541 96.4132C98.4358 97.9971 95.7866 98.6823 93.1755 98.3181C90.5645 97.9538 88.205 96.5701 86.6154 94.4707C85.0259 92.3713 84.3362 89.728 84.6979 87.1214L86.2812 75.7418C86.9432 70.984 88.6986 64.6726 92.3529 61.5464C94.8058 59.3768 98.0004 58.2311 101.276 58.3463C102.217 58.3463 103.148 58.5479 104.004 58.9376C104.861 59.3273 105.624 59.8959 106.241 60.6051C106.859 61.3143 107.317 62.1474 107.584 63.0484C107.852 63.9494 107.922 64.8971 107.791 65.8276Z" fill="black"/>
<path d="M283.062 146.527L271.905 67.6715C267.62 37.3828 236.411 10.3215 205.764 10.3215C193.534 10.3215 180.417 15.6098 170.264 28.6769C165.027 35.5562 161.226 43.4134 159.083 51.7842C156.941 60.1551 156.502 68.8697 157.792 77.4128L167.565 146.527L171.403 173.678L221.83 173.601C220.541 171.792 219.651 169.732 219.218 167.556C218.193 163.343 216.655 153.279 216.655 153.279C216.651 153.248 216.649 153.217 216.644 153.185L213.913 133.781C213.253 129.09 216.298 125.879 221.037 125.603C226.194 125.303 231.627 127.347 233.539 136.449L235.392 149.62L235.4 149.665L238.779 173.678C238.779 173.678 290.717 173.909 290.704 173.897C286.904 170.223 283.062 146.527 283.062 146.527ZM219.582 96.7826C216.505 96.913 213.495 95.8635 211.168 93.8493C208.842 91.8351 207.376 89.0088 207.07 85.95L205.504 75.0374C204.849 70.4748 205.195 64.2452 207.58 61.567C208.509 60.4809 209.678 59.6253 210.995 59.0679C212.311 58.5105 213.74 58.2667 215.168 58.3555C217.152 58.4569 219.045 59.2184 220.545 60.5187C222.045 61.819 223.065 63.5832 223.444 65.5298L226.713 88.5861C226.927 89.6148 226.9 90.6789 226.635 91.6955C226.369 92.7121 225.872 93.6537 225.181 94.447C224.491 95.2403 223.627 95.8638 222.656 96.2689C221.685 96.674 220.633 96.8498 219.582 96.7826ZM135.737 28.6771C125.584 15.61 112.467 10.3216 100.237 10.3216C69.59 10.3216 38.3807 37.3828 34.095 67.6716L22.9382 146.527C22.9382 146.527 19.0968 170.223 15.2967 173.897C15.2837 173.909 67.2213 173.678 67.2213 173.678L70.6009 149.665L70.6086 149.62L72.4621 136.449C74.3735 127.347 79.8064 125.303 84.9638 125.603C89.7026 125.879 92.7477 129.09 92.0876 133.781L89.3563 153.185C89.3519 153.217 89.3496 153.248 89.3452 153.279C89.3452 153.279 87.8078 163.343 86.7829 167.556C86.3496 169.732 85.4593 171.792 84.1706 173.601L134.597 173.678L138.436 146.527L148.209 77.4128C149.498 68.8697 149.059 60.1552 146.917 51.7843C144.775 43.4135 140.973 35.5563 135.737 28.6771ZM101.685 65.8278L98.2974 89.8705C97.9322 92.4788 96.5439 94.8354 94.4378 96.422C92.3318 98.0085 89.6805 98.6951 87.0673 98.3306C84.4541 97.9661 82.093 96.5803 80.5035 94.4783C78.9139 92.3762 78.226 89.73 78.5913 87.1217L80.1747 75.7421C80.8367 70.9843 82.5921 64.6729 86.2464 61.5467C88.6993 59.3771 91.8938 58.2313 95.1692 58.3465C96.1106 58.3465 97.0411 58.5481 97.8978 58.9378C98.7544 59.3275 99.5173 59.8961 100.135 60.6053C100.753 61.3144 101.21 62.1476 101.478 63.0486C101.745 63.9495 101.816 64.8973 101.685 65.8278Z" fill="white"/>
<path d="M207.069 85.9497L205.503 75.037C204.848 70.4747 205.194 64.2451 207.579 61.567C208.5 60.4887 209.659 59.6378 210.965 59.081C212.27 58.5243 213.687 58.2767 215.104 58.3577L215.081 58.3553L215.019 58.3577L214.995 58.3553L214.933 58.3577L214.909 58.3553L214.847 58.3577L214.823 58.3553L214.761 58.3577L214.737 58.3553L214.675 58.3577L214.651 58.3553L214.589 58.3577L214.565 58.3553L214.503 58.3577L214.479 58.3553L214.417 58.3577L214.393 58.3553L214.331 58.3577L214.307 58.3553L214.245 58.3577L214.221 58.3553L214.159 58.3577L214.135 58.3553L214.073 58.3577L214.049 58.3553L213.987 58.3577L213.963 58.3553L213.901 58.3577L213.877 58.3553L213.815 58.3577L213.791 58.3553L213.729 58.3577L213.705 58.3553L213.643 58.3577L213.619 58.3553L213.557 58.3577L213.533 58.3553L213.471 58.3577L213.447 58.3553L213.385 58.3577L213.361 58.3553L213.299 58.3577L213.275 58.3553L213.213 58.3577L213.189 58.3553L213.127 58.3577L213.103 58.3553L213.041 58.3577L213.017 58.3553L212.955 58.3577L212.93 58.3553L212.869 58.3577L212.845 58.3553L212.783 58.3577L212.759 58.3553L212.697 58.3577L212.673 58.3553L212.611 58.3577L212.586 58.3553L212.525 58.3577L212.5 58.3553L212.439 58.3577L212.415 58.3553L212.353 58.3577L212.329 58.3553L212.267 58.3577L212.242 58.3553L212.181 58.3577L212.156 58.3553L212.095 58.3577L212.07 58.3553L212.009 58.3577L211.985 58.3553L211.923 58.3577L211.898 58.3553L211.836 58.3577L211.812 58.3553L211.751 58.3577L211.726 58.3553L211.664 58.3577L211.64 58.3553L211.579 58.3577L211.554 58.3553L211.492 58.3577L211.468 58.3553L211.406 58.3577L211.382 58.3553L211.32 58.3577L211.296 58.3553L211.234 58.3577L211.21 58.3553L211.148 58.3577L211.124 58.3553L211.062 58.3577L211.038 58.3553L210.976 58.3577L210.952 58.3553L210.89 58.3577L210.866 58.3553L210.804 58.3577L210.78 58.3553L210.718 58.3577L210.694 58.3553L210.632 58.3577L210.608 58.3553L210.546 58.3577L210.522 58.3553L210.46 58.3577L210.436 58.3553L210.374 58.3577L210.35 58.3553L210.288 58.3577L210.264 58.3553L210.202 58.3577L210.178 58.3553L210.116 58.3577L210.092 58.3553L210.03 58.3577L210.006 58.3553L209.944 58.3577L209.92 58.3553L209.858 58.3577L209.834 58.3553L209.772 58.3577L209.748 58.3553L209.686 58.3577L209.662 58.3553L209.6 58.3577L209.576 58.3553L209.514 58.3577L209.49 58.3553L209.428 58.3577L209.404 58.3553L209.342 58.3577L209.318 58.3553L209.256 58.3577L209.232 58.3553L209.17 58.3577L209.146 58.3553L209.084 58.3577L209.06 58.3553C207.633 58.2665 206.204 58.5104 204.887 59.0678C203.57 59.6253 202.401 60.4809 201.473 61.567C199.088 64.2451 198.742 70.4747 199.397 75.037L200.963 85.9497C201.268 89.0086 202.734 91.8349 205.061 93.8491C207.387 95.8634 210.398 96.9129 213.475 96.7825L213.502 96.7804L213.561 96.7825L213.588 96.7804L213.647 96.7825L213.674 96.7804L213.733 96.7825L213.76 96.7804L213.819 96.7825L213.846 96.7804L213.905 96.7825L213.932 96.7804L213.991 96.7825L214.018 96.7804L214.077 96.7825L214.104 96.7804L214.163 96.7825L214.19 96.7804L214.249 96.7825L214.276 96.7804L214.335 96.7825L214.362 96.7804L214.421 96.7825L214.448 96.7804L214.507 96.7825L214.534 96.7804L214.593 96.7825L214.62 96.7804L214.679 96.7825L214.706 96.7804L214.765 96.7825L214.792 96.7804L214.851 96.7825L214.878 96.7804L214.937 96.7825L214.964 96.7804L215.023 96.7825L215.05 96.7804L215.109 96.7825L215.136 96.7804L215.195 96.7825L215.222 96.7804L215.281 96.7825L215.308 96.7804L215.367 96.7825L215.394 96.7804L215.453 96.7825L215.48 96.7804L215.539 96.7825L215.566 96.7804L215.625 96.7825L215.652 96.7804L215.711 96.7825L215.738 96.7804L215.797 96.7825L215.824 96.7804L215.883 96.7825L215.91 96.7804L215.969 96.7825L215.996 96.7804L216.055 96.7825L216.082 96.7804L216.141 96.7825L216.168 96.7804L216.227 96.7825L216.254 96.7804L216.313 96.7825L216.34 96.7804L216.399 96.7825L216.426 96.7804L216.485 96.7825L216.512 96.7804L216.571 96.7825L216.598 96.7804L216.657 96.7825L216.684 96.7804L216.743 96.7825L216.77 96.7804L216.829 96.7825L216.856 96.7804L216.915 96.7825L216.942 96.7804L217.001 96.7825L217.028 96.7804L217.087 96.7825L217.114 96.7804L217.173 96.7825L217.2 96.7804L217.259 96.7825L217.286 96.7804L217.345 96.7825L217.372 96.7804L217.431 96.7825L217.459 96.7804L217.517 96.7825L217.545 96.7804L217.603 96.7825L217.631 96.7804L217.69 96.7825L217.717 96.7804L217.775 96.7825L217.803 96.7804L217.861 96.7825L217.889 96.7804L217.948 96.7825L217.975 96.7804L218.034 96.7825L218.061 96.7804L218.12 96.7825L218.147 96.7804L218.205 96.7825L218.233 96.7804L218.292 96.7825L218.319 96.7804L218.378 96.7825L218.405 96.7804L218.464 96.7825L218.491 96.7804L218.55 96.7825L218.577 96.7804L218.636 96.7825L218.663 96.7804L218.722 96.7825L218.749 96.7804L218.808 96.7825L218.835 96.7804L218.894 96.7825L218.921 96.7804L218.98 96.7825L219.007 96.7804L219.066 96.7825L219.093 96.7804L219.152 96.7825L219.179 96.7804L219.238 96.7825L219.265 96.7804L219.324 96.7825L219.351 96.7804L219.41 96.7825L219.437 96.7804L219.496 96.7825L219.523 96.7804L219.582 96.7825C216.505 96.913 213.494 95.8635 211.168 93.8492C208.841 91.835 207.375 89.0086 207.069 85.9497Z" fill="#D7D7D7"/>
<path d="M134.596 173.677L138.435 146.527L148.208 77.4127C149.498 68.8696 149.059 60.1551 146.916 51.7842C144.774 43.4134 140.972 35.5562 135.736 28.677C125.583 15.6098 112.466 10.3213 100.236 10.3213L100.212 10.3222C99.1392 10.3228 98.0661 10.3641 96.9934 10.4299C108.38 11.2013 120.264 16.6244 129.629 28.677C134.865 35.5562 138.667 43.4134 140.809 51.7842C142.952 60.1551 143.391 68.8696 142.101 77.4127L132.328 146.527L128.491 173.669L131.421 173.673L134.596 173.677Z" fill="#D7D7D7"/>
<path d="M221.828 125.578C221.8 125.578 221.771 125.578 221.742 125.578C221.714 125.578 221.685 125.578 221.656 125.578C221.628 125.578 221.599 125.578 221.57 125.578C221.542 125.578 221.513 125.578 221.484 125.578C221.456 125.578 221.427 125.578 221.398 125.578C221.37 125.578 221.341 125.578 221.312 125.578C221.284 125.578 221.255 125.578 221.226 125.578C221.198 125.578 221.169 125.578 221.14 125.578C221.112 125.578 221.083 125.578 221.054 125.578C221.026 125.578 220.997 125.578 220.968 125.578C220.94 125.578 220.911 125.578 220.882 125.578C220.854 125.578 220.825 125.578 220.796 125.578C220.768 125.578 220.739 125.578 220.71 125.578C220.681 125.578 220.653 125.578 220.624 125.578C220.596 125.578 220.567 125.578 220.538 125.578C220.51 125.578 220.481 125.578 220.452 125.578C220.424 125.578 220.395 125.578 220.366 125.578C220.338 125.578 220.309 125.578 220.28 125.578C220.251 125.578 220.223 125.578 220.194 125.578C220.166 125.578 220.137 125.578 220.108 125.578C220.08 125.578 220.051 125.578 220.022 125.578C219.993 125.578 219.965 125.578 219.936 125.578C219.907 125.578 219.879 125.578 219.85 125.578C219.821 125.578 219.793 125.578 219.764 125.578C219.735 125.578 219.707 125.578 219.678 125.578C219.649 125.578 219.621 125.578 219.592 125.578C219.563 125.578 219.535 125.578 219.506 125.578C219.477 125.578 219.449 125.578 219.42 125.578C219.391 125.578 219.363 125.578 219.334 125.578C219.305 125.578 219.277 125.578 219.248 125.578C219.219 125.578 219.191 125.578 219.162 125.578C219.133 125.578 219.105 125.578 219.076 125.578C219.047 125.578 219.019 125.578 218.99 125.578C218.961 125.578 218.933 125.578 218.904 125.578C218.875 125.578 218.847 125.578 218.818 125.578C218.789 125.578 218.761 125.578 218.732 125.578C218.703 125.578 218.675 125.578 218.646 125.578C218.617 125.578 218.589 125.578 218.56 125.578C218.531 125.578 218.503 125.578 218.474 125.578C218.445 125.578 218.417 125.578 218.388 125.578C218.359 125.578 218.331 125.578 218.302 125.578C218.273 125.578 218.245 125.578 218.216 125.578C218.187 125.578 218.159 125.578 218.13 125.578C218.101 125.578 218.073 125.578 218.044 125.578C218.015 125.578 217.987 125.578 217.958 125.578C217.929 125.578 217.901 125.578 217.872 125.578C217.843 125.578 217.814 125.578 217.786 125.578C217.757 125.578 217.728 125.578 217.7 125.578C217.671 125.578 217.643 125.578 217.614 125.578C217.585 125.578 217.557 125.578 217.528 125.578C217.499 125.578 217.47 125.578 217.442 125.578C217.413 125.578 217.384 125.578 217.356 125.578C217.327 125.578 217.298 125.578 217.27 125.578C217.241 125.578 217.212 125.578 217.184 125.578C217.155 125.578 217.126 125.578 217.098 125.578C217.069 125.578 217.04 125.578 217.012 125.578C216.983 125.578 216.954 125.578 216.926 125.578C216.897 125.578 216.868 125.578 216.84 125.578C216.811 125.578 216.782 125.578 216.754 125.578C216.725 125.578 216.696 125.578 216.668 125.578C216.639 125.578 216.61 125.578 216.582 125.578C216.553 125.578 216.524 125.578 216.496 125.578C216.467 125.578 216.438 125.578 216.41 125.578C216.381 125.578 216.352 125.578 216.324 125.578C216.295 125.578 216.266 125.578 216.238 125.578C216.209 125.578 216.18 125.578 216.152 125.578C216.123 125.578 216.094 125.578 216.066 125.578C216.037 125.578 216.008 125.578 215.979 125.578C215.629 125.575 215.279 125.583 214.929 125.603C210.191 125.879 207.146 129.089 207.806 133.781L210.537 153.185C210.541 153.217 210.544 153.247 210.548 153.279C210.548 153.279 212.085 163.343 213.11 167.556C213.544 169.732 214.434 171.792 215.723 173.6H221.83C220.541 171.792 219.651 169.732 219.217 167.556C218.192 163.343 216.655 153.279 216.655 153.279C216.651 153.247 216.648 153.217 216.644 153.185L213.913 133.781C213.253 129.089 216.298 125.879 221.036 125.603C221.328 125.586 221.622 125.579 221.915 125.578C221.886 125.578 221.857 125.578 221.828 125.578Z" fill="#D7D7D7"/>
<path d="M78.5907 87.1218L80.1741 75.742C80.8361 70.9842 82.5915 64.673 86.2458 61.5468C88.6986 59.377 91.8931 58.2312 95.1686 58.3464L95.0849 58.3467L95.0826 58.3464L94.9989 58.3467L94.9967 58.3464L94.9128 58.3467L94.9106 58.3464L94.8268 58.3467L94.8246 58.3464L94.7408 58.3467L94.7386 58.3464L94.6548 58.3467L94.6526 58.3464L94.5688 58.3467L94.5665 58.3464L94.4828 58.3467L94.4805 58.3464L94.3968 58.3467L94.3945 58.3464L94.3108 58.3467L94.3085 58.3464L94.2247 58.3467L94.2225 58.3464L94.1387 58.3467L94.1365 58.3464L94.0527 58.3467L94.0505 58.3464L93.9667 58.3467L93.9645 58.3464L93.8806 58.3467L93.8785 58.3464L93.7946 58.3467L93.7924 58.3464L93.7087 58.3467L93.7064 58.3464L93.6227 58.3467L93.6204 58.3464L93.5366 58.3467L93.5344 58.3464L93.4506 58.3467L93.4483 58.3464L93.3646 58.3467L93.3623 58.3464L93.2786 58.3467L93.2764 58.3464L93.1926 58.3467L93.1904 58.3464L93.1065 58.3467L93.1043 58.3464L93.0205 58.3467L93.0183 58.3464L92.9345 58.3467L92.9323 58.3464L92.8486 58.3467L92.8463 58.3464L92.7625 58.3467L92.7602 58.3464L92.6765 58.3467L92.6742 58.3464L92.5905 58.3467L92.5882 58.3464L92.5045 58.3467L92.5022 58.3464L92.4184 58.3467L92.4162 58.3464L92.3324 58.3467L92.3302 58.3464L92.2464 58.3467L92.2442 58.3464L92.1604 58.3467L92.1582 58.3464L92.0743 58.3467L92.0722 58.3464L91.9884 58.3467L91.9861 58.3464L91.9024 58.3467L91.9001 58.3464L91.8164 58.3467L91.8141 58.3464L91.7303 58.3467L91.7281 58.3464L91.6443 58.3467L91.642 58.3464L91.5583 58.3467L91.5561 58.3464L91.4723 58.3467L91.4701 58.3464L91.3862 58.3467L91.3841 58.3464L91.3002 58.3467L91.298 58.3464L91.2142 58.3467L91.212 58.3464L91.1283 58.3467L91.126 58.3464L91.0423 58.3467L91.0401 58.3464L90.9562 58.3467L90.9539 58.3464L90.8702 58.3467L90.8679 58.3464L90.7842 58.3467L90.7819 58.3464L90.6983 58.3467L90.696 58.3464L90.6121 58.3467L90.6099 58.3464L90.5262 58.3467L90.5239 58.3464L90.4401 58.3467L90.4379 58.3464L90.3541 58.3467L90.3519 58.3464L90.268 58.3467L90.2659 58.3464L90.1821 58.3467L90.1799 58.3464L90.0961 58.3467L90.0939 58.3464L90.0101 58.3467L90.0078 58.3464L89.924 58.3467L89.9218 58.3464L89.838 58.3467L89.8357 58.3464L89.7521 58.3467L89.7498 58.3464L89.6661 58.3467L89.6638 58.3464L89.58 58.3467L89.5778 58.3464L89.4939 58.3467L89.4917 58.3464L89.4079 58.3467L89.4057 58.3464L89.322 58.3467L89.3198 58.3464L89.236 58.3467L89.2338 58.3464L89.1499 58.3467L89.1477 58.3464L89.0639 58.3467L89.0616 58.3464C85.7861 58.2312 82.5916 59.377 80.1388 61.5468C76.4846 64.673 74.7291 70.9841 74.0671 75.742L72.4838 87.1218C72.2881 88.5277 72.3967 89.9591 72.8022 91.3196C73.2077 92.68 73.9008 93.9379 74.8347 95.0084C75.7685 96.0789 76.9214 96.9372 78.2156 97.5254C79.5099 98.1135 80.9155 98.4178 82.3376 98.4178L82.3723 98.4151L82.4237 98.4178L82.4584 98.4151L82.5097 98.4178L82.5444 98.4151L82.5957 98.4178L82.6304 98.4151L82.6816 98.4178L82.7164 98.4151L82.7677 98.4178L82.8025 98.4151L82.8537 98.4178L82.8885 98.4151L82.9397 98.4178L82.9745 98.4151L83.0257 98.4178L83.0605 98.4151L83.1117 98.4178L83.1465 98.4151L83.1978 98.4178L83.2325 98.4151L83.2838 98.4178L83.3185 98.4151L83.3698 98.4178L83.4045 98.4151L83.4558 98.4178L83.4906 98.4151L83.5418 98.4178L83.5766 98.4151L83.6278 98.4178L83.6625 98.4151L83.7138 98.4178L83.7485 98.4151L83.7998 98.4178L83.8346 98.4151L83.8859 98.4178L83.9207 98.4151L83.9719 98.4178L84.0067 98.4151L84.0579 98.4178L84.0926 98.4151L84.1439 98.4178L84.1786 98.4151L84.23 98.4178L84.2647 98.4151L84.316 98.4178L84.3507 98.4151L84.402 98.4178L84.4367 98.4151L84.4879 98.4178L84.5226 98.4151L84.574 98.4178L84.6087 98.4151L84.66 98.4178L84.6948 98.4151L84.746 98.4178L84.7808 98.4151L84.832 98.4178L84.8668 98.4151L84.918 98.4178L84.9528 98.4151L85.0041 98.4178L85.0388 98.4151L85.0901 98.4178L85.1248 98.4151L85.1761 98.4178L85.2108 98.4151L85.2621 98.4178L85.2969 98.4151L85.3481 98.4178L85.3828 98.4151L85.4341 98.4178L85.4688 98.4151L85.5201 98.4178L85.5548 98.4151L85.6061 98.4178L85.6409 98.4151L85.6922 98.4178L85.7269 98.4151L85.7781 98.4178L85.8129 98.4151L85.8641 98.4178L85.8989 98.4151L85.9502 98.4178L85.9849 98.4151L86.0363 98.4178L86.071 98.4151L86.1223 98.4178L86.157 98.4151L86.2082 98.4178L86.2429 98.4151L86.2942 98.4178L86.3289 98.4151L86.3803 98.4178L86.415 98.4151L86.4663 98.4178L86.501 98.4151L86.5523 98.4178L86.587 98.4151L86.6382 98.4178L86.673 98.4151L86.7243 98.4178L86.7591 98.4151L86.8104 98.4178L86.8451 98.4151L86.8964 98.4178L86.9311 98.4151L86.9824 98.4178L87.0171 98.4151L87.0683 98.4178L87.1031 98.4151L87.1544 98.4178L87.1891 98.4151L87.2404 98.4178L87.2751 98.4151L87.3264 98.4178L87.3611 98.4151L87.4124 98.4178L87.4472 98.4151L87.4984 98.4178L87.5332 98.4151L87.5844 98.4178L87.6192 98.4151L87.6704 98.4178L87.7052 98.4151L87.7565 98.4178L87.7912 98.4151L87.8425 98.4178L87.8773 98.4151L87.9285 98.4178L87.9632 98.4151L88.0145 98.4178L88.0492 98.4151L88.1005 98.4178L88.1352 98.4151L88.1866 98.4178L88.2213 98.4151L88.2726 98.4178L88.3073 98.4151L88.3585 98.4178L88.3933 98.4151L88.4445 98.4178C87.0224 98.4178 85.6169 98.1135 84.3226 97.5254C83.0284 96.9372 81.8755 96.0789 80.9417 95.0084C80.0078 93.9379 79.3147 92.68 78.9092 91.3196C78.5037 89.9591 78.395 88.5277 78.5907 87.1218Z" fill="#D7D7D7"/>
<path d="M290.672 173.897L290.703 173.897C286.903 170.223 283.062 146.527 283.062 146.527L271.905 67.6715C267.62 37.3827 236.41 10.3213 205.763 10.3213L205.75 10.3219C204.805 10.3221 203.855 10.3654 202.902 10.4299C232.473 12.2437 261.664 38.4511 265.798 67.6715L276.955 146.527C276.955 146.527 280.784 170.143 284.578 173.876C284.95 173.878 285.309 173.879 285.653 173.88C286.789 173.885 287.76 173.888 288.542 173.891C288.645 173.892 288.743 173.892 288.839 173.892C289.792 173.896 290.417 173.898 290.616 173.897H290.672Z" fill="#D7D7D7"/>
<path d="M83.8694 125.577H77.9344C73.0654 125.572 68.1525 127.888 66.3546 136.449L64.5012 149.62L64.4935 149.665L61.1138 173.678H67.2207L70.6004 149.665L70.6081 149.62L72.4615 136.449C74.2488 127.938 79.1148 125.599 83.9556 125.577H83.8694Z" fill="#D7D7D7"/>
</svg>
