<svg width="1141" height="223" viewBox="0 0 1141 223" fill="none" xmlns="http://www.w3.org/2000/svg">
<path d="M222.085 95.581C222.295 96.5914 222.269 97.6366 222.008 98.6351C221.748 99.6337 221.26 100.559 220.583 101.338C219.906 102.117 219.059 102.729 218.106 103.127C217.154 103.525 216.123 103.698 215.093 103.632C212.075 103.76 209.123 102.729 206.842 100.751C204.561 98.7724 203.123 95.9962 202.823 92.9917L201.287 82.2724C200.645 77.7907 200.985 71.6719 203.324 69.041C204.234 67.9742 205.38 67.134 206.672 66.5865C207.963 66.0389 209.364 65.7991 210.764 65.8863C212.709 65.9859 214.566 66.7342 216.037 68.0114C217.507 69.2886 218.508 71.0213 218.879 72.9334L222.085 95.581ZM684.58 84.8857C682.8 84.4489 680.948 84.3855 679.142 84.6992C677.335 85.0129 675.613 85.697 674.085 86.7085C670.341 89.1496 668.243 96.0415 667.862 101.302L666.947 113.883C666.384 122.575 672.605 127.578 679.963 128.93C686.007 130.041 690.802 126.839 691.206 121.421L693.187 94.8492C693.513 90.4816 689.456 85.7654 684.58 84.8857ZM93.0923 65.8775C89.8804 65.7644 86.7479 66.8898 84.3426 69.0209C80.7591 72.0917 79.0377 78.2912 78.3889 82.9647L76.8359 94.1423C76.4797 96.7034 77.1555 99.3012 78.7143 101.365C80.2731 103.428 82.5874 104.788 85.1487 105.146C87.7101 105.504 90.3087 104.83 92.3735 103.273C94.4383 101.716 95.8001 99.403 96.1599 96.8425L99.4814 73.226C99.6099 72.312 99.5409 71.3813 99.2787 70.4963C99.0166 69.6114 98.5674 68.7927 97.9617 68.0962C97.3561 67.3996 96.6081 66.8412 95.7681 66.4584C94.9281 66.0757 94.0154 65.8775 93.0923 65.8775ZM1140.85 44.8478L1138.48 63.6481C1138.16 66.2235 1137.3 68.7036 1135.97 70.9302C1134.63 73.1567 1132.85 75.0809 1130.73 76.5804L1125.65 80.185C1131.94 89.0832 1134.55 100.064 1132.95 110.84C1131.44 122.371 1129.88 132.023 1128.38 141.363C1126.8 151.182 1125.3 160.463 1123.83 171.886C1123.8 172.15 1123.76 172.413 1123.71 172.676C1120.77 189.788 1104.78 204.397 1088.09 205.235L1086.71 205.307C1084.99 205.403 1058.15 205.152 1056.21 205.104C1049.51 215.151 1037.71 221.665 1023.44 222.371C1022.51 222.419 995.833 222.108 994.899 222.072C980.599 221.461 976.886 210.959 976.083 207.75C975.841 206.763 975.681 205.758 975.604 204.745H973.556C971.81 205.107 970.034 205.308 968.25 205.343C967.999 205.355 823.005 204.852 822.574 204.84C819.441 204.87 816.351 204.117 813.583 202.649C810.816 201.181 808.46 199.044 806.728 196.434C804.021 207.858 795.961 221.641 772.941 222.275C768.689 222.395 745.119 222.299 744.292 222.287C729.369 222.036 725.704 210.372 725.117 208.038C724.469 205.437 724.386 202.727 724.873 200.091C725.361 197.456 726.408 194.955 727.943 192.758C728.027 192.363 728.111 191.872 728.207 191.309C728.267 190.914 728.327 190.507 728.387 190.1C727.883 190.59 727.368 191.069 726.842 191.536C716.988 200.206 704.312 204.987 691.186 204.984H682.994C672.171 204.987 661.473 202.668 651.623 198.183C641.774 193.698 633.001 187.152 625.899 178.987C625.492 178.508 625.097 178.005 624.702 177.514C624.223 180.663 623.755 184.004 623.276 187.693C623.252 187.848 623.228 188.016 623.204 188.171C620.162 207.463 602.951 221.473 582.279 221.473C576.494 221.473 558.493 221.293 558.493 221.293C553.962 221.227 549.609 219.52 546.239 216.491C542.87 213.461 540.713 209.314 540.168 204.816C533.844 204.804 394.12 204.577 394.12 204.577C389.473 204.541 385.008 202.771 381.598 199.615C378.188 196.458 376.08 192.142 375.688 187.513C370.408 191.623 364.863 195.38 359.087 198.757C350.583 204.289 344.571 205.295 337.026 205.295C335.792 205.295 329.145 205.224 329.145 205.224C317.008 205.224 308.221 205.463 300.22 196.554C296.447 202.374 290.207 205.331 281.596 205.331H281.452L40.2472 205.259L22.1261 205.331H21.9942C11.8018 205.343 4.92698 201.212 1.5374 193.093C0.253579 190.019 -0.238048 186.671 0.107236 183.357C0.452521 180.043 1.62369 176.869 3.51378 174.125C5.25149 168.238 6.59582 162.241 7.5379 156.176L18.1973 80.7358C23.7189 41.6267 61.7579 8.58898 101.27 8.58898C120.673 8.58898 138.339 17.5816 150.999 33.9151C151.274 34.2624 151.526 34.6337 151.789 34.9927C152.064 34.6337 152.316 34.2624 152.592 33.9151C165.251 17.5816 182.918 8.58898 202.32 8.58898C233.784 8.58898 264.289 29.5562 278.218 57.8403L278.925 53.4217C281.788 35.5078 294.938 23.162 313.215 21.198C325.935 19.8327 337.553 23.6888 345.937 32.0827L346.008 32.1546C348.839 26.7521 352.866 22.0668 357.782 18.4557C362.012 15.4409 366.799 13.2956 371.865 12.1445C376.931 10.9934 382.175 10.8592 387.293 11.7498C393.619 12.6099 399.621 15.0694 404.73 18.8957C409.84 22.722 413.889 27.7884 416.494 33.6157C426.141 26.1911 437.737 21.7274 449.873 20.767C459.826 20.0485 466.953 20.0847 475.217 20.1204C477.229 20.1321 479.325 20.1443 481.601 20.1443C494.691 20.1443 506.417 24.9459 514.609 33.6637C515.7 34.8383 516.724 36.0736 517.675 37.3636C529.149 26.79 545.318 19.9648 565.452 20.6951C581.609 20.3601 584.483 20.3479 600.772 20.4437C606.651 20.4118 612.463 21.6865 617.788 24.1758C623.114 26.6651 627.819 30.3068 631.565 34.8372C632.176 34.2501 632.798 33.6637 633.445 33.1129C643.296 24.506 655.934 19.7623 669.017 19.7614H677.113C696.069 19.7615 714.333 26.8769 728.291 39.6989C731.211 34.3222 735.446 29.7728 740.6 26.4748C745.755 23.1769 751.66 21.2379 757.767 20.839C769.217 20.0607 809.555 20.5992 817.532 20.8986C822.794 21.0315 827.974 22.2289 832.76 24.4188C837.546 26.6086 841.838 29.7454 845.378 33.6397C857.761 24.3575 873.003 19.7015 888.46 20.4794C895.945 20.7548 898.604 20.767 902.281 20.7787C904.88 20.7787 908.126 20.791 913.731 20.8986C924.314 20.986 934.585 24.4887 943.015 30.8852C948.824 10.4688 965.46 -1.86481 985.617 0.230744C991.166 0.71528 996.553 2.35083 1001.43 5.03315C1006.32 7.71546 1010.58 11.3856 1013.97 15.8094C1016.25 18.8502 1018.08 22.2063 1019.39 25.7726C1019.54 25.6884 1019.67 25.6165 1019.81 25.5329C1026.86 21.6231 1034.92 19.9186 1042.94 20.6402C1050.97 21.3618 1058.6 24.4762 1064.83 29.5802C1066.21 26.5769 1068.36 23.9912 1071.06 22.0844C1077.36 17.6296 1084.5 12.5526 1086.5 11.0798C1088.55 9.38145 1090.92 8.11438 1093.47 7.35498C1096.02 6.59557 1098.7 6.35949 1101.34 6.66065L1105.08 7.04421C1105.44 7.06816 1105.81 7.10385 1106.17 7.15179C1106.56 7.19969 1106.94 7.25938 1107.33 7.3313L1111.04 7.88208C1113.66 8.24442 1116.18 9.13104 1118.45 10.4889C1120.72 11.8469 1122.69 13.6482 1124.25 15.7854C1125.74 17.6056 1131.47 24.3834 1136.54 30.3467C1138.23 32.3321 1139.48 34.6469 1140.22 37.1435C1140.96 39.6401 1141.18 42.2639 1140.85 44.8478ZM132.873 36.7342C122.917 23.8987 110.055 18.7042 98.0615 18.7042C68.0093 18.7042 37.4053 45.2857 33.2028 75.0374L22.2624 152.494C22.2624 152.494 18.4956 175.77 14.7691 179.379C14.7563 179.391 65.6867 179.164 65.6867 179.164L69.0008 155.577L69.0084 155.533L70.8257 142.595C72.7001 133.655 78.0274 131.646 83.0849 131.941C87.7319 132.213 90.7179 135.366 90.0705 139.974L87.3924 159.035C87.388 159.066 87.3859 159.096 87.3818 159.127C87.3818 159.127 85.8739 169.012 84.8686 173.15C84.4438 175.288 83.5711 177.312 82.3074 179.088L131.756 179.164L135.52 152.494L145.103 84.6059C146.368 76.2143 145.938 67.6543 143.837 59.4318C141.736 51.2094 138.008 43.4915 132.873 36.7342ZM284.834 179.379C281.108 175.77 277.341 152.494 277.341 152.494L266.401 75.0371C262.199 45.2857 231.594 18.7042 201.542 18.7042C189.549 18.7042 176.687 23.8987 166.731 36.7342C161.596 43.4914 157.868 51.2095 155.767 59.4318C153.666 67.6542 153.236 76.214 154.501 84.6056L164.084 152.494L167.848 179.164L217.297 179.088C216.033 177.312 215.16 175.288 214.735 173.15C213.73 169.012 212.222 159.126 212.222 159.126C212.218 159.096 212.216 159.066 212.212 159.035L209.533 139.974C208.886 135.366 211.872 132.212 216.519 131.941C221.576 131.646 226.903 133.654 228.778 142.595L230.595 155.533L230.603 155.577L233.917 179.164C233.917 179.164 284.847 179.391 284.834 179.379ZM401.03 49.2365C403.045 37.0064 397.864 25.2078 384.336 23.0497C371.413 20.9878 361.657 29.2465 359.44 43.3372C355.973 65.363 351.645 96.0806 348.502 118.157C347.927 123.768 346.495 134.085 336.557 132.401C328.067 130.962 329.355 123.313 330.225 117.006C333.001 96.8811 336.247 77.1972 338.428 57.0062C340.08 41.7161 330.092 31.0296 315.226 32.6282C305.227 33.7035 298.978 39.5884 297.443 49.1733C293.285 75.1227 288.957 101.086 286.169 127.2C283.96 147.891 302.488 163.214 313.964 176.6C316.589 179.663 318.777 179.371 331.76 179.225C340.659 179.451 342.746 179.883 349.15 175.638C372.392 161.897 387.998 145.86 391.5 117.879C393.97 98.1416 397.797 68.8653 401.03 49.2365ZM492.216 158.463C492.489 146.176 485.398 135.135 467.78 135.231C462.995 135.444 458.202 135.276 453.444 134.727C448.566 133.965 445.756 130.578 446.267 125.402C446.726 120.751 449.763 116.893 454.455 116.774C458.851 116.663 462.812 117.841 467.473 118.058C475.484 118.43 483.118 113.678 483.262 105.254C483.409 96.615 476.132 92.366 469.867 92.366C466.873 92.366 463.463 92.1319 461.873 92.0059C456.006 91.5419 451.741 88.3132 452.035 81.9681C452.295 76.3819 456.893 73.8446 462.869 73.8446C471.264 73.8446 476.884 74.1831 485.693 74.1831C491.028 74.1787 496.156 72.1181 500.011 68.4297C503.865 64.7414 506.148 59.7093 506.385 54.3806C507.155 42.2105 497.171 31.6816 481.598 31.6816C470.018 31.6816 462.747 31.4281 451.211 32.2572C431.716 33.6587 414.343 49.5976 411.2 67.5886C405.253 101.626 402.672 129.448 397.448 163.608C397.047 166.095 395.586 176.539 394.335 178.614C394.335 178.614 400.425 178.682 402.748 178.682H442.583C453.776 178.682 459.812 178.909 470.899 178.682C476.37 178.697 481.637 176.605 485.607 172.84C489.576 169.075 491.943 163.926 492.216 158.463ZM622.094 53.6103C621.794 41.9249 613.452 32.0458 600.674 31.978C584.419 31.8915 581.809 31.8915 565.279 32.2394C537.44 31.0217 519.519 49.6352 516.909 69.6406C511.379 106.174 507.202 133.636 501.664 170.167C501.375 172.08 500.746 177.711 499.029 178.788C498.996 178.809 504.704 178.865 506.291 178.865C519.57 178.865 539.152 178.827 551.948 178.865C553.148 178.884 554.33 179.154 555.42 179.656C556.51 180.159 557.482 180.883 558.276 181.782C559.07 182.682 559.667 183.737 560.029 184.881C560.392 186.025 560.511 187.231 560.38 188.424C560.222 190.799 559.684 193.133 558.787 195.338C558.787 195.338 562.14 195.391 563.418 195.391C572.579 195.391 571.429 195.506 582.282 195.506C592.179 195.506 602.922 189.183 604.677 178.043C607.258 158.34 609.55 148.189 611.895 128.458C615.739 103.245 603.042 95.2176 582.262 94.8042C574.962 94.6589 564.505 97.8633 563.543 106.714C562.712 114.355 566.674 117.096 570.035 119.834C571.928 121.361 573.32 123.42 574.033 125.745C574.745 128.07 574.744 130.556 574.031 132.881C573.258 135.535 571.539 137.814 569.198 139.286C566.857 140.758 564.058 141.319 561.33 140.865C554.354 139.855 549.591 133.41 552.056 123.22C553.199 114.795 554.498 106.137 555.624 98.6381C557.722 81.4126 568.788 73.6987 586.436 75.0961C589.667 75.352 597.655 75.4975 601.31 75.3999C615.743 75.0152 622.286 61.114 622.094 53.6103ZM677.113 31.3065H669.018C660.495 31.3068 652.258 34.3864 645.826 39.9781C639.394 45.5698 635.2 53.297 634.016 61.7361L626.651 114.244C625.52 122.303 626.132 130.511 628.445 138.313C630.758 146.115 634.719 153.33 640.06 159.47C645.4 165.611 651.997 170.535 659.403 173.909C666.81 177.282 674.855 179.028 682.994 179.027H691.181C699.661 179.027 707.856 175.966 714.259 170.407C720.662 164.848 724.843 157.165 726.033 148.771L733.484 96.2087C734.627 88.1397 734.024 79.9194 731.715 72.1037C729.406 64.288 725.445 57.0593 720.101 50.9061C714.757 44.7528 708.153 39.8185 700.737 36.4372C693.32 33.0559 685.264 31.3062 677.113 31.3065ZM821.077 70.0873C826.58 69.8336 836.316 62.8926 836.316 52.2272C836.316 41.1306 828.443 32.8433 816.844 32.4203C808.243 32.1064 769.027 31.6555 759.037 32.3355C748.158 33.0761 742.316 42.2815 741.3 52.7564C740.437 58.9997 737.681 67.3577 742.866 69.664C745.914 70.5106 749.025 70.9954 750.486 71.4418C759.629 74.2352 763.052 78.0921 760.476 91.672C756.72 116.773 750.693 161.958 746.727 187.025C746.216 190.258 745.131 195.326 743.321 196.284C743.188 196.354 751.198 196.39 753.966 196.39C764.311 196.39 762.163 196.603 772.419 196.319C779.531 196.122 787.797 195.252 789.131 180.841C792.786 152.994 800.018 113.927 803.721 86.0852C804.292 77.85 811.709 70.5197 821.077 70.0873ZM917.391 119.299C907.042 116.378 896.824 119.925 891.369 130.707C890.557 132.572 889.109 134.087 887.282 134.983C885.456 135.878 883.371 136.095 881.399 135.595C875.898 134.398 873.681 129.97 874.401 124.573C876.173 111.3 878.368 98.0156 880.201 84.7507C880.974 79.7036 883.745 76.284 889.475 75.8375C895.011 75.4063 899.217 81.4442 898.354 85.3257C897.408 89.5849 898.972 92.2263 902.489 92.2263C919.456 92.2263 930.096 94.2391 938.724 82.3069C950.515 58.4422 938.288 32.9287 913.36 32.4355C900.094 32.1733 901.005 32.5054 887.741 31.9991C864.947 31.1293 844.416 44.8723 839.892 69.2264C833.139 105.584 831.538 132.554 825.424 169.032C824.949 171.865 824.307 178.211 822.311 178.85C822.036 178.938 828.978 178.867 831.599 178.867C846.123 178.867 861.559 178.896 876.025 178.895C890.491 178.894 895.505 178.709 909.966 178.988C915.561 179.095 927.154 174.321 929.617 161.76C931.534 151.984 931.325 151.92 932.276 142.118C932.877 131.378 926.374 121.834 917.391 119.299ZM1060.55 57.2731C1061.97 46.8012 1056.79 37.6998 1048.02 33.8432C1034.08 27.7188 1020.05 37.6037 1018.41 49.3669C1016.81 60.819 1015.79 71.6888 1013.78 82.9208C1012.87 88.0401 1009.92 92.659 1003.46 91.5983C997.016 90.5403 995.031 85.8262 996.23 79.2568C998.423 67.2416 1000.61 51.8477 1002.78 39.8211C1005.56 24.4009 997.471 13.1183 983.666 11.6738C971.38 10.3881 962.042 18.9782 959.957 33.9733C954.955 69.9417 948.075 109.043 943.285 145.039C941.983 153.355 940.829 162.574 939.629 170.305C939.15 173.392 937.926 177.276 936.063 179.032C936.542 179.086 939.949 179.192 947.191 179.171C956.29 179.145 967.087 179.404 967.877 179.388C975.11 179.244 982.777 170.855 983.934 163.768C986.298 149.294 986.538 143.81 989.383 129.106C989.865 122.453 994.108 117.535 1000.47 119.078C1006.69 120.584 1008.19 125.538 1007.22 131.806C1005.11 145.838 1002.27 163.519 1000.23 177.56C999.611 181.796 997.484 194.305 994.291 196.008C994.029 196.148 1002.86 196.325 1005.36 196.327C1008.6 196.33 1019.77 196.57 1022.5 196.433C1032.63 195.927 1041.89 190.505 1043.26 180.381C1044.59 170.636 1056.19 89.7045 1060.55 57.2731ZM1094.97 74.296C1083.66 72.4378 1071.69 80.5616 1069.6 95.2065C1066.66 115.757 1063.24 139.766 1060.09 160.284C1059.46 164.425 1059.29 165.554 1058.95 168.061C1058.48 171.527 1057.46 176.256 1055.92 178.65C1055.92 178.65 1062.18 178.81 1065.87 178.81C1069.44 178.81 1074.38 178.674 1080.62 178.978C1085.03 178.978 1083.38 179.024 1087.3 178.826C1094.81 178.447 1103.87 170.619 1105.39 161.804C1108.36 138.819 1111.49 123.685 1114.51 100.707C1116.41 86.3135 1107.52 76.3568 1094.97 74.296ZM1122.41 34.8068C1122.41 34.8068 1109.32 19.4158 1109.24 19.1264C1109.16 18.8364 1108.51 18.7545 1108.51 18.7545L1104.16 18.1011L1104.16 18.0941L1104.01 18.0792L1103.87 18.057L1103.86 18.064L1099.49 17.6164C1099.49 17.6164 1098.84 17.5345 1098.69 17.7944C1098.54 18.0546 1082.04 29.7105 1082.04 29.7105L1079.66 48.5115L1093.05 64.3319L1097.94 64.9493L1098.24 64.9865L1103.13 65.6039L1120.03 53.6077L1122.41 34.8068Z" fill="black"/>
</svg>
