<svg width="1141" height="223" viewBox="0 0 1141 223" fill="none" xmlns="http://www.w3.org/2000/svg">
<path d="M1140.85 44.8538L1138.48 63.6561C1138.16 66.2319 1137.3 68.7123 1135.97 70.9391C1134.63 73.166 1132.85 75.0905 1130.73 76.5903L1125.65 80.1951C1131.94 89.0945 1134.55 100.076 1132.95 110.854C1131.44 122.387 1129.88 132.039 1128.38 141.381C1126.8 151.201 1125.3 160.483 1123.83 171.907C1123.8 172.171 1123.76 172.435 1123.71 172.698C1120.77 189.812 1104.78 204.423 1088.09 205.261L1086.71 205.333C1084.99 205.428 1058.15 205.177 1056.21 205.129C1049.51 215.177 1037.7 221.692 1023.44 222.399C1022.51 222.446 995.833 222.135 994.899 222.099C980.598 221.488 976.886 210.985 976.083 207.776C975.841 206.789 975.681 205.783 975.604 204.77H973.556C971.81 205.133 970.033 205.333 968.25 205.369C967.999 205.38 823.005 204.878 822.574 204.866C819.441 204.896 816.351 204.142 813.583 202.674C810.816 201.206 808.459 199.069 806.728 196.458C804.021 207.884 795.961 221.668 772.941 222.303C768.689 222.423 745.118 222.327 744.292 222.315C729.369 222.063 725.704 210.399 725.117 208.063C724.469 205.462 724.386 202.752 724.873 200.116C725.361 197.48 726.408 194.979 727.943 192.782C728.027 192.387 728.111 191.896 728.207 191.333C728.267 190.938 728.327 190.53 728.386 190.123C727.883 190.614 727.368 191.093 726.841 191.56C716.988 200.231 704.311 205.013 691.186 205.009H682.993C672.17 205.013 661.473 202.693 651.623 198.208C641.774 193.723 633.001 187.176 625.899 179.009C625.492 178.53 625.097 178.027 624.701 177.536C624.222 180.686 623.755 184.027 623.276 187.716C623.252 187.872 623.228 188.039 623.204 188.195C620.162 207.489 602.951 221.5 582.279 221.5C576.494 221.5 558.492 221.321 558.492 221.321C553.962 221.254 549.608 219.548 546.239 216.518C542.87 213.488 540.713 209.34 540.168 204.842C533.844 204.83 394.12 204.602 394.12 204.602C389.473 204.566 385.008 202.796 381.598 199.64C378.188 196.483 376.08 192.166 375.687 187.536C370.408 191.647 364.863 195.404 359.087 198.782C350.583 204.315 344.571 205.321 337.026 205.321C335.792 205.321 329.145 205.249 329.145 205.249C317.008 205.249 308.221 205.488 300.22 196.578C296.447 202.399 290.208 205.357 281.596 205.357H281.453L40.2474 205.285L22.1264 205.357H21.9945C11.8021 205.369 4.92724 201.237 1.53766 193.117C0.253829 190.042 -0.23808 186.695 0.107205 183.38C0.45249 180.066 1.62394 176.891 3.51405 174.147C5.25175 168.259 6.59608 162.262 7.53816 156.195L18.1976 80.746C23.7191 41.632 61.7581 8.59032 101.27 8.59032C120.673 8.59032 138.339 17.5843 150.999 33.9195C151.274 34.2668 151.526 34.6382 151.789 34.9976C152.065 34.6383 152.316 34.2669 152.592 33.9195C165.252 17.5843 182.917 8.59032 202.32 8.59032C233.784 8.59032 264.289 29.5604 278.218 57.8477L278.925 53.4286C281.787 35.5124 294.938 23.1651 313.215 21.2011C325.935 19.8357 337.553 23.6919 345.936 32.0872L346.008 32.1591C348.839 26.7559 352.866 22.07 357.782 18.4586C362.012 15.4433 366.799 13.2976 371.865 12.1463C376.931 10.995 382.175 10.8611 387.293 11.7519C393.619 12.6119 399.621 15.0716 404.73 18.8983C409.84 22.725 413.889 27.7921 416.493 33.6201C426.14 26.1946 437.737 21.7304 449.873 20.7699C459.826 20.0512 466.952 20.0874 475.216 20.1231C477.229 20.1351 479.325 20.1471 481.6 20.1471C494.691 20.1471 506.416 24.9495 514.609 33.6681C515.7 34.8429 516.723 36.0785 517.675 37.3688C529.149 26.7939 545.318 19.9676 565.451 20.6979C581.608 20.3629 584.482 20.3504 600.771 20.4462C606.65 20.4144 612.463 21.6895 617.788 24.1791C623.114 26.6686 627.819 30.3105 631.565 34.8414C632.175 34.2546 632.798 33.6678 633.445 33.1169C643.296 24.509 655.934 19.7647 669.017 19.7638H677.113C696.068 19.7639 714.333 26.8801 728.291 39.7038C731.211 34.3264 735.446 29.7764 740.6 26.4781C745.754 23.1797 751.66 21.2405 757.766 20.8415C769.217 20.0632 809.555 20.602 817.532 20.9014C822.793 21.0344 827.974 22.232 832.76 24.422C837.546 26.6121 841.838 29.7491 845.378 33.6438C857.761 24.3606 873.002 19.7042 888.459 20.4822C895.945 20.7576 898.604 20.7696 902.281 20.7816C904.88 20.7816 908.126 20.7935 913.731 20.9014C924.314 20.9887 934.585 24.4919 943.015 30.8893C948.824 10.4701 965.46 -1.86504 985.617 0.230772C991.166 0.715423 996.553 2.35137 1001.43 5.03405C1006.32 7.71674 1010.58 11.3873 1013.97 15.8116C1016.25 18.8526 1018.08 22.2091 1019.39 25.7758C1019.54 25.6919 1019.67 25.6199 1019.81 25.536C1026.86 21.6258 1034.92 19.9212 1042.94 20.643C1050.97 21.3647 1058.6 24.4795 1064.83 29.5841C1066.21 26.5804 1068.36 23.9942 1071.06 22.0871C1077.36 17.632 1084.5 12.5541 1086.5 11.0811C1088.55 9.3827 1090.92 8.11561 1093.47 7.35617C1096.02 6.59672 1098.7 6.36057 1101.34 6.66176L1105.08 7.04507C1105.44 7.06902 1105.81 7.10496 1106.17 7.15296C1106.56 7.20063 1106.94 7.26056 1107.33 7.33248L1111.04 7.88334C1113.66 8.24565 1116.18 9.13244 1118.45 10.4905C1120.72 11.8486 1122.69 13.6501 1124.25 15.7876C1125.74 17.608 1131.47 24.3864 1136.54 30.3504C1138.23 32.3361 1139.48 34.6513 1140.22 37.1483C1140.96 39.6453 1141.18 42.2695 1140.85 44.8538Z" fill="black"/>
<path d="M277.341 152.514L266.401 75.0467C262.199 45.2915 231.595 18.7067 201.542 18.7067C189.549 18.7067 176.687 23.9019 166.731 36.7389C161.596 43.4969 157.868 51.2159 155.767 59.4392C153.667 67.6626 153.236 76.2238 154.501 84.6164L164.084 152.514L167.848 179.186L217.297 179.11C216.033 177.334 215.16 175.31 214.735 173.172C213.73 169.033 212.222 159.146 212.222 159.146C212.218 159.115 212.216 159.085 212.212 159.054L209.533 139.992C208.886 135.383 211.872 132.229 216.519 131.958C221.576 131.663 226.904 133.671 228.779 142.613L230.596 155.552L230.603 155.596L233.918 179.186C233.918 179.186 284.848 179.414 284.835 179.401C281.109 175.792 277.341 152.514 277.341 152.514ZM215.093 103.645C212.075 103.773 209.124 102.742 206.842 100.763C204.561 98.7846 203.123 96.0081 202.823 93.0032L201.288 82.2826C200.645 77.8004 200.985 71.6807 203.324 69.0496C204.234 67.9826 205.38 67.1423 206.672 66.5948C207.963 66.0472 209.364 65.8075 210.764 65.8948C212.71 65.9944 214.566 66.7425 216.037 68.0198C217.507 69.2972 218.508 71.0304 218.879 72.9427L222.085 95.5928C222.295 96.6034 222.269 97.6486 222.008 98.6473C221.748 99.646 221.26 100.571 220.584 101.35C219.907 102.13 219.059 102.742 218.107 103.14C217.154 103.538 216.123 103.711 215.093 103.645Z" fill="white"/>
<path d="M1080.62 179C1074.38 178.696 1069.44 178.832 1065.87 178.832C1062.18 178.832 1055.92 178.673 1055.92 178.673C1057.46 176.278 1058.48 171.548 1058.95 168.082C1059.29 165.574 1059.46 164.446 1060.09 160.304C1063.24 139.783 1066.66 115.772 1069.6 95.2184C1071.69 80.5716 1083.66 72.4469 1094.97 74.3056C1107.52 76.3665 1116.41 86.3244 1114.51 100.719C1111.49 123.701 1108.36 138.836 1105.39 161.824C1103.87 170.64 1094.81 178.47 1087.3 178.848C1083.38 179.046 1085.03 179 1080.62 179Z" fill="white"/>
<path d="M1109.24 19.1288C1109.16 18.8389 1108.51 18.7571 1108.51 18.7571L1104.16 18.1034L1104.16 18.0966L1104.01 18.0814L1103.87 18.0592L1103.86 18.0662L1099.49 17.6186C1099.49 17.6186 1098.84 17.5369 1098.69 17.797C1098.54 18.057 1082.04 29.7145 1082.04 29.7145L1079.66 48.5177L1093.05 64.3398L1097.94 64.9576L1098.24 64.9947L1103.13 65.6122L1120.03 53.6146L1122.41 34.8114C1122.41 34.8114 1109.32 19.4185 1109.24 19.1288Z" fill="white"/>
<path d="M331.76 179.247C318.778 179.393 316.59 179.685 313.964 176.622C302.488 163.234 283.96 147.909 286.169 127.216C288.958 101.099 293.286 75.1322 297.443 49.1793C298.979 39.5933 305.227 33.7075 315.226 32.6321C330.092 31.0334 340.08 41.7214 338.428 57.0132C336.247 77.2066 333.001 96.8931 330.226 117.02C329.356 123.328 328.067 130.978 336.558 132.417C346.495 134.102 347.927 123.783 348.502 118.171C351.645 96.0922 355.973 65.371 359.44 43.3425C361.658 29.2502 371.414 20.9904 384.337 23.0525C397.865 25.211 403.045 37.0109 401.031 49.2425C397.797 68.8737 393.971 98.1536 391.5 117.893C387.998 145.878 372.392 161.917 349.15 175.66C342.746 179.905 340.659 179.473 331.76 179.247Z" fill="white"/>
<path d="M442.583 178.705C429.79 178.705 415.702 178.705 402.748 178.705C400.425 178.705 394.335 178.636 394.335 178.636C395.586 176.56 397.047 166.115 397.449 163.628C402.672 129.464 405.254 101.639 411.2 67.597C414.343 49.6036 431.716 33.6631 451.212 32.2616C462.747 31.4323 470.018 31.6859 481.598 31.6859C497.171 31.6859 507.155 42.2161 506.385 54.3877C506.148 59.717 503.864 64.7495 500.01 68.4382C496.156 72.127 491.028 74.188 485.693 74.1923C476.885 74.1923 471.264 73.8538 462.869 73.8538C456.893 73.8538 452.295 76.3912 452.036 81.9782C451.741 88.3241 456.006 91.5534 461.873 92.0175C463.463 92.1433 466.873 92.3774 469.867 92.3774C476.132 92.3774 483.41 96.6272 483.262 105.267C483.118 113.693 475.484 118.445 467.473 118.072C462.813 117.856 458.851 116.678 454.456 116.789C449.764 116.908 446.726 120.766 446.267 125.418C445.756 130.594 448.566 133.982 453.444 134.744C458.202 135.292 462.995 135.461 467.78 135.248C485.398 135.151 492.489 146.194 492.216 158.483C491.942 163.947 489.576 169.096 485.606 172.861C481.637 176.626 476.371 178.719 470.899 178.705C459.813 178.931 453.777 178.705 442.583 178.705Z" fill="white"/>
<path d="M876.025 178.917C861.559 178.918 846.123 178.889 831.6 178.889C828.978 178.889 822.036 178.96 822.311 178.872C824.307 178.233 824.95 171.886 825.424 169.053C831.539 132.57 833.139 105.597 839.892 69.2354C844.416 44.8781 864.948 31.1336 887.741 32.0035C901.005 32.5097 900.095 32.1773 913.36 32.4397C938.288 32.9329 950.515 58.4498 938.724 82.3172C930.096 94.2509 919.456 92.2381 902.488 92.2381C898.972 92.2381 897.408 89.5963 898.354 85.3366C899.217 81.4546 895.011 75.4157 889.475 75.847C883.746 76.2935 880.974 79.7137 880.201 84.7615C878.368 98.0279 876.173 111.314 874.401 124.588C873.681 129.986 875.898 134.415 881.399 135.611C883.371 136.112 885.456 135.895 887.282 134.999C889.109 134.104 890.557 132.588 891.369 130.723C896.824 119.94 907.042 116.393 917.391 119.314C926.374 121.849 932.876 131.394 932.277 142.135C931.325 151.939 931.534 152.003 929.617 161.78C927.154 174.342 915.561 179.117 909.966 179.009C895.505 178.731 890.491 178.916 876.025 178.917Z" fill="white"/>
<path d="M816.844 32.4245C828.443 32.8478 836.317 41.1361 836.317 52.2341C836.317 62.9007 826.581 69.8424 821.078 70.0964C811.709 70.5287 804.292 77.8599 803.722 86.0962C800.018 113.941 792.786 153.013 789.131 180.864C787.798 195.277 779.531 196.146 772.42 196.343C762.163 196.628 764.311 196.415 753.966 196.415C751.199 196.415 743.188 196.379 743.321 196.308C745.131 195.35 746.216 190.282 746.728 187.048C750.693 161.978 756.721 116.788 760.476 91.6834C763.052 78.1019 759.629 74.2444 750.486 71.4507C749.025 71.0044 745.914 70.5196 742.866 69.673C737.681 67.3662 740.437 59.0071 741.3 52.763C742.316 42.2869 748.158 33.0807 759.037 32.34C769.027 31.6598 808.243 32.1106 816.844 32.4245Z" fill="white"/>
<path d="M558.787 195.362C559.684 193.157 560.222 190.822 560.38 188.447C560.511 187.254 560.392 186.047 560.029 184.904C559.667 183.76 559.07 182.705 558.276 181.805C557.482 180.905 556.51 180.181 555.42 179.678C554.33 179.176 553.148 178.906 551.948 178.887C539.152 178.849 519.57 178.887 506.291 178.887C504.703 178.887 498.995 178.831 499.029 178.81C500.746 177.732 501.375 172.101 501.664 170.189C507.202 133.652 511.379 106.187 516.909 69.6495C519.519 49.6417 537.44 31.0258 565.279 32.2436C581.809 31.8957 584.419 31.8956 600.674 31.982C613.452 32.0499 621.794 41.9304 622.093 53.6172C622.286 61.1219 615.743 75.0246 601.31 75.4094C597.654 75.5069 589.667 75.3612 586.436 75.1054C568.788 73.7078 557.721 81.4229 555.624 98.6505C554.498 106.15 553.199 114.809 552.056 123.235C549.591 133.426 554.354 139.872 561.33 140.883C564.057 141.337 566.857 140.775 569.198 139.303C571.539 137.831 573.258 135.552 574.031 132.897C574.744 130.572 574.745 128.086 574.033 125.761C573.321 123.435 571.928 121.376 570.035 119.849C566.674 117.11 562.712 114.37 563.543 106.727C564.505 97.8753 574.962 94.6706 582.262 94.8158C603.042 95.2293 615.739 103.257 611.895 128.474C609.55 148.208 607.258 158.359 604.677 178.065C602.921 189.206 592.179 195.53 582.282 195.53C571.429 195.53 572.579 195.415 563.418 195.415C562.14 195.415 558.787 195.362 558.787 195.362Z" fill="white"/>
<path d="M1005.36 196.351C1002.86 196.349 994.029 196.171 994.291 196.032C997.484 194.329 999.611 181.818 1000.23 177.582C1002.27 163.538 1005.11 145.856 1007.22 131.822C1008.19 125.554 1006.69 120.599 1000.47 119.093C994.108 117.55 989.865 122.468 989.383 129.122C986.538 143.827 986.297 149.313 983.934 163.789C982.777 170.876 975.11 179.266 967.877 179.41C967.087 179.426 956.29 179.167 947.191 179.193C939.949 179.214 936.542 179.108 936.063 179.055C937.926 177.298 939.15 173.413 939.629 170.326C940.829 162.594 941.983 153.374 943.285 145.057C948.075 109.056 954.955 69.9505 959.956 33.9775C962.042 18.9806 971.38 10.3895 983.666 11.6753C997.471 13.1202 1005.56 24.4043 1002.78 39.8264C1000.61 51.8542 998.423 67.2499 996.23 79.2666C995.031 85.8367 997.016 90.5515 1003.46 91.6099C1009.92 92.6706 1012.87 88.0512 1013.78 82.931C1015.79 71.6979 1016.81 60.8267 1018.41 49.373C1020.05 37.6084 1034.08 27.7222 1048.02 33.8474C1056.79 37.7046 1061.97 46.8069 1060.55 57.2802C1056.19 89.7156 1044.59 170.657 1043.26 180.402C1041.89 190.528 1032.63 195.951 1022.5 196.457C1019.77 196.594 1008.6 196.354 1005.36 196.351Z" fill="white"/>
<path d="M132.873 36.7391C122.917 23.9022 110.055 18.7069 98.0619 18.7069C68.0096 18.7069 37.4058 45.2914 33.2033 75.0466L22.2629 152.513C22.2629 152.513 18.496 175.792 14.7697 179.401C14.7569 179.413 65.6869 179.186 65.6869 179.186L69.001 155.596L69.0086 155.552L70.8259 142.613C72.7003 133.671 78.0281 131.663 83.0854 131.958C87.7323 132.229 90.7183 135.383 90.071 139.992L87.3926 159.054C87.3883 159.085 87.386 159.115 87.3818 159.146C87.3818 159.146 85.8741 169.033 84.8691 173.172C84.4442 175.31 83.5713 177.334 82.3076 179.11L131.756 179.186L135.521 152.513L145.104 84.6164C146.368 76.2237 145.938 67.6626 143.837 59.4392C141.737 51.2158 138.008 43.4971 132.873 36.7391ZM99.4819 73.2353L96.1604 96.8547C95.8023 99.417 94.4407 101.732 92.3755 103.291C90.3103 104.849 87.7106 105.524 85.1481 105.166C82.5855 104.808 80.2703 103.446 78.7116 101.381C77.1528 99.316 76.4782 96.7165 76.8364 94.1542L78.3891 82.9749C79.0382 78.3009 80.7597 72.1008 84.3431 69.0297C86.7484 66.8983 89.8809 65.7728 93.0928 65.886C94.0159 65.886 94.9283 66.0838 95.7683 66.4666C96.6083 66.8495 97.3566 67.4082 97.9622 68.1049C98.5678 68.8015 99.0168 69.62 99.2789 70.505C99.5411 71.3901 99.6104 72.3212 99.4819 73.2353Z" fill="white"/>
<path d="M677.113 31.3104H669.018C660.495 31.3107 652.258 34.3907 645.826 39.9831C639.395 45.5755 635.2 53.3036 634.016 61.7438L626.652 114.259C625.521 122.318 626.132 130.527 628.445 138.33C630.758 146.133 634.719 153.349 640.06 159.49C645.4 165.632 651.997 170.555 659.403 173.93C666.81 177.304 674.855 179.05 682.994 179.049H691.181C699.661 179.049 707.856 175.987 714.259 170.428C720.662 164.868 724.843 157.185 726.033 148.789L733.484 96.2205C734.627 88.1506 734.024 79.9292 731.715 72.1126C729.406 64.2959 725.445 57.0664 720.101 50.9124C714.756 44.7584 708.153 39.8235 700.737 36.4418C693.32 33.06 685.264 31.3102 677.113 31.3104ZM693.187 94.8609L691.206 121.436C690.802 126.854 686.007 130.057 679.964 128.946C672.605 127.594 666.384 122.591 666.947 113.897L667.861 101.314C668.243 96.0535 670.341 89.1607 674.085 86.7195C675.614 85.7079 677.335 85.0234 679.142 84.7097C680.948 84.3959 682.8 84.4594 684.58 84.8962C689.456 85.776 693.513 90.4931 693.187 94.8609Z" fill="white"/>
</svg>
