<svg width="310" height="200" viewBox="0 0 310 200" fill="none" xmlns="http://www.w3.org/2000/svg">
<path fill-rule="evenodd" clip-rule="evenodd" d="M154.851 26.4406C154.755 26.5743 154.659 26.708 154.562 26.8398C154.475 26.7205 154.389 26.6001 154.303 26.4799C154.125 26.2299 153.948 25.9808 153.758 25.7451C140.866 9.14301 122.878 0 103.119 0C62.885 0 24.1492 33.5825 18.5267 73.3402L7.67802 150.03C6.71781 156.194 5.35038 162.29 3.57914 168.276C1.65531 171.062 0.462441 174.291 0.109658 177.659C-0.243125 181.03 0.258828 184.431 1.56449 187.558C5.01566 195.814 12.0166 200.011 22.3963 200H22.5308H286.601H286.735C297.115 200.011 304.116 195.81 307.567 187.558C308.873 184.431 309.375 181.03 309.022 177.659C308.669 174.291 307.476 171.065 305.552 168.276C303.781 162.293 302.414 156.198 301.453 150.03L290.597 73.3402C284.975 33.5861 246.239 0 206.005 0C186.246 0 168.258 9.14301 155.366 25.7451C155.187 25.97 155.019 26.2053 154.851 26.4406ZM271.905 67.6715L283.062 146.527C283.062 146.527 286.904 170.223 290.704 173.897C290.717 173.909 238.779 173.678 238.779 173.678L235.399 149.665L235.392 149.62L233.539 136.449C231.627 127.347 226.194 125.303 221.037 125.603C216.298 125.879 213.253 129.09 213.913 133.781L216.644 153.185C216.648 153.217 216.651 153.248 216.655 153.279C216.655 153.279 218.193 163.343 219.218 167.556C219.651 169.732 220.541 171.792 221.83 173.601L171.403 173.678L167.565 146.527L157.792 77.4128C156.502 68.8697 156.941 60.1551 159.083 51.7842C161.225 43.4134 165.027 35.5562 170.264 28.6769C180.417 15.6098 193.534 10.3215 205.764 10.3215C236.411 10.3215 267.62 37.3828 271.905 67.6715ZM211.168 93.8493C213.495 95.8636 216.505 96.913 219.582 96.7826C220.633 96.8498 221.685 96.6741 222.656 96.269C223.627 95.8638 224.491 95.2403 225.181 94.447C225.872 93.6537 226.369 92.7121 226.635 91.6955C226.9 90.6789 226.927 89.6148 226.713 88.5861L223.444 65.5298C223.065 63.5832 222.045 61.819 220.545 60.5187C219.045 59.2184 217.152 58.4569 215.168 58.3555C213.74 58.2667 212.311 58.5105 210.994 59.0679C209.678 59.6253 208.509 60.4809 207.58 61.567C205.195 64.2452 204.849 70.4748 205.504 75.0374L207.07 85.95C207.376 89.0088 208.842 91.8351 211.168 93.8493ZM100.237 10.3216C112.467 10.3216 125.584 15.61 135.737 28.6771C140.973 35.5563 144.775 43.4135 146.917 51.7844C149.059 60.1552 149.498 68.8697 148.209 77.4128L138.436 146.527L134.597 173.678L84.1704 173.601C85.4593 171.792 86.3496 169.732 86.783 167.556C87.8079 163.343 89.3453 153.279 89.3453 153.279C89.3475 153.263 89.3492 153.248 89.3506 153.232C89.3523 153.217 89.354 153.201 89.3562 153.185L92.0874 133.781C92.7476 129.09 89.7027 125.879 84.9637 125.603C79.8064 125.303 74.3736 127.347 72.462 136.449L70.6087 149.62L70.6009 149.665L67.2212 173.678C67.2212 173.678 15.2837 173.909 15.2967 173.897C19.0967 170.223 22.9383 146.527 22.9383 146.527L34.095 67.6716C38.3807 37.3828 69.5899 10.3216 100.237 10.3216ZM98.2974 89.8705L101.685 65.8278C101.816 64.8973 101.745 63.9496 101.478 63.0486C101.21 62.1476 100.752 61.3145 100.135 60.6053C99.5174 59.8961 98.7544 59.3275 97.8977 58.9378C97.0411 58.5481 96.1106 58.3465 95.1692 58.3465C91.8938 58.2313 88.6993 59.3771 86.2464 61.5467C82.5921 64.6729 80.8367 70.9843 80.1746 75.7421L78.5913 87.1217C78.2261 89.73 78.9139 92.3762 80.5035 94.4783C82.0931 96.5803 84.4541 97.9661 87.0674 98.3306C89.6805 98.6951 92.3318 98.0085 94.4378 96.422C96.544 94.8354 97.9322 92.4788 98.2974 89.8705Z" fill="black"/>
</svg>
