<svg width="1525" height="336" viewBox="0 0 1525 336" fill="none" xmlns="http://www.w3.org/2000/svg">
<path d="M1502.66 83.7657C1497.39 81.362 1491.63 80.2512 1485.86 80.5221C1480.1 80.7931 1474.47 82.4383 1469.43 85.3263C1468.71 85.7349 1468.01 86.1659 1467.32 86.6194C1465.13 79.5217 1460.92 73.2491 1455.23 68.5969C1449.54 63.9446 1442.62 61.1223 1435.36 60.4877C1428.66 59.6718 1421.86 60.8361 1415.79 63.8424C1409.71 66.8487 1404.6 71.571 1401.08 77.4494C1400.08 76.2427 1399.3 75.2814 1398.89 74.7713C1397.51 72.824 1395.75 71.1829 1393.72 69.9467C1391.7 68.7105 1389.45 67.9046 1387.12 67.5774L1383 66.9439C1382.96 66.9384 1382.91 66.9315 1382.87 66.9246L1382.83 66.9178C1382.37 66.8438 1381.91 66.7898 1381.45 66.756L1377.78 66.3734C1375.42 66.095 1373.03 66.3116 1370.75 67.01C1368.47 67.7084 1366.35 68.8738 1364.53 70.4352C1362.58 71.897 1355.66 76.9188 1349.53 81.3454C1347.65 82.7023 1346.06 84.4442 1344.88 86.4603C1343.69 88.4763 1342.93 90.7222 1342.64 93.055L1341.64 101.192C1340.39 99.1628 1339.05 97.1895 1337.61 95.293C1325.88 79.8493 1309.55 71.3431 1291.62 71.3431C1269.65 71.3431 1248.17 82.5 1233.28 99.3973C1228.36 90.7885 1220.34 84.4916 1210.92 81.8599C1201.51 79.2283 1191.46 80.472 1182.94 85.3236C1182.24 85.7227 1181.56 86.1409 1180.89 86.5784C1179.65 82.5024 1177.74 78.6731 1175.23 75.2555C1172.08 71.0594 1168.11 67.579 1163.57 65.0364C1159.03 62.4938 1154.02 60.9447 1148.87 60.4879C1129.3 58.402 1113.29 71.3376 1108.59 92.3666C1100.36 85.0647 1089.83 81.0124 1078.92 80.9423C1073.5 80.8326 1070.37 80.8258 1067.85 80.8203C1064.27 80.8107 1061.69 80.8052 1054.41 80.5213C1039.7 79.7713 1025.2 84.3361 1013.46 93.4143C1012.94 92.4665 1012.34 91.5715 1011.65 90.7417C1006.75 84.8615 1001.23 78.1846 999.821 76.4156C998.435 74.4649 996.676 72.8209 994.651 71.5827C992.626 70.3445 990.376 69.5376 988.038 69.2108L984.026 68.5937C983.85 68.5649 983.675 68.5375 983.499 68.5142C983.141 68.462 982.782 68.4232 982.423 68.3976L978.788 68.0177C976.44 67.7432 974.061 67.9566 971.796 68.6449C969.531 69.3333 967.425 70.4825 965.606 72.0233C963.768 73.407 956.83 78.4465 950.682 82.8814C947.626 85.0948 945.394 88.3008 944.353 91.9758C938.596 86.609 931.333 83.2238 923.59 82.2981C915.848 81.3725 908.016 82.9532 901.2 86.817C900.564 87.179 899.941 87.558 899.331 87.9538C898.094 83.9696 896.209 80.2259 893.757 76.8791C890.624 72.7039 886.673 69.2411 882.157 66.7112C877.641 64.1814 872.658 62.6401 867.525 62.1856C848.254 60.1355 832.439 72.7557 827.601 93.3349C819.478 86.3708 809.228 82.5221 798.621 82.4536C793.245 82.3452 790.231 82.3384 787.637 82.3315C784.093 82.3219 781.533 82.3165 774.326 82.0353C759.347 81.2602 744.599 86.0497 732.811 95.518C729.541 91.5384 725.479 88.3148 720.895 86.0611C716.311 83.8075 711.31 82.5754 706.224 82.4467C698.813 82.1697 659.695 81.6459 648.989 82.3919C643.051 82.8042 637.329 84.8216 632.407 88.2372C627.486 91.6529 623.543 96.3438 620.983 101.829C607.705 88.6924 589.942 81.3456 571.453 81.3428H563.682C551.466 81.3421 539.663 85.8618 530.46 94.0645C529.449 94.9668 528.491 95.9212 527.559 96.8962C524.129 92.2476 519.685 88.4804 514.579 85.8945C509.472 83.3086 503.845 81.9755 498.145 82.0011C482.503 81.9189 479.758 81.9202 464.231 82.2507C427.425 80.8712 404.698 106.886 401.209 133.487C397.925 155.653 395.135 174.419 392.224 194.008L386.594 231.908L386.481 232.702C386.436 233.03 386.358 233.587 386.273 234.124C384.724 236.742 383.897 239.738 383.88 242.797C383.863 245.855 384.656 248.861 386.175 251.497C387.695 254.132 389.884 256.299 392.511 257.768C395.138 259.237 398.105 259.954 401.098 259.842L403.212 259.868C404.829 259.883 406.642 259.898 407.434 259.898L421.066 259.891C426.986 259.887 433.2 259.867 439.022 259.883C439.236 261.827 439.76 263.721 440.575 265.492C442.086 268.764 444.507 271.511 447.536 273.389C450.565 275.267 454.068 276.194 457.609 276.053C457.688 276.053 457.767 276.053 457.846 276.052C458.676 276.066 461.208 276.103 462.285 276.103C466.388 276.103 468.279 276.127 470.25 276.155C472.5 276.184 474.85 276.215 480.399 276.215C502.087 276.215 515.874 260.408 518.283 244.794C518.306 244.649 518.326 244.505 518.345 244.357C518.978 239.418 519.598 235.087 520.206 231.04C521.213 232.407 522.252 233.754 523.36 235.055C530.043 242.906 538.3 249.201 547.571 253.514C556.842 257.827 566.912 260.058 577.1 260.056H584.961C592.136 260.103 599.236 258.558 605.769 255.527C612.303 252.497 618.113 248.054 622.799 242.506C622.495 244.539 622.2 246.489 621.916 248.32C621.803 249.047 621.69 249.646 621.591 250.118C620.176 252.113 619.204 254.399 618.744 256.817C618.284 259.234 618.346 261.725 618.926 264.116C619.646 267.089 623.005 276.802 635.98 277.023C636.773 277.035 637.857 277.048 639.027 277.057C641.298 277.075 643.902 277.083 645.246 277.083C648.751 277.083 650.716 277.111 652.257 277.131C653.392 277.146 654.333 277.159 655.367 277.159C657.216 277.159 659.358 277.122 663.422 277.006C686.446 276.358 693.539 261.701 695.267 248.635C696.44 251.964 698.598 254.838 701.441 256.859C704.285 258.88 707.674 259.949 711.139 259.916C711.556 259.923 850.708 260.405 850.971 260.408C853.857 260.342 856.714 259.81 859.437 258.834C859.344 260.538 859.503 262.247 859.91 263.902C860.621 266.79 863.925 276.256 876.641 276.805C877.531 276.842 878.742 276.88 880.032 276.912C882.54 276.975 885.356 277.019 886.616 277.02C887.593 277.022 889.362 277.048 891.383 277.076C895.058 277.128 898.037 277.167 900.295 277.167C901.841 277.167 903.05 277.148 903.913 277.104C917.647 276.403 928.895 269.795 934.942 259.685C935.893 259.71 1131.91 260.216 1132.17 260.218C1135.14 260.149 1138.09 259.589 1140.88 258.56C1140.76 260.331 1140.91 262.111 1141.34 263.834C1142.04 266.729 1145.34 276.218 1158.09 276.764C1158.99 276.802 1160.21 276.841 1161.51 276.873C1164.04 276.937 1166.88 276.98 1168.15 276.98C1169.13 276.983 1170.88 277.008 1172.89 277.037C1176.62 277.09 1179.65 277.128 1181.94 277.128C1183.5 277.128 1184.72 277.111 1185.6 277.065C1199.11 276.376 1210.23 269.996 1216.4 260.198L1216.43 260.2H1216.49C1227.55 260.157 1418.4 260.216 1418.67 260.218C1421.64 260.149 1424.58 259.589 1427.38 258.56C1427.26 260.334 1427.41 262.117 1427.83 263.843C1428.54 266.737 1431.84 276.218 1444.58 276.764C1445.48 276.802 1446.7 276.841 1448 276.873C1450.53 276.937 1453.38 276.98 1454.63 276.98C1455.61 276.983 1457.37 277.008 1459.38 277.037C1463.12 277.09 1466.14 277.128 1468.43 277.128C1470 277.128 1471.22 277.111 1472.09 277.065C1491.16 276.092 1505.52 263.827 1507.81 246.546C1508.24 243.313 1509.8 232.136 1511.83 217.505C1515.78 189.058 1521.75 146.064 1524.57 124.71C1525.81 116.378 1524.34 107.859 1520.38 100.462C1516.43 93.0647 1510.2 87.1991 1502.66 83.7657Z" fill="url(#paint0_linear_1_170)"/>
<path opacity="0.25" d="M964.392 238.659C958.408 238.361 953.659 238.495 950.236 238.495C946.689 238.495 940.679 238.338 940.679 238.338C942.255 235.084 943.242 231.566 943.592 227.954C943.92 225.496 944.078 224.39 944.688 220.329C947.713 200.21 950.997 176.667 953.814 156.516C955.821 142.156 967.311 134.19 978.179 136.012C990.227 138.033 998.758 147.795 996.942 161.909C994.043 184.442 991.031 199.281 988.184 221.819C986.724 230.462 978.02 238.139 970.815 238.51C967.048 238.704 968.634 238.659 964.392 238.659ZM991.877 81.9147C991.797 81.6306 991.174 81.5507 991.174 81.5507L986.999 80.9097L987.001 80.9026L986.858 80.8873L986.717 80.8662V80.8733L982.516 80.4341C982.516 80.4341 981.894 80.3542 981.747 80.609C981.6 80.8638 965.757 92.2934 965.757 92.2934L963.477 110.729L976.334 126.241L981.031 126.847L981.314 126.884L986.012 127.489L1002.24 115.726L1004.52 97.2905C1004.52 97.2905 991.956 82.1988 991.877 81.9147ZM767.95 238.578C781.84 238.576 786.654 238.396 800.539 238.668C805.072 238.384 809.385 236.571 812.801 233.514C816.216 230.456 818.54 226.327 819.408 221.775C820.714 215.427 821.567 208.99 821.961 202.515C822.537 191.984 816.294 182.626 807.669 180.14C797.732 177.276 787.92 180.754 782.683 191.326C781.903 193.155 780.513 194.641 778.759 195.519C777.005 196.397 775.003 196.61 773.11 196.119C767.828 194.946 765.699 190.604 766.39 185.312C768.091 172.296 770.199 159.271 771.959 146.264C772.702 141.314 775.363 137.961 780.864 137.524C786.18 137.1 790.219 143.022 789.389 146.827C788.481 151.004 789.983 153.594 793.359 153.594C809.651 153.594 819.868 155.568 828.152 143.867C839.473 120.467 827.733 95.4485 803.798 94.9648C791.06 94.7077 791.936 95.034 779.199 94.5374C757.313 93.6849 737.6 107.16 733.255 131.041C726.772 166.692 725.234 193.137 719.364 228.906C718.908 231.684 718.29 237.907 716.374 238.533C716.111 238.62 722.775 238.551 725.293 238.551C739.239 238.551 754.06 238.579 767.95 238.578ZM711.125 94.9504C702.866 94.6428 665.212 94.2001 655.62 94.867C645.174 95.5938 639.565 104.62 638.59 114.892C637.761 121.013 635.115 129.208 640.093 131.47C643.02 132.3 646.006 132.775 647.409 133.213C656.188 135.953 659.475 139.735 657.001 153.05C653.396 177.663 647.608 221.97 643.8 246.55C643.309 249.72 642.268 254.69 640.53 255.629C640.402 255.698 648.094 255.733 650.751 255.733C660.684 255.733 658.622 255.943 668.469 255.663C675.298 255.471 683.235 254.617 684.515 240.487C688.025 213.181 694.969 174.872 698.525 147.573C699.073 139.498 706.195 132.309 715.19 131.886C720.474 131.637 729.822 124.831 729.822 114.373C729.822 103.492 722.262 95.3649 711.125 94.9504ZM463.345 254.701C463.345 254.701 466.565 254.753 467.791 254.753C476.588 254.753 475.483 254.866 485.904 254.866C495.407 254.866 505.721 248.666 507.407 237.742C509.886 218.422 512.086 208.469 514.337 189.122C518.029 164.398 505.837 156.528 485.885 156.121C478.876 155.979 468.835 159.122 467.911 167.8C467.113 175.292 470.918 177.98 474.146 180.665C475.963 182.163 477.3 184.182 477.984 186.462C478.667 188.742 478.667 191.178 477.982 193.458C477.24 196.061 475.589 198.296 473.341 199.739C471.093 201.181 468.405 201.733 465.786 201.288C459.088 200.297 454.515 193.977 456.882 183.986C457.979 175.723 459.227 167.234 460.308 159.881C462.321 142.991 472.947 135.426 489.893 136.797C492.995 137.048 500.665 137.19 504.174 137.095C518.032 136.717 524.315 123.087 524.131 115.728C523.842 104.271 515.833 94.5837 503.564 94.5168C487.956 94.4323 485.45 94.4323 469.579 94.7728C442.848 93.5787 425.641 111.831 423.134 131.447C417.825 167.27 413.814 194.199 408.496 230.02C408.219 231.895 407.614 237.417 405.966 238.474C405.934 238.494 411.415 238.549 412.939 238.549C425.689 238.549 444.492 238.511 456.778 238.549C457.93 238.568 459.066 238.832 460.112 239.324C461.158 239.817 462.092 240.527 462.854 241.409C463.616 242.291 464.189 243.326 464.537 244.447C464.885 245.569 465 246.752 464.874 247.921C464.723 250.25 464.207 252.539 463.345 254.701ZM892.136 255.671C895.241 255.673 905.973 255.909 908.591 255.775C918.315 255.279 927.209 249.962 928.528 240.034C929.799 230.479 940.936 151.122 945.131 119.32C945.901 114.67 945.136 109.891 942.958 105.733C940.779 101.575 937.309 98.2729 933.093 96.3462C919.713 90.3403 906.24 100.033 904.665 111.567C903.133 122.797 902.151 133.456 900.22 144.469C899.341 149.49 896.517 154.018 890.313 152.978C884.123 151.94 882.217 147.319 883.368 140.877C885.474 129.095 887.578 114 889.658 102.208C892.324 87.0866 884.56 76.0235 871.305 74.6075C859.508 73.3464 850.541 81.7699 848.539 96.473C843.737 131.743 837.13 170.084 832.531 205.38C831.281 213.534 830.174 222.574 829.021 230.155C828.561 233.182 827.386 236.991 825.598 238.712C826.058 238.765 829.328 238.87 836.281 238.848C845.019 238.824 855.385 239.077 856.144 239.062C863.089 238.92 870.45 230.695 871.561 223.745C873.831 209.553 874.062 204.175 876.794 189.756C877.256 183.232 881.33 178.411 887.443 179.923C893.408 181.401 894.85 186.258 893.924 192.404C891.899 206.164 889.169 223.5 887.206 237.269C886.614 241.422 884.572 253.688 881.506 255.357C881.255 255.495 889.735 255.669 892.136 255.671ZM576.959 93.8578C584.785 93.8576 592.52 95.5733 599.641 98.889C606.762 102.205 613.103 107.043 618.235 113.076C623.366 119.11 627.169 126.198 629.386 133.862C631.603 141.526 632.182 149.586 631.085 157.498L623.931 209.039C622.788 217.27 618.774 224.804 612.626 230.255C606.478 235.706 598.609 238.707 590.467 238.707H582.605C574.79 238.708 567.066 236.996 559.954 233.688C552.842 230.379 546.509 225.552 541.381 219.53C536.253 213.509 532.45 206.434 530.229 198.784C528.008 191.134 527.421 183.086 528.506 175.184L535.578 123.696C536.715 115.421 540.743 107.844 546.918 102.361C553.094 96.8781 561.003 93.8583 569.187 93.8578H576.959ZM592.393 156.166C592.706 151.883 588.81 147.258 584.129 146.397C582.419 145.968 580.641 145.906 578.907 146.213C577.172 146.521 575.519 147.192 574.051 148.184C570.456 150.577 568.443 157.335 568.076 162.493L567.198 174.829C566.657 183.353 572.63 188.258 579.696 189.584C585.498 190.674 590.103 187.534 590.491 182.221L592.393 156.166ZM1341.56 147.433L1332.51 212.926L1328.95 238.654L1282.24 238.58C1283.44 236.867 1284.26 234.915 1284.66 232.853C1285.61 228.86 1287.03 219.324 1287.03 219.324C1287.04 219.294 1287.04 219.265 1287.05 219.236L1289.58 200.848C1290.19 196.401 1287.37 193.359 1282.98 193.098C1278.2 192.813 1273.17 194.75 1271.4 203.376L1269.68 215.856L1269.67 215.899L1266.54 238.654C1266.54 238.654 1232.99 238.807 1221.94 238.85L1235.85 138.202C1239.83 109.5 1268.73 83.8573 1297.12 83.8573C1308.45 83.8573 1320.6 88.8686 1330.01 101.25C1334.86 107.769 1338.38 115.215 1340.37 123.147C1342.35 131.08 1342.76 139.338 1341.56 147.433ZM1292.43 129.365C1289.4 129.256 1286.44 130.342 1284.17 132.398C1280.78 135.36 1279.15 141.34 1278.54 145.849L1277.07 156.633C1276.74 159.103 1277.38 161.608 1278.85 163.597C1280.32 165.586 1282.51 166.897 1284.93 167.242C1287.35 167.587 1289.8 166.938 1291.75 165.437C1293.7 163.936 1294.99 161.706 1295.33 159.237L1298.47 136.455C1298.59 135.573 1298.52 134.675 1298.27 133.821C1298.03 132.967 1297.6 132.178 1297.03 131.506C1296.46 130.834 1295.75 130.295 1294.96 129.926C1294.16 129.556 1293.3 129.365 1292.43 129.365ZM1363.22 238.465C1367.5 238.465 1365.9 238.511 1369.7 238.315C1376.97 237.94 1385.76 230.193 1387.23 221.47C1390.11 198.726 1393.14 183.75 1396.07 161.012C1397.9 146.769 1389.29 136.917 1377.14 134.877C1366.17 133.039 1354.57 141.077 1352.55 155.569C1349.71 175.906 1346.39 199.663 1343.34 219.967C1342.72 224.065 1342.56 225.18 1342.23 227.661C1341.88 231.307 1340.88 234.857 1339.29 238.141C1339.29 238.141 1345.36 238.298 1348.94 238.298C1352.39 238.298 1357.18 238.164 1363.22 238.465ZM1403.72 95.8013C1403.72 95.8013 1391.04 80.5711 1390.96 80.2846C1390.88 79.9981 1390.25 79.9171 1390.25 79.9171L1386.04 79.27V79.263L1385.89 79.2489L1385.75 79.2267L1385.75 79.2337L1381.51 78.791C1381.51 78.791 1380.88 78.71 1380.74 78.9671C1380.59 79.2243 1364.6 90.7583 1364.6 90.7583L1362.3 109.363L1375.27 125.017L1380.01 125.629L1380.3 125.665L1385.04 126.276L1401.42 114.405L1403.72 95.8013ZM1047.93 238.382C1061.95 238.381 1066.8 238.198 1080.82 238.474C1085.39 238.187 1089.74 236.358 1093.19 233.272C1096.64 230.186 1098.98 226.02 1099.86 221.426C1101.18 215.019 1102.04 208.524 1102.43 201.99C1103.02 191.362 1096.71 181.918 1088.01 179.41C1077.98 176.519 1068.08 180.029 1062.79 190.698C1062.01 192.543 1060.61 194.043 1058.84 194.929C1057.07 195.815 1055.05 196.03 1053.13 195.535C1047.8 194.35 1045.66 189.97 1046.35 184.628C1048.07 171.494 1050.2 158.349 1051.97 145.223C1052.72 140.229 1055.41 136.845 1060.96 136.402C1066.32 135.976 1070.4 141.952 1069.56 145.792C1068.65 150.006 1070.16 152.62 1073.57 152.62C1090.01 152.62 1100.32 154.612 1108.68 142.804C1120.11 119.19 1108.26 93.9428 1084.1 93.4543C1071.25 93.1948 1072.13 93.5236 1059.28 93.0234C1037.19 92.1627 1017.3 105.761 1012.92 129.861C1006.37 165.838 1004.82 192.526 998.897 228.623C998.437 231.426 997.814 237.706 995.879 238.338C995.614 238.425 1002.34 238.355 1004.88 238.355C1018.95 238.355 1033.91 238.383 1047.93 238.382ZM1173.67 255.632C1176.8 255.636 1187.63 255.873 1190.27 255.738C1200.08 255.236 1209.06 249.87 1210.39 239.852C1211.67 230.21 1222.91 150.125 1227.15 118.033C1227.92 113.341 1227.15 108.517 1224.95 104.321C1222.75 100.124 1219.25 96.7922 1215 94.848C1201.49 88.788 1187.9 98.5689 1186.31 110.209C1184.76 121.542 1183.77 132.298 1181.83 143.412C1180.94 148.477 1178.09 153.049 1171.83 151.999C1165.58 150.952 1163.66 146.288 1164.82 139.786C1166.94 127.897 1169.07 112.664 1171.16 100.763C1173.86 85.505 1166.02 74.3397 1152.64 72.9107C1140.74 71.6379 1131.69 80.1378 1129.67 94.9772C1124.82 130.569 1118.16 169.26 1113.52 204.88C1112.25 213.11 1111.14 222.233 1109.97 229.882C1109.51 232.936 1108.32 236.781 1106.52 238.518C1106.98 238.571 1110.28 238.677 1117.3 238.656C1126.12 238.63 1136.58 238.886 1137.34 238.871C1144.35 238.727 1151.78 230.427 1152.9 223.414C1155.19 209.091 1155.43 203.664 1158.18 189.114C1158.65 182.531 1162.76 177.664 1168.93 179.192C1174.95 180.682 1176.41 185.584 1175.47 191.786C1173.43 205.672 1170.67 223.167 1168.69 237.061C1168.09 241.253 1166.03 253.631 1162.94 255.316C1162.68 255.455 1171.24 255.63 1173.67 255.632ZM1501.49 94.848C1487.99 88.7881 1474.39 98.5689 1472.8 110.209C1471.26 121.542 1470.27 132.298 1468.32 143.412C1468.25 143.959 1467.98 144.462 1467.58 144.823C1467.17 145.185 1466.64 145.382 1466.1 145.376C1465.56 145.371 1465.04 145.164 1464.64 144.794C1464.24 144.424 1463.98 143.916 1463.92 143.368C1461.73 123.095 1458.39 92.9292 1457.67 89.7096C1456.83 85.2158 1454.55 81.1328 1451.2 78.095C1447.85 75.0572 1443.61 73.2348 1439.14 72.9108C1427.23 71.638 1418.18 80.1379 1416.16 94.9772C1411.32 130.569 1404.65 169.261 1400.01 204.881C1398.75 213.11 1397.63 222.233 1396.47 229.882C1396 232.936 1394.82 236.781 1393.01 238.518C1393.48 238.571 1396.78 238.677 1403.79 238.656C1412.61 238.63 1423.07 238.886 1423.84 238.871C1430.85 238.728 1438.28 230.427 1439.4 223.414C1441.69 209.091 1441.92 203.664 1444.68 189.114L1445.47 183.227C1445.54 182.687 1445.8 182.193 1446.21 181.834C1446.61 181.476 1447.12 181.278 1447.66 181.277C1448.19 181.275 1448.71 181.47 1449.11 181.826C1449.51 182.182 1449.78 182.675 1449.85 183.214C1451.41 194.076 1452.74 203.381 1453.37 207.841C1455.51 222.791 1456.59 229.61 1454.53 241.104V241.106C1453.57 246.46 1451.8 254.025 1449.43 255.316C1449.18 255.455 1457.74 255.63 1460.16 255.632C1463.29 255.636 1474.12 255.873 1476.77 255.738C1486.58 255.236 1495.55 249.87 1496.89 239.852C1498.17 230.21 1509.41 150.125 1513.64 118.033C1514.42 113.341 1513.65 108.517 1511.45 104.321C1509.25 100.124 1505.75 96.7923 1501.49 94.848Z" fill="black"/>
<path d="M958.892 238.659C952.907 238.361 948.159 238.495 944.735 238.495C941.189 238.495 935.179 238.338 935.179 238.338C936.754 235.084 937.741 231.566 938.092 227.954C938.42 225.496 938.577 224.389 939.188 220.329C942.212 200.21 945.497 176.667 948.314 156.516C950.321 142.156 961.811 134.19 972.678 136.012C984.727 138.033 993.258 147.795 991.442 161.909C988.543 184.442 985.531 199.281 982.683 221.819C981.224 230.462 972.519 238.139 965.315 238.51C961.547 238.704 963.133 238.659 958.892 238.659ZM986.376 81.9146C986.297 81.6305 985.673 81.5506 985.673 81.5506L981.499 80.9096L981.5 80.9025L981.358 80.8872L981.216 80.8661V80.8732L977.015 80.434C977.015 80.434 976.393 80.3541 976.247 80.6089C976.1 80.8637 960.256 92.2933 960.256 92.2933L957.977 110.729L970.834 126.241L975.531 126.847L975.813 126.883L980.511 127.489L996.74 115.726L999.021 97.2904C999.021 97.2904 986.456 82.1987 986.376 81.9146ZM762.449 238.578C776.339 238.576 781.153 238.395 795.038 238.668C799.572 238.384 803.885 236.571 807.3 233.514C810.715 230.456 813.039 226.327 813.908 221.775C815.214 215.427 816.067 208.99 816.461 202.515C817.037 191.984 810.793 182.626 802.168 180.14C792.231 177.276 782.419 180.754 777.182 191.326C776.403 193.155 775.012 194.641 773.259 195.519C771.505 196.397 769.503 196.61 767.61 196.119C762.327 194.946 760.199 190.604 760.89 185.312C762.591 172.296 764.699 159.271 766.458 146.263C767.201 141.314 769.862 137.961 775.364 137.524C780.679 137.1 784.718 143.022 783.889 146.827C782.98 151.004 784.482 153.594 787.859 153.594C804.151 153.594 814.368 155.568 822.651 143.867C833.973 120.467 822.233 95.4484 798.297 94.9647C785.56 94.7076 786.435 95.0339 773.699 94.5373C751.813 93.6848 732.1 107.16 727.755 131.041C721.271 166.692 719.734 193.137 713.864 228.906C713.407 231.684 712.79 237.907 710.874 238.533C710.611 238.62 717.275 238.551 719.792 238.551C733.738 238.551 748.56 238.579 762.449 238.578ZM705.625 94.9503C697.366 94.6427 659.712 94.2 650.12 94.8669C639.673 95.5937 634.065 104.62 633.089 114.891C632.26 121.012 629.614 129.208 634.592 131.47C637.519 132.3 640.506 132.775 641.909 133.213C650.688 135.953 653.975 139.735 651.501 153.05C647.896 177.663 642.108 221.97 638.3 246.55C637.809 249.72 636.767 254.69 635.029 255.629C634.902 255.698 642.593 255.733 645.251 255.733C655.183 255.733 653.121 255.942 662.969 255.663C669.798 255.47 677.735 254.617 679.015 240.487C682.525 213.181 689.468 174.872 693.024 147.573C693.573 139.498 700.695 132.309 709.689 131.886C714.973 131.637 724.322 124.831 724.322 114.373C724.322 103.491 716.762 95.3648 705.625 94.9503ZM457.844 254.701C457.844 254.701 461.064 254.753 462.29 254.753C471.088 254.753 469.983 254.865 480.404 254.865C489.906 254.865 500.221 248.666 501.907 237.742C504.385 218.422 506.585 208.469 508.837 189.122C512.528 164.398 500.337 156.528 480.384 156.121C473.375 155.979 463.334 159.121 462.411 167.8C461.613 175.292 465.417 177.98 468.645 180.665C470.463 182.163 471.799 184.182 472.483 186.462C473.167 188.742 473.166 191.178 472.482 193.458C471.74 196.061 470.088 198.296 467.841 199.739C465.593 201.182 462.905 201.733 460.286 201.287C453.587 200.296 449.015 193.977 451.381 183.986C452.478 175.723 453.726 167.234 454.807 159.881C456.821 142.99 467.447 135.426 484.392 136.797C487.495 137.048 495.164 137.19 498.673 137.095C512.532 136.717 518.814 123.087 518.63 115.728C518.342 104.271 510.333 94.5836 498.064 94.5167C482.456 94.4322 479.95 94.4322 464.079 94.7727C437.348 93.5786 420.14 111.831 417.633 131.447C412.325 167.27 408.314 194.199 402.996 230.02C402.719 231.895 402.114 237.417 400.466 238.474C400.434 238.494 405.915 238.549 407.438 238.549C420.189 238.549 438.991 238.511 451.278 238.549C452.43 238.568 453.565 238.832 454.611 239.324C455.658 239.817 456.592 240.527 457.354 241.409C458.116 242.291 458.689 243.326 459.037 244.447C459.385 245.569 459.5 246.752 459.374 247.921C459.223 250.25 458.706 252.539 457.844 254.701ZM886.635 255.671C889.74 255.673 900.472 255.909 903.091 255.775C912.814 255.279 921.708 249.962 923.027 240.034C924.298 230.479 935.436 151.122 939.631 119.32C940.401 114.67 939.636 109.891 937.457 105.733C935.278 101.574 931.809 98.2728 927.593 96.3461C914.213 90.3402 900.739 100.033 899.165 111.567C897.633 122.797 896.651 133.456 894.72 144.469C893.84 149.49 891.017 154.018 884.813 152.978C878.622 151.94 876.717 147.319 877.868 140.877C879.973 129.095 882.078 114 884.157 102.208C886.824 87.0865 879.059 76.0234 865.804 74.6074C854.007 73.3463 845.041 81.7698 843.039 96.473C838.236 131.743 831.63 170.084 827.031 205.379C825.781 213.534 824.673 222.574 823.521 230.155C823.061 233.182 821.885 236.991 820.097 238.712C820.557 238.765 823.828 238.869 830.781 238.848C839.519 238.824 849.885 239.077 850.644 239.062C857.589 238.92 864.95 230.695 866.061 223.745C868.331 209.552 868.562 204.175 871.293 189.756C871.756 183.232 875.83 178.411 881.942 179.923C887.907 181.4 889.349 186.258 888.424 192.404C886.399 206.164 883.668 223.499 881.705 237.269C881.113 241.422 879.072 253.688 876.006 255.357C875.754 255.495 884.234 255.668 886.635 255.671ZM571.458 93.8577C579.285 93.8575 587.02 95.5732 594.141 98.8889C601.262 102.204 607.603 107.043 612.734 113.076C617.866 119.11 621.669 126.198 623.886 133.862C626.102 141.526 626.682 149.586 625.584 157.498L618.43 209.039C617.288 217.27 613.274 224.804 607.125 230.255C600.977 235.706 593.108 238.707 584.966 238.707H577.105C569.289 238.708 561.565 236.996 554.454 233.688C547.342 230.379 541.008 225.552 535.88 219.53C530.752 213.509 526.95 206.434 524.729 198.784C522.508 191.134 521.92 183.086 523.006 175.184L530.077 123.696C531.215 115.421 535.242 107.844 541.418 102.361C547.594 96.878 555.502 93.8582 563.686 93.8577H571.458ZM586.892 156.166C587.205 151.883 583.31 147.258 578.628 146.396C576.919 145.968 575.141 145.905 573.406 146.213C571.672 146.521 570.019 147.191 568.551 148.184C564.956 150.577 562.942 157.335 562.575 162.493L561.698 174.829C561.156 183.353 567.129 188.258 574.195 189.584C579.998 190.674 584.603 187.534 584.99 182.221L586.892 156.166ZM1336.06 147.433L1327.01 212.926L1323.45 238.654L1276.74 238.58C1277.93 236.867 1278.76 234.915 1279.16 232.853C1280.11 228.86 1281.53 219.324 1281.53 219.324C1281.54 219.294 1281.54 219.265 1281.55 219.236L1284.08 200.848C1284.69 196.401 1281.87 193.359 1277.48 193.098C1272.7 192.813 1267.67 194.75 1265.9 203.376L1264.18 215.856L1264.17 215.899L1261.04 238.654C1261.04 238.654 1227.49 238.807 1216.43 238.85L1230.35 138.202C1234.32 109.5 1263.23 83.8572 1291.62 83.8572C1302.95 83.8572 1315.1 88.8685 1324.51 101.25C1329.36 107.769 1332.88 115.215 1334.87 123.147C1336.85 131.08 1337.26 139.338 1336.06 147.433ZM1286.93 129.365C1283.9 129.256 1280.94 130.342 1278.67 132.398C1275.28 135.36 1273.65 141.34 1273.04 145.849L1271.57 156.633C1271.24 159.103 1271.88 161.608 1273.35 163.597C1274.82 165.586 1277.01 166.897 1279.43 167.242C1281.85 167.587 1284.3 166.938 1286.25 165.437C1288.2 163.936 1289.49 161.706 1289.83 159.237L1292.97 136.455C1293.09 135.573 1293.02 134.675 1292.77 133.821C1292.53 132.967 1292.1 132.178 1291.53 131.506C1290.96 130.834 1290.25 130.295 1289.46 129.926C1288.66 129.556 1287.8 129.365 1286.93 129.365ZM1357.72 238.465C1362 238.465 1360.4 238.511 1364.2 238.314C1371.47 237.94 1380.26 230.193 1381.73 221.47C1384.61 198.726 1387.64 183.75 1390.57 161.012C1392.4 146.769 1383.79 136.917 1371.64 134.877C1360.67 133.038 1349.07 141.077 1347.05 155.569C1344.21 175.906 1340.89 199.663 1337.84 219.967C1337.22 224.065 1337.06 225.18 1336.73 227.661C1336.38 231.307 1335.38 234.857 1333.79 238.141C1333.79 238.141 1339.86 238.298 1343.44 238.298C1346.89 238.298 1351.68 238.164 1357.72 238.465ZM1398.22 95.8013C1398.22 95.8013 1385.54 80.5711 1385.46 80.2845C1385.38 79.998 1384.75 79.917 1384.75 79.917L1380.54 79.27V79.263L1380.39 79.2489L1380.25 79.2266L1380.25 79.2336L1376.01 78.791C1376.01 78.791 1375.38 78.7099 1375.24 78.9671C1375.09 79.2242 1359.1 90.7582 1359.1 90.7582L1356.8 109.363L1369.77 125.017L1374.51 125.629L1374.8 125.665L1379.54 126.276L1395.92 114.405L1398.22 95.8013ZM1042.43 238.382C1056.44 238.381 1061.3 238.198 1075.31 238.474C1079.89 238.187 1084.24 236.358 1087.69 233.272C1091.13 230.186 1093.48 226.02 1094.36 221.426C1095.68 215.02 1096.54 208.524 1096.93 201.99C1097.51 191.362 1091.21 181.918 1082.51 179.41C1072.48 176.519 1062.58 180.029 1057.29 190.698C1056.51 192.543 1055.1 194.043 1053.34 194.929C1051.57 195.815 1049.55 196.03 1047.63 195.535C1042.3 194.35 1040.16 189.97 1040.85 184.628C1042.57 171.494 1044.7 158.349 1046.47 145.223C1047.22 140.229 1049.91 136.845 1055.46 136.402C1060.82 135.976 1064.9 141.952 1064.06 145.792C1063.15 150.006 1064.66 152.62 1068.07 152.62C1084.51 152.62 1094.82 154.612 1103.18 142.804C1114.61 119.19 1102.76 93.9428 1078.6 93.4543C1065.75 93.1948 1066.63 93.5236 1053.78 93.0234C1031.69 92.1627 1011.8 105.761 1007.42 129.861C1000.87 165.838 999.32 192.526 993.397 228.623C992.937 231.426 992.313 237.706 990.379 238.338C990.113 238.425 996.84 238.355 999.38 238.355C1013.45 238.355 1028.41 238.383 1042.43 238.382ZM1168.17 255.632C1171.3 255.636 1182.13 255.873 1184.77 255.738C1194.58 255.236 1203.56 249.87 1204.89 239.852C1206.17 230.21 1217.41 150.125 1221.65 118.033C1222.42 113.341 1221.65 108.517 1219.45 104.321C1217.25 100.124 1213.75 96.7922 1209.5 94.8479C1195.99 88.788 1182.4 98.5689 1180.81 110.209C1179.26 121.542 1178.27 132.298 1176.32 143.412C1175.44 148.477 1172.59 153.049 1166.33 151.999C1160.08 150.952 1158.16 146.288 1159.32 139.786C1161.44 127.897 1163.57 112.664 1165.66 100.763C1168.36 85.505 1160.52 74.3397 1147.14 72.9107C1135.24 71.6379 1126.19 80.1378 1124.17 94.9771C1119.32 130.569 1112.66 169.261 1108.02 204.88C1106.75 213.11 1105.63 222.233 1104.47 229.882C1104.01 232.936 1102.82 236.781 1101.02 238.518C1101.48 238.571 1104.78 238.677 1111.8 238.656C1120.62 238.63 1131.08 238.886 1131.84 238.871C1138.85 238.727 1146.28 230.427 1147.4 223.414C1149.69 209.091 1149.93 203.664 1152.68 189.114C1153.15 182.531 1157.26 177.664 1163.43 179.192C1169.45 180.682 1170.9 185.584 1169.97 191.786C1167.93 205.672 1165.17 223.167 1163.19 237.061C1162.59 241.253 1160.53 253.631 1157.44 255.316C1157.18 255.455 1165.74 255.63 1168.17 255.632ZM1495.99 94.848C1482.49 88.7881 1468.89 98.569 1467.3 110.209C1465.76 121.542 1464.77 132.298 1462.82 143.412C1462.75 143.959 1462.48 144.462 1462.08 144.823C1461.67 145.185 1461.14 145.382 1460.6 145.376C1460.06 145.371 1459.54 145.164 1459.14 144.794C1458.74 144.424 1458.48 143.916 1458.42 143.368C1456.23 123.095 1452.89 92.9292 1452.17 89.7096C1451.33 85.2158 1449.05 81.1328 1445.7 78.095C1442.35 75.0572 1438.11 73.2347 1433.64 72.9107C1421.73 71.6379 1412.68 80.1378 1410.66 94.9772C1405.82 130.569 1399.15 169.261 1394.51 204.881C1393.25 213.11 1392.13 222.233 1390.97 229.882C1390.5 232.936 1389.32 236.781 1387.51 238.519C1387.98 238.571 1391.28 238.677 1398.29 238.656C1407.11 238.63 1417.57 238.886 1418.34 238.871C1425.35 238.727 1432.78 230.427 1433.9 223.414C1436.19 209.091 1436.42 203.664 1439.18 189.114L1439.97 183.227C1440.04 182.687 1440.3 182.193 1440.71 181.834C1441.11 181.476 1441.62 181.278 1442.16 181.276C1442.69 181.275 1443.21 181.47 1443.61 181.826C1444.01 182.182 1444.28 182.675 1444.35 183.214C1445.91 194.076 1447.24 203.381 1447.87 207.841C1450.01 222.791 1451.09 229.61 1449.03 241.104V241.106C1448.07 246.461 1446.3 254.025 1443.93 255.316C1443.68 255.455 1452.24 255.63 1454.66 255.632C1457.79 255.636 1468.62 255.873 1471.27 255.738C1481.08 255.236 1490.05 249.87 1491.39 239.852C1492.67 230.21 1503.91 150.125 1508.14 118.033C1508.92 113.341 1508.15 108.517 1505.95 104.321C1503.75 100.124 1500.25 96.7923 1495.99 94.848Z" fill="white"/>
<path d="M1289.17 83.9934C1289.42 83.9811 1289.67 83.9605 1289.91 83.9523C1290.48 83.9111 1291.05 83.8576 1291.62 83.8576C1291.65 83.8576 1291.68 83.8604 1291.71 83.8604H1291.72C1303.02 83.8878 1315.13 88.9027 1324.51 101.25C1329.36 107.769 1332.88 115.215 1334.87 123.147C1336.85 131.08 1337.26 139.338 1336.06 147.434L1327.01 212.926L1323.45 238.655L1321.31 238.651L1317.95 238.645L1321.51 212.926L1330.56 147.434C1331.76 139.338 1331.35 131.08 1329.37 123.147C1327.38 115.215 1323.86 107.769 1319.01 101.25C1310.44 89.9723 1299.6 84.8244 1289.17 83.9934ZM1277.34 193.099C1277.3 193.096 1277.26 193.101 1277.21 193.099H1277.21C1277.16 193.096 1277.12 193.101 1277.08 193.099H1277.07C1277.03 193.096 1276.99 193.101 1276.94 193.099H1276.94C1276.9 193.096 1276.85 193.101 1276.81 193.099H1276.81C1276.76 193.096 1276.72 193.101 1276.67 193.099H1276.67C1276.63 193.096 1276.58 193.101 1276.54 193.099H1276.54C1276.49 193.096 1276.45 193.101 1276.41 193.099H1276.4C1276.36 193.096 1276.32 193.101 1276.27 193.099H1276.27C1276.23 193.096 1276.18 193.101 1276.14 193.099H1276.13C1276.09 193.096 1276.05 193.101 1276 193.099H1276C1275.96 193.096 1275.91 193.101 1275.87 193.099H1275.87C1275.82 193.096 1275.78 193.101 1275.73 193.099H1275.73C1275.69 193.096 1275.64 193.101 1275.6 193.099H1275.6C1275.55 193.096 1275.51 193.101 1275.47 193.099H1275.46C1275.42 193.096 1275.38 193.101 1275.33 193.099H1275.33C1275.29 193.096 1275.24 193.101 1275.2 193.099H1275.2C1275.15 193.096 1275.11 193.101 1275.06 193.099H1275.06C1275.02 193.096 1274.97 193.101 1274.93 193.099H1274.93C1274.88 193.096 1274.84 193.101 1274.8 193.099H1274.79C1274.75 193.096 1274.71 193.101 1274.66 193.099H1274.66C1274.62 193.096 1274.57 193.101 1274.53 193.099H1274.52C1274.48 193.096 1274.44 193.101 1274.39 193.099H1274.39C1274.35 193.096 1274.3 193.101 1274.26 193.099H1274.26C1274.21 193.096 1274.17 193.101 1274.13 193.099H1274.12C1274.08 193.096 1274.03 193.101 1273.99 193.099H1273.99C1273.94 193.096 1273.9 193.101 1273.86 193.099H1273.85C1273.81 193.096 1273.77 193.101 1273.72 193.099H1273.72C1273.68 193.096 1273.63 193.101 1273.59 193.099H1273.59C1273.54 193.096 1273.5 193.101 1273.45 193.099H1273.45C1273.41 193.096 1273.36 193.101 1273.32 193.099H1273.32C1273.27 193.096 1273.23 193.101 1273.19 193.099H1273.18C1273.14 193.096 1273.1 193.101 1273.05 193.099H1273.05C1273.01 193.096 1272.96 193.101 1272.92 193.099H1272.92C1272.87 193.096 1272.83 193.101 1272.78 193.099H1272.78C1272.74 193.096 1272.69 193.101 1272.65 193.099H1272.65C1272.6 193.096 1272.56 193.101 1272.51 193.099H1272.51C1272.47 193.096 1272.42 193.101 1272.38 193.099H1272.38C1272.33 193.096 1272.29 193.101 1272.25 193.099H1272.24C1272.2 193.096 1272.16 193.101 1272.11 193.099H1272.11C1272.07 193.096 1272.02 193.101 1271.98 193.099H1271.98C1267.2 192.813 1262.17 194.751 1260.39 203.377L1258.68 215.857L1258.67 215.899L1255.54 238.655H1261.04L1264.17 215.899L1264.18 215.857L1265.9 203.377C1267.67 194.751 1272.7 192.814 1277.48 193.099C1277.43 193.096 1277.39 193.101 1277.35 193.099H1277.34ZM1286.99 129.373C1287.34 129.38 1287.69 129.42 1288.04 129.491C1287.69 129.416 1287.34 129.377 1286.99 129.373ZM1184.77 255.739C1194.58 255.237 1203.56 249.871 1204.89 239.852C1206.17 230.21 1217.41 150.125 1221.65 118.033C1222.15 115.054 1222.02 112 1221.29 109.073C1220.55 106.146 1219.21 103.411 1217.36 101.049C1215.51 98.6875 1213.2 96.7519 1210.56 95.3698C1207.93 93.9877 1205.04 93.1903 1202.08 93.0303H1201.16L1201.09 93.0317C1200.17 93.0321 1199.25 93.0957 1198.33 93.2223C1201.12 93.6023 1203.8 94.5538 1206.23 96.0197C1208.65 97.4855 1210.75 99.4356 1212.41 101.753C1214.08 104.07 1215.27 106.707 1215.91 109.504C1216.55 112.302 1216.63 115.203 1216.15 118.033C1211.91 150.125 1200.67 230.21 1199.39 239.852C1198.06 249.871 1189.08 255.237 1179.27 255.739C1179.1 255.747 1178.89 255.754 1178.66 255.759C1179.31 255.766 1179.95 255.772 1180.56 255.774C1180.61 255.774 1180.66 255.776 1180.72 255.776C1181.16 255.778 1181.57 255.778 1181.97 255.778C1183.18 255.778 1184.19 255.767 1184.77 255.739ZM1161.02 178.918H1155.78C1150.82 178.877 1147.59 183.33 1147.18 189.114C1144.43 203.665 1144.19 209.091 1141.9 223.414C1140.82 230.157 1133.92 238.068 1127.15 238.798C1128.6 238.822 1129.8 238.843 1130.62 238.857C1130.85 238.861 1131.07 238.863 1131.23 238.866C1131.29 238.868 1131.34 238.868 1131.4 238.869C1131.61 238.87 1131.78 238.872 1131.84 238.87H1131.85C1138.86 238.722 1146.28 230.426 1147.4 223.414C1149.69 209.091 1149.93 203.665 1152.68 189.114C1153.09 183.38 1156.26 178.956 1161.15 178.918H1161.02ZM1075.36 238.473H1075.36C1079.93 238.175 1084.27 236.34 1087.71 233.256C1091.14 230.171 1093.48 226.011 1094.36 221.426C1095.68 215.02 1096.54 208.524 1096.93 201.99C1097.52 191.363 1091.21 181.918 1082.51 179.41C1080.22 178.741 1077.85 178.42 1075.47 178.457C1074.7 178.468 1073.93 178.522 1073.16 178.619C1074.46 178.782 1075.75 179.046 1077.01 179.41C1085.71 181.918 1092.01 191.363 1091.43 201.99C1091.04 208.524 1090.17 215.02 1088.86 221.426C1088.01 225.787 1085.85 229.768 1082.68 232.813C1079.51 235.857 1075.48 237.812 1071.17 238.403C1071.8 238.412 1072.45 238.422 1073.12 238.434C1073.83 238.447 1074.55 238.459 1075.32 238.474L1075.36 238.473ZM1271.57 156.633L1273.04 145.85C1273.65 141.342 1275.28 135.361 1278.67 132.398C1280.9 130.367 1283.81 129.284 1286.8 129.367L1286.8 129.366L1286.67 129.367L1286.66 129.366L1286.54 129.367L1286.53 129.366L1286.41 129.367L1286.39 129.366L1286.27 129.367L1286.26 129.366L1286.14 129.367L1286.13 129.366L1286 129.367L1285.99 129.366L1285.87 129.367L1285.86 129.366L1285.73 129.367L1285.72 129.366L1285.6 129.367L1285.59 129.366L1285.47 129.367L1285.46 129.366L1285.33 129.367L1285.32 129.366L1285.2 129.367L1285.19 129.366L1285.06 129.367L1285.05 129.366L1284.93 129.367L1284.92 129.366L1284.8 129.367L1284.78 129.366L1284.66 129.367L1284.65 129.366L1284.53 129.367L1284.52 129.366L1284.39 129.367L1284.38 129.366L1284.26 129.367L1284.25 129.366L1284.12 129.367L1284.11 129.366L1283.99 129.367L1283.98 129.366L1283.86 129.367L1283.85 129.366L1283.72 129.367L1283.71 129.366L1283.59 129.367L1283.58 129.366L1283.45 129.367L1283.44 129.366L1283.32 129.367L1283.31 129.366L1283.19 129.367L1283.18 129.366L1283.05 129.367L1283.04 129.366L1282.92 129.367L1282.91 129.366L1282.78 129.367L1282.77 129.366L1282.65 129.367L1282.64 129.366L1282.52 129.367L1282.5 129.366L1282.38 129.367L1282.37 129.366L1282.25 129.367L1282.24 129.366L1282.11 129.367L1282.1 129.366L1281.98 129.367L1281.97 129.366L1281.84 129.367L1281.83 129.366L1281.71 129.367L1281.7 129.366L1281.58 129.367L1281.57 129.366L1281.44 129.367L1281.43 129.366C1278.4 129.257 1275.44 130.342 1273.17 132.398C1269.78 135.361 1268.15 141.342 1267.54 145.85L1266.07 156.633C1265.89 157.965 1265.99 159.322 1266.37 160.611C1266.74 161.9 1267.39 163.092 1268.25 164.107C1269.12 165.121 1270.18 165.934 1271.38 166.492C1272.58 167.049 1273.88 167.337 1275.2 167.337C1275.23 167.337 1275.25 167.331 1275.28 167.331C1275.3 167.331 1275.32 167.337 1275.34 167.337C1275.36 167.337 1275.39 167.331 1275.41 167.331C1275.43 167.331 1275.45 167.337 1275.47 167.337C1275.5 167.337 1275.52 167.331 1275.55 167.331C1275.57 167.331 1275.58 167.337 1275.6 167.337C1275.63 167.337 1275.65 167.331 1275.68 167.331C1275.7 167.331 1275.72 167.337 1275.74 167.337C1275.76 167.337 1275.79 167.331 1275.81 167.331C1275.83 167.331 1275.85 167.337 1275.87 167.337C1275.9 167.337 1275.92 167.331 1275.95 167.331C1275.97 167.331 1275.99 167.337 1276.01 167.337C1276.03 167.337 1276.06 167.331 1276.08 167.331C1276.1 167.331 1276.12 167.337 1276.14 167.337C1276.17 167.337 1276.19 167.331 1276.22 167.331C1276.24 167.331 1276.25 167.337 1276.28 167.337C1276.3 167.337 1276.32 167.331 1276.35 167.331C1276.37 167.331 1276.39 167.337 1276.41 167.337C1276.43 167.337 1276.46 167.331 1276.48 167.331C1276.5 167.331 1276.52 167.337 1276.54 167.337C1276.57 167.337 1276.59 167.331 1276.62 167.331C1276.64 167.331 1276.66 167.337 1276.68 167.337C1276.7 167.337 1276.73 167.331 1276.75 167.331C1276.77 167.331 1276.79 167.337 1276.81 167.337C1276.84 167.337 1276.86 167.331 1276.89 167.331C1276.91 167.331 1276.93 167.337 1276.95 167.337C1276.97 167.337 1277 167.331 1277.02 167.331C1277.04 167.331 1277.06 167.337 1277.08 167.337C1277.11 167.337 1277.13 167.331 1277.15 167.331C1277.18 167.331 1277.19 167.337 1277.21 167.337C1277.24 167.337 1277.26 167.331 1277.29 167.331C1277.31 167.331 1277.33 167.337 1277.35 167.337C1277.37 167.337 1277.4 167.331 1277.42 167.331C1277.44 167.331 1277.46 167.337 1277.48 167.337C1277.51 167.337 1277.53 167.331 1277.56 167.331C1277.58 167.331 1277.6 167.337 1277.62 167.337C1277.64 167.337 1277.67 167.331 1277.69 167.331C1277.71 167.331 1277.73 167.337 1277.75 167.337C1277.78 167.337 1277.8 167.331 1277.83 167.331C1277.85 167.331 1277.86 167.337 1277.88 167.337C1277.91 167.337 1277.93 167.331 1277.96 167.331C1277.98 167.331 1278 167.337 1278.02 167.337C1278.04 167.337 1278.07 167.331 1278.09 167.331C1278.11 167.331 1278.13 167.337 1278.15 167.337C1278.18 167.337 1278.2 167.331 1278.23 167.331C1278.25 167.331 1278.27 167.337 1278.29 167.337C1278.31 167.337 1278.34 167.331 1278.36 167.331C1278.38 167.331 1278.4 167.337 1278.42 167.337C1278.45 167.337 1278.47 167.331 1278.5 167.331C1278.52 167.331 1278.54 167.337 1278.56 167.337C1278.58 167.337 1278.6 167.331 1278.63 167.331C1278.65 167.331 1278.67 167.337 1278.69 167.337C1278.72 167.337 1278.74 167.331 1278.76 167.331C1278.79 167.331 1278.8 167.337 1278.82 167.337C1278.85 167.337 1278.87 167.331 1278.9 167.331C1278.92 167.331 1278.94 167.337 1278.96 167.337C1278.98 167.337 1279.01 167.331 1279.03 167.331C1279.05 167.331 1279.07 167.337 1279.09 167.337C1279.12 167.337 1279.14 167.331 1279.17 167.331C1279.19 167.331 1279.21 167.337 1279.23 167.337C1279.25 167.337 1279.28 167.331 1279.3 167.331C1279.32 167.331 1279.34 167.337 1279.36 167.337C1279.39 167.337 1279.41 167.331 1279.43 167.331C1279.45 167.331 1279.47 167.337 1279.49 167.337C1279.52 167.337 1279.54 167.331 1279.57 167.331C1279.59 167.331 1279.61 167.337 1279.63 167.337C1279.65 167.337 1279.68 167.331 1279.7 167.331C1279.72 167.331 1279.74 167.337 1279.76 167.337C1279.79 167.337 1279.81 167.331 1279.84 167.331C1279.86 167.331 1279.88 167.337 1279.9 167.337C1279.92 167.337 1279.95 167.331 1279.97 167.331C1279.99 167.331 1280.01 167.337 1280.03 167.337C1280.06 167.337 1280.08 167.331 1280.11 167.331C1280.13 167.331 1280.14 167.337 1280.17 167.337C1280.19 167.337 1280.21 167.331 1280.24 167.331C1280.26 167.331 1280.28 167.337 1280.3 167.337C1280.32 167.337 1280.35 167.331 1280.37 167.331C1280.39 167.331 1280.41 167.337 1280.43 167.337C1280.46 167.337 1280.48 167.331 1280.51 167.331C1280.53 167.331 1280.55 167.337 1280.57 167.337C1280.59 167.337 1280.62 167.331 1280.64 167.331C1280.66 167.331 1280.68 167.337 1280.7 167.337C1281.19 167.335 1281.68 167.29 1282.16 167.202C1280.73 167.453 1279.27 167.356 1277.89 166.917C1276.51 166.479 1275.25 165.713 1274.22 164.681C1273.18 163.649 1272.41 162.381 1271.95 160.982C1271.49 159.583 1271.36 158.092 1271.57 156.633ZM1145.08 72.8023C1145.04 72.8036 1144.99 72.8009 1144.95 72.8023C1144.91 72.8036 1144.86 72.8009 1144.82 72.8023C1144.77 72.8036 1144.73 72.8009 1144.68 72.8023C1143.83 72.813 1142.99 72.8758 1142.15 72.9901C1155.21 74.648 1162.82 85.7021 1160.16 100.763C1158.06 112.665 1155.94 127.897 1153.82 139.786C1152.65 146.288 1154.58 150.952 1160.82 151.999C1161.27 152.073 1161.71 152.116 1162.16 152.131C1162.21 152.132 1162.25 152.128 1162.3 152.131C1162.34 152.132 1162.39 152.128 1162.43 152.131C1162.48 152.132 1162.52 152.128 1162.57 152.131C1162.61 152.132 1162.65 152.128 1162.7 152.131C1162.75 152.132 1162.79 152.128 1162.83 152.131C1162.88 152.132 1162.92 152.128 1162.97 152.131C1163.01 152.132 1163.06 152.128 1163.1 152.131C1163.15 152.132 1163.19 152.128 1163.24 152.131C1163.28 152.132 1163.33 152.128 1163.37 152.131C1163.42 152.132 1163.46 152.128 1163.51 152.131C1163.55 152.132 1163.59 152.128 1163.64 152.131C1163.69 152.132 1163.73 152.128 1163.77 152.131C1163.82 152.132 1163.86 152.128 1163.91 152.131C1163.95 152.132 1164 152.128 1164.04 152.131C1164.09 152.132 1164.13 152.128 1164.18 152.131C1164.22 152.132 1164.26 152.128 1164.31 152.131C1164.36 152.132 1164.4 152.128 1164.44 152.131C1164.49 152.132 1164.53 152.128 1164.58 152.131C1164.63 152.132 1164.67 152.128 1164.71 152.131C1164.76 152.132 1164.8 152.128 1164.85 152.131C1164.89 152.132 1164.94 152.128 1164.98 152.131C1165.03 152.132 1165.07 152.128 1165.12 152.131C1165.16 152.132 1165.2 152.128 1165.25 152.131C1165.3 152.132 1165.34 152.128 1165.38 152.131C1165.43 152.132 1165.47 152.128 1165.52 152.131C1165.56 152.132 1165.61 152.128 1165.65 152.131C1165.7 152.132 1165.74 152.128 1165.79 152.131C1165.83 152.132 1165.88 152.128 1165.92 152.131C1165.97 152.132 1166.01 152.128 1166.06 152.131C1166.1 152.132 1166.14 152.128 1166.19 152.131C1166.24 152.132 1166.28 152.128 1166.32 152.131C1166.37 152.132 1166.41 152.128 1166.46 152.131C1166.5 152.132 1166.55 152.128 1166.59 152.131C1166.64 152.132 1166.68 152.128 1166.73 152.131C1166.77 152.132 1166.81 152.128 1166.86 152.131C1166.91 152.132 1166.95 152.128 1166.99 152.131C1167.04 152.132 1167.08 152.128 1167.13 152.131C1167.17 152.132 1167.22 152.128 1167.26 152.131C1167.31 152.132 1167.35 152.128 1167.4 152.131C1167.44 152.132 1167.49 152.128 1167.53 152.131C1167.71 152.139 1167.87 152.11 1168.04 152.109C1167.47 152.122 1166.89 152.085 1166.33 151.999C1160.08 150.952 1158.16 146.288 1159.32 139.786C1161.44 127.897 1163.57 112.665 1165.67 100.763C1168.36 85.5047 1160.52 74.3394 1147.15 72.9105C1146.5 72.842 1145.86 72.8146 1145.23 72.8023H1145.22C1145.17 72.8036 1145.13 72.8009 1145.08 72.8023ZM1169.67 151.939C1169.43 151.991 1169.18 152.04 1168.92 152.071C1169.18 152.043 1169.43 151.99 1169.67 151.939ZM1441.95 181.288C1441.91 181.286 1441.87 181.286 1441.82 181.288C1441.77 181.286 1441.73 181.286 1441.69 181.288C1441.64 181.286 1441.6 181.286 1441.55 181.288C1441.51 181.286 1441.46 181.286 1441.42 181.288C1441.37 181.286 1441.33 181.286 1441.28 181.288C1441.24 181.286 1441.19 181.286 1441.15 181.288C1441.1 181.286 1441.06 181.286 1441.01 181.288C1440.97 181.286 1440.93 181.286 1440.88 181.288C1440.83 181.286 1436.91 181.299 1435.92 184.525C1434.93 187.752 1430.69 209.091 1428.4 223.414C1427.32 230.158 1420.41 238.068 1413.65 238.798C1415.72 238.833 1417.27 238.862 1417.97 238.869C1418.07 238.87 1418.15 238.872 1418.21 238.872H1418.34C1425.35 238.728 1432.78 230.427 1433.9 223.414C1436.19 209.091 1436.42 203.665 1439.18 189.114L1439.97 183.227C1440.03 182.694 1440.27 182.202 1440.67 181.844C1441.06 181.487 1441.56 181.289 1442.09 181.288C1442.04 181.286 1442 181.286 1441.95 181.288ZM1431.56 72.8036C1431.52 72.8036 1431.47 72.8022 1431.43 72.8036C1431.38 72.8036 1431.34 72.8022 1431.29 72.8036C1431.25 72.8036 1431.2 72.8022 1431.16 72.8036C1430.3 72.8157 1429.45 72.8798 1428.6 72.9956C1432.98 73.4075 1437.11 75.2599 1440.37 78.274C1443.63 81.2882 1445.84 85.3011 1446.67 89.7091C1447.39 92.9289 1455.43 140.345 1455.67 141.362C1456.71 145.66 1459.55 145.366 1459.6 145.366C1459.64 145.368 1459.69 145.366 1459.73 145.365C1459.78 145.368 1459.82 145.366 1459.87 145.366C1459.91 145.368 1459.95 145.366 1460 145.366C1460.05 145.368 1460.09 145.366 1460.14 145.366C1460.18 145.368 1460.22 145.366 1460.27 145.365C1460.31 145.368 1460.36 145.366 1460.4 145.366C1460.45 145.368 1460.49 145.366 1460.54 145.366H1460.54C1460.01 145.364 1459.49 145.157 1459.1 144.787C1458.71 144.417 1458.47 143.911 1458.43 143.368C1456.23 123.095 1452.89 92.9289 1452.17 89.7091C1451.33 85.2155 1449.05 81.1327 1445.7 78.095C1442.35 75.0574 1438.11 73.2348 1433.64 72.9106C1433 72.842 1432.37 72.8159 1431.75 72.8036H1431.69C1431.65 72.8035 1431.6 72.8022 1431.56 72.8036ZM1073.1 93.4541C1097.26 93.9437 1109.1 119.191 1097.68 142.805C1091.94 150.913 1085.28 152.514 1076.34 152.721C1076.8 152.728 1077.23 152.73 1077.67 152.734C1078.09 152.739 1078.5 152.743 1078.91 152.744H1079.64C1089.7 152.726 1096.98 151.565 1103.18 142.805C1114.61 119.191 1102.76 93.9437 1078.6 93.4541C1065.76 93.195 1066.63 93.5241 1053.81 93.0249H1053.8L1053.79 93.0235H1053.75C1052.26 92.9659 1050.77 92.9865 1049.3 93.0619C1061.06 93.5034 1060.61 93.2032 1073.1 93.4541ZM1385.07 161.013C1382.14 183.751 1379.1 198.727 1376.23 221.47C1374.76 230.193 1365.97 237.941 1358.7 238.315C1357.68 238.367 1357.06 238.403 1356.6 238.425C1356.82 238.434 1357.04 238.441 1357.25 238.448C1357.42 238.456 1357.56 238.458 1357.72 238.466C1362 238.466 1360.4 238.511 1364.2 238.315C1371.48 237.941 1380.26 230.193 1381.73 221.47C1384.61 198.727 1387.65 183.751 1390.57 161.013C1392.4 146.769 1383.8 136.918 1371.64 134.877C1370.6 134.713 1369.56 134.636 1368.51 134.647C1367.59 134.642 1366.66 134.705 1365.75 134.833H1365.74C1365.87 134.853 1366 134.855 1366.13 134.877C1378.29 136.918 1386.9 146.769 1385.07 161.013ZM1468.98 255.779H1469.05C1470 255.776 1470.78 255.763 1471.27 255.739C1481.08 255.237 1490.05 249.871 1491.39 239.852C1492.67 230.211 1503.91 150.125 1508.14 118.033C1508.64 115.054 1508.52 112 1507.78 109.073C1507.04 106.146 1505.7 103.411 1503.86 101.05C1502.01 98.6879 1499.69 96.7523 1497.06 95.3701C1494.43 93.9879 1491.54 93.1905 1488.58 93.0304H1487.65L1487.59 93.0318C1486.66 93.0321 1485.74 93.0958 1484.82 93.2224C1487.61 93.6023 1490.3 94.5538 1492.72 96.0197C1495.14 97.4856 1497.24 99.4357 1498.91 101.753C1500.57 104.07 1501.76 106.707 1502.4 109.504C1503.04 112.302 1503.12 115.203 1502.64 118.033C1498.41 150.125 1487.17 230.211 1485.88 239.852C1484.55 249.871 1475.58 255.237 1465.76 255.739C1465.59 255.747 1465.39 255.754 1465.15 255.759C1465.83 255.766 1466.48 255.772 1467.1 255.774H1467.11C1467.73 255.779 1468.31 255.78 1468.85 255.779H1468.98ZM1463.48 139.238C1463.34 140.124 1463.2 141.01 1463.06 141.897C1463.21 141.007 1463.34 140.125 1463.48 139.238ZM480.065 136.665C480.02 136.667 479.976 136.665 479.931 136.665C479.886 136.667 479.841 136.665 479.797 136.665C479.752 136.667 479.707 136.665 479.663 136.665C479.618 136.667 479.573 136.665 479.528 136.665C479.483 136.667 479.438 136.665 479.394 136.665C479.35 136.667 479.304 136.665 479.26 136.665C479.215 136.667 479.17 136.665 479.125 136.665C479.081 136.667 479.036 136.665 478.992 136.665C478.947 136.667 478.902 136.665 478.857 136.665C478.812 136.667 478.767 136.665 478.723 136.665C478.678 136.667 478.634 136.665 478.589 136.665C478.544 136.667 478.499 136.665 478.455 136.665C478.41 136.667 478.365 136.665 478.32 136.665C478.276 136.667 478.23 136.665 478.186 136.665C478.141 136.667 478.096 136.665 478.052 136.665C478.008 136.667 477.962 136.665 477.917 136.665C477.873 136.667 477.828 136.665 477.783 136.665C477.739 136.667 477.694 136.665 477.649 136.665C477.604 136.667 477.559 136.665 477.515 136.665C477.47 136.667 477.425 136.665 477.381 136.665C477.336 136.667 477.291 136.665 477.246 136.665C477.202 136.667 477.157 136.665 477.113 136.665C477.068 136.667 477.023 136.665 476.978 136.665C476.933 136.667 476.888 136.665 476.844 136.665C476.799 136.667 476.754 136.665 476.71 136.665C476.665 136.667 476.62 136.665 476.575 136.665C476.531 136.667 476.485 136.665 476.441 136.665C476.397 136.667 476.352 136.665 476.307 136.665C476.262 136.667 476.217 136.665 476.173 136.665C476.128 136.667 476.083 136.665 476.039 136.665C475.994 136.667 475.949 136.665 475.904 136.665C475.86 136.667 475.815 136.665 475.77 136.665C475.726 136.667 475.681 136.665 475.636 136.665C475.591 136.667 475.546 136.665 475.502 136.665C475.457 136.667 475.412 136.665 475.368 136.665C475.323 136.667 475.278 136.665 475.233 136.665C475.189 136.667 475.143 136.665 475.099 136.665C475.056 136.667 475.011 136.665 474.969 136.665C460.318 136.719 451.159 144.341 449.305 159.882C448.224 167.235 446.976 175.723 445.879 183.986C443.512 193.978 448.085 200.297 454.783 201.288C455.577 201.407 456.381 201.444 457.182 201.399C457.227 201.397 457.274 201.402 457.317 201.399C457.36 201.397 457.408 201.402 457.451 201.399C457.495 201.397 457.542 201.402 457.585 201.399C457.629 201.397 457.676 201.402 457.72 201.399C457.763 201.397 457.81 201.402 457.854 201.399C457.897 201.397 457.945 201.402 457.988 201.399C458.032 201.397 458.078 201.402 458.122 201.399C458.166 201.397 458.213 201.402 458.256 201.399C458.3 201.397 458.347 201.402 458.391 201.399C458.434 201.397 458.481 201.402 458.524 201.399C458.569 201.397 458.616 201.402 458.659 201.399C458.703 201.397 458.75 201.402 458.793 201.399C458.837 201.397 458.884 201.402 458.927 201.399C458.971 201.397 459.018 201.402 459.062 201.399C459.106 201.397 459.152 201.402 459.196 201.399C459.24 201.397 459.287 201.402 459.331 201.399C459.374 201.397 459.421 201.402 459.464 201.399C459.508 201.397 459.555 201.402 459.599 201.399C459.642 201.397 459.689 201.402 459.733 201.399C459.777 201.397 459.824 201.402 459.867 201.399C459.911 201.397 459.958 201.402 460.001 201.399C460.045 201.397 460.092 201.402 460.135 201.399C460.179 201.397 460.227 201.402 460.27 201.399C460.313 201.397 460.36 201.402 460.404 201.399C460.448 201.397 460.495 201.402 460.538 201.399C460.582 201.397 460.629 201.402 460.673 201.399C460.716 201.397 460.763 201.402 460.806 201.399C460.85 201.397 460.897 201.402 460.941 201.399C460.984 201.397 461.031 201.402 461.075 201.399C461.119 201.397 461.166 201.402 461.209 201.399C461.253 201.397 461.3 201.402 461.343 201.399C461.386 201.397 461.432 201.402 461.475 201.399C461.087 201.379 460.694 201.349 460.286 201.288C453.587 200.297 449.015 193.978 451.381 183.986C452.479 175.723 453.726 167.235 454.808 159.882C456.651 144.422 465.727 136.799 480.242 136.665H480.199C480.154 136.667 480.109 136.665 480.065 136.665ZM718.821 114.373C718.821 124.831 709.473 131.637 704.188 131.886C695.194 132.31 688.072 139.498 687.523 147.573C683.968 174.873 677.024 213.182 673.515 240.487C672.234 254.617 664.297 255.47 657.468 255.663C655.307 255.725 653.738 255.762 652.472 255.783C653.499 255.798 654.353 255.807 655.327 255.809C656.989 255.809 659.016 255.776 662.969 255.663C669.798 255.47 677.735 254.617 679.016 240.487C682.525 213.182 689.469 174.873 693.025 147.573C693.573 139.498 700.695 132.31 709.69 131.886C714.974 131.637 724.322 124.831 724.322 114.373C724.322 103.492 716.762 95.3656 705.625 94.9501C700.515 94.7609 684.152 94.5182 670.144 94.5195C669.427 94.5195 668.72 94.5209 668.017 94.5223H667.561C680.848 94.5525 695.365 94.7732 700.124 94.9501C711.261 95.3656 718.821 103.492 718.821 114.373ZM561.699 174.83L562.576 162.494C562.943 157.335 564.957 150.577 568.551 148.184C570.558 146.791 572.934 146.057 575.361 146.081H575.298C575.253 146.079 575.209 146.081 575.164 146.081C575.119 146.079 575.075 146.081 575.03 146.081C574.985 146.079 574.94 146.081 574.896 146.081C574.85 146.079 574.806 146.081 574.762 146.081C574.716 146.079 574.672 146.081 574.627 146.081C574.582 146.079 574.538 146.081 574.493 146.081C574.448 146.079 574.404 146.081 574.358 146.081C574.313 146.079 574.27 146.081 574.224 146.081C574.179 146.079 574.135 146.081 574.09 146.081C574.045 146.079 574.001 146.081 573.956 146.081C573.911 146.079 573.867 146.081 573.822 146.081C573.777 146.079 573.732 146.081 573.687 146.081C573.642 146.079 573.598 146.081 573.553 146.081C573.508 146.079 573.464 146.081 573.419 146.081C573.374 146.079 573.33 146.081 573.285 146.081C573.239 146.079 573.196 146.081 573.151 146.081C573.106 146.079 573.061 146.081 573.016 146.081C572.971 146.079 572.927 146.081 572.882 146.081C572.837 146.079 572.793 146.081 572.748 146.081C572.703 146.079 572.659 146.081 572.614 146.081C572.569 146.079 572.525 146.081 572.48 146.081C572.435 146.079 572.39 146.081 572.345 146.081C572.3 146.079 572.256 146.081 572.211 146.081C572.166 146.079 572.122 146.081 572.077 146.081C572.032 146.079 571.988 146.081 571.943 146.081C571.897 146.079 571.854 146.081 571.809 146.081C571.764 146.079 571.719 146.081 571.674 146.081C571.629 146.079 571.585 146.081 571.54 146.081C571.495 146.079 571.451 146.081 571.405 146.081C571.36 146.079 571.317 146.081 571.272 146.081C571.227 146.079 571.183 146.081 571.138 146.081C571.093 146.079 571.048 146.081 571.003 146.081C570.958 146.079 570.914 146.081 570.869 146.081C570.824 146.079 570.779 146.081 570.735 146.081C570.689 146.079 570.646 146.081 570.601 146.081C570.555 146.079 570.511 146.081 570.466 146.081C570.421 146.079 570.377 146.081 570.332 146.081C570.287 146.079 570.243 146.081 570.198 146.081C567.656 145.984 565.15 146.721 563.048 148.184C559.454 150.577 557.44 157.335 557.073 162.494L556.196 174.83C555.654 183.353 561.627 188.259 568.693 189.584C569.538 189.745 570.398 189.808 571.257 189.772C571.302 189.771 571.348 189.775 571.392 189.772C571.436 189.771 571.482 189.775 571.526 189.772C571.57 189.771 571.616 189.775 571.66 189.772C571.705 189.771 571.75 189.775 571.795 189.772C571.839 189.771 571.885 189.775 571.929 189.772C571.973 189.771 572.019 189.775 572.063 189.772C572.107 189.771 572.153 189.775 572.197 189.772C572.241 189.771 572.288 189.775 572.332 189.772C572.376 189.771 572.422 189.775 572.466 189.772C572.51 189.771 572.556 189.775 572.599 189.772C572.644 189.771 572.69 189.775 572.734 189.772C572.778 189.771 572.825 189.775 572.868 189.772C572.913 189.771 572.958 189.775 573.003 189.772C573.047 189.771 573.093 189.775 573.137 189.772C573.181 189.771 573.227 189.775 573.271 189.772C573.316 189.771 573.361 189.775 573.406 189.772C573.449 189.771 573.496 189.775 573.539 189.772C573.584 189.771 573.63 189.775 573.674 189.772C573.718 189.771 573.764 189.775 573.808 189.772C573.852 189.771 573.898 189.775 573.942 189.772C573.986 189.771 574.032 189.775 574.076 189.772C574.12 189.771 574.167 189.775 574.21 189.772C574.255 189.771 574.3 189.775 574.345 189.772C574.389 189.771 574.435 189.775 574.479 189.772C574.523 189.771 574.569 189.775 574.613 189.772C574.658 189.771 574.703 189.775 574.748 189.772C574.791 189.771 574.838 189.775 574.881 189.772C574.926 189.771 574.972 189.775 575.016 189.772C575.06 189.771 575.106 189.775 575.15 189.772C575.194 189.771 575.24 189.775 575.285 189.772C575.328 189.771 575.374 189.775 575.418 189.772C575.462 189.771 575.509 189.775 575.552 189.772C575.597 189.771 575.642 189.775 575.687 189.772C575.731 189.771 575.777 189.775 575.821 189.772C575.866 189.771 575.911 189.775 575.956 189.772C575.985 189.771 576.015 189.772 576.044 189.772C575.424 189.757 574.806 189.694 574.195 189.584C567.13 188.259 561.157 183.353 561.699 174.83ZM796.668 180.14C805.293 182.626 811.536 191.984 810.96 202.515C810.566 208.99 809.713 215.427 808.407 221.776C807.57 226.096 805.431 230.041 802.288 233.057C799.145 236.074 795.157 238.011 790.882 238.597C791.52 238.606 792.169 238.617 792.847 238.628C793.137 238.633 793.45 238.64 793.749 238.645C794.178 238.652 794.592 238.66 795.039 238.669C799.573 238.385 803.886 236.571 807.301 233.514C810.716 230.456 813.04 226.328 813.908 221.775C815.214 215.427 816.067 208.99 816.461 202.515C817.037 191.984 810.794 182.626 802.169 180.14C799.901 179.478 797.549 179.159 795.19 179.195C794.421 179.208 793.654 179.262 792.89 179.36C794.167 179.522 795.43 179.783 796.668 180.14ZM769.717 196.334C769.761 196.332 769.808 196.336 769.851 196.334C769.896 196.332 769.941 196.336 769.986 196.334C770.033 196.332 770.076 196.32 770.123 196.319C769.903 196.33 769.683 196.339 769.458 196.334C769.499 196.334 769.542 196.336 769.583 196.334C769.627 196.332 769.673 196.336 769.717 196.334ZM1375.04 79.2638V79.2706L1379.25 79.9179C1379.25 79.9179 1379.88 79.9989 1379.96 80.2854C1380.04 80.5719 1392.72 95.8018 1392.72 95.8018L1390.42 114.405L1374.87 125.674L1379.54 126.276L1379.56 126.261L1395.92 114.405L1398.22 95.8018C1398.22 95.8018 1385.54 80.572 1385.46 80.2854C1385.38 79.9988 1384.75 79.9179 1384.75 79.9179L1380.54 79.2706V79.2638L1380.4 79.2487L1380.25 79.2268L1380.25 79.2336L1376.01 78.7907C1376.01 78.7907 1375.92 78.7838 1375.81 78.7824C1375.73 78.784 1375.64 78.7913 1375.56 78.8043C1375.53 78.8098 1375.5 78.8139 1375.47 78.8221C1375.38 78.8384 1375.29 78.8905 1375.24 78.9676C1375.19 79.0162 1375.13 79.0615 1375.08 79.1033C1375.03 79.1417 1374.97 79.1911 1374.89 79.2487L1375.04 79.2638ZM975.998 80.9107L980.173 81.5511C980.173 81.5511 980.797 81.6306 980.876 81.9145C980.955 82.1997 993.52 97.291 993.52 97.291L991.239 115.727L975.842 126.888L980.512 127.49L980.514 127.489L980.532 127.475L996.741 115.727L999.021 97.291C999.021 97.291 986.456 82.1997 986.377 81.9145C986.298 81.6306 985.675 81.5511 985.675 81.5511L981.5 80.9107L981.501 80.9024L981.358 80.8874L981.217 80.8668V80.8737L977.016 80.4348L976.924 80.4266C976.889 80.4245 976.854 80.4245 976.819 80.4266C976.736 80.4275 976.653 80.4348 976.571 80.4485C976.539 80.4516 976.508 80.4576 976.477 80.4663C976.387 80.4815 976.306 80.5316 976.251 80.6062L976.247 80.609L976.234 80.6213C976.189 80.6635 976.142 80.7033 976.094 80.7406C976.043 80.7804 975.979 80.8311 975.902 80.8915L976 80.9024L975.998 80.9107ZM513.129 115.728C513.313 123.087 507.031 136.717 493.173 137.096L492.88 137.1C493.982 137.117 495.052 137.123 496.033 137.123C497.03 137.122 497.953 137.115 498.674 137.096C512.532 136.717 518.815 123.087 518.631 115.728C518.342 104.271 510.334 94.584 498.064 94.5168C493.027 94.4894 489.361 94.4716 486.163 94.4702C485.294 94.4702 484.461 94.4716 483.643 94.4743H483.394C485.96 94.4839 488.891 94.4976 492.563 94.5168C504.832 94.584 512.841 104.271 513.129 115.728ZM480.407 254.865H480.417C489.916 254.86 500.222 248.661 501.907 237.743C504.386 218.423 506.586 208.47 508.838 189.122C512.529 164.399 500.338 156.527 480.385 156.121H480.38C479.424 156.105 478.469 156.145 477.518 156.242C487.289 156.8 494.935 159.422 499.453 165.276C502.141 169.027 503.678 173.509 503.869 178.153C504.094 181.818 503.915 185.497 503.336 189.122C501.084 208.47 498.885 218.423 496.406 237.743C494.739 248.545 484.635 254.717 475.22 254.853C475.52 254.854 475.839 254.856 476.169 254.857C476.254 254.858 476.34 254.858 476.427 254.858C476.763 254.86 477.11 254.861 477.481 254.863H477.557C478.4 254.864 479.338 254.865 480.405 254.865L480.407 254.865ZM571.325 93.8586H565.958C573.784 93.8584 581.519 95.574 588.64 98.8896C595.761 102.205 602.102 107.043 607.234 113.077C612.365 119.11 616.168 126.199 618.385 133.862C620.602 141.526 621.181 149.586 620.084 157.498L612.929 209.039C611.787 217.27 607.773 224.804 601.624 230.255C595.476 235.706 587.608 238.707 579.465 238.707H584.974C593.115 238.705 600.982 235.703 607.129 230.252C613.275 224.802 617.288 217.269 618.43 209.039L625.585 157.498C626.682 149.588 626.103 141.529 623.887 133.867C621.672 126.204 617.87 119.117 612.741 113.084C607.611 107.051 601.273 102.212 594.154 98.8954C587.035 95.5787 579.302 93.8611 571.477 93.8587L571.325 93.8586ZM792.797 94.9652C816.732 95.4493 828.472 120.467 817.15 143.867C811.466 151.898 804.87 153.486 796.025 153.693C796.532 153.7 797.021 153.704 797.514 153.708C797.854 153.711 798.195 153.715 798.528 153.716H799.38C809.316 153.694 816.518 152.531 822.651 143.867C833.973 120.467 822.233 95.4493 798.298 94.9653C785.571 94.7088 786.433 95.0338 773.73 94.5388H773.725L773.708 94.5375H773.675C772.186 94.4813 770.708 94.5018 769.243 94.5772C780.858 95.0133 780.431 94.7156 792.797 94.9652ZM775.33 137.529C775.296 137.531 775.265 137.521 775.23 137.524L775.196 137.529C775.162 137.531 775.131 137.521 775.096 137.524L775.062 137.529C775.027 137.531 774.996 137.521 774.962 137.524L774.927 137.529C774.893 137.531 774.862 137.521 774.828 137.524L774.794 137.529C774.759 137.531 774.728 137.521 774.694 137.524L774.659 137.529C774.625 137.531 774.594 137.521 774.559 137.524L774.525 137.529C774.491 137.531 774.459 137.521 774.425 137.524L774.391 137.529C774.357 137.531 774.326 137.521 774.291 137.524L774.256 137.529C774.222 137.531 774.191 137.521 774.157 137.524L774.122 137.529C774.089 137.531 774.057 137.521 774.023 137.524L773.989 137.529C773.954 137.531 773.923 137.521 773.888 137.524L773.854 137.529C773.82 137.531 773.789 137.521 773.754 137.524L773.72 137.529C773.686 137.531 773.655 137.521 773.62 137.524L773.586 137.529C773.551 137.531 773.52 137.521 773.486 137.524L773.452 137.529C773.417 137.531 773.386 137.521 773.352 137.524L773.318 137.529C773.283 137.531 773.252 137.521 773.218 137.524L773.183 137.529C773.149 137.531 773.118 137.521 773.083 137.524L773.049 137.529C773.015 137.531 772.984 137.521 772.95 137.524L772.915 137.529C772.881 137.531 772.85 137.521 772.815 137.524L772.78 137.529C772.747 137.531 772.715 137.521 772.681 137.524L772.646 137.529C772.613 137.531 772.581 137.521 772.547 137.524L772.512 137.529C772.478 137.531 772.447 137.521 772.412 137.524L772.378 137.529C772.344 137.531 772.313 137.521 772.278 137.524L772.244 137.529C772.21 137.531 772.179 137.521 772.144 137.524L772.11 137.529C772.075 137.531 772.044 137.521 772.01 137.524L771.976 137.529C771.941 137.531 771.91 137.521 771.876 137.524L771.842 137.529C771.807 137.531 771.776 137.521 771.742 137.524L771.707 137.529C771.673 137.531 771.642 137.521 771.608 137.524L771.573 137.529C771.539 137.531 771.508 137.521 771.474 137.524L771.439 137.529C771.404 137.531 771.374 137.521 771.339 137.524L771.304 137.529C771.271 137.531 771.239 137.521 771.205 137.524L771.171 137.529C771.137 137.531 771.106 137.521 771.071 137.524L771.036 137.529C771.002 137.531 770.971 137.521 770.936 137.524L770.902 137.529C770.868 137.531 770.837 137.521 770.803 137.524L770.768 137.529C770.734 137.531 770.703 137.521 770.668 137.524L770.634 137.529C770.599 137.531 770.568 137.521 770.534 137.524L770.5 137.529C770.466 137.531 770.434 137.521 770.4 137.524L770.366 137.529C770.331 137.531 770.3 137.521 770.266 137.524L770.231 137.529C770.197 137.531 770.166 137.521 770.132 137.524L770.097 137.529C770.063 137.531 770.032 137.521 769.998 137.524L769.963 137.529C769.929 137.531 769.898 137.521 769.863 137.524C764.362 137.961 761.701 141.314 760.957 146.264C759.198 159.271 757.091 172.297 755.389 185.312C754.699 190.604 756.827 194.946 762.109 196.12C762.932 196.307 763.776 196.379 764.619 196.334C764.662 196.332 764.709 196.336 764.752 196.334C764.797 196.332 764.843 196.336 764.887 196.334C764.931 196.332 764.977 196.336 765.021 196.334C765.065 196.332 765.112 196.336 765.155 196.334C765.199 196.332 765.245 196.336 765.289 196.334C765.333 196.332 765.38 196.336 765.423 196.334C765.468 196.332 765.514 196.336 765.558 196.334C765.602 196.332 765.648 196.336 765.692 196.334C765.736 196.332 765.782 196.336 765.826 196.334C765.871 196.332 765.916 196.336 765.961 196.334C766.004 196.332 766.051 196.336 766.094 196.334C766.139 196.332 766.185 196.336 766.229 196.334C766.273 196.332 766.319 196.336 766.363 196.334C766.407 196.332 766.454 196.336 766.497 196.334C766.541 196.332 766.587 196.336 766.631 196.334C766.675 196.332 766.722 196.336 766.765 196.334C766.81 196.332 766.856 196.336 766.9 196.334C766.944 196.332 766.99 196.336 767.034 196.334C767.078 196.332 767.124 196.336 767.169 196.334C767.213 196.332 767.259 196.336 767.303 196.334C767.347 196.332 767.393 196.336 767.437 196.334C767.481 196.332 767.527 196.336 767.571 196.334C767.615 196.332 767.661 196.336 767.705 196.334C767.75 196.332 767.796 196.336 767.84 196.334C767.883 196.332 767.93 196.336 767.973 196.334C768.017 196.332 768.064 196.336 768.108 196.334C768.152 196.332 768.198 196.336 768.242 196.334C768.286 196.332 768.333 196.336 768.376 196.334C768.421 196.332 768.466 196.336 768.511 196.334C768.555 196.332 768.601 196.336 768.645 196.334C768.689 196.332 768.735 196.336 768.779 196.334C768.823 196.332 768.869 196.336 768.913 196.334C768.957 196.332 769.004 196.336 769.047 196.334H769.11C768.606 196.3 768.105 196.229 767.612 196.12C762.329 194.946 760.201 190.604 760.891 185.312C762.593 172.297 764.7 159.271 766.46 146.264C767.203 141.314 769.865 137.961 775.366 137.524C775.906 137.493 776.447 137.527 776.979 137.627C776.448 137.52 775.906 137.485 775.366 137.524L775.33 137.529ZM881.943 179.923C882.149 179.974 882.308 180.06 882.504 180.119C882.321 180.043 882.133 179.978 881.943 179.923ZM1049.62 195.752C1049.66 195.751 1049.71 195.755 1049.75 195.752C1049.8 195.751 1049.84 195.755 1049.89 195.752C1049.93 195.751 1049.98 195.755 1050.02 195.752C1050.07 195.749 1050.12 195.739 1050.17 195.736C1049.94 195.748 1049.7 195.759 1049.47 195.752H1049.49C1049.53 195.751 1049.58 195.755 1049.62 195.752ZM879.415 179.653C879.369 179.652 879.325 179.652 879.281 179.653C879.235 179.652 879.191 179.652 879.147 179.653C879.102 179.652 879.057 179.652 879.012 179.653C878.967 179.652 878.923 179.652 878.878 179.653C878.833 179.652 878.788 179.652 878.743 179.653C878.698 179.652 878.654 179.652 878.609 179.653C878.565 179.652 878.52 179.652 878.475 179.653C878.43 179.652 878.386 179.652 878.341 179.653C878.296 179.652 878.252 179.652 878.207 179.653C878.162 179.652 878.117 179.652 878.072 179.653C878.027 179.652 877.983 179.652 877.939 179.653C877.893 179.652 877.849 179.652 877.804 179.653C877.759 179.652 877.715 179.652 877.67 179.653C877.625 179.652 877.58 179.652 877.536 179.653C877.491 179.652 877.446 179.652 877.401 179.653C877.356 179.652 877.312 179.652 877.267 179.653C877.223 179.652 877.178 179.652 877.133 179.653C877.088 179.652 877.044 179.652 876.999 179.653C876.954 179.652 876.91 179.652 876.865 179.653C876.82 179.652 876.775 179.652 876.73 179.653C876.685 179.652 876.641 179.652 876.596 179.653C876.551 179.652 876.507 179.652 876.462 179.653C876.417 179.652 876.373 179.652 876.328 179.653C876.283 179.652 876.238 179.652 876.194 179.653C876.149 179.652 876.104 179.652 876.059 179.653C876.014 179.652 875.97 179.652 875.925 179.653C875.88 179.652 875.836 179.652 875.791 179.653C875.746 179.652 875.701 179.652 875.657 179.653C875.612 179.652 875.567 179.652 875.522 179.653C875.477 179.652 875.433 179.652 875.388 179.653C875.343 179.652 875.299 179.652 875.254 179.653C875.209 179.652 875.164 179.652 875.12 179.653C875.075 179.652 875.03 179.652 874.986 179.653C874.941 179.652 874.896 179.652 874.851 179.653C874.806 179.652 874.762 179.652 874.717 179.653C874.672 179.652 874.628 179.652 874.583 179.653C874.538 179.652 874.493 179.652 874.448 179.653C874.404 179.652 874.359 179.652 874.314 179.653C869.397 179.612 866.197 184.022 865.791 189.757C863.06 204.175 862.828 209.553 860.558 223.745C859.49 230.426 852.647 238.264 845.949 238.988C846.242 238.994 846.485 238.998 846.757 239.002C848.075 239.025 849.133 239.044 849.814 239.055C849.857 239.055 849.911 239.057 849.951 239.057C850.06 239.058 850.139 239.059 850.226 239.061C850.415 239.062 850.579 239.064 850.642 239.062L850.649 239.061H850.658C857.599 238.907 864.949 230.69 866.059 223.745C868.329 209.553 868.561 204.175 871.292 189.757C871.695 184.076 874.84 179.694 879.681 179.653C879.636 179.652 879.592 179.652 879.547 179.653C879.504 179.652 879.459 179.652 879.415 179.653ZM985.941 161.91C983.042 184.442 980.03 199.282 977.183 221.819C975.723 230.463 967.019 238.139 959.814 238.511C958.817 238.562 958.205 238.596 957.752 238.619C958.142 238.636 958.491 238.64 958.893 238.66C963.134 238.66 961.548 238.704 965.316 238.511C972.52 238.139 981.224 230.463 982.684 221.819C985.531 199.282 988.543 184.442 991.442 161.91C993.258 147.796 984.728 138.034 972.679 136.013C971.649 135.85 970.607 135.773 969.564 135.784C968.645 135.78 967.727 135.842 966.817 135.971H966.812C966.933 135.989 967.056 135.992 967.178 136.013C979.226 138.034 987.757 147.796 985.941 161.91ZM1055.43 136.408C1055.39 136.409 1055.36 136.399 1055.33 136.402L1055.29 136.408C1055.26 136.409 1055.23 136.399 1055.19 136.402L1055.16 136.408C1055.12 136.409 1055.09 136.399 1055.06 136.402L1055.02 136.408C1054.99 136.409 1054.96 136.399 1054.92 136.402L1054.89 136.408C1054.86 136.409 1054.82 136.399 1054.79 136.402L1054.76 136.408C1054.72 136.409 1054.69 136.399 1054.66 136.402L1054.62 136.408C1054.59 136.409 1054.56 136.399 1054.52 136.402L1054.49 136.408C1054.45 136.409 1054.42 136.399 1054.39 136.402L1054.35 136.408C1054.32 136.409 1054.29 136.399 1054.25 136.402L1054.22 136.408C1054.18 136.409 1054.15 136.399 1054.12 136.402L1054.08 136.408C1054.05 136.409 1054.02 136.399 1053.98 136.402L1053.95 136.408C1053.92 136.409 1053.89 136.399 1053.85 136.402L1053.82 136.408C1053.78 136.409 1053.75 136.399 1053.72 136.402L1053.68 136.408C1053.65 136.409 1053.62 136.399 1053.58 136.402L1053.55 136.408C1053.51 136.409 1053.48 136.399 1053.45 136.402L1053.41 136.408C1053.38 136.409 1053.35 136.399 1053.31 136.402L1053.28 136.408C1053.25 136.409 1053.21 136.399 1053.18 136.402L1053.15 136.408C1053.11 136.409 1053.08 136.399 1053.04 136.402L1053.01 136.408C1052.98 136.409 1052.95 136.399 1052.91 136.402L1052.88 136.408C1052.84 136.409 1052.81 136.399 1052.78 136.402L1052.74 136.408C1052.71 136.409 1052.68 136.399 1052.64 136.402L1052.61 136.408C1052.57 136.409 1052.54 136.399 1052.51 136.402L1052.47 136.408C1052.44 136.409 1052.41 136.399 1052.37 136.402L1052.34 136.408C1052.31 136.409 1052.27 136.399 1052.24 136.402L1052.21 136.408C1052.17 136.409 1052.14 136.399 1052.11 136.402L1052.07 136.408C1052.04 136.409 1052.01 136.399 1051.97 136.402L1051.94 136.408C1051.9 136.409 1051.87 136.399 1051.84 136.402L1051.8 136.408C1051.77 136.409 1051.74 136.399 1051.7 136.402L1051.67 136.408C1051.64 136.409 1051.6 136.399 1051.57 136.402L1051.54 136.408C1051.5 136.409 1051.47 136.399 1051.44 136.402L1051.4 136.408C1051.37 136.409 1051.34 136.399 1051.3 136.402L1051.27 136.408C1051.23 136.409 1051.2 136.399 1051.17 136.402L1051.13 136.408C1051.1 136.409 1051.07 136.399 1051.03 136.402L1051 136.408C1050.96 136.409 1050.93 136.399 1050.9 136.402L1050.86 136.408C1050.83 136.409 1050.8 136.399 1050.76 136.402L1050.73 136.408C1050.7 136.409 1050.66 136.399 1050.63 136.402L1050.6 136.408C1050.56 136.409 1050.53 136.399 1050.5 136.402L1050.46 136.408C1050.43 136.409 1050.4 136.399 1050.36 136.402L1050.33 136.408C1050.29 136.409 1050.26 136.399 1050.23 136.402L1050.19 136.408C1050.16 136.409 1050.13 136.399 1050.09 136.402L1050.06 136.408C1050.03 136.409 1049.99 136.399 1049.96 136.402C1044.41 136.845 1041.72 140.229 1040.97 145.222C1039.2 158.35 1037.07 171.494 1035.35 184.628C1034.66 189.969 1036.8 194.351 1042.13 195.536C1042.96 195.723 1043.81 195.796 1044.65 195.752C1044.7 195.751 1044.74 195.755 1044.79 195.752C1044.83 195.751 1044.88 195.755 1044.92 195.752C1044.97 195.751 1045.01 195.755 1045.06 195.752C1045.1 195.751 1045.15 195.755 1045.19 195.752C1045.24 195.751 1045.28 195.755 1045.33 195.752C1045.37 195.751 1045.42 195.755 1045.46 195.752C1045.5 195.751 1045.55 195.755 1045.59 195.752C1045.64 195.751 1045.68 195.755 1045.73 195.752C1045.77 195.751 1045.82 195.755 1045.86 195.752C1045.91 195.751 1045.95 195.755 1046 195.752C1046.04 195.751 1046.09 195.755 1046.13 195.752C1046.18 195.751 1046.22 195.755 1046.27 195.752C1046.31 195.751 1046.36 195.755 1046.4 195.752C1046.44 195.751 1046.49 195.755 1046.53 195.752C1046.58 195.751 1046.62 195.755 1046.67 195.752C1046.71 195.751 1046.76 195.755 1046.8 195.752C1046.85 195.751 1046.89 195.755 1046.94 195.752C1046.98 195.751 1047.03 195.755 1047.07 195.752C1047.11 195.751 1047.16 195.755 1047.2 195.752C1047.25 195.751 1047.29 195.755 1047.34 195.752C1047.38 195.751 1047.43 195.755 1047.47 195.752C1047.52 195.751 1047.56 195.755 1047.61 195.752C1047.65 195.751 1047.7 195.755 1047.74 195.752C1047.79 195.751 1047.83 195.755 1047.88 195.752C1047.92 195.751 1047.97 195.755 1048.01 195.752C1048.05 195.751 1048.1 195.755 1048.14 195.752C1048.19 195.751 1048.23 195.755 1048.28 195.752C1048.32 195.751 1048.37 195.755 1048.41 195.752C1048.46 195.751 1048.5 195.755 1048.55 195.752C1048.59 195.751 1048.64 195.755 1048.68 195.752C1048.73 195.751 1048.77 195.755 1048.82 195.752C1048.86 195.751 1048.91 195.755 1048.95 195.752C1048.99 195.751 1049.04 195.755 1049.08 195.752H1049.15C1048.64 195.719 1048.14 195.646 1047.64 195.536C1042.31 194.351 1040.16 189.969 1040.86 184.628C1042.57 171.494 1044.7 158.35 1046.47 145.222C1047.22 140.229 1049.91 136.845 1055.46 136.402C1056 136.371 1056.55 136.406 1057.08 136.506C1056.55 136.399 1056 136.364 1055.46 136.402L1055.43 136.408ZM863.756 74.5013C863.712 74.5013 863.666 74.4999 863.622 74.5013C863.578 74.5013 863.532 74.4999 863.488 74.5013C863.443 74.5013 863.398 74.4999 863.353 74.5013C862.509 74.5125 861.666 74.5757 860.83 74.6905C873.757 76.3443 881.287 87.2928 878.656 102.209C876.577 114 874.472 129.096 872.366 140.878C871.216 147.319 873.121 151.94 879.312 152.978C879.752 153.051 880.197 153.095 880.643 153.109C880.689 153.111 880.731 153.107 880.777 153.109C880.823 153.111 880.866 153.107 880.911 153.109C880.958 153.111 881 153.107 881.046 153.109C881.092 153.111 881.134 153.107 881.18 153.109C881.226 153.111 881.268 153.107 881.314 153.109C881.36 153.111 881.402 153.107 881.449 153.109C881.494 153.111 881.537 153.107 881.582 153.109C881.629 153.111 881.671 153.107 881.717 153.109C881.763 153.111 881.805 153.107 881.851 153.109C881.897 153.111 881.939 153.107 881.985 153.109C882.031 153.111 882.073 153.107 882.119 153.109C882.165 153.111 882.208 153.107 882.253 153.109C882.3 153.111 882.342 153.107 882.388 153.109C882.434 153.111 882.476 153.107 882.522 153.109C882.568 153.111 882.611 153.107 882.657 153.109C882.702 153.111 882.745 153.107 882.791 153.109C882.837 153.111 882.879 153.107 882.925 153.109C882.971 153.111 883.013 153.107 883.059 153.109C883.105 153.111 883.147 153.107 883.193 153.109C883.24 153.111 883.281 153.107 883.328 153.109C883.374 153.111 883.416 153.107 883.461 153.109C883.508 153.111 883.55 153.107 883.596 153.109C883.642 153.111 883.684 153.107 883.73 153.109C883.776 153.111 883.819 153.107 883.864 153.109C883.91 153.111 883.953 153.107 883.999 153.109C884.044 153.111 884.086 153.107 884.133 153.109C884.179 153.111 884.221 153.107 884.267 153.109C884.313 153.111 884.355 153.107 884.401 153.109C884.447 153.111 884.49 153.107 884.535 153.109C884.582 153.111 884.623 153.107 884.67 153.109C884.716 153.111 884.758 153.107 884.803 153.109C884.85 153.111 884.892 153.107 884.938 153.109C884.984 153.111 885.026 153.107 885.072 153.109C885.118 153.111 885.161 153.107 885.206 153.109C885.253 153.111 885.295 153.107 885.341 153.109C885.386 153.111 885.429 153.107 885.475 153.109C885.521 153.111 885.563 153.107 885.609 153.109C885.655 153.111 885.697 153.107 885.743 153.109C885.789 153.111 885.832 153.107 885.878 153.109C885.924 153.111 885.966 153.107 886.012 153.109C886.185 153.117 886.335 153.088 886.502 153.087C885.937 153.099 885.373 153.062 884.814 152.978C878.624 151.94 876.718 147.319 877.869 140.878C879.975 129.096 882.08 114 884.159 102.209C886.826 87.0871 879.061 76.0234 865.806 74.6083C865.172 74.5397 864.55 74.5137 863.933 74.5013H863.892C863.846 74.5012 863.801 74.4999 863.756 74.5013ZM888.109 152.924C887.877 152.972 887.644 153.018 887.398 153.046C887.645 153.02 887.876 152.97 888.109 152.924ZM934.131 119.321C929.935 151.122 918.797 230.479 917.526 240.034C916.207 249.963 907.314 255.279 897.59 255.776C897.428 255.784 897.233 255.791 897.012 255.796C898.354 255.81 899.62 255.818 900.684 255.816C900.728 255.816 900.775 255.817 900.818 255.816H900.939C901.861 255.813 902.614 255.8 903.091 255.776C912.815 255.279 921.709 249.963 923.027 240.034C924.299 230.479 935.436 151.122 939.632 119.321C940.128 116.368 940.006 113.342 939.273 110.441C938.541 107.539 937.216 104.829 935.384 102.489C933.552 100.148 931.256 98.2303 928.646 96.861C926.036 95.4917 923.172 94.7021 920.242 94.5443H919.364C919.321 94.5443 919.279 94.5457 919.236 94.5457C918.324 94.5479 917.414 94.612 916.511 94.7377H916.505C918.431 95.0082 920.311 95.5495 922.092 96.3462C926.308 98.273 929.778 101.575 931.957 105.733C934.136 109.891 934.9 114.671 934.131 119.321Z" fill="#D7D7D7"/>
<path d="M167.635 335.27C260.218 335.27 335.27 260.218 335.27 167.635C335.27 75.0528 260.218 0 167.635 0C75.0528 0 0 75.0528 0 167.635C0 260.218 75.0528 335.27 167.635 335.27Z" fill="url(#paint1_linear_1_170)"/>
<path opacity="0.25" d="M271.606 110.258C263.274 101.753 252.337 96.4221 240.621 95.1549C228.904 93.8878 217.117 96.7607 207.224 103.295C217.94 115.714 223.625 131.833 223.123 148.377C222.621 164.921 215.97 180.65 204.522 192.369L173.332 224.215L183.799 234.901L188.081 230.528L198.79 241.462L194.508 245.835L203.075 254.583L271.608 184.609C281.264 174.749 286.688 161.376 286.688 147.433C286.687 133.49 281.262 120.117 271.606 110.258Z" fill="black"/>
<path opacity="0.25" d="M195.854 109.18C191.073 104.298 185.397 100.426 179.15 97.7838C172.903 95.1418 166.208 93.782 159.446 93.782C152.685 93.782 145.989 95.1418 139.742 97.7838C133.496 100.426 127.819 104.298 123.038 109.18L54.5051 179.154L63.0729 187.899L67.3557 183.526L78.0648 194.461L73.782 198.833L84.4912 209.768L88.774 205.395L101.624 218.515L97.3415 222.888L108.051 233.823L112.334 229.45L123.043 240.382L118.76 244.755L127.328 253.503L195.861 183.529C205.515 173.668 210.937 160.295 210.936 146.353C210.935 132.41 205.51 119.039 195.854 109.18Z" fill="black"/>
<path d="M265.683 104.213C257.351 95.7076 246.414 90.3769 234.698 89.1098C222.981 87.8426 211.194 90.7156 201.301 97.2494C212.017 109.669 217.702 125.788 217.2 142.332C216.698 158.877 210.047 174.605 198.598 186.324L167.409 218.169L177.875 228.855L182.158 224.483L192.867 235.417L188.584 239.79L197.152 248.537L265.685 178.564C275.341 168.703 280.765 155.331 280.764 141.388C280.764 127.444 275.339 114.072 265.683 104.213Z" fill="#D7D7D7"/>
<path d="M265.683 104.212C257.351 95.7076 246.414 90.3769 234.698 89.1098C222.981 87.8426 211.194 90.7156 201.301 97.2494C212.017 109.669 217.702 125.788 217.2 142.332C216.698 158.877 210.047 174.605 198.598 186.324L167.409 218.169L171.956 222.812L176.238 218.438L192.867 235.417L188.584 239.79L191.23 242.491L259.764 172.517C279.871 151.985 285.791 124.743 265.683 104.212Z" fill="white"/>
<path d="M189.937 103.133C185.156 98.2517 179.48 94.3793 173.233 91.7374C166.986 89.0954 160.291 87.7356 153.529 87.7356C146.768 87.7356 140.072 89.0954 133.825 91.7374C127.579 94.3793 121.902 98.2517 117.121 103.133L48.5879 173.107L57.1536 181.855L61.4365 177.482L72.1455 188.417L67.8626 192.79L78.5719 203.724L82.8545 199.351L95.7051 212.472L91.4222 216.844L102.131 227.778L106.414 223.406L117.124 234.34L112.841 238.713L121.408 247.46L189.941 177.487C199.596 167.626 205.019 154.253 205.019 140.309C205.018 126.366 199.593 112.994 189.937 103.133Z" fill="#D7D7D7"/>
<path d="M189.937 103.133C185.156 98.2517 179.48 94.3793 173.233 91.7374C166.986 89.0954 160.291 87.7356 153.529 87.7356C146.768 87.7356 140.072 89.0954 133.825 91.7374C127.579 94.3793 121.902 98.2517 117.121 103.133L48.5879 173.107L51.2339 175.809L55.5167 171.436L72.1454 188.414L67.8626 192.788L72.6498 197.676L76.9327 193.303L95.703 212.467L91.4202 216.84L96.2075 221.728L100.49 217.355L117.119 234.334L112.836 238.707L115.482 241.408L184.016 171.434C204.125 150.905 210.045 123.664 189.937 103.133Z" fill="white"/>
<defs>
<linearGradient id="paint0_linear_1_170" x1="956.433" y1="43.3856" x2="952.895" y2="274.061" gradientUnits="userSpaceOnUse">
<stop offset="0.15709" stop-color="#FF1DFF"/>
<stop offset="1" stop-color="#672EEB"/>
</linearGradient>
<linearGradient id="paint1_linear_1_170" x1="119.547" y1="16.3891" x2="219.053" y2="329.352" gradientUnits="userSpaceOnUse">
<stop offset="0.15709" stop-color="#FF1DFF"/>
<stop offset="1" stop-color="#672EEB"/>
</linearGradient>
</defs>
</svg>
