<svg width="1141" height="712" viewBox="0 0 1141 712" fill="none" xmlns="http://www.w3.org/2000/svg">
<path d="M1118.66 517.825C1113.39 515.422 1107.64 514.311 1101.87 514.582C1096.1 514.853 1090.47 516.498 1085.44 519.385C1084.72 519.794 1084.02 520.225 1083.33 520.678C1081.13 513.581 1076.93 507.31 1071.24 502.658C1065.55 498.006 1058.63 495.184 1051.37 494.549C1044.67 493.734 1037.87 494.898 1031.8 497.904C1025.72 500.91 1020.62 505.632 1017.09 511.509C1016.1 510.303 1015.31 509.342 1014.91 508.832C1013.52 506.884 1011.76 505.244 1009.74 504.007C1007.71 502.771 1005.47 501.966 1003.13 501.638L999.015 501.005C998.971 500.999 998.928 500.993 998.885 500.986L998.844 500.979C998.386 500.905 997.927 500.851 997.469 500.817L993.8 500.435C991.436 500.156 989.041 500.373 986.762 501.071C984.482 501.769 982.366 502.935 980.542 504.496C978.595 505.958 971.681 510.979 965.544 515.405C963.664 516.762 962.08 518.503 960.895 520.519C959.71 522.535 958.949 524.781 958.661 527.113L957.655 535.25C956.406 533.22 955.069 531.247 953.629 529.351C941.9 513.909 925.569 505.404 907.644 505.404C885.68 505.404 864.2 516.559 849.306 533.455C844.393 524.847 836.368 518.551 826.957 515.919C817.546 513.288 807.499 514.532 798.976 519.383C798.277 519.782 797.594 520.2 796.929 520.637C795.686 516.562 793.772 512.733 791.267 509.316C788.118 505.12 784.148 501.64 779.61 499.098C775.071 496.555 770.064 495.006 764.906 494.55C745.345 492.464 729.338 505.398 724.636 526.425C716.401 519.124 705.879 515.072 694.972 515.002C689.55 514.892 686.416 514.885 683.897 514.88C680.319 514.87 677.734 514.865 670.457 514.581C655.749 513.831 641.253 518.395 629.514 527.473C628.996 526.525 628.39 525.63 627.705 524.8C622.809 518.921 617.286 512.244 615.876 510.476C614.49 508.525 612.732 506.881 610.707 505.643C608.682 504.405 606.433 503.598 604.094 503.272L600.083 502.655C599.907 502.626 599.732 502.598 599.556 502.575C599.198 502.523 598.839 502.484 598.481 502.458L594.845 502.079C592.498 501.804 590.119 502.018 587.854 502.706C585.589 503.394 583.484 504.543 581.665 506.084C579.827 507.467 572.89 512.506 566.742 516.941C563.686 519.154 561.456 522.36 560.414 526.034C554.658 520.668 547.396 517.283 539.654 516.358C531.912 515.432 524.081 517.013 517.266 520.876C516.63 521.238 516.007 521.617 515.397 522.013C514.16 518.029 512.276 514.286 509.824 510.939C506.691 506.764 502.741 503.302 498.225 500.772C493.709 498.243 488.726 496.702 483.595 496.247C464.325 494.197 448.512 506.816 443.674 527.393C435.552 520.43 425.303 516.582 414.698 516.513C409.323 516.405 406.308 516.398 403.715 516.391C400.171 516.381 397.612 516.376 390.405 516.095C375.428 515.32 360.682 520.109 348.895 529.576C345.625 525.597 341.563 522.374 336.98 520.12C332.396 517.867 327.396 516.635 322.31 516.506C314.9 516.229 275.786 515.705 265.081 516.451C259.144 516.864 253.422 518.881 248.501 522.296C243.58 525.711 239.638 530.402 237.078 535.886C223.801 522.751 206.041 515.405 187.554 515.402H179.783C167.568 515.402 155.767 519.921 146.565 528.123C145.554 529.025 144.597 529.979 143.664 530.954C140.235 526.306 135.791 522.539 130.685 519.954C125.579 517.368 119.953 516.035 114.254 516.061C98.6125 515.978 95.8682 515.98 80.3426 516.31C43.5409 514.931 20.8159 540.943 17.3276 567.541C14.0434 589.704 11.2542 608.469 8.34336 628.056L2.71379 665.952L2.60107 666.746C2.55608 667.074 2.47819 667.63 2.39292 668.168C0.844223 670.785 0.0174457 673.781 0.000273092 676.839C-0.0168996 679.897 0.776114 682.903 2.29531 685.538C3.81451 688.173 6.00338 690.34 8.63015 691.809C11.2569 693.278 14.2239 693.995 17.2169 693.883L19.3299 693.909C20.9475 693.924 22.7604 693.939 23.5514 693.939L37.1822 693.932C43.1019 693.928 49.3156 693.907 55.1365 693.924C55.3506 695.867 55.875 697.762 56.6889 699.532C58.2002 702.804 60.621 705.55 63.6497 707.428C66.6784 709.306 70.1813 710.232 73.7221 710.092C73.8006 710.092 73.8798 710.092 73.9591 710.091C74.7883 710.105 77.3205 710.142 78.3975 710.142C82.4995 710.142 84.3903 710.166 86.361 710.194C88.6111 710.223 90.9612 710.254 96.5088 710.254C118.195 710.254 131.98 694.449 134.39 678.837C134.412 678.691 134.433 678.547 134.451 678.399C135.085 673.46 135.704 669.13 136.312 665.084C137.319 666.451 138.358 667.798 139.465 669.099C146.148 676.949 154.404 683.243 163.674 687.555C172.944 691.868 183.013 694.099 193.2 694.096H201.06C208.235 694.143 215.334 692.598 221.866 689.569C228.399 686.539 234.209 682.096 238.894 676.548C238.59 678.582 238.295 680.531 238.011 682.362C237.899 683.089 237.785 683.688 237.686 684.16C236.271 686.154 235.3 688.44 234.84 690.858C234.379 693.275 234.441 695.766 235.021 698.156C235.741 701.129 239.101 710.841 252.074 711.062C252.867 711.074 253.95 711.087 255.12 711.096C257.391 711.114 259.995 711.122 261.339 711.122C264.844 711.122 266.808 711.15 268.349 711.17C269.484 711.185 270.425 711.198 271.459 711.198C273.308 711.198 275.45 711.161 279.513 711.045C302.535 710.397 309.627 695.742 311.355 682.677C312.528 686.006 314.685 688.879 317.528 690.9C320.372 692.921 323.76 693.989 327.224 693.957C327.642 693.963 466.779 694.446 467.042 694.449C469.928 694.382 472.785 693.851 475.508 692.875C475.414 694.579 475.573 696.287 475.98 697.943C476.691 700.83 479.994 710.295 492.709 710.844C493.599 710.881 494.81 710.919 496.1 710.951C498.607 711.014 501.423 711.058 502.683 711.059C503.66 711.06 505.429 711.086 507.45 711.115C511.124 711.167 514.103 711.206 516.361 711.206C517.907 711.206 519.115 711.187 519.979 711.143C533.711 710.442 544.958 703.834 551.005 693.726C551.955 693.751 747.949 694.257 748.213 694.258C751.185 694.189 754.127 693.63 756.924 692.6C756.803 694.372 756.956 696.151 757.376 697.874C758.083 700.769 761.378 710.257 774.128 710.803C775.025 710.841 776.245 710.879 777.545 710.912C780.077 710.975 782.922 711.019 784.188 711.019C785.168 711.022 786.92 711.047 788.925 711.076C792.659 711.129 795.684 711.167 797.977 711.167C799.539 711.167 800.76 711.15 801.632 711.104C815.145 710.415 826.264 704.036 832.429 694.239L832.462 694.24H832.525C843.586 694.198 1034.41 694.257 1034.68 694.258C1037.65 694.189 1040.59 693.63 1043.39 692.6C1043.27 694.375 1043.42 696.158 1043.84 697.884C1044.55 700.777 1047.85 710.257 1060.59 710.803C1061.49 710.841 1062.71 710.879 1064.01 710.912C1066.54 710.975 1069.39 711.019 1070.64 711.019C1071.62 711.022 1073.38 711.047 1075.39 711.075C1079.12 711.129 1082.15 711.167 1084.44 711.167C1086 711.167 1087.22 711.15 1088.1 711.104C1107.16 710.131 1121.52 697.867 1123.82 680.588C1124.24 677.356 1125.8 666.18 1127.83 651.551C1131.78 623.106 1137.75 580.117 1140.57 558.765C1141.81 550.433 1140.34 541.915 1136.39 534.519C1132.43 527.123 1126.2 521.258 1118.66 517.825Z" fill="url(#paint0_linear_1_155)"/>
<path opacity="0.25" d="M580.452 672.702C574.467 672.404 569.72 672.538 566.296 672.538C562.75 672.538 556.741 672.381 556.741 672.381C558.316 669.127 559.303 665.61 559.654 661.998C559.981 659.54 560.139 658.434 560.749 654.374C563.774 634.257 567.057 610.717 569.875 590.568C571.881 576.209 583.37 568.244 594.236 570.066C606.284 572.087 614.813 581.848 612.998 595.96C610.099 618.49 607.087 633.328 604.24 655.864C602.781 664.506 594.078 672.182 586.874 672.553C583.107 672.747 584.692 672.702 580.452 672.702ZM607.933 515.974C607.853 515.69 607.23 515.61 607.23 515.61L603.056 514.969L603.057 514.962L602.915 514.947L602.773 514.926V514.933L598.573 514.494C598.573 514.494 597.951 514.414 597.805 514.668C597.658 514.923 581.816 526.352 581.816 526.352L579.537 544.785L592.392 560.296L597.088 560.902L597.371 560.938L602.068 561.544L618.296 549.782L620.576 531.348C620.576 531.348 608.012 516.258 607.933 515.974ZM384.03 672.62C397.918 672.619 402.731 672.438 416.615 672.711C421.148 672.427 425.461 670.614 428.876 667.557C432.291 664.5 434.614 660.371 435.483 655.82C436.788 649.472 437.642 643.036 438.035 636.562C438.611 626.032 432.369 616.674 423.745 614.189C413.808 611.325 403.998 614.803 398.761 625.374C397.982 627.203 396.591 628.688 394.838 629.566C393.084 630.444 391.082 630.657 389.189 630.167C383.908 628.994 381.779 624.652 382.47 619.361C384.171 606.346 386.279 593.322 388.038 580.316C388.781 575.367 391.442 572.014 396.943 571.578C402.258 571.154 406.296 577.075 405.467 580.88C404.559 585.056 406.06 587.646 409.436 587.646C425.727 587.646 435.942 589.619 444.225 577.92C455.546 554.522 443.807 529.506 419.874 529.023C407.138 528.766 408.013 529.092 395.278 528.595C373.394 527.743 353.683 541.217 349.339 565.096C342.856 600.742 341.318 627.185 335.449 662.95C334.993 665.728 334.375 671.95 332.46 672.576C332.196 672.663 338.86 672.594 341.377 672.594C355.322 672.594 370.141 672.622 384.03 672.62ZM327.211 529.008C318.953 528.701 281.303 528.258 271.712 528.925C261.266 529.652 255.658 538.677 254.683 548.947C253.854 555.068 251.208 563.263 256.186 565.524C259.113 566.354 262.099 566.829 263.502 567.267C272.28 570.006 275.566 573.788 273.093 587.102C269.488 611.713 263.701 656.014 259.893 680.592C259.402 683.762 258.361 688.731 256.623 689.67C256.496 689.739 264.186 689.774 266.843 689.774C276.775 689.774 274.713 689.984 284.56 689.704C291.388 689.512 299.324 688.658 300.604 674.529C304.113 647.227 311.056 608.922 314.612 581.625C315.16 573.551 322.282 566.363 331.275 565.94C336.559 565.691 345.906 558.886 345.906 548.429C345.906 537.549 338.347 529.423 327.211 529.008ZM79.4567 688.742C79.4567 688.742 82.6764 688.794 83.9022 688.794C92.6988 688.794 91.5937 688.907 102.014 688.907C111.515 688.907 121.829 682.707 123.515 671.785C125.993 652.467 128.192 642.515 130.444 623.17C134.135 598.449 121.945 590.579 101.994 590.173C94.9859 590.031 84.9463 593.173 84.0229 601.85C83.2249 609.342 87.0287 612.029 90.2565 614.714C92.0737 616.212 93.4103 618.23 94.094 620.51C94.7776 622.79 94.7771 625.226 94.0925 627.506C93.3505 630.108 91.6994 632.343 89.4519 633.785C87.2044 635.228 84.5167 635.779 81.898 635.334C75.1999 634.343 70.6279 628.025 72.9943 618.034C74.0914 609.773 75.339 601.284 76.4199 593.932C78.4334 577.043 89.0583 569.48 106.002 570.85C109.104 571.102 116.773 571.244 120.281 571.149C134.138 570.77 140.42 557.142 140.236 549.784C139.948 538.328 131.94 528.642 119.672 528.575C104.065 528.49 101.56 528.49 85.6903 528.831C58.9623 527.637 41.7567 545.888 39.2499 565.501C33.942 601.321 29.9313 628.246 24.6142 664.063C24.337 665.938 23.7323 671.46 22.0844 672.517C22.0522 672.537 27.5326 672.592 29.0561 672.592C41.8049 672.592 60.6055 672.554 72.8909 672.592C74.0427 672.611 75.1779 672.875 76.2241 673.367C77.2702 673.86 78.2041 674.569 78.966 675.452C79.728 676.334 80.3013 677.368 80.6491 678.49C80.997 679.611 81.1118 680.794 80.9861 681.963C80.8348 684.292 80.3184 686.581 79.4567 688.742ZM508.203 689.712C511.307 689.714 522.038 689.95 524.656 689.816C534.379 689.32 543.272 684.004 544.591 674.077C545.861 664.522 556.998 585.174 561.193 553.376C561.962 548.726 561.198 543.947 559.019 539.79C556.84 535.632 553.371 532.331 549.156 530.404C535.777 524.399 522.305 534.091 520.731 545.623C519.199 556.852 518.217 567.51 516.286 578.522C515.407 583.542 512.584 588.07 506.38 587.03C500.19 585.992 498.285 581.371 499.436 574.93C501.541 563.15 503.646 548.056 505.725 536.265C508.391 521.145 500.627 510.083 487.374 508.668C475.578 507.407 466.612 515.829 464.61 530.531C459.809 565.797 453.202 604.134 448.604 639.426C447.354 647.58 446.247 656.619 445.095 664.198C444.635 667.225 443.459 671.034 441.671 672.755C442.131 672.808 445.402 672.912 452.354 672.891C461.091 672.867 471.456 673.12 472.215 673.105C479.159 672.963 486.519 664.739 487.63 657.789C489.9 643.598 490.131 638.221 492.862 623.804C493.324 617.281 497.398 612.46 503.51 613.972C509.474 615.449 510.916 620.306 509.991 626.451C507.966 640.21 505.236 657.544 503.273 671.312C502.681 675.465 500.64 687.729 497.574 689.399C497.322 689.536 505.801 689.71 508.203 689.712ZM193.059 527.916C200.884 527.916 208.619 529.631 215.739 532.947C222.859 536.262 229.199 541.099 234.33 547.132C239.461 553.165 243.264 560.253 245.48 567.916C247.697 575.579 248.276 583.639 247.179 591.55L240.026 643.085C238.883 651.315 234.87 658.848 228.722 664.299C222.575 669.749 214.707 672.75 206.565 672.75H198.704C190.89 672.75 183.167 671.039 176.056 667.731C168.945 664.423 162.612 659.596 157.485 653.575C152.357 647.554 148.555 640.48 146.334 632.831C144.113 625.181 143.526 617.134 144.612 609.233L151.682 557.751C152.819 549.477 156.846 541.901 163.022 536.418C169.197 530.936 177.104 527.916 185.288 527.916H193.059ZM208.491 590.217C208.804 585.935 204.909 581.311 200.228 580.449C198.519 580.021 196.741 579.958 195.007 580.266C193.272 580.573 191.619 581.244 190.152 582.236C186.557 584.629 184.544 591.387 184.177 596.544L183.299 608.879C182.758 617.401 188.73 622.306 195.795 623.632C201.597 624.722 206.202 621.582 206.589 616.27L208.491 590.217ZM957.581 581.486L948.529 646.971L944.974 672.697L898.266 672.623C899.461 670.91 900.286 668.958 900.687 666.896C901.636 662.904 903.06 653.369 903.06 653.369C903.063 653.339 903.067 653.31 903.071 653.28L905.6 634.895C906.211 630.449 903.391 627.407 899.002 627.146C894.225 626.861 889.193 628.798 887.422 637.423L885.705 649.902L885.699 649.944L882.569 672.697C882.569 672.697 849.025 672.849 837.967 672.893L851.885 572.255C855.855 543.557 884.762 517.916 913.149 517.916C924.476 517.916 936.626 522.927 946.029 535.308C950.88 541.826 954.402 549.271 956.386 557.202C958.37 565.134 958.776 573.391 957.581 581.486ZM908.455 563.419C905.421 563.31 902.463 564.396 900.191 566.452C896.805 569.414 895.179 575.393 894.566 579.902L893.099 590.685C892.764 593.154 893.403 595.659 894.876 597.648C896.348 599.637 898.534 600.948 900.952 601.293C903.371 601.638 905.825 600.989 907.775 599.488C909.725 597.987 911.012 595.757 911.353 593.288L914.49 570.508C914.611 569.627 914.545 568.729 914.298 567.875C914.05 567.021 913.626 566.232 913.054 565.56C912.482 564.888 911.775 564.349 910.982 563.98C910.189 563.611 909.327 563.419 908.455 563.419ZM979.24 672.508C983.52 672.508 981.919 672.553 985.721 672.357C992.99 671.983 1001.77 664.236 1003.25 655.514C1006.12 632.773 1009.16 617.799 1012.08 595.063C1013.92 580.822 1005.31 570.97 993.151 568.931C982.186 567.093 970.592 575.13 968.566 589.62C965.724 609.955 962.41 633.71 959.357 654.012C958.741 658.109 958.582 659.224 958.251 661.705C957.898 665.35 956.902 668.9 955.312 672.184C955.312 672.184 961.376 672.341 964.955 672.341C968.41 672.341 973.202 672.207 979.24 672.508ZM1019.73 529.859C1019.73 529.859 1007.05 514.631 1006.97 514.344C1006.89 514.058 1006.26 513.977 1006.26 513.977L1002.05 513.33V513.323L1001.91 513.309L1001.77 513.286L1001.77 513.293L997.528 512.851C997.528 512.851 996.899 512.77 996.752 513.027C996.604 513.284 980.617 524.817 980.617 524.817L978.317 543.42L991.29 559.072L996.029 559.684L996.315 559.72L1001.05 560.331L1017.43 548.461L1019.73 529.859ZM663.978 672.425C677.994 672.424 682.851 672.241 696.862 672.517C701.437 672.23 705.789 670.401 709.234 667.315C712.68 664.23 715.025 660.064 715.901 655.471C717.22 649.065 718.081 642.57 718.478 636.036C719.06 625.41 712.76 615.967 704.056 613.459C694.029 610.569 684.13 614.078 678.844 624.745C678.057 626.591 676.654 628.09 674.885 628.976C673.115 629.862 671.095 630.077 669.185 629.583C663.855 628.398 661.707 624.018 662.405 618.677C664.122 605.544 666.248 592.4 668.023 579.275C668.773 574.282 671.458 570.899 677.009 570.456C682.373 570.03 686.448 576.005 685.612 579.845C684.695 584.059 686.211 586.672 689.617 586.672C706.057 586.672 716.366 588.663 724.725 576.857C736.148 553.245 724.302 528.001 700.15 527.512C687.297 527.253 688.181 527.582 675.328 527.082C653.245 526.221 633.353 539.818 628.969 563.915C622.427 599.888 620.876 626.574 614.952 662.666C614.493 665.47 613.869 671.749 611.935 672.381C611.669 672.467 618.395 672.398 620.935 672.398C635.006 672.398 649.962 672.426 663.978 672.425ZM789.703 689.673C792.836 689.677 803.665 689.914 806.307 689.779C816.118 689.277 825.093 683.912 826.424 673.895C827.706 664.254 838.945 584.177 843.178 552.089C843.955 547.397 843.184 542.574 840.985 538.378C838.786 534.182 835.285 530.85 831.031 528.906C817.529 522.847 803.935 532.626 802.346 544.265C800.799 555.597 799.809 566.352 797.861 577.465C796.974 582.53 794.124 587.1 787.863 586.051C781.618 585.004 779.694 580.34 780.856 573.84C782.981 561.951 785.103 546.72 787.202 534.821C789.892 519.564 782.058 508.4 768.683 506.971C756.779 505.698 747.732 514.197 745.711 529.035C740.865 564.623 734.199 603.311 729.559 638.927C728.298 647.156 727.179 656.277 726.016 663.926C725.553 666.98 724.366 670.824 722.562 672.561C723.025 672.614 726.327 672.72 733.343 672.699C742.16 672.673 752.62 672.929 753.385 672.913C760.393 672.77 767.821 664.471 768.943 657.458C771.232 643.137 771.465 637.711 774.222 623.162C774.689 616.58 778.8 611.713 784.966 613.241C790.986 614.731 792.442 619.632 791.507 625.834C789.464 639.718 786.71 657.212 784.728 671.104C784.132 675.296 782.071 687.673 778.977 689.357C778.723 689.496 787.28 689.671 789.703 689.673ZM1117.49 528.906C1103.99 522.847 1090.4 532.627 1088.81 544.265C1087.26 555.597 1086.27 566.352 1084.33 577.465C1084.25 578.012 1083.99 578.514 1083.58 578.876C1083.17 579.238 1082.65 579.434 1082.11 579.429C1081.57 579.423 1081.05 579.216 1080.65 578.846C1080.25 578.476 1079.99 577.969 1079.93 577.421C1077.73 557.15 1074.4 526.987 1073.68 523.768C1072.83 519.275 1070.56 515.192 1067.21 512.155C1063.86 509.117 1059.62 507.295 1055.15 506.971C1043.24 505.698 1034.2 514.197 1032.18 529.035C1027.33 564.623 1020.66 603.311 1016.02 638.927C1014.76 647.156 1013.64 656.277 1012.48 663.926C1012.02 666.98 1010.83 670.824 1009.03 672.561C1009.49 672.614 1012.79 672.72 1019.81 672.699C1028.62 672.673 1039.08 672.929 1039.85 672.914C1046.86 672.77 1054.29 664.471 1055.41 657.458C1057.7 643.137 1057.93 637.711 1060.69 623.162L1061.48 617.275C1061.55 616.736 1061.81 616.242 1062.21 615.883C1062.62 615.525 1063.13 615.327 1063.66 615.325C1064.2 615.324 1064.71 615.519 1065.12 615.875C1065.52 616.231 1065.79 616.724 1065.86 617.263C1067.41 628.124 1068.74 637.427 1069.38 641.887C1071.52 656.835 1072.6 663.653 1070.54 675.147V675.149C1069.57 680.502 1067.81 688.066 1065.44 689.357C1065.19 689.496 1073.74 689.671 1076.17 689.673C1079.3 689.677 1090.13 689.914 1092.77 689.779C1102.58 689.278 1111.56 683.912 1112.89 673.895C1114.17 664.254 1125.41 584.177 1129.64 552.089C1130.42 547.397 1129.65 542.574 1127.45 538.378C1125.25 534.182 1121.75 530.85 1117.49 528.906Z" fill="black"/>
<path d="M574.952 672.702C568.968 672.404 564.22 672.538 560.796 672.538C557.25 672.538 551.241 672.38 551.241 672.38C552.816 669.127 553.803 665.61 554.154 661.998C554.481 659.54 554.639 658.434 555.249 654.374C558.274 634.256 561.558 610.717 564.375 590.567C566.382 576.209 577.87 568.244 588.736 570.066C600.784 572.087 609.314 581.848 607.498 595.96C604.599 618.49 601.588 633.328 598.74 655.864C597.281 664.506 588.578 672.182 581.374 672.553C577.607 672.747 579.193 672.702 574.952 672.702ZM602.433 515.974C602.354 515.69 601.73 515.61 601.73 515.61L597.556 514.969L597.557 514.962L597.415 514.947L597.273 514.926V514.933L593.073 514.493C593.073 514.493 592.451 514.414 592.305 514.668C592.158 514.923 576.316 526.352 576.316 526.352L574.037 544.785L586.892 560.296L591.589 560.902L591.871 560.938L596.569 561.544L612.796 549.782L615.076 531.348C615.076 531.348 602.512 516.258 602.433 515.974ZM378.53 672.62C392.418 672.619 397.232 672.438 411.115 672.711C415.648 672.427 419.961 670.614 423.376 667.557C426.791 664.5 429.115 660.371 429.983 655.82C431.289 649.472 432.142 643.036 432.535 636.562C433.111 626.032 426.869 616.674 418.245 614.189C408.308 611.325 398.498 614.803 393.261 625.374C392.482 627.202 391.091 628.688 389.338 629.566C387.584 630.444 385.582 630.657 383.689 630.167C378.408 628.994 376.28 624.652 376.97 619.361C378.671 606.346 380.779 593.322 382.538 580.316C383.281 575.367 385.942 572.014 391.443 571.578C396.758 571.154 400.796 577.074 399.967 580.88C399.059 585.056 400.56 587.646 403.937 587.646C420.227 587.646 430.443 589.619 438.725 577.92C450.046 554.522 438.307 529.506 414.374 529.023C401.638 528.766 402.513 529.092 389.778 528.595C367.895 527.743 348.183 541.216 343.839 565.096C337.356 600.742 335.818 627.184 329.949 662.95C329.493 665.727 328.876 671.95 326.96 672.576C326.696 672.663 333.36 672.593 335.877 672.593C349.822 672.593 364.642 672.622 378.53 672.62ZM321.711 529.008C313.453 528.701 275.803 528.258 266.212 528.925C255.767 529.652 250.158 538.677 249.183 548.947C248.354 555.068 245.708 563.263 250.686 565.524C253.613 566.354 256.599 566.829 258.002 567.267C266.78 570.006 270.066 573.788 267.593 587.102C263.988 611.712 258.201 656.014 254.393 680.592C253.902 683.762 252.861 688.731 251.123 689.67C250.996 689.739 258.686 689.774 261.343 689.774C271.275 689.774 269.213 689.983 279.06 689.704C285.888 689.511 293.824 688.658 295.104 674.529C298.614 647.227 305.557 608.922 309.112 581.625C309.66 573.551 316.782 566.363 325.775 565.94C331.059 565.691 340.406 558.886 340.406 548.428C340.406 537.549 332.847 529.423 321.711 529.008ZM73.9568 688.742C73.9568 688.742 77.1765 688.794 78.4022 688.794C87.1989 688.794 86.0939 688.907 96.5141 688.907C106.016 688.907 116.329 682.707 118.015 671.785C120.493 652.467 122.692 642.515 124.944 623.17C128.635 598.449 116.445 590.579 96.4945 590.173C89.4859 590.031 79.4464 593.173 78.523 601.85C77.725 609.342 81.5288 612.029 84.7565 614.714C86.5738 616.212 87.9103 618.23 88.594 620.51C89.2777 622.79 89.2772 625.226 88.5926 627.506C87.8506 630.108 86.1995 632.343 83.952 633.785C81.7045 635.228 79.0168 635.779 76.398 635.334C69.6999 634.343 65.128 628.025 67.4944 618.034C68.5914 609.773 69.839 601.284 70.9199 593.932C72.9335 577.043 83.5584 569.48 100.502 570.85C103.604 571.101 111.273 571.244 114.781 571.148C128.638 570.77 134.92 557.142 134.736 549.784C134.448 538.328 126.44 528.642 114.172 528.575C98.5655 528.49 96.06 528.49 80.1904 528.831C53.4624 527.637 36.2567 545.887 33.75 565.501C28.4421 601.32 24.4314 628.246 19.1143 664.063C18.8371 665.938 18.2323 671.46 16.5845 672.517C16.5523 672.537 22.0327 672.592 23.5562 672.592C36.3051 672.592 55.1056 672.554 67.391 672.592C68.5428 672.61 69.6781 672.875 70.7242 673.367C71.7703 673.859 72.7042 674.569 73.4662 675.451C74.2282 676.334 74.8014 677.368 75.1492 678.49C75.497 679.611 75.6118 680.794 75.4862 681.963C75.3349 684.292 74.8184 686.581 73.9568 688.742ZM502.703 689.712C505.807 689.714 516.538 689.95 519.156 689.816C528.879 689.32 537.772 684.003 539.091 674.077C540.361 664.522 551.498 585.174 555.693 553.376C556.462 548.726 555.698 543.947 553.519 539.79C551.341 535.632 547.871 532.33 543.656 530.404C530.277 524.399 516.805 534.09 515.231 545.623C513.699 556.852 512.717 567.51 510.786 578.521C509.907 583.542 507.084 588.07 500.88 587.03C494.69 585.992 492.785 581.371 493.936 574.93C496.041 563.15 498.146 548.056 500.225 536.265C502.891 521.145 495.127 510.083 481.874 508.667C470.078 507.407 461.112 515.829 459.111 530.531C454.309 565.797 447.703 604.134 443.104 639.426C441.854 647.58 440.747 656.619 439.595 664.198C439.135 667.225 437.96 671.034 436.172 672.755C436.631 672.808 439.902 672.912 446.854 672.891C455.591 672.866 465.956 673.12 466.715 673.105C473.659 672.963 481.019 664.738 482.13 657.789C484.4 643.598 484.631 638.221 487.362 623.804C487.824 617.281 491.898 612.46 498.01 613.972C503.975 615.449 505.416 620.306 504.491 626.451C502.466 640.21 499.736 657.544 497.773 671.312C497.181 675.465 495.14 687.729 492.074 689.398C491.822 689.536 500.302 689.709 502.703 689.712ZM187.559 527.916C195.384 527.916 203.119 529.631 210.239 532.946C217.359 536.262 223.699 541.099 228.83 547.132C233.961 553.165 237.764 560.253 239.98 567.916C242.197 575.579 242.776 583.638 241.679 591.55L234.526 643.085C233.384 651.315 229.37 658.848 223.222 664.298C217.075 669.749 209.207 672.75 201.065 672.75H193.204C185.39 672.75 177.667 671.039 170.556 667.731C163.445 664.423 157.112 659.596 151.985 653.575C146.857 647.554 143.055 640.48 140.834 632.831C138.613 625.181 138.026 617.134 139.112 609.233L146.182 557.751C147.319 549.477 151.346 541.901 157.522 536.418C163.697 530.936 171.604 527.916 179.788 527.916H187.559ZM202.991 590.217C203.304 585.935 199.409 581.311 194.728 580.449C193.019 580.02 191.241 579.958 189.507 580.266C187.772 580.573 186.119 581.244 184.652 582.236C181.057 584.629 179.044 591.386 178.677 596.544L177.799 608.879C177.258 617.401 183.23 622.306 190.295 623.632C196.097 624.721 200.702 621.582 201.089 616.269L202.991 590.217ZM952.081 581.486L943.029 646.971L939.474 672.697L892.766 672.623C893.961 670.91 894.786 668.958 895.187 666.896C896.136 662.904 897.56 653.368 897.56 653.368C897.564 653.339 897.567 653.31 897.572 653.28L900.1 634.895C900.711 630.449 897.891 627.407 893.502 627.146C888.725 626.861 883.693 628.798 881.922 637.422L880.205 649.901L880.199 649.944L877.069 672.697C877.069 672.697 843.525 672.849 832.467 672.893L846.385 572.255C850.356 543.557 879.262 517.916 907.649 517.916C918.976 517.916 931.126 522.927 940.529 535.308C945.38 541.826 948.902 549.271 950.886 557.202C952.87 565.134 953.276 573.391 952.081 581.486ZM902.955 563.419C899.921 563.31 896.963 564.396 894.691 566.452C891.306 569.414 889.68 575.393 889.067 579.902L887.599 590.684C887.264 593.154 887.903 595.659 889.376 597.648C890.849 599.637 893.034 600.948 895.452 601.293C897.871 601.638 900.325 600.989 902.275 599.488C904.225 597.987 905.512 595.757 905.853 593.288L908.99 570.508C909.111 569.627 909.046 568.728 908.798 567.875C908.55 567.021 908.126 566.232 907.554 565.56C906.982 564.888 906.275 564.349 905.482 563.98C904.689 563.611 903.827 563.419 902.955 563.419ZM973.74 672.508C978.02 672.508 976.419 672.553 980.221 672.357C987.49 671.983 996.274 664.236 997.747 655.514C1000.62 632.773 1003.66 617.799 1006.58 595.063C1008.42 580.822 999.809 570.97 987.652 568.931C976.686 567.092 965.092 575.13 963.066 589.62C960.224 609.955 956.91 633.71 953.858 654.011C953.241 658.109 953.082 659.224 952.751 661.705C952.398 665.35 951.402 668.9 949.812 672.183C949.812 672.183 955.877 672.341 959.455 672.341C962.911 672.341 967.702 672.207 973.74 672.508ZM1014.23 529.859C1014.23 529.859 1001.55 514.631 1001.47 514.344C1001.39 514.058 1000.76 513.977 1000.76 513.977L996.552 513.33V513.323L996.41 513.309L996.267 513.286L996.266 513.293L992.028 512.851C992.028 512.851 991.399 512.77 991.252 513.027C991.104 513.284 975.117 524.817 975.117 524.817L972.817 543.42L985.79 559.072L990.529 559.684L990.815 559.72L995.554 560.331L1011.93 548.461L1014.23 529.859ZM658.478 672.425C672.494 672.424 677.351 672.241 691.362 672.517C695.937 672.23 700.289 670.401 703.735 667.315C707.181 664.23 709.525 660.064 710.401 655.471C711.72 649.065 712.582 642.57 712.978 636.036C713.56 625.41 707.26 615.967 698.556 613.459C688.529 610.569 678.63 614.078 673.344 624.745C672.558 626.591 671.154 628.09 669.385 628.976C667.615 629.862 665.595 630.077 663.685 629.583C658.355 628.398 656.207 624.018 656.905 618.677C658.622 605.544 660.748 592.4 662.523 579.275C663.273 574.282 665.958 570.899 671.51 570.456C676.873 570.03 680.948 576.005 680.112 579.845C679.195 584.059 680.711 586.672 684.117 586.672C700.557 586.672 710.866 588.663 719.225 576.857C730.648 553.245 718.802 528.001 694.65 527.512C681.798 527.253 682.681 527.582 669.829 527.082C647.745 526.221 627.853 539.818 623.47 563.915C616.927 599.888 615.376 626.574 609.453 662.666C608.993 665.47 608.37 671.749 606.435 672.381C606.17 672.467 612.895 672.398 615.436 672.398C629.507 672.398 644.462 672.426 658.478 672.425ZM784.203 689.673C787.336 689.677 798.165 689.914 800.807 689.779C810.618 689.278 819.593 683.912 820.925 673.895C822.207 664.254 833.446 584.177 837.678 552.089C838.455 547.397 837.684 542.574 835.485 538.378C833.286 534.182 829.785 530.85 825.531 528.906C812.029 522.847 798.435 532.626 796.846 544.265C795.299 555.597 794.309 566.352 792.361 577.465C791.474 582.53 788.624 587.1 782.363 586.051C776.118 585.004 774.194 580.34 775.356 573.84C777.481 561.951 779.603 546.72 781.702 534.821C784.393 519.564 776.558 508.4 763.183 506.971C751.279 505.698 742.232 514.197 740.212 529.035C735.365 564.623 728.699 603.311 724.059 638.927C722.798 647.156 721.679 656.277 720.516 663.926C720.053 666.98 718.866 670.824 717.062 672.561C717.526 672.614 720.827 672.72 727.843 672.699C736.66 672.673 747.12 672.929 747.885 672.913C754.893 672.77 762.322 664.471 763.443 657.458C765.732 643.137 765.966 637.711 768.722 623.162C769.189 616.58 773.3 611.713 779.466 613.241C785.486 614.731 786.942 619.632 786.007 625.834C783.964 639.718 781.21 657.212 779.228 671.104C778.632 675.296 776.571 687.673 773.477 689.357C773.223 689.496 781.78 689.671 784.203 689.673ZM1111.99 528.906C1098.49 522.847 1084.9 532.627 1083.31 544.265C1081.76 555.597 1080.77 566.352 1078.83 577.465C1078.75 578.012 1078.49 578.514 1078.08 578.876C1077.67 579.238 1077.15 579.434 1076.61 579.429C1076.07 579.423 1075.55 579.216 1075.15 578.846C1074.75 578.476 1074.49 577.969 1074.43 577.421C1072.23 557.15 1068.9 526.987 1068.18 523.768C1067.33 519.275 1065.06 515.192 1061.71 512.155C1058.36 509.117 1054.12 507.295 1049.65 506.971C1037.74 505.698 1028.7 514.197 1026.68 529.035C1021.83 564.623 1015.16 603.311 1010.52 638.927C1009.26 647.156 1008.14 656.277 1006.98 663.926C1006.52 666.98 1005.33 670.824 1003.53 672.561C1003.99 672.614 1007.29 672.72 1014.31 672.699C1023.12 672.673 1033.58 672.929 1034.35 672.913C1041.36 672.77 1048.79 664.471 1049.91 657.458C1052.2 643.137 1052.43 637.711 1055.19 623.162L1055.98 617.275C1056.05 616.736 1056.31 616.242 1056.71 615.883C1057.12 615.525 1057.63 615.327 1058.16 615.325C1058.7 615.324 1059.21 615.519 1059.62 615.875C1060.02 616.231 1060.29 616.724 1060.36 617.263C1061.91 628.124 1063.24 637.427 1063.88 641.887C1066.02 656.835 1067.1 663.653 1065.04 675.147V675.149C1064.07 680.502 1062.31 688.066 1059.94 689.357C1059.69 689.496 1068.24 689.671 1070.67 689.673C1073.8 689.677 1084.63 689.914 1087.27 689.779C1097.08 689.278 1106.06 683.912 1107.39 673.895C1108.67 664.254 1119.91 584.177 1124.14 552.089C1124.92 547.397 1124.15 542.574 1121.95 538.378C1119.75 534.182 1116.25 530.85 1111.99 528.906Z" fill="white"/>
<path d="M905.196 518.053C905.443 518.04 905.691 518.02 905.938 518.012C906.508 517.97 907.078 517.917 907.649 517.917C907.679 517.917 907.709 517.92 907.739 517.92H907.743C919.044 517.947 931.152 522.962 940.53 535.307C945.381 541.826 948.902 549.271 950.886 557.203C952.87 565.135 953.277 573.392 952.082 581.487L943.03 646.972L939.475 672.698L937.332 672.694L933.975 672.688L937.529 646.972L946.581 581.487C947.776 573.392 947.37 565.135 945.386 557.203C943.402 549.271 939.88 541.826 935.03 535.307C926.464 524.031 915.621 518.884 905.196 518.053ZM893.368 627.147C893.325 627.144 893.281 627.149 893.237 627.147H893.234C893.191 627.144 893.147 627.149 893.103 627.147H893.1C893.057 627.144 893.013 627.149 892.968 627.147H892.966C892.923 627.144 892.878 627.149 892.835 627.147H892.832C892.788 627.144 892.744 627.149 892.7 627.147H892.698C892.654 627.144 892.61 627.149 892.566 627.147H892.563C892.52 627.144 892.476 627.149 892.432 627.147H892.43C892.386 627.144 892.342 627.149 892.298 627.147H892.296C892.252 627.144 892.208 627.149 892.164 627.147H892.161C892.117 627.144 892.073 627.149 892.03 627.147H892.027C891.983 627.144 891.939 627.149 891.895 627.147H891.893C891.849 627.144 891.805 627.149 891.761 627.147H891.758C891.715 627.144 891.671 627.149 891.627 627.147H891.625C891.581 627.144 891.537 627.149 891.493 627.147H891.49C891.447 627.144 891.402 627.149 891.359 627.147H891.356C891.312 627.144 891.268 627.149 891.224 627.147H891.222C891.178 627.144 891.134 627.149 891.09 627.147H891.088C891.044 627.144 891 627.149 890.957 627.147H890.954C890.91 627.144 890.866 627.149 890.822 627.147H890.82C890.776 627.144 890.732 627.149 890.688 627.147H890.685C890.642 627.144 890.597 627.149 890.554 627.147H890.551C890.507 627.144 890.464 627.149 890.419 627.147H890.417C890.374 627.144 890.329 627.149 890.285 627.147H890.283C890.239 627.144 890.195 627.149 890.152 627.147H890.149C890.105 627.144 890.061 627.149 890.017 627.147H890.015C889.971 627.144 889.927 627.149 889.883 627.147H889.88C889.837 627.144 889.792 627.149 889.749 627.147H889.747C889.702 627.144 889.659 627.149 889.615 627.147H889.612C889.568 627.144 889.524 627.149 889.481 627.147H889.478C889.434 627.144 889.39 627.149 889.346 627.147H889.344C889.3 627.144 889.256 627.149 889.212 627.147H889.21C889.166 627.144 889.122 627.149 889.078 627.147H889.075C889.032 627.144 888.988 627.149 888.944 627.147H888.942C888.898 627.144 888.854 627.149 888.809 627.147H888.807C888.764 627.144 888.719 627.149 888.676 627.147H888.673C888.629 627.144 888.585 627.149 888.541 627.147H888.539C888.495 627.144 888.451 627.149 888.407 627.147H888.405C888.361 627.144 888.316 627.149 888.273 627.147H888.271C888.226 627.144 888.183 627.149 888.139 627.147H888.136C888.093 627.144 888.048 627.149 888.005 627.147H888.002C883.225 626.861 878.193 628.799 876.422 637.423L874.706 649.902L874.699 649.945L871.569 672.698H877.069L880.2 649.945L880.206 649.902L881.923 637.423C883.694 628.799 888.726 626.861 893.503 627.147C893.459 627.144 893.415 627.149 893.371 627.147H893.368ZM903.015 563.427C903.367 563.435 903.718 563.474 904.064 563.545C903.719 563.471 903.367 563.431 903.015 563.427ZM800.808 689.78C810.618 689.278 819.594 683.913 820.925 673.895C822.207 664.254 833.446 584.177 837.679 552.089C838.179 549.11 838.056 546.057 837.317 543.13C836.579 540.203 835.242 537.468 833.394 535.107C831.546 532.745 829.23 530.81 826.597 529.428C823.964 528.046 821.075 527.249 818.119 527.089H817.193L817.128 527.09C816.204 527.09 815.281 527.154 814.365 527.281C817.154 527.661 819.839 528.612 822.259 530.078C824.679 531.543 826.784 533.493 828.447 535.81C830.111 538.127 831.299 540.764 831.941 543.561C832.582 546.358 832.663 549.259 832.178 552.089C827.946 584.177 816.707 664.254 815.425 673.895C814.093 683.913 805.118 689.278 795.308 689.78C795.136 689.788 794.928 689.795 794.693 689.801C795.35 689.807 795.986 689.813 796.593 689.816C796.648 689.816 796.699 689.817 796.753 689.817C797.196 689.82 797.605 689.82 798.004 689.82C799.221 689.82 800.223 689.809 800.808 689.78ZM777.054 612.967H771.821C766.86 612.926 763.633 617.378 763.222 623.162C760.466 637.711 760.232 643.137 757.943 657.459C756.865 664.201 749.957 672.111 743.196 672.841C744.644 672.865 745.837 672.886 746.663 672.9C746.889 672.904 747.107 672.906 747.274 672.909C747.335 672.911 747.385 672.911 747.438 672.912C747.651 672.913 747.818 672.915 747.885 672.913H747.891C754.899 672.765 762.323 664.47 763.444 657.459C765.733 643.137 765.967 637.711 768.723 623.162C769.129 617.429 772.303 613.006 777.19 612.967H777.054ZM691.41 672.516H691.412C695.977 672.218 700.317 670.383 703.753 667.299C707.189 664.215 709.528 660.056 710.402 655.471C711.721 649.065 712.582 642.57 712.979 636.037C713.561 625.411 707.26 615.968 698.557 613.46C696.269 612.791 693.898 612.47 691.519 612.507C690.747 612.518 689.977 612.572 689.211 612.669C690.51 612.831 691.796 613.096 693.056 613.46C701.759 615.968 708.06 625.411 707.478 636.037C707.081 642.57 706.22 649.065 704.902 655.471C704.057 659.831 701.897 663.812 698.725 666.856C695.553 669.901 691.528 671.855 687.213 672.446C687.847 672.455 688.493 672.465 689.168 672.477C689.873 672.49 690.602 672.502 691.363 672.517L691.41 672.516ZM887.599 590.685L889.067 579.903C889.68 575.395 891.307 569.415 894.692 566.452C896.927 564.422 899.837 563.338 902.828 563.422L902.821 563.42L902.699 563.422L902.687 563.42L902.564 563.422L902.553 563.42L902.431 563.422L902.419 563.42L902.296 563.422L902.285 563.42L902.162 563.422L902.151 563.42L902.028 563.422L902.017 563.42L901.894 563.422L901.883 563.42L901.759 563.422L901.749 563.42L901.626 563.422L901.614 563.42L901.492 563.422L901.48 563.42L901.357 563.422L901.346 563.42L901.223 563.422L901.212 563.42L901.089 563.422L901.078 563.42L900.955 563.422L900.944 563.42L900.821 563.422L900.81 563.42L900.687 563.422L900.675 563.42L900.552 563.422L900.542 563.42L900.418 563.422L900.407 563.42L900.285 563.422L900.273 563.42L900.15 563.422L900.139 563.42L900.016 563.422L900.005 563.42L899.882 563.422L899.871 563.42L899.748 563.422L899.737 563.42L899.614 563.422L899.603 563.42L899.48 563.422L899.468 563.42L899.346 563.422L899.334 563.42L899.211 563.422L899.201 563.42L899.077 563.422L899.066 563.42L898.943 563.422L898.932 563.42L898.809 563.422L898.798 563.42L898.675 563.422L898.663 563.42L898.541 563.422L898.529 563.42L898.407 563.422L898.396 563.42L898.273 563.422L898.261 563.42L898.139 563.422L898.127 563.42L898.004 563.422L897.993 563.42L897.87 563.422L897.859 563.42L897.736 563.422L897.725 563.42L897.601 563.422L897.591 563.42L897.468 563.422L897.456 563.42C894.423 563.311 891.464 564.397 889.193 566.452C885.807 569.415 884.181 575.395 883.568 579.903L882.1 590.685C881.919 592.017 882.02 593.373 882.395 594.662C882.771 595.951 883.413 597.143 884.278 598.158C885.144 599.172 886.211 599.985 887.41 600.542C888.609 601.1 889.911 601.388 891.229 601.388C891.254 601.388 891.278 601.381 891.303 601.381C891.323 601.381 891.342 601.388 891.363 601.388C891.388 601.388 891.412 601.381 891.437 601.381C891.457 601.381 891.476 601.388 891.496 601.388C891.522 601.388 891.546 601.381 891.572 601.381C891.592 601.381 891.611 601.388 891.631 601.388C891.656 601.388 891.68 601.381 891.706 601.381C891.726 601.381 891.745 601.388 891.765 601.388C891.791 601.388 891.815 601.381 891.84 601.381C891.86 601.381 891.879 601.388 891.899 601.388C891.925 601.388 891.948 601.381 891.974 601.381C891.994 601.381 892.013 601.388 892.034 601.388C892.059 601.388 892.083 601.381 892.108 601.381C892.128 601.381 892.147 601.388 892.168 601.388C892.193 601.388 892.217 601.381 892.242 601.381C892.262 601.381 892.281 601.388 892.302 601.388C892.327 601.388 892.351 601.381 892.376 601.381C892.397 601.381 892.415 601.388 892.436 601.388C892.461 601.388 892.485 601.381 892.51 601.381C892.531 601.381 892.549 601.388 892.57 601.388C892.595 601.388 892.619 601.381 892.644 601.381C892.664 601.381 892.683 601.388 892.704 601.388C892.729 601.388 892.753 601.381 892.778 601.381C892.799 601.381 892.817 601.388 892.838 601.388C892.863 601.388 892.887 601.381 892.913 601.381C892.933 601.381 892.952 601.388 892.972 601.388C892.997 601.388 893.021 601.381 893.047 601.381C893.067 601.381 893.086 601.388 893.106 601.388C893.132 601.388 893.156 601.381 893.181 601.381C893.201 601.381 893.22 601.388 893.24 601.388C893.266 601.388 893.289 601.381 893.315 601.381C893.336 601.381 893.354 601.388 893.375 601.388C893.4 601.388 893.424 601.381 893.449 601.381C893.47 601.381 893.488 601.388 893.509 601.388C893.534 601.388 893.558 601.381 893.583 601.381C893.604 601.381 893.622 601.388 893.643 601.388C893.668 601.388 893.692 601.381 893.717 601.381C893.738 601.381 893.757 601.388 893.777 601.388C893.802 601.388 893.826 601.381 893.851 601.381C893.872 601.381 893.89 601.388 893.911 601.388C893.937 601.388 893.96 601.381 893.985 601.381C894.005 601.381 894.024 601.388 894.045 601.388C894.071 601.388 894.094 601.381 894.12 601.381C894.14 601.381 894.159 601.388 894.18 601.388C894.204 601.388 894.228 601.381 894.254 601.381C894.274 601.381 894.293 601.388 894.313 601.388C894.338 601.388 894.363 601.381 894.388 601.381C894.408 601.381 894.427 601.388 894.447 601.388C894.473 601.388 894.497 601.381 894.522 601.381C894.543 601.381 894.561 601.388 894.581 601.388C894.607 601.388 894.63 601.381 894.656 601.381C894.677 601.381 894.695 601.388 894.716 601.388C894.741 601.388 894.765 601.381 894.79 601.381C894.811 601.381 894.829 601.388 894.85 601.388C894.875 601.388 894.899 601.381 894.924 601.381C894.945 601.381 894.963 601.388 894.984 601.388C895.009 601.388 895.033 601.381 895.058 601.381C895.079 601.381 895.098 601.388 895.118 601.388C895.143 601.388 895.167 601.381 895.192 601.381C895.213 601.381 895.231 601.388 895.252 601.388C895.278 601.388 895.301 601.381 895.326 601.381C895.347 601.381 895.366 601.388 895.386 601.388C895.412 601.388 895.435 601.381 895.461 601.381C895.481 601.381 895.5 601.388 895.521 601.388C895.545 601.388 895.569 601.381 895.595 601.381C895.615 601.381 895.634 601.388 895.654 601.388C895.68 601.388 895.704 601.381 895.729 601.381C895.749 601.381 895.768 601.388 895.788 601.388C895.814 601.388 895.838 601.381 895.863 601.381C895.884 601.381 895.903 601.388 895.923 601.388C895.948 601.388 895.972 601.381 895.997 601.381C896.018 601.381 896.037 601.388 896.057 601.388C896.082 601.388 896.106 601.381 896.131 601.381C896.152 601.381 896.17 601.388 896.191 601.388C896.217 601.388 896.24 601.381 896.266 601.381C896.286 601.381 896.305 601.388 896.325 601.388C896.35 601.388 896.375 601.381 896.399 601.381C896.42 601.381 896.439 601.388 896.46 601.388C896.485 601.388 896.509 601.381 896.534 601.381C896.554 601.381 896.573 601.388 896.593 601.388C896.619 601.388 896.642 601.381 896.668 601.381C896.689 601.381 896.707 601.388 896.728 601.388C897.215 601.386 897.702 601.341 898.181 601.252C896.757 601.504 895.295 601.406 893.915 600.968C892.535 600.53 891.277 599.763 890.243 598.732C889.21 597.7 888.432 596.432 887.972 595.033C887.512 593.634 887.385 592.144 887.599 590.685ZM761.125 506.863C761.08 506.864 761.035 506.861 760.99 506.863C760.945 506.864 760.9 506.861 760.856 506.863C760.812 506.864 760.766 506.861 760.722 506.863C759.874 506.874 759.028 506.936 758.188 507.051C771.248 508.708 778.858 519.761 776.202 534.821C774.103 546.721 771.981 561.952 769.856 573.84C768.694 580.341 770.618 585.004 776.863 586.052C777.306 586.125 777.753 586.169 778.201 586.183C778.247 586.185 778.289 586.18 778.335 586.183C778.381 586.185 778.424 586.18 778.469 586.183C778.516 586.185 778.558 586.18 778.604 586.183C778.65 586.185 778.692 586.18 778.738 586.183C778.784 586.185 778.826 586.18 778.872 586.183C778.919 586.185 778.96 586.18 779.006 586.183C779.052 586.185 779.095 586.18 779.14 586.183C779.187 586.185 779.229 586.18 779.275 586.183C779.321 586.185 779.363 586.18 779.409 586.183C779.455 586.185 779.498 586.18 779.543 586.183C779.589 586.185 779.631 586.18 779.678 586.183C779.723 586.185 779.766 586.18 779.811 586.183C779.858 586.185 779.9 586.18 779.946 586.183C779.992 586.185 780.034 586.18 780.08 586.183C780.126 586.185 780.168 586.18 780.214 586.183C780.261 586.185 780.302 586.18 780.348 586.183C780.394 586.185 780.437 586.18 780.482 586.183C780.529 586.185 780.571 586.18 780.617 586.183C780.663 586.185 780.705 586.18 780.751 586.183C780.797 586.185 780.84 586.18 780.885 586.183C780.931 586.185 780.974 586.18 781.02 586.183C781.065 586.185 781.108 586.18 781.153 586.183C781.2 586.185 781.242 586.18 781.288 586.183C781.334 586.185 781.376 586.18 781.422 586.183C781.468 586.185 781.51 586.18 781.556 586.183C781.603 586.185 781.644 586.18 781.69 586.183C781.736 586.185 781.779 586.18 781.824 586.183C781.871 586.185 781.913 586.18 781.959 586.183C782.005 586.185 782.047 586.18 782.093 586.183C782.139 586.185 782.182 586.18 782.227 586.183C782.273 586.185 782.316 586.18 782.362 586.183C782.407 586.185 782.45 586.18 782.495 586.183C782.542 586.185 782.584 586.18 782.63 586.183C782.676 586.185 782.718 586.18 782.764 586.183C782.81 586.185 782.853 586.18 782.898 586.183C782.945 586.185 782.986 586.18 783.032 586.183C783.078 586.185 783.121 586.18 783.166 586.183C783.213 586.185 783.255 586.18 783.301 586.183C783.347 586.185 783.389 586.18 783.435 586.183C783.481 586.185 783.524 586.18 783.569 586.183C783.749 586.191 783.904 586.163 784.077 586.161C783.504 586.174 782.932 586.137 782.365 586.052C776.12 585.004 774.196 580.341 775.358 573.84C777.483 561.952 779.606 546.721 781.704 534.821C784.395 519.564 776.561 508.4 763.185 506.971C762.538 506.903 761.904 506.875 761.274 506.863H761.26C761.214 506.864 761.169 506.861 761.125 506.863ZM785.71 585.991C785.464 586.043 785.217 586.093 784.955 586.123C785.218 586.095 785.463 586.042 785.71 585.991ZM1057.96 615.337C1057.92 615.335 1057.87 615.335 1057.83 615.337C1057.78 615.335 1057.74 615.335 1057.69 615.337C1057.65 615.335 1057.61 615.335 1057.56 615.337C1057.52 615.335 1057.47 615.335 1057.43 615.337C1057.38 615.335 1057.34 615.335 1057.29 615.337C1057.25 615.335 1057.2 615.335 1057.16 615.337C1057.11 615.335 1057.07 615.335 1057.02 615.337C1056.98 615.335 1056.93 615.335 1056.89 615.337C1056.84 615.335 1052.92 615.348 1051.93 618.574C1050.94 621.8 1046.7 643.137 1044.41 657.459C1043.33 664.202 1036.42 672.111 1029.66 672.841C1031.74 672.876 1033.29 672.905 1033.98 672.912C1034.08 672.913 1034.17 672.915 1034.23 672.915H1034.35C1041.36 672.771 1048.79 664.471 1049.91 657.459C1052.2 643.137 1052.43 637.711 1055.19 623.162L1055.98 617.276C1056.04 616.743 1056.28 616.251 1056.67 615.893C1057.07 615.536 1057.57 615.338 1058.1 615.337C1058.05 615.335 1058.01 615.335 1057.96 615.337ZM1047.57 506.864C1047.53 506.864 1047.48 506.863 1047.44 506.864C1047.39 506.864 1047.35 506.863 1047.3 506.864C1047.26 506.864 1047.21 506.863 1047.17 506.864C1046.31 506.876 1045.46 506.94 1044.61 507.056C1048.99 507.468 1053.12 509.32 1056.38 512.334C1059.64 515.348 1061.85 519.36 1062.68 523.768C1063.4 526.987 1071.44 574.399 1071.68 575.415C1072.72 579.713 1075.56 579.419 1075.6 579.419C1075.65 579.421 1075.69 579.419 1075.74 579.418C1075.78 579.421 1075.83 579.419 1075.87 579.419C1075.92 579.421 1075.96 579.419 1076.01 579.419C1076.05 579.421 1076.1 579.419 1076.14 579.419C1076.19 579.421 1076.23 579.419 1076.28 579.418C1076.32 579.421 1076.36 579.419 1076.41 579.419C1076.46 579.421 1076.5 579.419 1076.54 579.419H1076.55C1076.01 579.417 1075.5 579.21 1075.11 578.84C1074.72 578.47 1074.48 577.964 1074.43 577.421C1072.23 557.15 1068.9 526.987 1068.18 523.768C1067.34 519.275 1065.06 515.192 1061.71 512.155C1058.36 509.118 1054.12 507.295 1049.65 506.971C1049.01 506.903 1048.38 506.876 1047.76 506.864H1047.7C1047.66 506.864 1047.61 506.863 1047.57 506.864ZM689.15 527.513C713.302 528.002 725.148 553.247 713.725 576.858C707.985 584.966 701.324 586.566 692.391 586.773C692.843 586.78 693.278 586.782 693.72 586.787C694.133 586.791 694.548 586.795 694.952 586.796H695.686C705.742 586.778 713.024 585.617 719.226 576.858C730.649 553.247 718.803 528.002 694.651 527.513C681.809 527.253 682.679 527.582 669.86 527.083H669.854L669.84 527.082H669.805C668.306 527.024 666.822 527.045 665.348 527.12C677.105 527.562 676.661 527.262 689.15 527.513ZM1001.08 595.064C998.159 617.8 995.12 632.774 992.247 655.515C990.774 664.237 981.991 671.984 974.721 672.358C973.699 672.41 973.08 672.446 972.62 672.468C972.841 672.477 973.056 672.484 973.268 672.491C973.433 672.499 973.575 672.501 973.741 672.509C978.021 672.509 976.42 672.554 980.221 672.358C987.491 671.984 996.275 664.237 997.748 655.515C1000.62 632.774 1003.66 617.799 1006.59 595.064C1008.42 580.822 999.81 570.972 987.652 568.931C986.618 568.767 985.573 568.69 984.526 568.701C983.603 568.696 982.68 568.759 981.766 568.887H981.758C981.889 568.907 982.021 568.909 982.151 568.931C994.309 570.971 1002.92 580.822 1001.08 595.064ZM1084.99 689.82H1085.05C1086.01 689.817 1086.78 689.805 1087.27 689.78C1097.08 689.278 1106.06 683.913 1107.39 673.895C1108.67 664.254 1119.91 584.177 1124.14 552.089C1124.64 549.11 1124.52 546.057 1123.78 543.13C1123.04 540.203 1121.71 537.469 1119.86 535.107C1118.01 532.746 1115.69 530.81 1113.06 529.428C1110.43 528.046 1107.54 527.249 1104.58 527.089H1103.66L1103.59 527.09C1102.67 527.091 1101.74 527.154 1100.83 527.281C1103.62 527.661 1106.3 528.612 1108.72 530.078C1111.14 531.544 1113.25 533.493 1114.91 535.81C1116.57 538.127 1117.76 540.764 1118.4 543.561C1119.04 546.358 1119.13 549.259 1118.64 552.089C1114.41 584.177 1103.17 664.254 1101.89 673.895C1100.56 683.913 1091.58 689.278 1081.77 689.78C1081.6 689.788 1081.39 689.795 1081.16 689.801C1081.84 689.807 1082.49 689.813 1083.11 689.816H1083.11C1083.73 689.82 1084.32 689.821 1084.85 689.82H1084.99ZM1079.48 573.292C1079.35 574.177 1079.21 575.064 1079.07 575.95C1079.22 575.06 1079.35 574.179 1079.48 573.292ZM96.1753 570.719C96.1303 570.721 96.0859 570.719 96.0409 570.719C95.9966 570.721 95.9515 570.719 95.9072 570.719C95.8622 570.721 95.8172 570.719 95.7729 570.719C95.7279 570.721 95.683 570.719 95.6386 570.719C95.5936 570.721 95.5486 570.719 95.5043 570.719C95.4599 570.721 95.4143 570.719 95.3699 570.719C95.3256 570.721 95.2806 570.719 95.2355 570.719C95.1912 570.721 95.1462 570.719 95.1019 570.719C95.0569 570.721 95.012 570.719 94.9676 570.719C94.9226 570.721 94.8776 570.719 94.8333 570.719C94.7883 570.721 94.744 570.719 94.6989 570.719C94.6546 570.721 94.6096 570.719 94.5652 570.719C94.5203 570.721 94.4753 570.719 94.4309 570.719C94.3859 570.721 94.3409 570.719 94.2965 570.719C94.2515 570.721 94.2066 570.719 94.1623 570.719C94.118 570.721 94.0723 570.719 94.0279 570.719C93.9836 570.721 93.9386 570.719 93.8936 570.719C93.8492 570.721 93.8042 570.719 93.7592 570.719C93.7149 570.721 93.6699 570.719 93.6255 570.719C93.5805 570.721 93.5356 570.719 93.4913 570.719C93.4463 570.721 93.402 570.719 93.3569 570.719C93.3126 570.721 93.2676 570.719 93.2233 570.719C93.1783 570.721 93.1333 570.719 93.0889 570.719C93.0439 570.721 92.9989 570.719 92.9545 570.719C92.9096 570.721 92.8646 570.719 92.8203 570.719C92.776 570.721 92.7303 570.719 92.6859 570.719C92.6416 570.721 92.5959 570.719 92.5516 570.719C92.5072 570.721 92.4622 570.719 92.4172 570.719C92.3729 570.721 92.3278 570.719 92.2835 570.719C92.2385 570.721 92.1937 570.719 92.1493 570.719C92.1043 570.721 92.06 570.719 92.0149 570.719C91.9706 570.721 91.9256 570.719 91.8806 570.719C91.8363 570.721 91.7912 570.719 91.7469 570.719C91.7019 570.721 91.6569 570.719 91.6125 570.719C91.5676 570.721 91.5227 570.719 91.4783 570.719C91.434 570.721 91.3883 570.719 91.3439 570.719C91.2996 570.721 91.2539 570.719 91.2096 570.719C91.1666 570.721 91.1222 570.719 91.0793 570.719C76.4306 570.773 67.2718 578.394 65.4185 593.933C64.3375 601.285 63.0899 609.773 61.9927 618.035C59.6265 628.026 64.1985 634.344 70.8964 635.335C71.6902 635.454 72.4937 635.491 73.2948 635.446C73.3391 635.444 73.3862 635.449 73.4292 635.446C73.4729 635.444 73.5205 635.449 73.5635 635.446C73.6079 635.444 73.6542 635.449 73.6979 635.446C73.7416 635.444 73.7886 635.449 73.8323 635.446C73.876 635.444 73.9229 635.449 73.9666 635.446C74.0096 635.444 74.0572 635.449 74.1009 635.446C74.1446 635.444 74.1909 635.449 74.2345 635.446C74.2782 635.444 74.3252 635.449 74.3689 635.446C74.4126 635.444 74.4595 635.449 74.5032 635.446C74.547 635.444 74.5939 635.449 74.6369 635.446C74.6812 635.444 74.7281 635.449 74.7712 635.446C74.8155 635.444 74.8625 635.449 74.9055 635.446C74.9492 635.444 74.9969 635.449 75.0399 635.446C75.0836 635.444 75.1305 635.449 75.1742 635.446C75.2179 635.444 75.2649 635.449 75.3086 635.446C75.3523 635.444 75.3993 635.449 75.443 635.446C75.4859 635.444 75.5336 635.449 75.5765 635.446C75.6202 635.444 75.6672 635.449 75.7109 635.446C75.7546 635.444 75.8015 635.449 75.8452 635.446C75.8889 635.444 75.9359 635.449 75.9796 635.446C76.0233 635.444 76.0703 635.449 76.1133 635.446C76.1576 635.444 76.2045 635.449 76.2475 635.446C76.2912 635.444 76.3388 635.449 76.3819 635.446C76.4256 635.444 76.4725 635.449 76.5162 635.446C76.5599 635.444 76.6069 635.449 76.6506 635.446C76.6943 635.444 76.7412 635.449 76.785 635.446C76.8279 635.444 76.8755 635.449 76.9185 635.446C76.9622 635.444 77.0092 635.449 77.0529 635.446C77.0966 635.444 77.1435 635.449 77.1872 635.446C77.2309 635.444 77.2779 635.449 77.3216 635.446C77.3653 635.444 77.4123 635.449 77.4553 635.446C77.4982 635.444 77.5445 635.449 77.5868 635.446C77.1994 635.426 76.8065 635.396 76.3983 635.335C69.7005 634.344 65.1284 628.026 67.4946 618.035C68.5918 609.773 69.8394 601.285 70.9205 593.933C72.7636 578.475 81.8386 570.852 96.3523 570.719H96.3093C96.2644 570.721 96.2196 570.719 96.1753 570.719ZM334.906 548.43C334.906 558.886 325.559 565.691 320.275 565.941C311.281 566.364 304.16 573.552 303.612 581.625C300.056 608.922 293.113 647.227 289.604 674.53C288.324 688.658 280.388 689.511 273.56 689.704C271.398 689.766 269.83 689.803 268.564 689.824C269.591 689.839 270.445 689.848 271.419 689.85C273.08 689.85 275.107 689.817 279.06 689.704C285.888 689.511 293.825 688.658 295.105 674.53C298.614 647.227 305.557 608.922 309.112 581.625C309.661 573.552 316.782 566.364 325.776 565.941C331.059 565.691 340.407 558.886 340.407 548.43C340.407 537.549 332.847 529.424 321.712 529.008C316.602 528.819 300.24 528.576 286.234 528.578C285.517 528.578 284.81 528.579 284.107 528.581H283.652C296.937 528.611 311.452 528.831 316.211 529.008C327.347 529.424 334.906 537.549 334.906 548.43ZM177.801 608.88L178.677 596.545C179.044 591.387 181.058 584.629 184.652 582.237C186.659 580.843 189.034 580.109 191.461 580.134H191.398C191.353 580.132 191.309 580.134 191.264 580.134C191.219 580.132 191.175 580.134 191.13 580.134C191.085 580.132 191.04 580.134 190.996 580.134C190.95 580.132 190.906 580.134 190.862 580.134C190.816 580.132 190.772 580.134 190.727 580.134C190.682 580.132 190.638 580.134 190.593 580.134C190.548 580.132 190.504 580.134 190.459 580.134C190.414 580.132 190.37 580.134 190.324 580.134C190.279 580.132 190.236 580.134 190.19 580.134C190.145 580.132 190.101 580.134 190.056 580.134C190.011 580.132 189.967 580.134 189.922 580.134C189.877 580.132 189.833 580.134 189.788 580.134C189.743 580.132 189.698 580.134 189.653 580.134C189.608 580.132 189.564 580.134 189.52 580.134C189.474 580.132 189.43 580.134 189.385 580.134C189.34 580.132 189.296 580.134 189.251 580.134C189.206 580.132 189.162 580.134 189.117 580.134C189.072 580.132 189.027 580.134 188.982 580.134C188.937 580.132 188.894 580.134 188.848 580.134C188.803 580.132 188.759 580.134 188.714 580.134C188.669 580.132 188.625 580.134 188.58 580.134C188.535 580.132 188.491 580.134 188.446 580.134C188.401 580.132 188.356 580.134 188.311 580.134C188.266 580.132 188.222 580.134 188.178 580.134C188.132 580.132 188.088 580.134 188.043 580.134C187.998 580.132 187.954 580.134 187.909 580.134C187.864 580.132 187.82 580.134 187.775 580.134C187.73 580.132 187.685 580.134 187.64 580.134C187.595 580.132 187.552 580.134 187.506 580.134C187.461 580.132 187.417 580.134 187.372 580.134C187.327 580.132 187.283 580.134 187.238 580.134C187.193 580.132 187.149 580.134 187.104 580.134C187.059 580.132 187.014 580.134 186.969 580.134C186.924 580.132 186.88 580.134 186.836 580.134C186.79 580.132 186.746 580.134 186.701 580.134C186.656 580.132 186.612 580.134 186.567 580.134C186.521 580.132 186.478 580.134 186.433 580.134C186.388 580.132 186.343 580.134 186.298 580.134C183.757 580.037 181.251 580.774 179.15 582.237C175.556 584.63 173.542 591.387 173.175 596.545L172.298 608.88C171.756 617.402 177.729 622.308 184.794 623.632C185.639 623.793 186.499 623.856 187.358 623.82C187.402 623.819 187.449 623.823 187.492 623.82C187.537 623.819 187.582 623.823 187.627 623.82C187.671 623.819 187.717 623.823 187.761 623.82C187.805 623.819 187.851 623.823 187.895 623.82C187.94 623.819 187.985 623.823 188.03 623.82C188.073 623.819 188.12 623.823 188.163 623.82C188.208 623.819 188.254 623.823 188.298 623.82C188.342 623.819 188.388 623.823 188.432 623.82C188.476 623.819 188.522 623.823 188.566 623.82C188.61 623.819 188.656 623.823 188.7 623.82C188.744 623.819 188.791 623.823 188.834 623.82C188.879 623.819 188.925 623.823 188.969 623.82C189.013 623.819 189.059 623.823 189.103 623.82C189.147 623.819 189.193 623.823 189.237 623.82C189.282 623.819 189.327 623.823 189.372 623.82C189.416 623.819 189.462 623.823 189.506 623.82C189.55 623.819 189.596 623.823 189.64 623.82C189.684 623.819 189.73 623.823 189.774 623.82C189.818 623.819 189.864 623.823 189.908 623.82C189.952 623.819 189.998 623.823 190.042 623.82C190.086 623.819 190.133 623.823 190.176 623.82C190.221 623.819 190.267 623.823 190.311 623.82C190.355 623.819 190.401 623.823 190.445 623.82C190.489 623.819 190.535 623.823 190.579 623.82C190.624 623.819 190.669 623.823 190.714 623.82C190.758 623.819 190.804 623.823 190.848 623.82C190.892 623.819 190.938 623.823 190.982 623.82C191.026 623.819 191.072 623.823 191.116 623.82C191.16 623.819 191.206 623.823 191.25 623.82C191.295 623.819 191.34 623.823 191.385 623.82C191.428 623.819 191.475 623.823 191.518 623.82C191.563 623.819 191.609 623.823 191.653 623.82C191.697 623.819 191.743 623.823 191.787 623.82C191.831 623.819 191.877 623.823 191.921 623.82C191.966 623.819 192.011 623.823 192.056 623.82C192.085 623.819 192.115 623.82 192.144 623.82C191.524 623.805 190.906 623.742 190.296 623.632C183.231 622.308 177.259 617.402 177.801 608.88ZM412.744 614.189C421.369 616.675 427.611 626.032 427.035 636.562C426.641 643.036 425.788 649.472 424.482 655.82C423.646 660.14 421.506 664.085 418.364 667.101C415.222 670.117 411.234 672.054 406.96 672.64C407.597 672.649 408.246 672.66 408.925 672.671C409.215 672.676 409.528 672.683 409.826 672.688C410.255 672.695 410.669 672.703 411.116 672.712C415.649 672.428 419.962 670.615 423.376 667.558C426.791 664.5 429.115 660.372 429.983 655.82C431.289 649.472 432.142 643.036 432.536 636.562C433.112 626.032 426.869 616.675 418.245 614.189C415.977 613.527 413.626 613.209 411.267 613.244C410.498 613.257 409.731 613.312 408.968 613.409C410.244 613.571 411.507 613.832 412.744 614.189ZM385.797 630.381C385.841 630.38 385.887 630.384 385.931 630.381C385.975 630.38 386.021 630.384 386.065 630.381C386.112 630.38 386.155 630.367 386.202 630.366C385.983 630.377 385.763 630.387 385.538 630.381C385.579 630.381 385.622 630.384 385.662 630.381C385.707 630.38 385.753 630.384 385.797 630.381ZM991.052 513.324V513.331L995.264 513.978C995.264 513.978 995.893 514.059 995.974 514.345C996.054 514.632 1008.73 529.86 1008.73 529.86L1006.43 548.461L990.884 559.729L995.555 560.331L995.575 560.316L1011.93 548.461L1014.23 529.86C1014.23 529.86 1001.56 514.632 1001.47 514.345C1001.39 514.059 1000.76 513.978 1000.76 513.978L996.553 513.331V513.324L996.41 513.309L996.268 513.287L996.266 513.293L992.029 512.851C992.029 512.851 991.936 512.844 991.824 512.842C991.742 512.844 991.66 512.851 991.578 512.864C991.547 512.87 991.515 512.874 991.485 512.882C991.392 512.898 991.309 512.95 991.253 513.027C991.203 513.076 991.149 513.121 991.094 513.163C991.045 513.202 990.983 513.251 990.908 513.309L991.052 513.324ZM592.056 514.97L596.231 515.611C596.231 515.611 596.854 515.69 596.933 515.974C597.012 516.259 609.576 531.349 609.576 531.349L607.296 549.783L591.9 560.943L596.569 561.545L596.571 561.543L596.589 561.53L612.797 549.783L615.077 531.349C615.077 531.349 602.513 516.259 602.434 515.974C602.354 515.69 601.731 515.611 601.731 515.611L597.557 514.97L597.558 514.962L597.416 514.947L597.274 514.927V514.933L593.074 514.495L592.982 514.486C592.947 514.484 592.912 514.484 592.877 514.486C592.794 514.487 592.711 514.495 592.629 514.508C592.597 514.511 592.566 514.517 592.535 514.526C592.445 514.541 592.364 514.591 592.309 514.666L592.305 514.669L592.292 514.681C592.247 514.723 592.2 514.763 592.152 514.8C592.101 514.84 592.037 514.891 591.959 514.951L592.057 514.962L592.056 514.97ZM129.236 549.784C129.42 557.142 123.138 570.771 109.281 571.15L108.989 571.154C110.091 571.17 111.16 571.177 112.142 571.177C113.138 571.176 114.061 571.169 114.782 571.15C128.639 570.771 134.921 557.142 134.737 549.784C134.448 538.328 126.441 528.642 114.172 528.575C109.136 528.548 105.47 528.53 102.273 528.528C101.404 528.528 100.57 528.53 99.7533 528.533H99.5035C102.07 528.542 105 528.556 108.672 528.575C120.94 528.642 128.947 538.328 129.236 549.784ZM96.5168 688.907H96.5276C106.025 688.901 116.33 682.703 118.015 671.786C120.494 652.468 122.693 642.516 124.945 623.17C128.636 598.45 116.446 590.579 96.4953 590.173H96.49C95.5346 590.157 94.579 590.197 93.6282 590.294C103.398 590.852 111.044 593.474 115.561 599.327C118.249 603.078 119.786 607.559 119.977 612.202C120.201 615.867 120.023 619.546 119.444 623.17C117.192 642.516 114.993 652.468 112.514 671.786C110.847 682.587 100.744 688.758 91.3311 688.894C91.6305 688.896 91.9501 688.897 92.2798 688.898C92.3644 688.9 92.4503 688.9 92.5376 688.9C92.8734 688.901 93.2205 688.903 93.5918 688.904H93.6671C94.5104 688.905 95.4485 688.907 96.5148 688.907L96.5168 688.907ZM187.425 527.917H182.059C189.885 527.917 197.619 529.632 204.739 532.947C211.859 536.263 218.199 541.1 223.33 547.133C228.461 553.166 232.264 560.253 234.48 567.916C236.697 575.579 237.276 583.639 236.179 591.55L229.025 643.085C227.883 651.316 223.869 658.849 217.722 664.299C211.574 669.749 203.706 672.75 195.565 672.75H201.074C209.214 672.748 217.08 669.746 223.226 664.296C229.371 658.846 233.384 651.314 234.526 643.085L241.68 591.55C242.777 583.64 242.198 575.582 239.982 567.921C237.767 560.259 233.966 553.173 228.837 547.14C223.708 541.108 217.37 536.27 210.252 532.953C203.134 529.637 195.402 527.919 187.578 527.917L187.425 527.917ZM408.874 529.023C432.806 529.507 444.546 554.523 433.225 577.92C427.541 585.95 420.946 587.538 412.102 587.745C412.609 587.752 413.098 587.756 413.591 587.76C413.93 587.763 414.272 587.767 414.605 587.768H415.456C425.391 587.746 432.592 586.583 438.725 577.92C450.046 554.523 438.307 529.507 414.375 529.023C401.649 528.767 402.511 529.092 389.809 528.597H389.804L389.788 528.596H389.754C388.265 528.54 386.787 528.56 385.322 528.635C396.936 529.071 396.51 528.774 408.874 529.023ZM391.409 571.583C391.375 571.584 391.344 571.575 391.309 571.577L391.275 571.583C391.241 571.584 391.21 571.575 391.175 571.577L391.141 571.583C391.106 571.584 391.076 571.575 391.041 571.577L391.006 571.583C390.972 571.584 390.941 571.575 390.907 571.577L390.873 571.583C390.838 571.584 390.807 571.575 390.773 571.577L390.739 571.583C390.704 571.584 390.673 571.575 390.638 571.577L390.604 571.583C390.57 571.584 390.538 571.575 390.504 571.577L390.47 571.583C390.436 571.584 390.405 571.575 390.371 571.577L390.336 571.583C390.301 571.584 390.271 571.575 390.236 571.577L390.201 571.583C390.168 571.584 390.136 571.575 390.102 571.577L390.068 571.583C390.033 571.584 390.003 571.575 389.968 571.577L389.933 571.583C389.899 571.584 389.868 571.575 389.833 571.577L389.799 571.583C389.765 571.584 389.734 571.575 389.699 571.577L389.665 571.583C389.631 571.584 389.6 571.575 389.565 571.577L389.531 571.583C389.496 571.584 389.465 571.575 389.431 571.577L389.397 571.583C389.362 571.584 389.331 571.575 389.297 571.577L389.263 571.583C389.228 571.584 389.197 571.575 389.163 571.577L389.128 571.583C389.094 571.584 389.063 571.575 389.029 571.577L388.994 571.583C388.96 571.584 388.929 571.575 388.895 571.577L388.86 571.583C388.826 571.584 388.795 571.575 388.76 571.577L388.725 571.583C388.692 571.584 388.66 571.575 388.626 571.577L388.592 571.583C388.558 571.584 388.527 571.575 388.492 571.577L388.458 571.583C388.423 571.584 388.392 571.575 388.357 571.577L388.323 571.583C388.289 571.584 388.258 571.575 388.224 571.577L388.19 571.583C388.155 571.584 388.124 571.575 388.09 571.577L388.055 571.583C388.02 571.584 387.99 571.575 387.955 571.577L387.921 571.583C387.887 571.584 387.855 571.575 387.821 571.577L387.787 571.583C387.752 571.584 387.722 571.575 387.687 571.577L387.652 571.583C387.618 571.584 387.587 571.575 387.553 571.577L387.518 571.583C387.484 571.584 387.453 571.575 387.419 571.577L387.384 571.583C387.35 571.584 387.319 571.575 387.284 571.577L387.25 571.583C387.216 571.584 387.185 571.575 387.15 571.577L387.116 571.583C387.082 571.584 387.051 571.575 387.016 571.577L386.982 571.583C386.947 571.584 386.917 571.575 386.882 571.577L386.847 571.583C386.813 571.584 386.782 571.575 386.748 571.577L386.714 571.583C386.679 571.584 386.648 571.575 386.614 571.577L386.579 571.583C386.545 571.584 386.514 571.575 386.479 571.577L386.445 571.583C386.411 571.584 386.38 571.575 386.346 571.577L386.311 571.583C386.277 571.584 386.246 571.575 386.211 571.577L386.177 571.583C386.142 571.584 386.111 571.575 386.077 571.577L386.042 571.583C386.009 571.584 385.977 571.575 385.943 571.577C380.442 572.015 377.781 575.367 377.038 580.317C375.279 593.323 373.172 606.347 371.47 619.361C370.78 624.652 372.908 628.994 378.189 630.167C379.013 630.354 379.857 630.426 380.699 630.381C380.743 630.38 380.789 630.384 380.832 630.381C380.877 630.38 380.923 630.384 380.967 630.381C381.011 630.38 381.057 630.384 381.101 630.381C381.145 630.38 381.192 630.384 381.235 630.381C381.279 630.38 381.325 630.384 381.369 630.381C381.413 630.38 381.46 630.384 381.503 630.381C381.548 630.38 381.594 630.384 381.638 630.381C381.682 630.38 381.728 630.384 381.772 630.381C381.816 630.38 381.862 630.384 381.906 630.381C381.951 630.38 381.996 630.384 382.041 630.381C382.084 630.38 382.131 630.384 382.174 630.381C382.219 630.38 382.265 630.384 382.309 630.381C382.353 630.38 382.399 630.384 382.443 630.381C382.487 630.38 382.534 630.384 382.577 630.381C382.621 630.38 382.667 630.384 382.711 630.381C382.755 630.38 382.802 630.384 382.845 630.381C382.89 630.38 382.936 630.384 382.98 630.381C383.024 630.38 383.07 630.384 383.114 630.381C383.158 630.38 383.204 630.384 383.248 630.381C383.293 630.38 383.338 630.384 383.383 630.381C383.426 630.38 383.473 630.384 383.517 630.381C383.561 630.38 383.607 630.384 383.651 630.381C383.695 630.38 383.741 630.384 383.785 630.381C383.829 630.38 383.876 630.384 383.919 630.381C383.963 630.38 384.009 630.384 384.053 630.381C384.097 630.38 384.144 630.384 384.187 630.381C384.232 630.38 384.278 630.384 384.322 630.381C384.366 630.38 384.412 630.384 384.456 630.381C384.5 630.38 384.546 630.384 384.59 630.381C384.635 630.38 384.68 630.384 384.725 630.381C384.769 630.38 384.815 630.384 384.859 630.381C384.903 630.38 384.949 630.384 384.993 630.381C385.037 630.38 385.083 630.384 385.127 630.381H385.189C384.686 630.348 384.185 630.276 383.692 630.167C378.41 628.994 376.282 624.652 376.972 619.361C378.674 606.347 380.781 593.323 382.54 580.317C383.283 575.367 385.944 572.015 391.445 571.577C391.985 571.546 392.526 571.581 393.058 571.68C392.527 571.573 391.985 571.539 391.445 571.577L391.409 571.583ZM498.011 613.972C498.217 614.023 498.376 614.11 498.572 614.169C498.389 614.092 498.201 614.027 498.011 613.972ZM665.669 629.8C665.713 629.798 665.76 629.802 665.803 629.8C665.848 629.798 665.894 629.802 665.938 629.8C665.982 629.798 666.028 629.802 666.072 629.8C666.122 629.797 666.169 629.786 666.219 629.783C665.987 629.796 665.755 629.807 665.517 629.8H665.535C665.579 629.798 665.625 629.802 665.669 629.8ZM495.483 613.702C495.437 613.701 495.393 613.701 495.349 613.702C495.303 613.701 495.259 613.701 495.215 613.702C495.17 613.701 495.125 613.701 495.08 613.702C495.035 613.701 494.991 613.701 494.946 613.702C494.901 613.701 494.857 613.701 494.812 613.702C494.767 613.701 494.722 613.701 494.677 613.702C494.633 613.701 494.588 613.701 494.544 613.702C494.499 613.701 494.454 613.701 494.409 613.702C494.364 613.701 494.32 613.701 494.275 613.702C494.23 613.701 494.186 613.701 494.141 613.702C494.096 613.701 494.051 613.701 494.007 613.702C493.961 613.701 493.917 613.701 493.873 613.702C493.828 613.701 493.783 613.701 493.738 613.702C493.693 613.701 493.648 613.701 493.604 613.702C493.559 613.701 493.515 613.701 493.47 613.702C493.425 613.701 493.38 613.701 493.335 613.702C493.291 613.701 493.246 613.701 493.202 613.702C493.157 613.701 493.112 613.701 493.067 613.702C493.022 613.701 492.978 613.701 492.933 613.702C492.888 613.701 492.844 613.701 492.799 613.702C492.754 613.701 492.709 613.701 492.665 613.702C492.619 613.701 492.575 613.701 492.531 613.702C492.486 613.701 492.441 613.701 492.396 613.702C492.351 613.701 492.306 613.701 492.262 613.702C492.217 613.701 492.173 613.701 492.128 613.702C492.083 613.701 492.038 613.701 491.993 613.702C491.949 613.701 491.904 613.701 491.859 613.702C491.814 613.701 491.77 613.701 491.725 613.702C491.68 613.701 491.636 613.701 491.591 613.702C491.546 613.701 491.502 613.701 491.457 613.702C491.412 613.701 491.367 613.701 491.323 613.702C491.277 613.701 491.233 613.701 491.188 613.702C491.143 613.701 491.099 613.701 491.054 613.702C491.009 613.701 490.964 613.701 490.92 613.702C490.875 613.701 490.831 613.701 490.786 613.702C490.741 613.701 490.696 613.701 490.651 613.702C490.607 613.701 490.562 613.701 490.517 613.702C490.473 613.701 490.427 613.701 490.383 613.702C485.466 613.661 482.267 618.071 481.86 623.805C479.129 638.221 478.898 643.599 476.628 657.789C475.561 664.47 468.718 672.307 462.021 673.031C462.314 673.037 462.556 673.041 462.828 673.045C464.146 673.068 465.204 673.087 465.885 673.098C465.928 673.098 465.982 673.1 466.022 673.1C466.131 673.101 466.21 673.102 466.297 673.104C466.486 673.105 466.65 673.107 466.713 673.105L466.72 673.104H466.729C473.669 672.95 481.019 664.734 482.129 657.789C484.398 643.599 484.63 638.221 487.361 623.805C487.764 618.124 490.908 613.743 495.749 613.702C495.704 613.701 495.66 613.701 495.615 613.702C495.572 613.701 495.527 613.701 495.483 613.702ZM601.998 595.961C599.099 618.49 596.088 633.329 593.241 655.864C591.781 664.507 583.078 672.182 575.874 672.554C574.877 672.605 574.265 672.639 573.812 672.662C574.202 672.679 574.551 672.683 574.953 672.703C579.193 672.703 577.608 672.747 581.375 672.554C588.579 672.182 597.281 664.507 598.741 655.864C601.588 633.329 604.6 618.49 607.498 595.961C609.314 581.849 600.785 572.088 588.737 570.066C587.707 569.904 586.665 569.827 585.623 569.837C584.704 569.833 583.786 569.896 582.876 570.025H582.871C582.992 570.043 583.115 570.046 583.237 570.066C595.284 572.088 603.814 581.849 601.998 595.961ZM671.476 570.461C671.442 570.463 671.41 570.453 671.376 570.456L671.341 570.461C671.308 570.463 671.276 570.453 671.242 570.456L671.207 570.461C671.173 570.463 671.142 570.453 671.108 570.456L671.074 570.461C671.039 570.463 671.008 570.453 670.974 570.456L670.939 570.461C670.905 570.463 670.873 570.453 670.839 570.456L670.805 570.461C670.771 570.463 670.74 570.453 670.705 570.456L670.671 570.461C670.636 570.463 670.606 570.453 670.571 570.456L670.537 570.461C670.502 570.463 670.471 570.453 670.436 570.456L670.403 570.461C670.368 570.463 670.337 570.453 670.303 570.456L670.269 570.461C670.234 570.463 670.203 570.453 670.168 570.456L670.134 570.461C670.1 570.463 670.068 570.453 670.034 570.456L670 570.461C669.966 570.463 669.935 570.453 669.9 570.456L669.866 570.461C669.832 570.463 669.801 570.453 669.766 570.456L669.732 570.461C669.698 570.463 669.666 570.453 669.632 570.456L669.598 570.461C669.564 570.463 669.532 570.453 669.498 570.456L669.463 570.461C669.429 570.463 669.398 570.453 669.363 570.456L669.329 570.461C669.295 570.463 669.264 570.453 669.229 570.456L669.196 570.461C669.161 570.463 669.13 570.453 669.095 570.456L669.061 570.461C669.027 570.463 668.995 570.453 668.961 570.456L668.927 570.461C668.893 570.463 668.861 570.453 668.827 570.456L668.793 570.461C668.758 570.463 668.727 570.453 668.693 570.456L668.658 570.461C668.624 570.463 668.593 570.453 668.558 570.456L668.524 570.461C668.491 570.463 668.459 570.453 668.425 570.456L668.391 570.461C668.356 570.463 668.325 570.453 668.29 570.456L668.256 570.461C668.222 570.463 668.19 570.453 668.156 570.456L668.122 570.461C668.088 570.463 668.057 570.453 668.022 570.456L667.988 570.461C667.953 570.463 667.922 570.453 667.887 570.456L667.854 570.461C667.819 570.463 667.788 570.453 667.753 570.456L667.72 570.461C667.686 570.463 667.654 570.453 667.62 570.456L667.585 570.461C667.55 570.463 667.519 570.453 667.485 570.456L667.451 570.461C667.417 570.463 667.385 570.453 667.351 570.456L667.317 570.461C667.283 570.463 667.251 570.453 667.217 570.456L667.183 570.461C667.149 570.463 667.117 570.453 667.083 570.456L667.049 570.461C667.015 570.463 666.983 570.453 666.949 570.456L666.915 570.461C666.88 570.463 666.849 570.453 666.815 570.456L666.78 570.461C666.746 570.463 666.715 570.453 666.68 570.456L666.646 570.461C666.612 570.463 666.581 570.453 666.546 570.456L666.512 570.461C666.477 570.463 666.446 570.453 666.412 570.456L666.378 570.461C666.343 570.463 666.312 570.453 666.277 570.456L666.244 570.461C666.21 570.463 666.178 570.453 666.144 570.456L666.109 570.461C666.075 570.463 666.044 570.453 666.009 570.456C660.458 570.899 657.773 574.283 657.023 579.275C655.248 592.401 653.122 605.544 651.405 618.677C650.707 624.018 652.855 628.398 658.185 629.583C659.012 629.771 659.86 629.844 660.706 629.8C660.75 629.798 660.796 629.803 660.84 629.8C660.884 629.798 660.93 629.803 660.973 629.8C661.018 629.798 661.064 629.803 661.108 629.8C661.152 629.798 661.198 629.803 661.242 629.8C661.286 629.798 661.332 629.803 661.377 629.8C661.42 629.798 661.466 629.803 661.51 629.8C661.554 629.798 661.601 629.803 661.644 629.8C661.689 629.798 661.735 629.803 661.779 629.8C661.823 629.798 661.869 629.803 661.913 629.8C661.957 629.798 662.003 629.803 662.048 629.8C662.092 629.798 662.137 629.803 662.182 629.8C662.226 629.798 662.272 629.803 662.316 629.8C662.36 629.798 662.406 629.803 662.45 629.8C662.494 629.798 662.54 629.803 662.584 629.8C662.628 629.798 662.674 629.803 662.718 629.8C662.762 629.798 662.808 629.803 662.853 629.8C662.897 629.798 662.943 629.803 662.986 629.8C663.031 629.798 663.077 629.803 663.121 629.8C663.165 629.798 663.211 629.803 663.255 629.8C663.299 629.798 663.345 629.803 663.389 629.8C663.434 629.798 663.479 629.803 663.524 629.8C663.568 629.798 663.614 629.803 663.658 629.8C663.702 629.798 663.748 629.803 663.792 629.8C663.836 629.798 663.882 629.803 663.926 629.8C663.97 629.798 664.016 629.803 664.06 629.8C664.104 629.798 664.15 629.803 664.195 629.8C664.239 629.798 664.285 629.803 664.328 629.8C664.373 629.798 664.419 629.803 664.463 629.8C664.507 629.798 664.553 629.803 664.597 629.8C664.641 629.798 664.687 629.803 664.731 629.8C664.776 629.798 664.821 629.803 664.866 629.8C664.91 629.798 664.956 629.803 665 629.8C665.044 629.798 665.09 629.803 665.134 629.8H665.204C664.694 629.766 664.187 629.694 663.687 629.583C658.357 628.398 656.209 624.018 656.907 618.677C658.624 605.544 660.75 592.401 662.525 579.275C663.275 574.283 665.96 570.899 671.511 570.456C672.054 570.425 672.598 570.46 673.133 570.56C672.599 570.453 672.054 570.418 671.511 570.456L671.476 570.461ZM479.826 508.562C479.782 508.562 479.736 508.56 479.692 508.562C479.647 508.562 479.602 508.56 479.557 508.562C479.513 508.562 479.467 508.56 479.423 508.562C478.579 508.573 477.736 508.636 476.9 508.751C489.825 510.404 497.355 521.352 494.724 536.266C492.645 548.057 490.541 563.15 488.435 574.931C487.284 581.372 489.19 585.992 495.38 587.031C495.82 587.103 496.265 587.147 496.711 587.161C496.757 587.164 496.799 587.159 496.845 587.161C496.891 587.164 496.934 587.159 496.979 587.161C497.026 587.164 497.068 587.159 497.114 587.161C497.16 587.164 497.202 587.159 497.248 587.161C497.293 587.164 497.336 587.159 497.382 587.161C497.428 587.164 497.47 587.159 497.516 587.161C497.562 587.164 497.605 587.159 497.65 587.161C497.697 587.164 497.739 587.159 497.785 587.161C497.831 587.164 497.873 587.159 497.919 587.161C497.965 587.164 498.007 587.159 498.053 587.161C498.099 587.164 498.141 587.159 498.187 587.161C498.233 587.164 498.276 587.159 498.321 587.161C498.368 587.164 498.41 587.159 498.456 587.161C498.502 587.164 498.544 587.159 498.59 587.161C498.636 587.164 498.679 587.159 498.724 587.161C498.77 587.164 498.812 587.159 498.859 587.161C498.904 587.164 498.947 587.159 498.992 587.161C499.039 587.164 499.081 587.159 499.127 587.161C499.173 587.164 499.215 587.159 499.261 587.161C499.307 587.164 499.349 587.159 499.395 587.161C499.442 587.164 499.483 587.159 499.529 587.161C499.575 587.164 499.618 587.159 499.663 587.161C499.71 587.164 499.752 587.159 499.798 587.161C499.844 587.164 499.886 587.159 499.932 587.161C499.978 587.164 500.021 587.159 500.066 587.161C500.112 587.164 500.154 587.159 500.2 587.161C500.246 587.164 500.289 587.159 500.334 587.161C500.381 587.164 500.423 587.159 500.469 587.161C500.515 587.164 500.557 587.159 500.603 587.161C500.649 587.164 500.691 587.159 500.737 587.161C500.784 587.164 500.825 587.159 500.871 587.161C500.917 587.164 500.96 587.159 501.005 587.161C501.052 587.164 501.094 587.159 501.14 587.161C501.186 587.164 501.228 587.159 501.274 587.161C501.32 587.164 501.363 587.159 501.408 587.161C501.454 587.164 501.496 587.159 501.542 587.161C501.588 587.164 501.631 587.159 501.676 587.161C501.723 587.164 501.765 587.159 501.811 587.161C501.857 587.164 501.899 587.159 501.945 587.161C501.991 587.164 502.033 587.159 502.079 587.161C502.252 587.169 502.402 587.14 502.569 587.139C502.005 587.151 501.44 587.114 500.882 587.031C494.692 585.993 492.787 581.372 493.938 574.931C496.043 563.15 498.148 548.057 500.227 536.266C502.894 521.146 495.13 510.084 481.876 508.669C481.242 508.6 480.62 508.574 480.003 508.562H479.962C479.915 508.562 479.87 508.56 479.826 508.562ZM504.176 586.976C503.944 587.024 503.711 587.07 503.466 587.098C503.713 587.072 503.943 587.022 504.176 586.976ZM550.193 553.377C545.998 585.174 534.861 664.523 533.59 674.077C532.271 684.005 523.379 689.321 513.657 689.817C513.494 689.825 513.299 689.832 513.078 689.838C514.42 689.851 515.686 689.86 516.75 689.857C516.794 689.857 516.841 689.858 516.884 689.857H517.005C517.927 689.854 518.68 689.842 519.157 689.817C528.879 689.321 537.772 684.005 539.091 674.077C540.362 664.523 551.498 585.174 555.694 553.377C556.189 550.424 556.067 547.398 555.335 544.497C554.603 541.596 553.278 538.886 551.446 536.546C549.615 534.206 547.319 532.288 544.709 530.919C542.099 529.55 539.236 528.76 536.306 528.603H535.428C535.385 528.603 535.343 528.604 535.3 528.604C534.388 528.606 533.478 528.67 532.575 528.796H532.569C534.495 529.066 536.375 529.608 538.156 530.404C542.371 532.331 545.84 535.632 548.019 539.79C550.198 543.948 550.962 548.727 550.193 553.377Z" fill="#D7D7D7"/>
<path d="M570.5 453.105C695.621 453.105 797.052 351.674 797.052 226.552C797.052 101.431 695.621 0 570.5 0C445.379 0 343.948 101.431 343.948 226.552C343.948 351.674 445.379 453.105 570.5 453.105Z" fill="url(#paint1_linear_1_155)"/>
<path opacity="0.25" d="M711.01 149.009C699.749 137.515 684.968 130.31 669.134 128.598C653.3 126.885 637.369 130.768 623.999 139.598C638.482 156.383 646.164 178.167 645.486 200.526C644.808 222.884 635.82 244.141 620.347 259.979L578.196 303.017L592.341 317.459L598.129 311.549L612.601 326.326L606.814 332.236L618.393 344.058L711.012 249.492C724.061 236.166 731.392 218.093 731.391 199.25C731.391 180.406 724.059 162.334 711.01 149.009Z" fill="black"/>
<path opacity="0.25" d="M608.634 147.552C602.173 140.954 594.502 135.721 586.059 132.15C577.617 128.58 568.568 126.742 559.43 126.742C550.292 126.742 541.244 128.58 532.801 132.15C524.359 135.721 516.688 140.954 510.226 147.552L417.606 242.119L429.185 253.938L434.974 248.028L449.446 262.806L443.658 268.715L458.131 283.492L463.92 277.582L481.286 295.315L475.498 301.224L489.972 316.002L495.76 310.092L510.233 324.866L504.444 330.776L516.023 342.599L608.643 248.031C621.69 234.705 629.018 216.633 629.017 197.79C629.015 178.947 621.683 160.876 608.634 147.552Z" fill="black"/>
<path d="M703.007 140.839C691.746 129.345 676.965 122.141 661.131 120.428C645.297 118.716 629.366 122.599 615.997 131.429C630.48 148.214 638.162 169.998 637.483 192.357C636.805 214.715 627.817 235.972 612.344 251.81L570.193 294.847L584.338 309.289L590.126 303.38L604.599 318.156L598.811 324.066L610.389 335.888L703.01 241.322C716.059 227.996 723.389 209.924 723.388 191.08C723.388 172.236 716.056 154.164 703.007 140.839Z" fill="#D7D7D7"/>
<path d="M703.007 140.839C691.746 129.345 676.965 122.141 661.131 120.428C645.297 118.716 629.366 122.599 615.997 131.429C630.48 148.214 638.162 169.998 637.483 192.357C636.805 214.715 627.817 235.972 612.344 251.81L570.193 294.847L576.338 301.121L582.125 295.211L604.599 318.156L598.811 324.066L602.386 327.717L695.007 233.151C722.182 205.401 730.182 168.585 703.007 140.839Z" fill="white"/>
<path d="M600.643 139.381C594.182 132.783 586.511 127.55 578.068 123.98C569.626 120.409 560.577 118.571 551.439 118.571C542.301 118.571 533.253 120.409 524.81 123.98C516.368 127.55 508.697 132.783 502.235 139.381L409.615 233.948L421.191 245.77L426.979 239.86L441.452 254.638L435.664 260.548L450.137 275.324L455.925 269.415L473.292 287.147L467.504 293.056L481.977 307.834L487.765 301.924L502.239 316.701L496.45 322.611L508.029 334.433L600.649 239.867C613.697 226.54 621.026 208.467 621.025 189.623C621.024 170.779 613.693 152.707 600.643 139.381Z" fill="#D7D7D7"/>
<path d="M600.643 139.381C594.182 132.783 586.511 127.55 578.068 123.98C569.626 120.409 560.577 118.571 551.439 118.571C542.301 118.571 533.253 120.409 524.81 123.98C516.368 127.55 508.697 132.783 502.235 139.381L409.615 233.948L413.191 237.599L418.979 231.689L441.452 254.635L435.664 260.545L442.134 267.151L447.922 261.241L473.289 287.141L467.501 293.051L473.971 299.657L479.759 293.747L502.232 316.693L496.444 322.603L500.02 326.253L592.64 231.687C619.817 203.943 627.818 167.127 600.643 139.381Z" fill="white"/>
<defs>
<linearGradient id="paint0_linear_1_155" x1="572.493" y1="477.449" x2="568.955" y2="708.1" gradientUnits="userSpaceOnUse">
<stop offset="0.15709" stop-color="#FF1DFF"/>
<stop offset="1" stop-color="#672EEB"/>
</linearGradient>
<linearGradient id="paint1_linear_1_155" x1="505.51" y1="22.1492" x2="639.989" y2="445.106" gradientUnits="userSpaceOnUse">
<stop offset="0.15709" stop-color="#FF1DFF"/>
<stop offset="1" stop-color="#672EEB"/>
</linearGradient>
</defs>
</svg>
