<svg xmlns="http://www.w3.org/2000/svg" viewBox="0 0 64 64"><g class="gotchi-wearable wearable-bg"><svg x="0" y="0"><path fill="#9325ee" d="M 0 0 v 64 h 64 V 0 H 0 Z" /><g fill="#a948eb"><path d="M 31 21 h 1 v 1 h -1 Z m 0 -7 h 1 v 1 h -1 Z m 1 4 h 1 v 1 h -1 Z M 9 20 h 1 v 1 H 9 Z m 2 -2 h 1 v 1 h -1 Z m 3 -14 h 1 v 1 h -1 Z m -1 9 h 1 v 1 h -1 Z m -2 -3 h 1 v 1 h -1 Z m 7 1 h 1 v 1 h -1 Z m -7 -5 h 1 v 1 h -1 Z m 5 3 h 1 v 1 h -1 Z m 4 0 h 1 v 1 h -1 Z M 9 3 h 1 v 1 H 9 Z m 0 -2 h 1 v 1 H 9 Z m 3 21 h 1 v 1 h -1 Z" /><path d="M 13 21 h 1 v 1 h -1 Z M 9 5 h 1 v 1 H 9 Z m 10 -2 h 1 v 1 h -1 Z m -7 0 h 1 v 1 h -1 Z m -1 -2 h 1 v 1 h -1 Z M 8 0 h 1 v 1 H 8 Z M 6 10 h 1 v 1 H 6 Z m -2 0 h 1 v 1 H 4 Z" /><path d="M 8 6 h 1 v 1 H 8 Z M 6 20 h 1 v 1 H 6 Z m 1 -5 h 1 v 1 H 7 Z m -1 7 h 1 v 1 H 6 Z m 2 -4 h 1 v 1 H 8 Z m -2 6 h 1 v 1 H 6 Z M 6 0 h 1 v 1 H 6 Z m 2 12 h 1 v 1 H 8 Z" /><path d="M 3 11 h 1 v 1 H 3 Z m 4 8 h 1 v 1 H 7 Z m 2 5 h 1 v -1 H 8 v 2 h 1 v -1 Z m 0 -9 h 1 v 1 H 9 Z m 2 0 h 1 v 1 h -1 Z m -6 6 h 1 v 1 H 5 Z m 1 -7 h 1 v 1 H 6 Z" /><path d="M 5 13 h 1 v 1 H 5 Z m -2 0 h 1 v 1 H 3 Z m 2 -4 h 1 v 1 H 5 Z m 2 0 h 1 v 1 H 7 Z m 0 8 h 1 v 1 H 7 Z M 31 4 h 1 v 1 h -1 Z m 23 19 h 1 v 1 h -1 Z m 0 4 h 1 v 1 h -1 Z M 51 4 h 1 v 1 h -1 Z m 0 6 h 1 v 1 h -1 Z m -4 0 h 1 v 1 h -1 Z m 2 5 h 1 v 1 h -1 Z m 5 -8 h 1 v 1 h -1 Z" /><path d="M 53 8 h 1 v 1 h -1 Z m -4 17 h 1 v 1 h -1 Z m 1 5 h 1 v 1 h -1 Z m 1 -11 h 1 v 1 h -1 Z m 2 -9 h 1 v 1 h -1 Z" /><path d="M 54 11 h 1 v 1 h -1 Z m -6 0 h 1 v 1 h -1 Z m 3 -10 h 1 v 1 h -1 Z m 5 6 h 1 v 1 h -1 Z m 2 -1 h 1 v 1 h -1 Z m 0 -5 h 1 v 1 h -1 Z M 40 2 h 1 v 1 h -1 Z m 16 19 h 1 v 1 h -1 Z" /><path d="M 62 14 h -1 v -1 h -1 v -1 h 1 v -1 h -1 v -1 h -1 V 9 h -1 V 8 h -1 v 1 h -1 V 8 h -1 v 1 h -1 v 1 h 1 v 1 h 1 v 1 h -1 v 1 h 1 v 1 h -1 v 1 h 1 v 1 h -1 v 1 h 1 v 1 h 1 v 1 h -1 v 1 h 1 v 1 h 1 v 1 h -1 v 1 h 1 v 1 h -1 v 1 h 1 v 1 h 1 v 1 h 1 v 1 h 1 v 1 h 1 v 1 h 1 v 1 h 1 V 14 h -1 v -1 h -1 v 1 Z m -10 0 h 1 v 1 h -1 Z" /><path d="M 54 13 h 1 v 1 h -1 Z m 1 5 h 1 v 1 h -1 Z m 7 13 h 1 v 1 h -1 Z m -2 0 h 1 v 1 h -1 Z m -1 -3 h 1 v 1 h -1 Z" /><path d="M 58 27 h 1 v 1 h -1 Z m -2 -2 h 1 v 1 h -1 Z m 7 -13 h 1 v 1 h -1 Z m -2 0 h 1 v 1 h -1 Z m -6 8 h 1 v 1 h -1 Z m 1 3 h 1 v 1 h -1 Z m -2 -8 h 1 v 1 h -1 Z m 5 -7 h 1 v 1 h -1 Z m 4 1 h 1 v 1 h -1 Z m -2 1 h 1 v 1 h -1 Z" /><path d="M 60 9 h 1 v 1 h -1 Z m 1 -4 h 1 v 1 h -1 Z m -6 0 h 1 v 1 h -1 Z m 5 -3 h 1 v 1 h -1 Z m -3 24 h 1 v 1 h -1 Z m 0 3 h 1 v 1 h -1 Z m 3 0 h 1 v 1 h -1 Z" /><path d="M 61 30 h 1 v 1 h -1 Z m -8 21 h 1 v 1 h -1 Z m 1 5 h 1 v 1 h -1 Z" /><path d="M 53 55 h 1 v 1 h -1 Z m -4 -18 h 1 v 1 h -1 Z m 3 5 h 1 v 1 h -1 Z m 0 -5 h 1 v 1 h -1 Z m -2 3 h 1 v 1 h -1 Z m 2 -1 h 1 v 1 h -1 Z" /><path d="M 49 41 h 1 v 1 h -1 Z m 4 -8 h 1 v 1 h -1 Z m -4 0 h 1 v 1 h -1 Z m 2 20 h 1 v 1 h -1 Z" /><path d="M 52 54 h 1 v 1 h -1 Z m 0 -2 h 1 v 1 h -1 Z m 11 -12 h 1 v 1 h -1 Z m -3 -5 h 1 v 1 h -1 Z m -1 8 v 1 h 1 v -2 h -2 v 1 h 1 Z m 4 -5 h 1 v 1 h -1 Z m -5 14 h 1 v 1 h -1 Z m -2 -4 h 1 v 1 h -1 Z m -2 0 h 1 v 1 h -1 Z m 6 -1 h 1 v 1 h -1 Z m -2 -1 h 1 v 1 h -1 Z m 1 10 h 1 v 1 h -1 Z m -3 0 h 1 v 1 h -1 Z m 2 4 h 1 v 1 h -1 Z m 5 -1 h 1 v 1 h -1 Z m -3 1 h 1 v 1 h -1 Z" /><path d="M 60 58 h 1 v 1 h -1 Z m -4 0 h 1 v 1 h -1 Z m 2 -26 v 1 h 2 v -1 h -2 Z m 5 23 h 1 v 1 h -1 Z m -6 -8 h 1 v 1 h -1 Z m 5 -8 h 1 v 1 h -1 Z" /><path d="M 55 39 h 1 v 1 h -1 Z m 7 22 h -1 v 1 h -1 v -1 h -1 v 1 h -1 v -1 h -1 v -1 h -1 v -1 h -1 v -1 h -1 v -1 h -1 v -1 h -1 v -1 h -1 v -1 h -1 v -1 h 1 v -1 h 1 v -1 h 1 v -1 h -1 v -1 h 1 v -1 h 1 v -1 h 1 v 1 h 1 v -1 h 1 v -1 h 1 v -1 h 1 v -1 h -1 v -1 h -1 v -1 h -1 v 1 h -1 v -1 h -1 v 1 h -1 v 1 h -1 v -1 h -1 v -1 h -1 v 1 h -1 v -1 h -1 v 1 h -2 v 1 h -1 v -1 h 1 v -1 h 2 v -1 h -1 v -1 h 1 v -1 h -1 v -1 h 1 v -1 h -1 v -1 h -1 v -1 h -1 v -1 h -1 v -1 h -1 v 1 h -1 v -1 h -1 v 1 h -1 v -1 h -1 v -1 h -1 v -1 h 1 v -1 h -1 v -1 h -1 v -1 h -1 v 1 h -1 v -1 h 1 v -1 h 1 v -1 h -1 v -1 h -1 v -1 h -1 v -1 h -1 v 1 h -1 v 1 h -1 v 1 h -1 v 1 h 1 v 1 h 1 v 1 h -1 v 1 h -1 v -1 h -1 v -1 h -1 v 1 h -1 v -1 h -1 v 1 h -1 v -1 h -1 v 1 h -1 v -1 h -1 v -1 h 1 v -1 h 1 v -1 h 1 v 1 h 1 v -1 h 1 v -1 h -1 v -1 h 1 v -1 h -1 v -1 h -1 v -1 h -1 v 1 h -1 v -1 h -1 v 1 h -1 v -1 h -1 v 1 h -1 v 1 h -1 v -1 h -1 v 1 h -1 v 1 h -1 v -1 h -1 v 1 h -1 v 1 h -1 v -1 h -1 v 1 h -1 v 1 H 9 v 1 H 8 v -1 H 7 v 1 H 6 v -1 H 5 v -1 h 1 v -1 H 5 v -1 H 4 v -1 h 1 v -1 h 1 v -1 h 1 v -1 H 6 v -1 h 1 v -1 H 6 v -1 H 5 v -1 H 4 v 1 H 3 v -1 H 2 v -1 h 1 v -1 H 2 v -1 h 1 v -1 h 1 V 9 h 1 V 8 h 1 v 1 h 1 V 8 h 1 V 7 H 7 V 6 h 1 V 5 h 1 V 4 H 8 V 3 h 1 V 2 H 8 V 1 H 7 v 1 H 6 V 1 H 5 V 0 H 0 v 64 h 64 v -3 h -1 v -1 h -1 v 1 Z" /><path d="M 57 59 h 1 v 1 h -1 Z m 0 -5 h 1 v 1 h -1 Z m -2 -1 h 1 v 1 h -1 Z m 2 -12 h 1 v 1 h -1 Z m 3 0 h 1 v 1 h -1 Z m -5 0 h 1 v 1 h -1 Z m 2 -4 h 1 v 1 h -1 Z m -2 20 h 1 v 1 h -1 Z m 3 -8 h 1 v 1 h -1 Z m -5 0 h 1 v 1 h -1 Z M 21 19 h 1 v 1 h -1 Z m -2 -2 h 1 v 1 h -1 Z m -1 3 h 1 v 1 h -1 Z m 8 0 h 1 v 1 h -1 Z m -6 -5 h 1 v 1 h -1 Z m 4 1 h 1 v 1 h -1 Z" /><path d="M 30 22 h 1 v 1 h -1 Z m -5 -3 h 1 v 1 h -1 Z" /><path d="M 23 19 h 1 v 1 h -1 Z m 8 4 h 1 v 1 h -1 Z" /><path d="M 30 24 h 1 v 1 h -1 Z" /><path d="M 29 23 h 1 v 1 h -1 Z m -2 0 h 1 v 1 h -1 Z m 2 4 h 1 v 1 h -1 Z" /><path d="M 30 28 h 1 v 1 h -1 Z m -3 -7 h 1 v 1 h -1 Z m -4 -8 h 1 v 1 h -1 Z m 6 12 h 1 v 1 h -1 Z m 15 -8 h 1 v 1 h -1 Z m -8 3 h 1 v 1 h -1 Z m -2 2 h 1 v 1 h -1 Z m 2 2 h 1 v 1 h -1 Z" /><path d="M 35 23 h 1 v 1 h -1 Z m 4 8 h 1 v 1 h -1 Z m -2 -17 h 1 v 1 h -1 Z m -1 3 h 1 v 1 h -1 Z" /><path d="M 42 32 h 1 v 1 h -1 Z m 2 0 h 1 v 1 h -1 Z m -4 0 h 1 v 1 h -1 Z m 6 -10 h 1 v 1 h -1 Z m -1 8 h 1 v 1 h -1 Z m 1 -2 h 1 v 1 h -1 Z m 0 4 h 1 v 1 h -1 Z m 0 2 h 1 v 1 h -1 Z" /><path d="M 45 33 h 1 v 1 h -1 Z M 16 20 h 1 v 1 h -1 Z m -1 -2 h 1 v 1 h -1 Z m 1 -3 h 1 v 1 h -1 Z" /><path d="M 15 21 h 1 v 1 h -1 Z M 26 9 h 1 v 1 h -1 Z m 2 9 h 1 v 1 h -1 Z m 0 8 h 1 v 1 h -1 Z" /><path d="M 24 26 h 1 v 1 h -1 Z m 3 1 h 1 v 1 h -1 Z" /><path d="M 25 27 h 1 v 1 h -1 Z m -2 0 h 1 v 1 h -1 Z m 2 -17 h 1 v 1 h -1 Z m 17 16 h 1 v 1 h -1 Z m -10 -4 h 1 v 1 h -1 Z m 6 6 h 1 v 1 h -1 Z m 2 -1 h 1 v 1 h -1 Z m 0 3 h 1 v 1 h -1 Z" /><path d="M 38 24 h 2 v -1 h -2 v 1 Z m -1 3 h 1 v 1 h -1 Z m -4 -6 h 1 v 1 h -1 Z m 4 4 h 1 v 1 h -1 Z m 2 4 h 1 v 1 h -1 Z m 9 7 h 1 v 1 h -1 Z m 0 4 h 1 v 1 h -1 Z m 0 -2 h 1 v 1 h -1 Z" /><path d="M 47 35 h 1 v 1 h -1 Z" /><path d="M 48 34 h 1 v 1 h -1 Z" /><path d="M 47 33 h 1 v 1 h -1 Z" /></g><g fill="#e796e7"><path d="M 11 10 h 1 v 1 h -1 Z m 7 1 h 1 v 1 h -1 Z m -2 -2 h 1 v 1 h -1 Z m 4 0 h 1 v 1 h -1 Z m -7 20 h 1 v 1 h -1 Z m -2 -2 h 1 v 1 h -1 Z" /><path d="M 12 28 h 1 v 1 h -1 Z m 7 -25 h 1 v 1 h -1 Z m -7 0 h 1 v 1 h -1 Z M 1 0 h 1 v 1 H 1 Z m 3 3 h 1 v 1 H 4 Z M 0 9 h 1 v 1 H 0 Z m 4 -3 h 1 v 1 H 4 Z m -4 6 h 1 v 1 H 0 Z m 0 8 h 1 v 1 H 0 Z m 4 5 h 1 v 1 H 4 Z m -3 -2 h 1 v 1 H 1 Z m 7 0 h 1 v 1 H 8 Z m -7 -7 h 1 v 1 H 1 Z m 10 -1 h 1 v 1 h -1 Z M 3 27 h 1 v 1 H 3 Z M 2 5 h 1 v 1 H 2 Z m 1 12 h 1 v 1 H 3 Z M 31 4 h 1 v 1 h -1 Z m 23 23 h 1 v 1 h -1 Z m -5 -12 h 1 v 1 h -1 Z m 0 10 h 1 v 1 h -1 Z m 2 -24 h 1 v 1 h -1 Z m 7 0 h 1 v 1 h -1 Z M 40 2 h 1 v 1 h -1 Z m 20 20 h 1 v 1 h -1 Z m -2 -8 h 1 v 1 h -1 Z m 0 4 h 1 v 1 h -1 Z m 5 7 h 1 v 1 h -1 Z" /><path d="M 58 11 h 1 v 1 h -1 Z m 1 8 h 1 v 1 h -1 Z m 3 5 h 1 v 1 h -1 Z" /><path d="M 61 23 h 1 v 1 h -1 Z m -1 -7 h 1 v 1 h -1 Z m -3 -6 h 1 v 1 h -1 Z m 3 -8 h 1 v 1 h -1 Z" /><path d="M 61 26 h 1 v 1 h -1 Z m 2 -9 v 1 h -1 v -1 h -1 v 1 h -1 v 1 h 1 v 1 h -1 v 1 h 1 v 1 h 1 v 1 h 1 v 1 h 1 v -7 h -1 Z" /></g><path fill="#be72e9" d="M 54 61 h 1 v 1 h -1 Z" /><g fill="#e796e7"><path d="M 50 48 h 1 v 1 h -1 Z m -2 10 h 1 v 1 h -1 Z m -2 3 h 1 v 1 h -1 Z m -1 1 h -1 v 1 h -1 v -1 h -1 v -1 h -1 v -1 h -1 v -1 h -1 v -1 h -1 v -1 h 1 v -1 h 1 v -1 h -1 v -1 h 1 v -1 h -1 v -1 h 1 v -1 h -1 v -1 h 1 v -1 h -1 v -1 h -1 v -1 h 1 v -1 h -1 v -1 h -1 v -1 h 1 v -1 h -1 v -1 h -1 v -1 h -1 v -1 h -1 v -1 h -1 v -1 h -1 v -1 h -1 v 1 h -1 v -1 h -1 v 1 h -1 v -1 h -1 v 1 h -1 v 1 h -1 v -1 h -1 v 1 h -1 v -1 h -1 v 1 h -1 v -1 h -1 v -1 h -1 v -1 h -1 v -1 h -1 v -1 h -1 v -1 h -1 v -1 h -1 v -1 h -1 v -1 h -1 v -1 h -1 v -1 h -1 v 1 H 9 v -1 H 8 v 1 H 7 v -1 H 6 v 1 H 5 v -1 H 4 v 1 H 3 v -1 H 0 v 36 h 46 v -1 h -1 v -1 Z m 6 0 h 1 v 1 h -1 Z m 1 -4 h 1 v 1 h -1 Z m -3 5 h 1 v 1 h -1 Z m -2 0 h 1 v 1 h -1 Z" /><path d="M 43 55 h 1 v 1 h -1 Z m 16 -13 h 1 v 1 h -1 Z m -3 2 h 1 v 1 h -1 Z m -2 0 h 1 v 1 h -1 Z m -2 4 h 1 v 1 h -1 Z m 8 -1 h 1 v 1 h -1 Z m -8 -1 h 1 v 1 h -1 Z M 40 56 h 1 v 1 h -1 Z" /><path d="M 40 58 h 1 v 1 h -1 Z m 19 -26 h 1 v 1 h -1 Z m 4 23 h 1 v 1 h -1 Z m -10 -8 h 1 v 1 h -1 Z m -2 0 h 1 v 1 h -1 Z m 12 16 h 1 v 1 h -1 Z m -6 -9 h 1 v 1 h -1 Z m -4 -9 h 1 v 1 h -1 Z" /><path d="M 55 45 h 1 v 1 h -1 Z m 3 4 h 1 v 1 h -1 Z M 41 59 h 1 v 1 h -1 Z m 2 0 h 1 v 1 h -1 Z m 0 2 h 1 v 1 h -1 Z" /><path d="M 42 60 h 1 v 1 h -1 Z M 22 31 h 1 v 1 h -1 Z m -2 -9 h 1 v 1 h -1 Z m -1 5 h 1 v 1 h -1 Z m 1 4 h 1 v 1 h -1 Z m 0 -7 h 1 v 1 h -1 Z m 0 -9 h 1 v 1 h -1 Z m 3 7 h 1 v 1 h -1 Z m 4 7 h 1 v 1 h -1 Z m 17 -12 h 1 v 1 h -1 Z M 32 27 h 1 v 1 h -1 Z m 2 3 h 1 v 1 h -1 Z m 3 -16 h 1 v 1 h -1 Z m -4 11 h 1 v 1 h -1 Z m -15 7 h 1 v 1 h -1 Z m 3 3 h 1 v 1 h -1 Z m -2 0 h 1 v 1 h -1 Z m 11 -3 h 1 v 1 h -1 Z m -2 3 h 1 v 1 h -1 Z m -4 0 h 1 v 1 h -1 Z m 1 -2 h 1 v 1 h -1 Z m 19 5 h 1 v 1 h -1 Z" /><path d="M 43 39 h 1 v 1 h -1 Z m 0 2 h 1 v 1 h -1 Z m -2 -5 h 1 v 1 h -1 Z" /><path d="M 42 35 h 1 v 1 h -1 Z m 2 -1 h 1 v 1 h -1 Z m -8 6 h 1 v 1 h -1 Z m -2 -2 h 1 v 1 h -1 Z" /><path d="M 40 38 h 1 v 1 h -1 Z m -2 6 h 1 v 1 h -1 Z m -3 -5 h 1 v 1 h -1 Z m 3 2 h 1 v 1 h -1 Z m -1 -4 h 1 v 1 h -1 Z m -4 0 h 1 v 1 h -1 Z m 6 -3 h 1 v 1 h -1 Z m 7 14 h 1 v 1 h -1 Z m 0 4 h 1 v 1 h -1 Z m -3 -3 h 1 v 1 h -1 Z m 3 -21 h 1 v 1 h -1 Z m -1 9 h 1 v 1 h -1 Z m 0 3 h 1 v 1 h -1 Z m -4 6 h 1 v 1 h -1 Z M 16 15 h 1 v 1 h -1 Z m 0 8 h 1 v 1 h -1 Z m -1 2 h 1 v 1 h -1 Z" /><path d="M 16 26 h 1 v 1 h -1 Z m 0 4 h 1 v 1 h -1 Z M 26 9 h 1 v 1 h -1 Z" /><path d="M 25 10 h 1 v 1 h -1 Z m 15 17 h 1 v 1 h -1 Z m -1 -4 h 1 v 1 h -1 Z m -23 9 h 1 v 1 h -1 Z m 31 14 h 1 v 1 h -1 Z m -6 6 h 1 v 1 h -1 Z m -8 -17 h 1 v 1 h -1 Z m 2 -1 h 1 v 1 h -1 Z m 8 3 h 1 v 1 h -1 Z" /><path d="M 42 38 h 1 v 1 h -1 Z" /><path d="M 41 39 h 1 v 1 h -1 Z m -2 18 h 1 v 1 h -1 Z M 9 27 h 1 v 1 H 9 Z" /></g><g fill="#be72e9"><path d="M 16 9 h 1 v 1 h -1 Z M 4 3 h 1 v 1 H 4 Z M 1 28 h 1 v 1 H 1 Z m 10 -13 h 1 v 1 h -1 Z M 6 29 h 1 v 1 H 6 Z M 3 17 h 1 v 1 H 3 Z m 51 10 h 1 v 1 h -1 Z m -5 -12 h 1 v 1 h -1 Z m 2 -14 h 1 v 1 h -1 Z M 40 2 h 1 v 1 h -1 Z m 21 16 h 1 v 1 h -1 Z m -3 0 h 1 v 1 h -1 Z" /><path d="M 60 2 h 1 v 1 h -1 Z m 3 16 v 1 h -1 v 1 h -1 v 1 h 1 v 1 h 1 v 1 h 1 v -5 h -1 Z M 9 58 h 1 v 1 H 9 Z m 4 -26 h 1 v 1 h -1 Z" /><path d="M 14 33 h 1 v 1 h -1 Z m 1 23 h 1 v 1 h -1 Z" /><path d="M 14 57 h 1 v 1 h -1 Z m -2 0 h 1 v 1 h -1 Z" /><path d="M 11 58 h 1 v 1 h -1 Z M 9 42 h 1 v 1 H 9 Z" /><path d="M 10 43 h 1 v 1 h -1 Z m -6 -2 h 1 v 1 H 4 Z m 4 0 h 1 v 1 H 8 Z M 2 51 h 1 v 1 H 2 Z" /><path d="M 10 47 h 1 v 1 h -1 Z m 0 -2 h 1 v 1 h -1 Z m -7 5 h 1 v 1 H 3 Z M 1 60 h 1 v 1 H 1 Z" /><path d="M 0 59 h 1 v 1 H 0 Z m 5 1 h 1 v 1 H 5 Z M 0 43 h 1 v 1 H 0 Z m 1 9 h 1 v 1 H 1 Z" /><path d="M 0 55 h 1 v 1 H 0 Z m 9 -7 h 1 v 1 H 9 Z M 6 59 h 1 v 1 H 6 Z m -3 1 h 1 v 1 H 3 Z m 8 -14 h 1 v 1 h -1 Z m -5 -5 h 1 v 1 H 6 Z m -3 1 h 1 v 1 H 3 Z M 0 57 h 1 v 1 H 0 Z" /><path d="M 7 58 h 1 v 1 H 7 Z m -3 3 h 1 v 1 H 4 Z m 4 -12 h 1 v 1 H 8 Z m -2 0 h 1 v 1 H 6 Z m 24 6 h 1 v 1 h -1 Z" /><path d="M 31 56 h 1 v 1 h -1 Z m -2 0 h 1 v 1 h -1 Z m 2 2 h 1 v 1 h -1 Z m -2 4 h 1 v 1 h -1 Z" /><path d="M 41 62 v -1 h -1 v -1 h -1 v -1 h -1 v -3 h 1 v -1 h -1 v -1 h 1 v -1 h -1 v -1 h 1 v -1 h -1 v -1 h 1 v -1 h -1 v -1 h -1 v -1 h 1 v -1 h -1 v -1 h -1 v -1 h -1 v -1 h 1 v -1 h -1 v -1 h -1 v -1 h -1 v -1 h -1 v 1 h -1 v -1 h -1 v -1 h -1 v 1 h -1 v 1 h -1 v -1 h -1 v 1 h -1 v -1 h -1 v 1 h -1 v -1 h -1 v 1 h -1 v -1 h -1 v 1 h -1 v -1 h -1 v -1 h -1 v -1 h -1 v 1 h -1 v -1 h 1 v -1 h -1 v -1 h -1 v -1 h -1 v -1 h -1 v -1 h 1 v -1 h -1 v -1 h -1 v -1 h -1 v 1 H 9 v -1 H 8 v 1 H 7 v 1 H 6 v -1 H 5 v -1 H 4 v 1 H 3 v -1 H 2 v 1 H 1 v -1 H 0 v 3 h 1 v 1 H 0 v 9 h 1 v 1 h 1 v -1 h 1 v -1 h 1 v -1 h 1 v 1 h 1 v -1 h 1 v 1 h 1 v -1 h 1 v 1 h 1 v 1 h 1 v 1 h 1 v 1 h -1 v 1 h 1 v 1 h 1 v 1 h -1 v 1 h -1 v 1 h -1 v 1 H 9 v 1 H 8 v -1 H 7 v 1 H 6 v 1 h 1 v 1 H 6 v -1 H 5 v -1 H 4 v 1 H 3 v 1 H 2 v 1 H 1 v 1 h 1 v 1 H 1 v 1 h 1 v 1 H 1 v 1 h 1 v 1 h 1 v -1 h 1 v 1 h 1 v -1 h 1 v -1 h 1 v -1 h 1 v 1 h 1 v -1 h 1 v 1 h 1 v -1 h 1 v -1 h 1 v 1 h 1 v -1 h 1 v -1 h -1 v -1 h 1 v -1 h 1 v -1 h 1 v -1 h -1 v -1 h 1 v -1 h 1 v 1 h 1 v -1 h 1 v -1 h 1 v 1 h 1 v -1 h 1 v 1 h 1 v -1 h 1 v 1 h 1 v -1 h 1 v 1 h 1 v 1 h 1 v 1 h -1 v 1 h 1 v 1 h -1 v 1 h 1 v 1 h 1 v -1 h 1 v 1 h 1 v 1 h 1 v -1 h 1 v 1 h -1 v 1 h -1 v 1 h 1 v 1 h -1 v 1 h -1 v 1 h 1 v 1 h -1 v 1 h -1 v 1 h 9 v -1 h 1 v 1 h 1 v -1 h 1 v -1 h -1 Z m -3 -1 h -1 v -1 h 1 v 1 Z m -1 -4 h -1 v -1 h 1 v 1 Z M 19 47 h -1 v -1 h 1 v 1 Z M 3 33 h 1 v 1 H 3 v -1 Z m 32 16 h -1 v -1 h 1 v 1 Z m -19 -7 h -1 v -1 h 1 v 1 Z m 13 2 h -1 v -1 h 1 v 1 Z m -16 -6 h -1 v -1 h 1 v 1 Z m -9 -2 v -1 h 1 v 1 H 4 Z m 2 1 h 1 v 1 H 6 v -1 Z m 26 13 h 1 v 1 h -1 v -1 Z m 5 4 h -1 v -1 h 1 v 1 Z m 0 -4 h -1 v -1 h 1 v 1 Z m -3 -5 h -1 v -1 h 1 v 1 Z m -3 -3 h -1 v -1 h 1 v 1 Z m -7 -1 v 1 h -1 v -1 h 1 Z m -11 -5 h -1 v -1 h 1 v 1 Z m -2 -5 v 1 h -1 v 1 H 9 v -1 h 1 v -1 h 1 Z M 1 39 h 1 v 1 H 1 v -1 Z m 10 1 h 1 v 1 h -1 v -1 Z m 1 10 v 1 h -1 v -1 h 1 Z m -9 5 h 1 v 1 H 3 v -1 Z m 1 3 v -1 h 1 v 1 H 4 Z m 8 -4 v -1 h 1 v 1 h -1 Z m 13 -7 v -1 h 1 v 1 h -1 Z m 5 4 h 1 v 1 h -1 v -1 Z" /><path d="M 42 63 h 1 v 1 h -1 Z m 8 -15 h 1 v 1 h -1 Z m -2 10 h 1 v 1 h -1 Z m 3 4 h 1 v 1 h -1 Z m 1 -4 h 1 v 1 h -1 Z m -8 5 h 1 v 1 h -1 Z m 15 -21 h 1 v 1 h -1 Z m -3 2 h 1 v 1 h -1 Z m -2 0 h 1 v 1 h -1 Z m -2 4 h 1 v 1 h -1 Z m 8 -1 h 1 v 1 h -1 Z m -8 -1 h 1 v 1 h -1 Z" /><path d="M 53 47 h 1 v 1 h -1 Z m -2 0 h 1 v 1 h -1 Z m 12 16 h 1 v 1 h -1 Z m -6 -9 h 1 v 1 h -1 Z m -4 -9 h 1 v 1 h -1 Z m 2 0 h 1 v 1 h -1 Z M 30 61 h 1 v 1 h -1 Z m -8 -30 h 1 v 1 h -1 Z m -3 -4 h 1 v 1 h -1 Z m 1 -12 h 1 v 1 h -1 Z m 3 7 h 1 v 1 h -1 Z m 4 7 h 1 v 1 h -1 Z m 17 -12 h 1 v 1 h -1 Z M 34 30 h 1 v 1 h -1 Z m 3 -16 h 1 v 1 h -1 Z m -4 11 h 1 v 1 h -1 Z M 18 37 h 1 v 1 h -1 Z" /><path d="M 19 38 h 1 v 1 h -1 Z m 12 0 h 1 v 1 h -1 Z m -4 0 h 1 v 1 h -1 Z m -2 12 h 1 v 1 h -1 Z" /><path d="M 26 49 h 1 v 1 h -1 Z" /><path d="M 27 50 h 1 v 1 h -1 Z m -3 -1 h 1 v 1 h -1 Z m -2 0 h 1 v 1 h -1 Z m 22 -11 h 1 v 1 h -1 Z" /><path d="M 43 39 h 1 v 1 h -1 Z m 0 2 h 1 v 1 h -1 Z m -2 -5 h 1 v 1 h -1 Z" /><path d="M 42 35 h 1 v 1 h -1 Z m 2 -1 h 1 v 1 h -1 Z m -4 4 h 1 v 1 h -1 Z M 27 54 h 1 v 1 h -1 Z m 0 -2 h 1 v 1 h -1 Z m -9 -1 h 1 v 1 h -1 Z" /><path d="M 17 50 h 1 v 1 h -1 Z m 2 0 h 1 v 1 h -1 Z" /><path d="M 17 52 h 1 v 1 h -1 Z m 3 -1 h 1 v 1 h -1 Z" /><path d="M 23 50 h 1 v 1 h -1 Z m -2 0 h 1 v 1 h -1 Z" /><path d="M 20 49 h 1 v 1 h -1 Z m 26 3 h 1 v 1 h -1 Z m 0 -24 h 1 v 1 h -1 Z m -29 8 h 1 v 1 h -1 Z m 28 1 h 1 v 1 h -1 Z m 0 3 h 1 v 1 h -1 Z m -9 3 h 1 v 1 h -1 Z m -8 12 h 1 v 1 h -1 Z m -13 -1 h 1 v 1 h -1 Z" /><path d="M 16 53 h 1 v 1 h -1 Z m 0 -18 h 1 v 1 h -1 Z" /><path d="M 15 34 h 1 v 1 h -1 Z m 28 3 h 1 v 1 h -1 Z" /><path d="M 42 38 h 1 v 1 h -1 Z" /><path d="M 41 39 h 1 v 1 h -1 Z M 5 50 h 1 v 1 H 5 Z" /></g><g fill="#fffff5"><path d="M 18 11 h 1 v 1 h -1 Z m 2 -2 h 1 v 1 h -1 Z M 0 12 h 1 v 1 H 0 Z m 31 -8 h 1 v 1 h -1 Z m 27 -3 h 1 v 1 h -1 Z M 22 63 h 1 v 1 h -1 Z m -1 -7 h 1 v 1 h -1 Z" /><path d="M 22 55 h 1 v 1 h -1 Z m -7 7 h 1 v 1 h -1 Z m 0 -2 h 1 v 1 h -1 Z m 3 -3 h 1 v 1 h -1 Z m -1 5 h 1 v 1 h -1 Z" /><path d="M 18 61 h 1 v 1 h -1 Z m -2 0 h 1 v 1 h -1 Z m 4 -7 h 1 v 1 h -1 Z m -3 5 h 1 v 1 h -1 Z m 3 4 h 1 v 1 h -1 Z m -2 0 h 1 v 1 h -1 Z M 2 48 h 1 v 1 H 2 Z m 4 -3 h 1 v 1 H 6 Z" /><path d="M 2 46 h 1 v 1 H 2 Z m 0 17 h 1 v 1 H 2 Z m 2 0 h 1 v 1 H 4 Z m 21 -1 h 1 v 1 h -1 Z M 7 44 h 1 v 1 H 7 Z m -5 -1 h 1 v 1 H 2 Z m 4 5 h 1 v 1 H 6 Z m -2 -1 h 1 v 1 H 4 Z m 5 -1 h 1 v 1 H 9 Z m -2 0 h 1 v 1 H 7 Z m -3 -1 h 1 v 1 H 4 Z m 19 9 h 1 v 1 h -1 Z m 40 1 h 1 v 1 h -1 Z m -5 -6 h 1 v 1 h -1 Z M 29 59 h 1 v 1 h -1 Z m -10 1 h 1 v 1 h -1 Z" /><path d="M 26 61 h 1 v 1 h -1 Z m 4 -29 h 1 v 1 h -1 Z m -5 20 h 1 v 1 h -1 Z m 21 -4 h 1 v 1 h -1 Z m -22 7 h 1 v 1 h -1 Z m 16 -28 h 1 v 1 h -1 Z" /><path d="M 27 57 h 1 v 1 h -1 Z m -1 1 h -1 v 1 h -1 v -1 h 1 v -1 h -1 v -1 h -1 v 1 h -1 v 1 h -1 v -1 h -1 v 1 h -1 v 1 h 1 v 1 h 1 v 1 h -1 v 1 h 3 v 1 h 1 v -1 h 1 v -1 h 1 v -1 h 1 v -1 h -1 v -1 Z M 5 44 h 1 v 1 H 5 Z m 0 2 h 1 v 1 H 5 Z" /></g><path fill="#e796e7" d="M 61 61 v -4 h -2 v 1 h 1 v 3 h -1 v 1 h 3 v -1 h -1 Z m -4 -2 h -1 v -2 h -1 v 5 h 1 v -2 h 1 v 2 h 1 v -5 h -1 v 2 Z" /></svg></g><style>.gotchi-primary{fill:#0000B9;}.gotchi-secondary{fill:#D4DEF8;}.gotchi-cheek{fill:#F696C6;}.gotchi-eyeColor{fill:#5D24BF;}.gotchi-primary-mouth{fill:#0000B9;}.gotchi-sleeves-up{display:none;}.gotchi-handsUp{display:none;}.gotchi-handsDownOpen{display:block;}.gotchi-handsDownClosed{display:none;}</style><g class="gotchi-body"><path class="gotchi-primary" d="M 47 14 v -2 h -2 v -2 h -4 V 8 h -4 V 6 H 27 v 2 h -4 v 2 h -4 v 2 h -2 v 2 h -2 v 41 h 4 v -2 h 5 v 2 h 5 v -2 h 6 v 2 h 5 v -2 h 5 v 2 h 4 V 14 Z" /><path class="gotchi-secondary" d="M 45 14 v -2 h -4 v -2 h -4 V 8 H 27 v 2 h -4 v 2 h -4 v 2 h -2 v 39 h 2 v -2 h 5 v 2 h 5 v -2 h 6 v 2 h 5 v -2 h 5 v 2 h 2 V 14 Z" /><path fill="#fff" d="M 18 49 h 2 v -1 h 2 v 1 h 2 v 2 h 5 v -2 h 2 v -1 h 2 v 1 h 2 v 2 h 5 v -2 h 2 v -1 h 2 v 1 h 1 V 14 h -4 v -2 h -4 v -2 h -5 V 9 h -5 v 2 h -4 v 2 h -4 v 2 h -1 V 49 Z" /></g><path class="gotchi-cheek" d="M 21 32 v 2 h 2 v -2 h -1 Z m 21 0 h -1 v 2 h 2 v -2 Z" /><g class="gotchi-primary-mouth"><path d="M 29 32 h -2 v 2 h 2 v -1 Z" /><path d="M 33 34 h -4 v 2 h 6 v -2 h -1 Z" /><path d="M 36 32 h -1 v 2 h 2 v -2 Z" /></g><g class="gotchi-shadow"><path opacity="0.25" fill="#000" d="M 25 58 H 19 v 1 h 1 v 1 h 24 V 59 h 1 V 58 h -1 Z" /></g>,<g class="gotchi-collateral"><path fill="#0000b9" d="M 34 13 v -1 h -4 v 1 h -1 v 1 h -1 v 1 h -1 v 4 h 1 v 1 h 1 v 1 h 1 v 1 h 4 v -1 h 1 v -1 h 1 v -1 h 1 v -4 h -1 v -1 h -1 v -1 h -1 Z m -2 1 h 1 v 1 h 1 v 1 h 1 v 2 h -1 v 1 h -1 v 1 h -2 v -1 h -1 v -1 h -1 v -2 h 1 v -1 h 1 v -1 h 1 Z" /></g><g class="gotchi-eyeColor"><path class="gotchi-primary" d="M 27 23 H 26 H 25 H 24 H 23 H 22 H 21 V 24 V 25 V 26 H 22 H 23 H 24 H 25 H 26 H 27 H 28 H 29 V 25 V 24 V 23 H 28 H 27 Z M 23 25 H 22 V 24 H 23 H 24 V 25 H 23 Z M 28 25 H 27 H 26 V 24 H 27 H 28 V 25 Z" /><rect x="24" y="24" width="2" height="1" /><path class="gotchi-primary" d="M 42 23 H 41 H 40 H 39 H 38 H 37 H 36 H 35 V 24 V 25 V 26 H 36 H 37 H 38 H 39 H 40 H 41 H 42 H 43 V 25 V 24 V 23 H 42 Z M 37 25 H 36 V 24 H 37 H 38 V 25 H 37 Z M 42 25 H 41 H 40 V 24 H 41 H 42 V 25 Z" /><rect x="38" y="24" width="2" height="1" /></g><g class="gotchi-handsDownClosed"><g class="gotchi-primary"><path d="M 19 42 h 1 v 1 h -1 Z m 1 -6 h 1 v 1 h -1 Z" /><path d="M 21 37 h 1 v 1 h -1 Z m 5 3 v 4 h 1 v -4 Z m -5 3 h -1 v 1 h 2 v -1 Z" /><path d="M 24 44 h -2 v 1 h 4 v -1 h -1 Z m 1 -5 h -1 v 1 h 2 v -1 Z" /><path d="M 23 38 h -1 v 1 h 2 v -1 Z" /></g><g class="gotchi-secondary"><path d="M 19 43 h 1 v 1 h -1 Z m 5 2 h -2 v 1 h 4 v -1 h -1 Z" /><path d="M 27 41 v 3 h 1 v -3 Z m -6 3 h -1 v 1 h 2 v -1 Z" /><path d="M 26 44 h 1 v 1 h -1 Z m -7 -3 h -1 v 2 h 1 v -1 Z" /></g><g class="gotchi-primary"><path d="M 44 42 h 1 v 1 h -1 Z m -1 -6 h 1 v 1 h -1 Z" /><path d="M 42 37 h 1 v 1 h -1 Z" /><path d="M 42 39 v -1 h -2 v 1 h 1 Z m 0 4 v 1 h 2 v -1 h -1 Z" /><path d="M 40 44 h -2 v 1 h 4 v -1 h -1 Z" /><path d="M 38 42 v -2 h -1 v 4 h 1 v -1 Z" /><path d="M 40 40 v -1 h -2 v 1 h 1 Z" /></g><g class="gotchi-secondary"><path d="M 42 44 v 1 h 2 v -1 h -1 Z m -5 -2 v -1 h -1 v 3 h 1 v -1 Z" /><path d="M 40 45 h -2 v 1 h 4 v -1 h -1 Z" /><path d="M 37 44 h 1 v 1 h -1 Z m 7 -1 h 1 v 1 h -1 Z" /></g></g><g class="gotchi-handsDownOpen"><g class="gotchi-primary"><path d="M 56 38 v -1 h -2 v -1 h -2 v -1 h -1 v -1 h -1 v -1 h -1 v 8 h 1 v 1 h 2 v 1 h 4 v -1 h 1 v -4 Z" /></g><g class="gotchi-secondary"><path d="M 54 38 v -1 h -2 v -1 h -1 v -1 h -1 v -1 h -1 v 6 h 1 v 1 h 2 v 1 h 4 v -4 Z" /></g><path fill="#fff" d="M 54 38 v -1 h -2 v -1 h -1 v -1 h -1 v -1 h -1 v 5 h 1 v 1 h 2 v 1 h 4 v -3 H 54 Z" /><g class="gotchi-primary"><path d="M 8 38 v -1 h 2 v -1 h 2 v -1 h 1 v -1 h 1 v -1 h 1 v 8 h -1 v 1 h -2 v 1 H 8 v -1 H 7 v -4 Z" /></g><g class="gotchi-secondary"><path d="M 10 38 v -1 h 2 v -1 h 1 v -1 h 1 v -1 h 1 v 6 h -1 v 1 h -2 v 1 H 8 v -4 Z" /></g><path fill="#fff" d="M 8 38 v 3 h 4 v -1 h 2 v -1 h 1 v -5 h -1 v 1 h -1 v 1 h -1 v 1 h -2 v 1 H 8 Z" /></g><g class="gotchi-handsUp"><g class="gotchi-secondary"><path d="M 50 38 h 1 v 1 h -1 V 38 Z" /><path d="M 49 39 h 1 v 1 h -1 v -1 Z m 2 -2 h 1 v 1 h -1 v -1 Z" /><path d="M 52 36 h 2 v 1 h -2 V 36 Z" /><path d="M 54 35 h 2 v 1 h -2 V 35 Z" /></g><path fill="#fff" d="M 52 32 v 1 h -2 v 1 h -1 v 5 h 1 v -1 h 1 v -1 h 1 v -1 h 2 v -1 h 2 v -3 H 52 Z" /><g class="gotchi-primary"><path d="M 49 33 h 1 v 1 h -1 V 33 Z" /><path d="M 50 32 h 2 v 1 h -2 v -1 Z m 0 7 h 1 v 1 h -1 v -1 Z" /><path d="M 49 40 h 1 v 1 h -1 v -1 Z m 2 -2 h 1 v 1 h -1 v -1 Z" /><path d="M 52 37 h 2 v 1 h -2 v -1 Z m 0 -6 h 4 v 1 h -4 v -1 Z" /><path d="M 56 32 h 1 v 4 h -1 V 32 Z" /><path d="M 54 36 h 2 v 1 h -2 V 36 Z" /></g><g class="gotchi-secondary"><path d="M 13 38 h 1 v 1 h -1 V 38 Z" /><path d="M 14 39 h 1 v 1 h -1 v -1 Z m -2 -2 h 1 v 1 h -1 v -1 Z" /><path d="M 10 36 h 2 v 1 h -2 V 36 Z" /><path d="M 8 35 h 2 v 1 H 8 V 35 Z" /></g><path fill="#fff" d="M 8 32 v 3 h 2 v 1 h 2 v 1 h 1 v 1 h 1 v 1 h 1 v -5 h -1 v -1 h -2 v -1 H 8 Z" /><g class="gotchi-primary"><path d="M 14 33 h 1 v 1 h -1 V 33 Z" /><path d="M 12 32 h 2 v 1 h -2 v -1 Z m 1 7 h 1 v 1 h -1 v -1 Z" /><path d="M 14 40 h 1 v 1 h -1 v -1 Z m -2 -2 h 1 v 1 h -1 v -1 Z" /><path d="M 10 37 h 2 v 1 h -2 v -1 Z m -2 -6 h 4 v 1 H 8 v -1 Z" /><path d="M 7 32 h 1 v 4 H 7 V 32 Z" /><path d="M 8 36 h 2 v 1 H 8 V 36 Z" /></g></g><g class="gotchi-wearable wearable-head"><svg x="13" y="4"><path fill="#ffbe00" d="M 36 16 V 8 h -2 V 6 h -2 V 4 h -4 V 2 h -4 V 0 H 14 v 2 h -4 v 2 H 6 v 2 H 4 v 2 H 2 v 8 H 0 v 2 h 38 v -2 Z" /><path fill="#ffdb72" d="M 34 9 V 8 h -1 v 8 h 2 V 9 h -1 Z M 4 9 H 3 v 7 h 2 V 8 H 4 v 1 Z m 17 7 h 2 V 1 h -2 v 15 Z m -6 0 h 2 V 1 h -2 v 15 Z M 10 5 H 9 v 11 h 2 V 4 h -1 v 1 Z m 18 -1 h -1 v 12 h 2 V 5 h -1 V 4 Z" /><path fill="#ffebb1" d="M 31 6 V 5 h -1 v 11 h 2 V 6 h -1 Z M 7 6 H 6 v 10 h 2 V 5 H 7 v 1 Z m 11 10 h 2 V 1 h -2 v 15 Z M 14 3 h -2 v 13 h 2 V 3 Z m 10 0 v 13 h 2 V 3 h -2 Z" /><path fill="#3c3c3c" d="M 24 6 V 5 h -1 V 4 h -1 V 3 h -6 v 1 h -1 v 1 h -1 v 1 h -1 v 6 h 1 v 1 h 1 v 1 h 1 v 1 h 6 v -1 h 1 v -1 h 1 v -1 h 1 V 6 Z" /><path fill="#646464" d="M 23 6 V 5 h -1 V 4 h -6 v 1 h -1 v 1 h -1 v 6 h 1 v 1 h 1 v 1 h 6 v -1 h 1 v -1 h 1 V 6 Z" /><path fill="#c8c8c8" d="M 22 7 V 6 h -1 V 5 h -4 v 1 h -1 v 1 h -1 v 4 h 1 v 1 h 1 v 1 h 4 v -1 h 1 v -1 h 1 V 7 Z" /><path fill="#eaeaea" d="M 21 7 V 6 h -4 v 1 h -1 v 4 h 1 v 1 h 4 v -1 h 1 V 7 Z" /><path fill="#fff" d="M 17 7 v 4 h 4 V 7 H 17 Z" /></svg></g><g class="gotchi-wearable wearable-hand wearable-hand-left"><svg x="5" y="31"><path d="M 7 3 V 2 H 6 V 1 H 5 V 0 H 1 v 1 h 1 v 1 h 3 v 1 h 1 v 1 h 1 v 3 h 1 V 3 H 7 Z" /><path fill="#757575" d="M 3 1 h 1 v 1 H 3 V 1 Z" /><path fill="#33691e" d="M 5 5 V 3 H 4 V 2 H 2 v 1 H 1 v 2 H 0 v 3 h 1 v 2 h 1 v 1 h 2 v -1 h 1 V 8 h 1 V 5 Z" /><path fill="#689f38" d="M 4 5 V 3 H 2 v 2 H 1 v 3 h 1 v 2 h 2 V 8 h 1 V 5 Z" /><path fill="#558b2f" d="M 5 6 V 5 H 4 V 3 H 3 v 2 H 1 v 1 h 2 v 1 H 1 v 1 h 2 v 1 h 1 V 8 h 1 V 7 H 4 V 6 H 5 Z" /></svg></g></svg>